<?xml version="1.0" encoding="UTF-8"?>
<svg width="1386px" height="3000px" viewBox="0 0 1386 3000" version="1.1" xmlns="http://www.w3.org/2000/svg" xmlns:xlink="http://www.w3.org/1999/xlink">
    <title>9 - Cat + Accordion - Cat + Accordion</title>
    <g id="9---Cat-+-Accordion---Cat-+-Accordion" stroke="none" stroke-width="1" fill="none" fill-rule="evenodd">
        <g id="Bottom" transform="translate(221.000000, 2063.000000)">
            <g id="Front-Piece" transform="translate(322.217081, 322.217081) rotate(-45.000000) translate(-322.217081, -322.217081) translate(84.717081, 104.033315)">
                <g id="Point" transform="translate(334.000000, 199.000000) rotate(-180.000000) translate(-334.000000, -199.000000) translate(193.000000, 0.000000)">
                    <g id="Skydiver">
                        <path d="M235,11.5 C236.756509,11.5 238.388771,12.0324107 239.743538,12.9454828 C241.158881,13.899381 242.272108,15.2675858 242.908235,16.8766584 L242.908235,16.8766584 L278.25554,84.6857921 C279.682737,87.1270995 280.5,89.9681507 280.5,93 C280.5,96.096103 279.647695,98.9932279 278.163982,101.468882 C276.619543,104.045862 274.391991,106.166573 271.731513,107.580534 L271.731513,107.580534 L198.327476,153.460659 C196.805471,154.333141 195.177492,155.045128 193.463572,155.558211 C193.126454,155.659131 192.787885,155.751795 192.448254,155.837206 C192.427637,156.237378 192.410124,156.601139 192.395302,156.927055 C191.946416,166.797307 190.803964,211.458531 204.062108,252.269762 L204.062108,252.269762 L256.473052,364.647235 C257.774154,367.496079 258.5,370.66329 258.5,374 C258.5,380.213203 255.981602,385.838203 251.909903,389.909903 C247.838203,393.981602 242.213203,396.5 236,396.5 C231.586892,396.5 227.470336,395.229899 223.996606,393.034402 C220.395983,390.758705 217.485461,387.489866 215.650471,383.612522 L215.650471,383.612522 L156.316185,274.70816 C155.641012,273.593434 155.045692,272.424946 154.538193,271.210615 C154.177661,270.535286 153.886935,269.948725 153.581737,269.334054 C152.340523,266.834238 150.855677,263.945092 148.388678,261.969178 C146.554013,260.499723 144.194286,259.5 141,259.5 C138.191277,259.5 135.762224,260.652887 133.757428,262.297003 C130.898469,264.641612 128.937461,267.984047 127.975232,269.910791 C127.315994,271.694788 126.56844,273.247625 125.683815,274.70816 L125.683815,274.70816 L66.3495294,383.612522 C64.5145392,387.489866 61.6040175,390.758705 58.0033943,393.034402 C54.5296642,395.229899 50.4131078,396.5 46,396.5 C39.7867966,396.5 34.1617966,393.981602 30.0900974,389.909903 C26.0183983,385.838203 23.5,380.213203 23.5,374 C23.5,370.661647 24.2265628,367.492955 25.5267035,364.6534 L25.5267035,364.6534 L77.7516386,252.664235 C88.578922,219.369466 89.4404209,167.643485 89.4975777,156.966024 C89.4994111,156.623531 89.5008691,156.238797 89.50146,155.816017 C89.1433135,155.727326 88.786525,155.62939 88.4314432,155.522104 C86.7572966,155.016273 85.1666395,154.316375 83.683847,153.451766 L83.683847,153.451766 L10.268386,107.58048 C7.6079524,106.166519 5.38043782,104.04583 3.83601824,101.468882 C2.35230544,98.9932279 1.5,96.096103 1.5,93 C1.5,89.9681507 2.31726343,87.1270995 3.74446048,84.6857921 L3.74446048,84.6857921 L39.0917651,16.8766584 C39.727892,15.2675858 40.8411191,13.899381 42.2564619,12.9454828 C43.6112292,12.0324107 45.2434906,11.5 47,11.5 C49.3472102,11.5 51.4722102,12.4513949 53.0104076,13.9895924 C54.5486051,15.5277898 55.5,17.6527898 55.5,20 C55.5,20.9612036 55.340845,21.8852304 55.0467839,22.7469132 L55.0467839,22.7469132 L37.6567855,83.8025689 L101.384221,112.378309 C107.37723,111.885153 110.857469,110.171667 112.898157,108.225276 C114.351188,106.839387 115.117167,105.306272 115.496993,103.878368 C115.828053,102.633793 115.859653,101.468105 115.789451,100.546987 L115.789451,100.546987 L166.211825,100.50161 C166.134943,101.428616 166.158227,102.605634 166.483122,103.863366 C166.855506,105.304941 167.616367,106.85315 169.071075,108.248448 C171.109744,110.203857 174.595898,111.91763 180.617681,112.377315 L180.617681,112.377315 L244.342195,83.8025721 L226.95322,22.7469237 C226.659156,21.885238 226.5,20.9612075 226.5,20 C226.5,17.6527898 227.451395,15.5277898 228.989592,13.9895924 C230.52779,12.4513949 232.65279,11.5 235,11.5 L235,11.5 Z" id="Body" stroke="#000000" stroke-width="3" fill="#E02020"></path>
                        <ellipse id="Left-Foot" fill="#000000" transform="translate(54.005375, 358.997435) rotate(25.000000) translate(-54.005375, -358.997435) " cx="54.0053746" cy="358.997435" rx="12.6191219" ry="25.007358"></ellipse>
                        <ellipse id="Right-Foot" fill="#000000" transform="translate(228.005375, 358.997435) scale(-1, 1) rotate(25.000000) translate(-228.005375, -358.997435) " cx="228.005375" cy="358.997435" rx="12.6191219" ry="25.007358"></ellipse>
                        <circle id="Left-Hand" fill="#000000" cx="47" cy="20" r="20"></circle>
                        <circle id="Right-Hand" fill="#000000" transform="translate(235.000000, 20.000000) scale(-1, 1) translate(-235.000000, -20.000000) " cx="235" cy="20" r="20"></circle>
                        <circle id="Head" fill="#000000" cx="141" cy="79" r="36"></circle>
                    </g>
                    <g id="Rig" transform="translate(70.000000, 109.000000)" fill="#000000">
                        <polygon id="Left-Leg-Strap" points="8.99804688 141.425781 52.8134766 171.421875 43.7158203 188.182617 0.639648438 159.78418"></polygon>
                        <polygon id="Left-Leg-Harness" points="30.8144531 132.661133 11.3427734 132.661133 12.638052 122.413937 28.1416016 115.120117"></polygon>
                        <polygon id="Right-Leg-Strap" transform="translate(115.086914, 164.378418) scale(-1, 1) translate(-115.086914, -164.378418) " points="97.3583984 141 141.173828 170.996094 132.076172 187.756836 89 159.358398"></polygon>
                        <polygon id="Right-Leg-Harness" transform="translate(120.735840, 123.770508) scale(-1, 1) translate(-120.735840, -123.770508) " points="130.47168 132.541016 111 132.541016 112.295279 122.29382 127.798828 115"></polygon>
                        <path d="M110,4 L100,0 L94,9 C94,9 82.5,14 71,14 C59.5,14 48,9 48,9 L42,0 L32,4 L34,17 C34,17 26,74 26,124 C26,131 32,136 36,136 C40,136 42,136 44,141 C46,146 96,146 98,141 C100,136 102,136 106,136 C110,136 116,131 116,124 C116,74 108,17 108,17 L110,4 Z"></path>
                    </g>
                </g>
                <g id="Outside-Center" transform="translate(141.000000, 237.367532) rotate(-360.000000) translate(-141.000000, -237.367532) translate(-0.000000, 38.367532)">
                    <g id="Skydiver">
                        <path d="M235,11.5 C236.756509,11.5 238.388771,12.0324107 239.743538,12.9454828 C241.158881,13.899381 242.272108,15.2675858 242.908235,16.8766584 L242.908235,16.8766584 L278.25554,84.6857921 C279.682737,87.1270995 280.5,89.9681507 280.5,93 C280.5,96.096103 279.647695,98.9932279 278.163982,101.468882 C276.619543,104.045862 274.391991,106.166573 271.731513,107.580534 L271.731513,107.580534 L198.327476,153.460659 C196.805471,154.333141 195.177492,155.045128 193.463572,155.558211 C193.126454,155.659131 192.787885,155.751795 192.448254,155.837206 C192.427637,156.237378 192.410124,156.601139 192.395302,156.927055 C191.946416,166.797307 190.803964,211.458531 204.062108,252.269762 L204.062108,252.269762 L256.473052,364.647235 C257.774154,367.496079 258.5,370.66329 258.5,374 C258.5,380.213203 255.981602,385.838203 251.909903,389.909903 C247.838203,393.981602 242.213203,396.5 236,396.5 C231.586892,396.5 227.470336,395.229899 223.996606,393.034402 C220.395983,390.758705 217.485461,387.489866 215.650471,383.612522 L215.650471,383.612522 L156.316185,274.70816 C155.641012,273.593434 155.045692,272.424946 154.538193,271.210615 C154.177661,270.535286 153.886935,269.948725 153.581737,269.334054 C152.340523,266.834238 150.855677,263.945092 148.388678,261.969178 C146.554013,260.499723 144.194286,259.5 141,259.5 C138.191277,259.5 135.762224,260.652887 133.757428,262.297003 C130.898469,264.641612 128.937461,267.984047 127.975232,269.910791 C127.315994,271.694788 126.56844,273.247625 125.683815,274.70816 L125.683815,274.70816 L66.3495294,383.612522 C64.5145392,387.489866 61.6040175,390.758705 58.0033943,393.034402 C54.5296642,395.229899 50.4131078,396.5 46,396.5 C39.7867966,396.5 34.1617966,393.981602 30.0900974,389.909903 C26.0183983,385.838203 23.5,380.213203 23.5,374 C23.5,370.661647 24.2265628,367.492955 25.5267035,364.6534 L25.5267035,364.6534 L77.7516386,252.664235 C88.578922,219.369466 89.4404209,167.643485 89.4975777,156.966024 C89.4994111,156.623531 89.5008691,156.238797 89.50146,155.816017 C89.1433135,155.727326 88.786525,155.62939 88.4314432,155.522104 C86.7572966,155.016273 85.1666395,154.316375 83.683847,153.451766 L83.683847,153.451766 L10.268386,107.58048 C7.6079524,106.166519 5.38043782,104.04583 3.83601824,101.468882 C2.35230544,98.9932279 1.5,96.096103 1.5,93 C1.5,89.9681507 2.31726343,87.1270995 3.74446048,84.6857921 L3.74446048,84.6857921 L39.0917651,16.8766584 C39.727892,15.2675858 40.8411191,13.899381 42.2564619,12.9454828 C43.6112292,12.0324107 45.2434906,11.5 47,11.5 C49.3472102,11.5 51.4722102,12.4513949 53.0104076,13.9895924 C54.5486051,15.5277898 55.5,17.6527898 55.5,20 C55.5,20.9612036 55.340845,21.8852304 55.0467839,22.7469132 L55.0467839,22.7469132 L37.6567855,83.8025689 L101.384221,112.378309 C107.37723,111.885153 110.857469,110.171667 112.898157,108.225276 C114.351188,106.839387 115.117167,105.306272 115.496993,103.878368 C115.828053,102.633793 115.859653,101.468105 115.789451,100.546987 L115.789451,100.546987 L166.211825,100.50161 C166.134943,101.428616 166.158227,102.605634 166.483122,103.863366 C166.855506,105.304941 167.616367,106.85315 169.071075,108.248448 C171.109744,110.203857 174.595898,111.91763 180.617681,112.377315 L180.617681,112.377315 L244.342195,83.8025721 L226.95322,22.7469237 C226.659156,21.885238 226.5,20.9612075 226.5,20 C226.5,17.6527898 227.451395,15.5277898 228.989592,13.9895924 C230.52779,12.4513949 232.65279,11.5 235,11.5 L235,11.5 Z" id="Body" stroke="#000000" stroke-width="3" fill="#6DD400"></path>
                        <ellipse id="Left-Foot" fill="#000000" transform="translate(54.005375, 358.997435) rotate(25.000000) translate(-54.005375, -358.997435) " cx="54.0053746" cy="358.997435" rx="12.6191219" ry="25.007358"></ellipse>
                        <ellipse id="Right-Foot" fill="#000000" transform="translate(228.005375, 358.997435) scale(-1, 1) rotate(25.000000) translate(-228.005375, -358.997435) " cx="228.005375" cy="358.997435" rx="12.6191219" ry="25.007358"></ellipse>
                        <circle id="Left-Hand" fill="#000000" cx="47" cy="20" r="20"></circle>
                        <circle id="Right-Hand" fill="#000000" transform="translate(235.000000, 20.000000) scale(-1, 1) translate(-235.000000, -20.000000) " cx="235" cy="20" r="20"></circle>
                        <circle id="Head" fill="#000000" cx="141" cy="79" r="36"></circle>
                    </g>
                    <g id="Rig" transform="translate(70.000000, 109.000000)" fill="#000000">
                        <polygon id="Left-Leg-Strap" points="8.99804688 141.425781 52.8134766 171.421875 43.7158203 188.182617 0.639648438 159.78418"></polygon>
                        <polygon id="Left-Leg-Harness" points="30.8144531 132.661133 11.3427734 132.661133 12.638052 122.413937 28.1416016 115.120117"></polygon>
                        <polygon id="Right-Leg-Strap" transform="translate(115.086914, 164.378418) scale(-1, 1) translate(-115.086914, -164.378418) " points="97.3583984 141 141.173828 170.996094 132.076172 187.756836 89 159.358398"></polygon>
                        <polygon id="Right-Leg-Harness" transform="translate(120.735840, 123.770508) scale(-1, 1) translate(-120.735840, -123.770508) " points="130.47168 132.541016 111 132.541016 112.295279 122.29382 127.798828 115"></polygon>
                        <path d="M110,4 L100,0 L94,9 C94,9 82.5,14 71,14 C59.5,14 48,9 48,9 L42,0 L32,4 L34,17 C34,17 26,74 26,124 C26,131 32,136 36,136 C40,136 42,136 44,141 C46,146 96,146 98,141 C100,136 102,136 106,136 C110,136 116,131 116,124 C116,74 108,17 108,17 L110,4 Z"></path>
                    </g>
                </g>
            </g>
            <g id="Back-Piece" transform="translate(579.714862, 572.421969) rotate(-45.000000) translate(-579.714862, -572.421969) translate(204.714862, 431.421969)">
                <g id="Tail" transform="translate(199.000000, 141.000000) rotate(-90.000000) translate(-199.000000, -141.000000) translate(58.000000, -58.000000)">
                    <g id="Skydiver">
                        <path d="M235,11.5 C236.756509,11.5 238.388771,12.0324107 239.743538,12.9454828 C241.158881,13.899381 242.272108,15.2675858 242.908235,16.8766584 L242.908235,16.8766584 L278.25554,84.6857921 C279.682737,87.1270995 280.5,89.9681507 280.5,93 C280.5,96.096103 279.647695,98.9932279 278.163982,101.468882 C276.619543,104.045862 274.391991,106.166573 271.731513,107.580534 L271.731513,107.580534 L198.327476,153.460659 C196.805471,154.333141 195.177492,155.045128 193.463572,155.558211 C193.126454,155.659131 192.787885,155.751795 192.448254,155.837206 C192.427637,156.237378 192.410124,156.601139 192.395302,156.927055 C191.946416,166.797307 190.803964,211.458531 204.062108,252.269762 L204.062108,252.269762 L256.473052,364.647235 C257.774154,367.496079 258.5,370.66329 258.5,374 C258.5,380.213203 255.981602,385.838203 251.909903,389.909903 C247.838203,393.981602 242.213203,396.5 236,396.5 C231.586892,396.5 227.470336,395.229899 223.996606,393.034402 C220.395983,390.758705 217.485461,387.489866 215.650471,383.612522 L215.650471,383.612522 L156.316185,274.70816 C155.641012,273.593434 155.045692,272.424946 154.538193,271.210615 C154.177661,270.535286 153.886935,269.948725 153.581737,269.334054 C152.340523,266.834238 150.855677,263.945092 148.388678,261.969178 C146.554013,260.499723 144.194286,259.5 141,259.5 C138.191277,259.5 135.762224,260.652887 133.757428,262.297003 C130.898469,264.641612 128.937461,267.984047 127.975232,269.910791 C127.315994,271.694788 126.56844,273.247625 125.683815,274.70816 L125.683815,274.70816 L66.3495294,383.612522 C64.5145392,387.489866 61.6040175,390.758705 58.0033943,393.034402 C54.5296642,395.229899 50.4131078,396.5 46,396.5 C39.7867966,396.5 34.1617966,393.981602 30.0900974,389.909903 C26.0183983,385.838203 23.5,380.213203 23.5,374 C23.5,370.661647 24.2265628,367.492955 25.5267035,364.6534 L25.5267035,364.6534 L77.7516386,252.664235 C88.578922,219.369466 89.4404209,167.643485 89.4975777,156.966024 C89.4994111,156.623531 89.5008691,156.238797 89.50146,155.816017 C89.1433135,155.727326 88.786525,155.62939 88.4314432,155.522104 C86.7572966,155.016273 85.1666395,154.316375 83.683847,153.451766 L83.683847,153.451766 L10.268386,107.58048 C7.6079524,106.166519 5.38043782,104.04583 3.83601824,101.468882 C2.35230544,98.9932279 1.5,96.096103 1.5,93 C1.5,89.9681507 2.31726343,87.1270995 3.74446048,84.6857921 L3.74446048,84.6857921 L39.0917651,16.8766584 C39.727892,15.2675858 40.8411191,13.899381 42.2564619,12.9454828 C43.6112292,12.0324107 45.2434906,11.5 47,11.5 C49.3472102,11.5 51.4722102,12.4513949 53.0104076,13.9895924 C54.5486051,15.5277898 55.5,17.6527898 55.5,20 C55.5,20.9612036 55.340845,21.8852304 55.0467839,22.7469132 L55.0467839,22.7469132 L37.6567855,83.8025689 L101.384221,112.378309 C107.37723,111.885153 110.857469,110.171667 112.898157,108.225276 C114.351188,106.839387 115.117167,105.306272 115.496993,103.878368 C115.828053,102.633793 115.859653,101.468105 115.789451,100.546987 L115.789451,100.546987 L166.211825,100.50161 C166.134943,101.428616 166.158227,102.605634 166.483122,103.863366 C166.855506,105.304941 167.616367,106.85315 169.071075,108.248448 C171.109744,110.203857 174.595898,111.91763 180.617681,112.377315 L180.617681,112.377315 L244.342195,83.8025721 L226.95322,22.7469237 C226.659156,21.885238 226.5,20.9612075 226.5,20 C226.5,17.6527898 227.451395,15.5277898 228.989592,13.9895924 C230.52779,12.4513949 232.65279,11.5 235,11.5 L235,11.5 Z" id="Body" stroke="#000000" stroke-width="3" fill="#F7E400"></path>
                        <ellipse id="Left-Foot" fill="#000000" transform="translate(54.005375, 358.997435) rotate(25.000000) translate(-54.005375, -358.997435) " cx="54.0053746" cy="358.997435" rx="12.6191219" ry="25.007358"></ellipse>
                        <ellipse id="Right-Foot" fill="#000000" transform="translate(228.005375, 358.997435) scale(-1, 1) rotate(25.000000) translate(-228.005375, -358.997435) " cx="228.005375" cy="358.997435" rx="12.6191219" ry="25.007358"></ellipse>
                        <circle id="Left-Hand" fill="#000000" cx="47" cy="20" r="20"></circle>
                        <circle id="Right-Hand" fill="#000000" transform="translate(235.000000, 20.000000) scale(-1, 1) translate(-235.000000, -20.000000) " cx="235" cy="20" r="20"></circle>
                        <circle id="Head" fill="#000000" cx="141" cy="79" r="36"></circle>
                    </g>
                    <g id="Rig" transform="translate(70.639648, 109.000000)" fill="#000000">
                        <polygon id="Left-Leg-Strap" points="8.35839844 141.425781 52.1738281 171.421875 43.0761719 188.182617 4.54747351e-13 159.78418"></polygon>
                        <polygon id="Left-Leg-Harness" points="30.1748047 132.661133 10.703125 132.661133 11.9984036 122.413937 27.5019531 115.120117"></polygon>
                        <polygon id="Right-Leg-Strap" transform="translate(114.447266, 164.378418) scale(-1, 1) translate(-114.447266, -164.378418) " points="96.71875 141 140.53418 170.996094 131.436523 187.756836 88.3603516 159.358398"></polygon>
                        <polygon id="Right-Leg-Harness" transform="translate(120.096191, 123.770508) scale(-1, 1) translate(-120.096191, -123.770508) " points="129.832031 132.541016 110.360352 132.541016 111.65563 122.29382 127.15918 115"></polygon>
                        <path d="M109.360352,4 L99.3603516,0 L93.3603516,9 C93.3603516,9 81.8603516,14 70.3603516,14 C58.8603516,14 47.3603516,9 47.3603516,9 L41.3603516,0 L31.3603516,4 L33.3603516,17 C33.3603516,17 25.3603516,74 25.3603516,124 C25.3603516,131 31.3603516,136 35.3603516,136 C39.3603516,136 41.3603516,136 43.3603516,141 C45.3603516,146 95.3603516,146 97.3603516,141 C99.3603516,136 101.360352,136 105.360352,136 C109.360352,136 115.360352,131 115.360352,124 C115.360352,74 107.360352,17 107.360352,17 L109.360352,4 Z"></path>
                    </g>
                </g>
                <g id="Inside-Center" transform="translate(551.000000, 141.000000) rotate(-90.000000) translate(-551.000000, -141.000000) translate(410.000000, -58.000000)">
                    <g id="Skydiver">
                        <path d="M235,11.5 C236.756509,11.5 238.388771,12.0324107 239.743538,12.9454828 C241.158881,13.899381 242.272108,15.2675858 242.908235,16.8766584 L242.908235,16.8766584 L278.25554,84.6857921 C279.682737,87.1270995 280.5,89.9681507 280.5,93 C280.5,96.096103 279.647695,98.9932279 278.163982,101.468882 C276.619543,104.045862 274.391991,106.166573 271.731513,107.580534 L271.731513,107.580534 L198.327476,153.460659 C196.805471,154.333141 195.177492,155.045128 193.463572,155.558211 C193.126454,155.659131 192.787885,155.751795 192.448254,155.837206 C192.427637,156.237378 192.410124,156.601139 192.395302,156.927055 C191.946416,166.797307 190.803964,211.458531 204.062108,252.269762 L204.062108,252.269762 L256.473052,364.647235 C257.774154,367.496079 258.5,370.66329 258.5,374 C258.5,380.213203 255.981602,385.838203 251.909903,389.909903 C247.838203,393.981602 242.213203,396.5 236,396.5 C231.586892,396.5 227.470336,395.229899 223.996606,393.034402 C220.395983,390.758705 217.485461,387.489866 215.650471,383.612522 L215.650471,383.612522 L156.316185,274.70816 C155.641012,273.593434 155.045692,272.424946 154.538193,271.210615 C154.177661,270.535286 153.886935,269.948725 153.581737,269.334054 C152.340523,266.834238 150.855677,263.945092 148.388678,261.969178 C146.554013,260.499723 144.194286,259.5 141,259.5 C138.191277,259.5 135.762224,260.652887 133.757428,262.297003 C130.898469,264.641612 128.937461,267.984047 127.975232,269.910791 C127.315994,271.694788 126.56844,273.247625 125.683815,274.70816 L125.683815,274.70816 L66.3495294,383.612522 C64.5145392,387.489866 61.6040175,390.758705 58.0033943,393.034402 C54.5296642,395.229899 50.4131078,396.5 46,396.5 C39.7867966,396.5 34.1617966,393.981602 30.0900974,389.909903 C26.0183983,385.838203 23.5,380.213203 23.5,374 C23.5,370.661647 24.2265628,367.492955 25.5267035,364.6534 L25.5267035,364.6534 L77.7516386,252.664235 C88.578922,219.369466 89.4404209,167.643485 89.4975777,156.966024 C89.4994111,156.623531 89.5008691,156.238797 89.50146,155.816017 C89.1433135,155.727326 88.786525,155.62939 88.4314432,155.522104 C86.7572966,155.016273 85.1666395,154.316375 83.683847,153.451766 L83.683847,153.451766 L10.268386,107.58048 C7.6079524,106.166519 5.38043782,104.04583 3.83601824,101.468882 C2.35230544,98.9932279 1.5,96.096103 1.5,93 C1.5,89.9681507 2.31726343,87.1270995 3.74446048,84.6857921 L3.74446048,84.6857921 L39.0917651,16.8766584 C39.727892,15.2675858 40.8411191,13.899381 42.2564619,12.9454828 C43.6112292,12.0324107 45.2434906,11.5 47,11.5 C49.3472102,11.5 51.4722102,12.4513949 53.0104076,13.9895924 C54.5486051,15.5277898 55.5,17.6527898 55.5,20 C55.5,20.9612036 55.340845,21.8852304 55.0467839,22.7469132 L55.0467839,22.7469132 L37.6567855,83.8025689 L101.384221,112.378309 C107.37723,111.885153 110.857469,110.171667 112.898157,108.225276 C114.351188,106.839387 115.117167,105.306272 115.496993,103.878368 C115.828053,102.633793 115.859653,101.468105 115.789451,100.546987 L115.789451,100.546987 L166.211825,100.50161 C166.134943,101.428616 166.158227,102.605634 166.483122,103.863366 C166.855506,105.304941 167.616367,106.85315 169.071075,108.248448 C171.109744,110.203857 174.595898,111.91763 180.617681,112.377315 L180.617681,112.377315 L244.342195,83.8025721 L226.95322,22.7469237 C226.659156,21.885238 226.5,20.9612075 226.5,20 C226.5,17.6527898 227.451395,15.5277898 228.989592,13.9895924 C230.52779,12.4513949 232.65279,11.5 235,11.5 L235,11.5 Z" id="Body" stroke="#000000" stroke-width="3" fill="#0065FF"></path>
                        <ellipse id="Left-Foot" fill="#000000" transform="translate(54.005375, 358.997435) rotate(25.000000) translate(-54.005375, -358.997435) " cx="54.0053746" cy="358.997435" rx="12.6191219" ry="25.007358"></ellipse>
                        <ellipse id="Right-Foot" fill="#000000" transform="translate(228.005375, 358.997435) scale(-1, 1) rotate(25.000000) translate(-228.005375, -358.997435) " cx="228.005375" cy="358.997435" rx="12.6191219" ry="25.007358"></ellipse>
                        <circle id="Left-Hand" fill="#000000" cx="47" cy="20" r="20"></circle>
                        <circle id="Right-Hand" fill="#000000" transform="translate(235.000000, 20.000000) scale(-1, 1) translate(-235.000000, -20.000000) " cx="235" cy="20" r="20"></circle>
                        <circle id="Head" fill="#000000" cx="141" cy="79" r="36"></circle>
                    </g>
                    <g id="Rig" transform="translate(70.000000, 109.000000)" fill="#000000">
                        <polygon id="Left-Leg-Strap" points="8.99804688 141.425781 52.8134766 171.421875 43.7158203 188.182617 0.639648438 159.78418"></polygon>
                        <polygon id="Left-Leg-Harness" points="30.8144531 132.661133 11.3427734 132.661133 12.638052 122.413937 28.1416016 115.120117"></polygon>
                        <polygon id="Right-Leg-Strap" transform="translate(115.086914, 164.378418) scale(-1, 1) translate(-115.086914, -164.378418) " points="97.3583984 141 141.173828 170.996094 132.076172 187.756836 89 159.358398"></polygon>
                        <polygon id="Right-Leg-Harness" transform="translate(120.735840, 123.770508) scale(-1, 1) translate(-120.735840, -123.770508) " points="130.47168 132.541016 111 132.541016 112.295279 122.29382 127.798828 115"></polygon>
                        <path d="M110,4 L100,0 L94,9 C94,9 82.5,14 71,14 C59.5,14 48,9 48,9 L42,0 L32,4 L34,17 C34,17 26,74 26,124 C26,131 32,136 36,136 C40,136 42,136 44,141 C46,146 96,146 98,141 C100,136 102,136 106,136 C110,136 116,131 116,124 C116,74 108,17 108,17 L110,4 Z"></path>
                    </g>
                </g>
            </g>
        </g>
        <g id="Inter" transform="translate(223.870058, 1030.870058)">
            <g id="Front-Piece" transform="translate(334.217081, 334.217081) rotate(-45.000000) translate(-334.217081, -334.217081) translate(2.654635, 193.125198)">
                <g id="Outside-Center" transform="translate(199.000000, 141.183766) rotate(-270.000000) translate(-199.000000, -141.183766) translate(58.000000, -57.816234)">
                    <g id="Skydiver">
                        <path d="M235,11.5 C236.756509,11.5 238.388771,12.0324107 239.743538,12.9454828 C241.158881,13.899381 242.272108,15.2675858 242.908235,16.8766584 L242.908235,16.8766584 L278.25554,84.6857921 C279.682737,87.1270995 280.5,89.9681507 280.5,93 C280.5,96.096103 279.647695,98.9932279 278.163982,101.468882 C276.619543,104.045862 274.391991,106.166573 271.731513,107.580534 L271.731513,107.580534 L198.327476,153.460659 C196.805471,154.333141 195.177492,155.045128 193.463572,155.558211 C193.126454,155.659131 192.787885,155.751795 192.448254,155.837206 C192.427637,156.237378 192.410124,156.601139 192.395302,156.927055 C191.946416,166.797307 190.803964,211.458531 204.062108,252.269762 L204.062108,252.269762 L256.473052,364.647235 C257.774154,367.496079 258.5,370.66329 258.5,374 C258.5,380.213203 255.981602,385.838203 251.909903,389.909903 C247.838203,393.981602 242.213203,396.5 236,396.5 C231.586892,396.5 227.470336,395.229899 223.996606,393.034402 C220.395983,390.758705 217.485461,387.489866 215.650471,383.612522 L215.650471,383.612522 L156.316185,274.70816 C155.641012,273.593434 155.045692,272.424946 154.538193,271.210615 C154.177661,270.535286 153.886935,269.948725 153.581737,269.334054 C152.340523,266.834238 150.855677,263.945092 148.388678,261.969178 C146.554013,260.499723 144.194286,259.5 141,259.5 C138.191277,259.5 135.762224,260.652887 133.757428,262.297003 C130.898469,264.641612 128.937461,267.984047 127.975232,269.910791 C127.315994,271.694788 126.56844,273.247625 125.683815,274.70816 L125.683815,274.70816 L66.3495294,383.612522 C64.5145392,387.489866 61.6040175,390.758705 58.0033943,393.034402 C54.5296642,395.229899 50.4131078,396.5 46,396.5 C39.7867966,396.5 34.1617966,393.981602 30.0900974,389.909903 C26.0183983,385.838203 23.5,380.213203 23.5,374 C23.5,370.661647 24.2265628,367.492955 25.5267035,364.6534 L25.5267035,364.6534 L77.7516386,252.664235 C88.578922,219.369466 89.4404209,167.643485 89.4975777,156.966024 C89.4994111,156.623531 89.5008691,156.238797 89.50146,155.816017 C89.1433135,155.727326 88.786525,155.62939 88.4314432,155.522104 C86.7572966,155.016273 85.1666395,154.316375 83.683847,153.451766 L83.683847,153.451766 L10.268386,107.58048 C7.6079524,106.166519 5.38043782,104.04583 3.83601824,101.468882 C2.35230544,98.9932279 1.5,96.096103 1.5,93 C1.5,89.9681507 2.31726343,87.1270995 3.74446048,84.6857921 L3.74446048,84.6857921 L39.0917651,16.8766584 C39.727892,15.2675858 40.8411191,13.899381 42.2564619,12.9454828 C43.6112292,12.0324107 45.2434906,11.5 47,11.5 C49.3472102,11.5 51.4722102,12.4513949 53.0104076,13.9895924 C54.5486051,15.5277898 55.5,17.6527898 55.5,20 C55.5,20.9612036 55.340845,21.8852304 55.0467839,22.7469132 L55.0467839,22.7469132 L37.6567855,83.8025689 L101.384221,112.378309 C107.37723,111.885153 110.857469,110.171667 112.898157,108.225276 C114.351188,106.839387 115.117167,105.306272 115.496993,103.878368 C115.828053,102.633793 115.859653,101.468105 115.789451,100.546987 L115.789451,100.546987 L166.211825,100.50161 C166.134943,101.428616 166.158227,102.605634 166.483122,103.863366 C166.855506,105.304941 167.616367,106.85315 169.071075,108.248448 C171.109744,110.203857 174.595898,111.91763 180.617681,112.377315 L180.617681,112.377315 L244.342195,83.8025721 L226.95322,22.7469237 C226.659156,21.885238 226.5,20.9612075 226.5,20 C226.5,17.6527898 227.451395,15.5277898 228.989592,13.9895924 C230.52779,12.4513949 232.65279,11.5 235,11.5 L235,11.5 Z" id="Body" stroke="#000000" stroke-width="3" fill="#6DD400"></path>
                        <ellipse id="Left-Foot" fill="#000000" transform="translate(54.005375, 358.997435) rotate(25.000000) translate(-54.005375, -358.997435) " cx="54.0053746" cy="358.997435" rx="12.6191219" ry="25.007358"></ellipse>
                        <ellipse id="Right-Foot" fill="#000000" transform="translate(228.005375, 358.997435) scale(-1, 1) rotate(25.000000) translate(-228.005375, -358.997435) " cx="228.005375" cy="358.997435" rx="12.6191219" ry="25.007358"></ellipse>
                        <circle id="Left-Hand" fill="#000000" cx="47" cy="20" r="20"></circle>
                        <circle id="Right-Hand" fill="#000000" transform="translate(235.000000, 20.000000) scale(-1, 1) translate(-235.000000, -20.000000) " cx="235" cy="20" r="20"></circle>
                        <circle id="Head" fill="#000000" cx="141" cy="79" r="36"></circle>
                    </g>
                    <g id="Rig" transform="translate(70.000000, 109.000000)" fill="#000000">
                        <polygon id="Left-Leg-Strap" points="8.99804688 141.425781 52.8134766 171.421875 43.7158203 188.182617 0.639648438 159.78418"></polygon>
                        <polygon id="Left-Leg-Harness" points="30.8144531 132.661133 11.3427734 132.661133 12.638052 122.413937 28.1416016 115.120117"></polygon>
                        <polygon id="Right-Leg-Strap" transform="translate(115.086914, 164.378418) scale(-1, 1) translate(-115.086914, -164.378418) " points="97.3583984 141 141.173828 170.996094 132.076172 187.756836 89 159.358398"></polygon>
                        <polygon id="Right-Leg-Harness" transform="translate(120.735840, 123.770508) scale(-1, 1) translate(-120.735840, -123.770508) " points="130.47168 132.541016 111 132.541016 112.295279 122.29382 127.798828 115"></polygon>
                        <path d="M110,4 L100,0 L94,9 C94,9 82.5,14 71,14 C59.5,14 48,9 48,9 L42,0 L32,4 L34,17 C34,17 26,74 26,124 C26,131 32,136 36,136 C40,136 42,136 44,141 C46,146 96,146 98,141 C100,136 102,136 106,136 C110,136 116,131 116,124 C116,74 108,17 108,17 L110,4 Z"></path>
                    </g>
                </g>
                <g id="Point" transform="translate(464.124892, 141.000000) rotate(-90.000000) translate(-464.124892, -141.000000) translate(323.124892, -58.000000)">
                    <g id="Skydiver">
                        <path d="M235,11.5 C236.756509,11.5 238.388771,12.0324107 239.743538,12.9454828 C241.158881,13.899381 242.272108,15.2675858 242.908235,16.8766584 L242.908235,16.8766584 L278.25554,84.6857921 C279.682737,87.1270995 280.5,89.9681507 280.5,93 C280.5,96.096103 279.647695,98.9932279 278.163982,101.468882 C276.619543,104.045862 274.391991,106.166573 271.731513,107.580534 L271.731513,107.580534 L198.327476,153.460659 C196.805471,154.333141 195.177492,155.045128 193.463572,155.558211 C193.126454,155.659131 192.787885,155.751795 192.448254,155.837206 C192.427637,156.237378 192.410124,156.601139 192.395302,156.927055 C191.946416,166.797307 190.803964,211.458531 204.062108,252.269762 L204.062108,252.269762 L256.473052,364.647235 C257.774154,367.496079 258.5,370.66329 258.5,374 C258.5,380.213203 255.981602,385.838203 251.909903,389.909903 C247.838203,393.981602 242.213203,396.5 236,396.5 C231.586892,396.5 227.470336,395.229899 223.996606,393.034402 C220.395983,390.758705 217.485461,387.489866 215.650471,383.612522 L215.650471,383.612522 L156.316185,274.70816 C155.641012,273.593434 155.045692,272.424946 154.538193,271.210615 C154.177661,270.535286 153.886935,269.948725 153.581737,269.334054 C152.340523,266.834238 150.855677,263.945092 148.388678,261.969178 C146.554013,260.499723 144.194286,259.5 141,259.5 C138.191277,259.5 135.762224,260.652887 133.757428,262.297003 C130.898469,264.641612 128.937461,267.984047 127.975232,269.910791 C127.315994,271.694788 126.56844,273.247625 125.683815,274.70816 L125.683815,274.70816 L66.3495294,383.612522 C64.5145392,387.489866 61.6040175,390.758705 58.0033943,393.034402 C54.5296642,395.229899 50.4131078,396.5 46,396.5 C39.7867966,396.5 34.1617966,393.981602 30.0900974,389.909903 C26.0183983,385.838203 23.5,380.213203 23.5,374 C23.5,370.661647 24.2265628,367.492955 25.5267035,364.6534 L25.5267035,364.6534 L77.7516386,252.664235 C88.578922,219.369466 89.4404209,167.643485 89.4975777,156.966024 C89.4994111,156.623531 89.5008691,156.238797 89.50146,155.816017 C89.1433135,155.727326 88.786525,155.62939 88.4314432,155.522104 C86.7572966,155.016273 85.1666395,154.316375 83.683847,153.451766 L83.683847,153.451766 L10.268386,107.58048 C7.6079524,106.166519 5.38043782,104.04583 3.83601824,101.468882 C2.35230544,98.9932279 1.5,96.096103 1.5,93 C1.5,89.9681507 2.31726343,87.1270995 3.74446048,84.6857921 L3.74446048,84.6857921 L39.0917651,16.8766584 C39.727892,15.2675858 40.8411191,13.899381 42.2564619,12.9454828 C43.6112292,12.0324107 45.2434906,11.5 47,11.5 C49.3472102,11.5 51.4722102,12.4513949 53.0104076,13.9895924 C54.5486051,15.5277898 55.5,17.6527898 55.5,20 C55.5,20.9612036 55.340845,21.8852304 55.0467839,22.7469132 L55.0467839,22.7469132 L37.6567855,83.8025689 L101.384221,112.378309 C107.37723,111.885153 110.857469,110.171667 112.898157,108.225276 C114.351188,106.839387 115.117167,105.306272 115.496993,103.878368 C115.828053,102.633793 115.859653,101.468105 115.789451,100.546987 L115.789451,100.546987 L166.211825,100.50161 C166.134943,101.428616 166.158227,102.605634 166.483122,103.863366 C166.855506,105.304941 167.616367,106.85315 169.071075,108.248448 C171.109744,110.203857 174.595898,111.91763 180.617681,112.377315 L180.617681,112.377315 L244.342195,83.8025721 L226.95322,22.7469237 C226.659156,21.885238 226.5,20.9612075 226.5,20 C226.5,17.6527898 227.451395,15.5277898 228.989592,13.9895924 C230.52779,12.4513949 232.65279,11.5 235,11.5 L235,11.5 Z" id="Body" stroke="#000000" stroke-width="3" fill="#E02020"></path>
                        <ellipse id="Left-Foot" fill="#000000" transform="translate(54.005375, 358.997435) rotate(25.000000) translate(-54.005375, -358.997435) " cx="54.0053746" cy="358.997435" rx="12.6191219" ry="25.007358"></ellipse>
                        <ellipse id="Right-Foot" fill="#000000" transform="translate(228.005375, 358.997435) scale(-1, 1) rotate(25.000000) translate(-228.005375, -358.997435) " cx="228.005375" cy="358.997435" rx="12.6191219" ry="25.007358"></ellipse>
                        <circle id="Left-Hand" fill="#000000" cx="47" cy="20" r="20"></circle>
                        <circle id="Right-Hand" fill="#000000" transform="translate(235.000000, 20.000000) scale(-1, 1) translate(-235.000000, -20.000000) " cx="235" cy="20" r="20"></circle>
                        <circle id="Head" fill="#000000" cx="141" cy="79" r="36"></circle>
                    </g>
                    <g id="Rig" transform="translate(70.000000, 109.000000)" fill="#000000">
                        <polygon id="Left-Leg-Strap" points="8.99804688 141.425781 52.8134766 171.421875 43.7158203 188.182617 0.639648438 159.78418"></polygon>
                        <polygon id="Left-Leg-Harness" points="30.8144531 132.661133 11.3427734 132.661133 12.638052 122.413937 28.1416016 115.120117"></polygon>
                        <polygon id="Right-Leg-Strap" transform="translate(115.086914, 164.378418) scale(-1, 1) translate(-115.086914, -164.378418) " points="97.3583984 141 141.173828 170.996094 132.076172 187.756836 89 159.358398"></polygon>
                        <polygon id="Right-Leg-Harness" transform="translate(120.735840, 123.770508) scale(-1, 1) translate(-120.735840, -123.770508) " points="130.47168 132.541016 111 132.541016 112.295279 122.29382 127.798828 115"></polygon>
                        <path d="M110,4 L100,0 L94,9 C94,9 82.5,14 71,14 C59.5,14 48,9 48,9 L42,0 L32,4 L34,17 C34,17 26,74 26,124 C26,131 32,136 36,136 C40,136 42,136 44,141 C46,146 96,146 98,141 C100,136 102,136 106,136 C110,136 116,131 116,124 C116,74 108,17 108,17 L110,4 Z"></path>
                    </g>
                </g>
            </g>
            <g id="Back-Piece" transform="translate(574.714862, 574.421969) rotate(-45.000000) translate(-574.714862, -574.421969) translate(257.714862, 375.421969)">
                <g id="Inside-Center" transform="translate(352.000000, 0.000000)">
                    <g id="Skydiver">
                        <path d="M235,11.5 C236.756509,11.5 238.388771,12.0324107 239.743538,12.9454828 C241.158881,13.899381 242.272108,15.2675858 242.908235,16.8766584 L242.908235,16.8766584 L278.25554,84.6857921 C279.682737,87.1270995 280.5,89.9681507 280.5,93 C280.5,96.096103 279.647695,98.9932279 278.163982,101.468882 C276.619543,104.045862 274.391991,106.166573 271.731513,107.580534 L271.731513,107.580534 L198.327476,153.460659 C196.805471,154.333141 195.177492,155.045128 193.463572,155.558211 C193.126454,155.659131 192.787885,155.751795 192.448254,155.837206 C192.427637,156.237378 192.410124,156.601139 192.395302,156.927055 C191.946416,166.797307 190.803964,211.458531 204.062108,252.269762 L204.062108,252.269762 L256.473052,364.647235 C257.774154,367.496079 258.5,370.66329 258.5,374 C258.5,380.213203 255.981602,385.838203 251.909903,389.909903 C247.838203,393.981602 242.213203,396.5 236,396.5 C231.586892,396.5 227.470336,395.229899 223.996606,393.034402 C220.395983,390.758705 217.485461,387.489866 215.650471,383.612522 L215.650471,383.612522 L156.316185,274.70816 C155.641012,273.593434 155.045692,272.424946 154.538193,271.210615 C154.177661,270.535286 153.886935,269.948725 153.581737,269.334054 C152.340523,266.834238 150.855677,263.945092 148.388678,261.969178 C146.554013,260.499723 144.194286,259.5 141,259.5 C138.191277,259.5 135.762224,260.652887 133.757428,262.297003 C130.898469,264.641612 128.937461,267.984047 127.975232,269.910791 C127.315994,271.694788 126.56844,273.247625 125.683815,274.70816 L125.683815,274.70816 L66.3495294,383.612522 C64.5145392,387.489866 61.6040175,390.758705 58.0033943,393.034402 C54.5296642,395.229899 50.4131078,396.5 46,396.5 C39.7867966,396.5 34.1617966,393.981602 30.0900974,389.909903 C26.0183983,385.838203 23.5,380.213203 23.5,374 C23.5,370.661647 24.2265628,367.492955 25.5267035,364.6534 L25.5267035,364.6534 L77.7516386,252.664235 C88.578922,219.369466 89.4404209,167.643485 89.4975777,156.966024 C89.4994111,156.623531 89.5008691,156.238797 89.50146,155.816017 C89.1433135,155.727326 88.786525,155.62939 88.4314432,155.522104 C86.7572966,155.016273 85.1666395,154.316375 83.683847,153.451766 L83.683847,153.451766 L10.268386,107.58048 C7.6079524,106.166519 5.38043782,104.04583 3.83601824,101.468882 C2.35230544,98.9932279 1.5,96.096103 1.5,93 C1.5,89.9681507 2.31726343,87.1270995 3.74446048,84.6857921 L3.74446048,84.6857921 L39.0917651,16.8766584 C39.727892,15.2675858 40.8411191,13.899381 42.2564619,12.9454828 C43.6112292,12.0324107 45.2434906,11.5 47,11.5 C49.3472102,11.5 51.4722102,12.4513949 53.0104076,13.9895924 C54.5486051,15.5277898 55.5,17.6527898 55.5,20 C55.5,20.9612036 55.340845,21.8852304 55.0467839,22.7469132 L55.0467839,22.7469132 L37.6567855,83.8025689 L101.384221,112.378309 C107.37723,111.885153 110.857469,110.171667 112.898157,108.225276 C114.351188,106.839387 115.117167,105.306272 115.496993,103.878368 C115.828053,102.633793 115.859653,101.468105 115.789451,100.546987 L115.789451,100.546987 L166.211825,100.50161 C166.134943,101.428616 166.158227,102.605634 166.483122,103.863366 C166.855506,105.304941 167.616367,106.85315 169.071075,108.248448 C171.109744,110.203857 174.595898,111.91763 180.617681,112.377315 L180.617681,112.377315 L244.342195,83.8025721 L226.95322,22.7469237 C226.659156,21.885238 226.5,20.9612075 226.5,20 C226.5,17.6527898 227.451395,15.5277898 228.989592,13.9895924 C230.52779,12.4513949 232.65279,11.5 235,11.5 L235,11.5 Z" id="Body" stroke="#000000" stroke-width="3" fill="#0065FF"></path>
                        <ellipse id="Left-Foot" fill="#000000" transform="translate(54.005375, 358.997435) rotate(25.000000) translate(-54.005375, -358.997435) " cx="54.0053746" cy="358.997435" rx="12.6191219" ry="25.007358"></ellipse>
                        <ellipse id="Right-Foot" fill="#000000" transform="translate(228.005375, 358.997435) scale(-1, 1) rotate(25.000000) translate(-228.005375, -358.997435) " cx="228.005375" cy="358.997435" rx="12.6191219" ry="25.007358"></ellipse>
                        <circle id="Left-Hand" fill="#000000" cx="47" cy="20" r="20"></circle>
                        <circle id="Right-Hand" fill="#000000" transform="translate(235.000000, 20.000000) scale(-1, 1) translate(-235.000000, -20.000000) " cx="235" cy="20" r="20"></circle>
                        <circle id="Head" fill="#000000" cx="141" cy="79" r="36"></circle>
                    </g>
                    <g id="Rig" transform="translate(70.000000, 109.000000)" fill="#000000">
                        <polygon id="Left-Leg-Strap" points="8.99804688 141.425781 52.8134766 171.421875 43.7158203 188.182617 0.639648438 159.78418"></polygon>
                        <polygon id="Left-Leg-Harness" points="30.8144531 132.661133 11.3427734 132.661133 12.638052 122.413937 28.1416016 115.120117"></polygon>
                        <polygon id="Right-Leg-Strap" transform="translate(115.086914, 164.378418) scale(-1, 1) translate(-115.086914, -164.378418) " points="97.3583984 141 141.173828 170.996094 132.076172 187.756836 89 159.358398"></polygon>
                        <polygon id="Right-Leg-Harness" transform="translate(120.735840, 123.770508) scale(-1, 1) translate(-120.735840, -123.770508) " points="130.47168 132.541016 111 132.541016 112.295279 122.29382 127.798828 115"></polygon>
                        <path d="M110,4 L100,0 L94,9 C94,9 82.5,14 71,14 C59.5,14 48,9 48,9 L42,0 L32,4 L34,17 C34,17 26,74 26,124 C26,131 32,136 36,136 C40,136 42,136 44,141 C46,146 96,146 98,141 C100,136 102,136 106,136 C110,136 116,131 116,124 C116,74 108,17 108,17 L110,4 Z"></path>
                    </g>
                </g>
                <g id="Tail">
                    <g id="Skydiver">
                        <path d="M235,11.5 C236.756509,11.5 238.388771,12.0324107 239.743538,12.9454828 C241.158881,13.899381 242.272108,15.2675858 242.908235,16.8766584 L242.908235,16.8766584 L278.25554,84.6857921 C279.682737,87.1270995 280.5,89.9681507 280.5,93 C280.5,96.096103 279.647695,98.9932279 278.163982,101.468882 C276.619543,104.045862 274.391991,106.166573 271.731513,107.580534 L271.731513,107.580534 L198.327476,153.460659 C196.805471,154.333141 195.177492,155.045128 193.463572,155.558211 C193.126454,155.659131 192.787885,155.751795 192.448254,155.837206 C192.427637,156.237378 192.410124,156.601139 192.395302,156.927055 C191.946416,166.797307 190.803964,211.458531 204.062108,252.269762 L204.062108,252.269762 L256.473052,364.647235 C257.774154,367.496079 258.5,370.66329 258.5,374 C258.5,380.213203 255.981602,385.838203 251.909903,389.909903 C247.838203,393.981602 242.213203,396.5 236,396.5 C231.586892,396.5 227.470336,395.229899 223.996606,393.034402 C220.395983,390.758705 217.485461,387.489866 215.650471,383.612522 L215.650471,383.612522 L156.316185,274.70816 C155.641012,273.593434 155.045692,272.424946 154.538193,271.210615 C154.177661,270.535286 153.886935,269.948725 153.581737,269.334054 C152.340523,266.834238 150.855677,263.945092 148.388678,261.969178 C146.554013,260.499723 144.194286,259.5 141,259.5 C138.191277,259.5 135.762224,260.652887 133.757428,262.297003 C130.898469,264.641612 128.937461,267.984047 127.975232,269.910791 C127.315994,271.694788 126.56844,273.247625 125.683815,274.70816 L125.683815,274.70816 L66.3495294,383.612522 C64.5145392,387.489866 61.6040175,390.758705 58.0033943,393.034402 C54.5296642,395.229899 50.4131078,396.5 46,396.5 C39.7867966,396.5 34.1617966,393.981602 30.0900974,389.909903 C26.0183983,385.838203 23.5,380.213203 23.5,374 C23.5,370.661647 24.2265628,367.492955 25.5267035,364.6534 L25.5267035,364.6534 L77.7516386,252.664235 C88.578922,219.369466 89.4404209,167.643485 89.4975777,156.966024 C89.4994111,156.623531 89.5008691,156.238797 89.50146,155.816017 C89.1433135,155.727326 88.786525,155.62939 88.4314432,155.522104 C86.7572966,155.016273 85.1666395,154.316375 83.683847,153.451766 L83.683847,153.451766 L10.268386,107.58048 C7.6079524,106.166519 5.38043782,104.04583 3.83601824,101.468882 C2.35230544,98.9932279 1.5,96.096103 1.5,93 C1.5,89.9681507 2.31726343,87.1270995 3.74446048,84.6857921 L3.74446048,84.6857921 L39.0917651,16.8766584 C39.727892,15.2675858 40.8411191,13.899381 42.2564619,12.9454828 C43.6112292,12.0324107 45.2434906,11.5 47,11.5 C49.3472102,11.5 51.4722102,12.4513949 53.0104076,13.9895924 C54.5486051,15.5277898 55.5,17.6527898 55.5,20 C55.5,20.9612036 55.340845,21.8852304 55.0467839,22.7469132 L55.0467839,22.7469132 L37.6567855,83.8025689 L101.384221,112.378309 C107.37723,111.885153 110.857469,110.171667 112.898157,108.225276 C114.351188,106.839387 115.117167,105.306272 115.496993,103.878368 C115.828053,102.633793 115.859653,101.468105 115.789451,100.546987 L115.789451,100.546987 L166.211825,100.50161 C166.134943,101.428616 166.158227,102.605634 166.483122,103.863366 C166.855506,105.304941 167.616367,106.85315 169.071075,108.248448 C171.109744,110.203857 174.595898,111.91763 180.617681,112.377315 L180.617681,112.377315 L244.342195,83.8025721 L226.95322,22.7469237 C226.659156,21.885238 226.5,20.9612075 226.5,20 C226.5,17.6527898 227.451395,15.5277898 228.989592,13.9895924 C230.52779,12.4513949 232.65279,11.5 235,11.5 L235,11.5 Z" id="Body" stroke="#000000" stroke-width="3" fill="#F7E400"></path>
                        <ellipse id="Left-Foot" fill="#000000" transform="translate(54.005375, 358.997435) rotate(25.000000) translate(-54.005375, -358.997435) " cx="54.0053746" cy="358.997435" rx="12.6191219" ry="25.007358"></ellipse>
                        <ellipse id="Right-Foot" fill="#000000" transform="translate(228.005375, 358.997435) scale(-1, 1) rotate(25.000000) translate(-228.005375, -358.997435) " cx="228.005375" cy="358.997435" rx="12.6191219" ry="25.007358"></ellipse>
                        <circle id="Left-Hand" fill="#000000" cx="47" cy="20" r="20"></circle>
                        <circle id="Right-Hand" fill="#000000" transform="translate(235.000000, 20.000000) scale(-1, 1) translate(-235.000000, -20.000000) " cx="235" cy="20" r="20"></circle>
                        <circle id="Head" fill="#000000" cx="141" cy="79" r="36"></circle>
                    </g>
                    <g id="Rig" transform="translate(70.639648, 109.000000)" fill="#000000">
                        <polygon id="Left-Leg-Strap" points="8.35839844 141.425781 52.1738281 171.421875 43.0761719 188.182617 4.54747351e-13 159.78418"></polygon>
                        <polygon id="Left-Leg-Harness" points="30.1748047 132.661133 10.703125 132.661133 11.9984036 122.413937 27.5019531 115.120117"></polygon>
                        <polygon id="Right-Leg-Strap" transform="translate(114.447266, 164.378418) scale(-1, 1) translate(-114.447266, -164.378418) " points="96.71875 141 140.53418 170.996094 131.436523 187.756836 88.3603516 159.358398"></polygon>
                        <polygon id="Right-Leg-Harness" transform="translate(120.096191, 123.770508) scale(-1, 1) translate(-120.096191, -123.770508) " points="129.832031 132.541016 110.360352 132.541016 111.65563 122.29382 127.15918 115"></polygon>
                        <path d="M109.360352,4 L99.3603516,0 L93.3603516,9 C93.3603516,9 81.8603516,14 70.3603516,14 C58.8603516,14 47.3603516,9 47.3603516,9 L41.3603516,0 L31.3603516,4 L33.3603516,17 C33.3603516,17 25.3603516,74 25.3603516,124 C25.3603516,131 31.3603516,136 35.3603516,136 C39.3603516,136 41.3603516,136 43.3603516,141 C45.3603516,146 95.3603516,146 97.3603516,141 C99.3603516,136 101.360352,136 105.360352,136 C109.360352,136 115.360352,131 115.360352,124 C115.360352,74 107.360352,17 107.360352,17 L109.360352,4 Z"></path>
                    </g>
                </g>
            </g>
            <g id="180°" transform="translate(668.129942, 109.114317)" fill="#000000">
                <path d="M182.273438,98.015625 L182.273438,2.109375 L172.710938,2.109375 C166.03125,5.625 155.484375,11.953125 148.945312,16.6640625 L148.945312,27.6328125 C154.992188,23.484375 167.226562,15.9609375 171.796875,13.5 L171.9375,13.5 L171.9375,98.015625 L182.273438,98.015625 Z M237.820312,90.984375 C250.898438,90.984375 260.742188,83.109375 260.742188,71.6484375 C260.742188,60.2578125 250.96875,52.3125 237.820312,52.3125 C224.601562,52.3125 214.757812,60.2578125 214.757812,71.6484375 C214.757812,83.109375 224.671875,90.984375 237.820312,90.984375 Z M237.820312,43.3828125 C248.929688,43.3828125 257.015625,36.28125 257.015625,26.15625 C257.015625,16.03125 249,9.28125 237.820312,9.28125 C226.640625,9.28125 218.484375,16.03125 218.484375,26.15625 C218.484375,36.28125 226.710938,43.3828125 237.820312,43.3828125 Z M237.46875,100.054688 C218.34375,100.054688 204.5625,88.6640625 204.5625,72 C204.5625,56.8125 216.164062,49.359375 224.039062,47.4609375 L224.039062,47.3203125 C217.570312,45.28125 208.359375,38.390625 208.359375,25.59375 C208.359375,10.7578125 220.875,0 237.820312,0 C254.695312,0 267.28125,10.7578125 267.28125,25.59375 C267.28125,38.6015625 257.507812,45.3515625 251.460938,47.3203125 L251.460938,47.4609375 C259.40625,49.359375 270.867188,56.953125 270.867188,71.859375 C270.867188,88.5234375 256.664062,100.054688 237.46875,100.054688 Z M295.96875,46.4765625 L295.96875,53.7890625 C295.96875,77.34375 304.757812,90.7734375 318.75,90.7734375 C332.742188,90.7734375 341.390625,77.34375 341.390625,53.7890625 L341.390625,46.4765625 C341.390625,22.8515625 332.742188,9.28125 318.75,9.28125 C304.757812,9.28125 295.96875,22.8515625 295.96875,46.4765625 Z M285.632812,53.859375 L285.632812,46.40625 C285.632812,17.9296875 297.515625,0 318.75,0 C339.984375,0 351.726562,17.859375 351.726562,46.40625 L351.726562,53.859375 C351.726562,82.40625 339.984375,100.054688 318.75,100.054688 C297.515625,100.054688 285.632812,82.40625 285.632812,53.859375 Z M377.390625,30.8671875 C369.023438,30.8671875 362.34375,24.1171875 362.34375,15.890625 C362.34375,7.59375 369.023438,0.9140625 377.390625,0.9140625 C385.617188,0.9140625 392.367188,7.59375 392.367188,15.890625 C392.367188,24.1171875 385.617188,30.8671875 377.390625,30.8671875 Z M377.390625,24.1171875 C381.960938,24.1171875 385.617188,20.25 385.617188,15.890625 C385.617188,11.25 381.960938,7.59375 377.390625,7.59375 C372.960938,7.59375 369.164062,11.25 369.164062,15.890625 C369.164062,20.25 372.960938,24.1171875 377.390625,24.1171875 Z"></path>
                <path d="M86.2734375,82.2109375 C94.0547264,73.117142 97.9453125,62.5469352 97.9453125,50.5 C97.9453125,37.0468077 93.1289544,25.5273917 83.4960938,15.9414062 C73.8632331,6.35542082 62.343817,1.5625 48.9375,1.5625 C35.531183,1.5625 24.0234855,6.37885809 14.4140625,16.0117188 C4.80463945,25.6445794 0,37.1405582 0,50.5 C0,63.7656913 4.54682953,75.1093279 13.640625,84.53125 L0.140625,90.578125 L33.6796875,99.5078125 L24.75,65.8984375 L18.5625,79.609375 C10.7812111,71.406209 6.890625,61.703181 6.890625,50.5 C6.890625,38.9686923 11.0155837,29.0781663 19.265625,20.828125 C27.5156663,12.5780838 37.4061923,8.453125 48.9375,8.453125 C60.4688077,8.453125 70.3593337,12.5780838 78.609375,20.828125 C86.8594162,29.0781663 90.984375,38.9686923 90.984375,50.5 C90.984375,60.8594268 87.632846,69.9765231 80.9296875,77.8515625 L86.2734375,82.2109375 Z" id="↺"></path>
            </g>
        </g>
        <g id="Top" transform="translate(223.000000, 0.000000)">
            <g id="Front-Piece" transform="translate(322.087139, 322.087139) rotate(-45.000000) translate(-322.087139, -322.087139) translate(84.587139, 104.087139)">
                <g id="Point" transform="translate(193.000000, 38.000000)">
                    <g id="Skydiver">
                        <path d="M235,11.5 C236.756509,11.5 238.388771,12.0324107 239.743538,12.9454828 C241.158881,13.899381 242.272108,15.2675858 242.908235,16.8766584 L242.908235,16.8766584 L278.25554,84.6857921 C279.682737,87.1270995 280.5,89.9681507 280.5,93 C280.5,96.096103 279.647695,98.9932279 278.163982,101.468882 C276.619543,104.045862 274.391991,106.166573 271.731513,107.580534 L271.731513,107.580534 L198.327476,153.460659 C196.805471,154.333141 195.177492,155.045128 193.463572,155.558211 C193.126454,155.659131 192.787885,155.751795 192.448254,155.837206 C192.427637,156.237378 192.410124,156.601139 192.395302,156.927055 C191.946416,166.797307 190.803964,211.458531 204.062108,252.269762 L204.062108,252.269762 L256.473052,364.647235 C257.774154,367.496079 258.5,370.66329 258.5,374 C258.5,380.213203 255.981602,385.838203 251.909903,389.909903 C247.838203,393.981602 242.213203,396.5 236,396.5 C231.586892,396.5 227.470336,395.229899 223.996606,393.034402 C220.395983,390.758705 217.485461,387.489866 215.650471,383.612522 L215.650471,383.612522 L156.316185,274.70816 C155.641012,273.593434 155.045692,272.424946 154.538193,271.210615 C154.177661,270.535286 153.886935,269.948725 153.581737,269.334054 C152.340523,266.834238 150.855677,263.945092 148.388678,261.969178 C146.554013,260.499723 144.194286,259.5 141,259.5 C138.191277,259.5 135.762224,260.652887 133.757428,262.297003 C130.898469,264.641612 128.937461,267.984047 127.975232,269.910791 C127.315994,271.694788 126.56844,273.247625 125.683815,274.70816 L125.683815,274.70816 L66.3495294,383.612522 C64.5145392,387.489866 61.6040175,390.758705 58.0033943,393.034402 C54.5296642,395.229899 50.4131078,396.5 46,396.5 C39.7867966,396.5 34.1617966,393.981602 30.0900974,389.909903 C26.0183983,385.838203 23.5,380.213203 23.5,374 C23.5,370.661647 24.2265628,367.492955 25.5267035,364.6534 L25.5267035,364.6534 L77.7516386,252.664235 C88.578922,219.369466 89.4404209,167.643485 89.4975777,156.966024 C89.4994111,156.623531 89.5008691,156.238797 89.50146,155.816017 C89.1433135,155.727326 88.786525,155.62939 88.4314432,155.522104 C86.7572966,155.016273 85.1666395,154.316375 83.683847,153.451766 L83.683847,153.451766 L10.268386,107.58048 C7.6079524,106.166519 5.38043782,104.04583 3.83601824,101.468882 C2.35230544,98.9932279 1.5,96.096103 1.5,93 C1.5,89.9681507 2.31726343,87.1270995 3.74446048,84.6857921 L3.74446048,84.6857921 L39.0917651,16.8766584 C39.727892,15.2675858 40.8411191,13.899381 42.2564619,12.9454828 C43.6112292,12.0324107 45.2434906,11.5 47,11.5 C49.3472102,11.5 51.4722102,12.4513949 53.0104076,13.9895924 C54.5486051,15.5277898 55.5,17.6527898 55.5,20 C55.5,20.9612036 55.340845,21.8852304 55.0467839,22.7469132 L55.0467839,22.7469132 L37.6567855,83.8025689 L101.384221,112.378309 C107.37723,111.885153 110.857469,110.171667 112.898157,108.225276 C114.351188,106.839387 115.117167,105.306272 115.496993,103.878368 C115.828053,102.633793 115.859653,101.468105 115.789451,100.546987 L115.789451,100.546987 L166.211825,100.50161 C166.134943,101.428616 166.158227,102.605634 166.483122,103.863366 C166.855506,105.304941 167.616367,106.85315 169.071075,108.248448 C171.109744,110.203857 174.595898,111.91763 180.617681,112.377315 L180.617681,112.377315 L244.342195,83.8025721 L226.95322,22.7469237 C226.659156,21.885238 226.5,20.9612075 226.5,20 C226.5,17.6527898 227.451395,15.5277898 228.989592,13.9895924 C230.52779,12.4513949 232.65279,11.5 235,11.5 L235,11.5 Z" id="Body" stroke="#000000" stroke-width="3" fill="#E02020"></path>
                        <ellipse id="Left-Foot" fill="#000000" transform="translate(54.005375, 358.997435) rotate(25.000000) translate(-54.005375, -358.997435) " cx="54.0053746" cy="358.997435" rx="12.6191219" ry="25.007358"></ellipse>
                        <ellipse id="Right-Foot" fill="#000000" transform="translate(228.005375, 358.997435) scale(-1, 1) rotate(25.000000) translate(-228.005375, -358.997435) " cx="228.005375" cy="358.997435" rx="12.6191219" ry="25.007358"></ellipse>
                        <circle id="Left-Hand" fill="#000000" cx="47" cy="20" r="20"></circle>
                        <circle id="Right-Hand" fill="#000000" transform="translate(235.000000, 20.000000) scale(-1, 1) translate(-235.000000, -20.000000) " cx="235" cy="20" r="20"></circle>
                        <circle id="Head" fill="#000000" cx="141" cy="79" r="36"></circle>
                    </g>
                    <g id="Rig" transform="translate(70.000000, 109.000000)" fill="#000000">
                        <polygon id="Left-Leg-Strap" points="8.99804688 141.425781 52.8134766 171.421875 43.7158203 188.182617 0.639648438 159.78418"></polygon>
                        <polygon id="Left-Leg-Harness" points="30.8144531 132.661133 11.3427734 132.661133 12.638052 122.413937 28.1416016 115.120117"></polygon>
                        <polygon id="Right-Leg-Strap" transform="translate(115.086914, 164.378418) scale(-1, 1) translate(-115.086914, -164.378418) " points="97.3583984 141 141.173828 170.996094 132.076172 187.756836 89 159.358398"></polygon>
                        <polygon id="Right-Leg-Harness" transform="translate(120.735840, 123.770508) scale(-1, 1) translate(-120.735840, -123.770508) " points="130.47168 132.541016 111 132.541016 112.295279 122.29382 127.798828 115"></polygon>
                        <path d="M110,4 L100,0 L94,9 C94,9 82.5,14 71,14 C59.5,14 48,9 48,9 L42,0 L32,4 L34,17 C34,17 26,74 26,124 C26,131 32,136 36,136 C40,136 42,136 44,141 C46,146 96,146 98,141 C100,136 102,136 106,136 C110,136 116,131 116,124 C116,74 108,17 108,17 L110,4 Z"></path>
                    </g>
                </g>
                <g id="Outside-Center" transform="translate(141.000000, 199.000000) rotate(-180.000000) translate(-141.000000, -199.000000) ">
                    <g id="Skydiver">
                        <path d="M235,11.5 C236.756509,11.5 238.388771,12.0324107 239.743538,12.9454828 C241.158881,13.899381 242.272108,15.2675858 242.908235,16.8766584 L242.908235,16.8766584 L278.25554,84.6857921 C279.682737,87.1270995 280.5,89.9681507 280.5,93 C280.5,96.096103 279.647695,98.9932279 278.163982,101.468882 C276.619543,104.045862 274.391991,106.166573 271.731513,107.580534 L271.731513,107.580534 L198.327476,153.460659 C196.805471,154.333141 195.177492,155.045128 193.463572,155.558211 C193.126454,155.659131 192.787885,155.751795 192.448254,155.837206 C192.427637,156.237378 192.410124,156.601139 192.395302,156.927055 C191.946416,166.797307 190.803964,211.458531 204.062108,252.269762 L204.062108,252.269762 L256.473052,364.647235 C257.774154,367.496079 258.5,370.66329 258.5,374 C258.5,380.213203 255.981602,385.838203 251.909903,389.909903 C247.838203,393.981602 242.213203,396.5 236,396.5 C231.586892,396.5 227.470336,395.229899 223.996606,393.034402 C220.395983,390.758705 217.485461,387.489866 215.650471,383.612522 L215.650471,383.612522 L156.316185,274.70816 C155.641012,273.593434 155.045692,272.424946 154.538193,271.210615 C154.177661,270.535286 153.886935,269.948725 153.581737,269.334054 C152.340523,266.834238 150.855677,263.945092 148.388678,261.969178 C146.554013,260.499723 144.194286,259.5 141,259.5 C138.191277,259.5 135.762224,260.652887 133.757428,262.297003 C130.898469,264.641612 128.937461,267.984047 127.975232,269.910791 C127.315994,271.694788 126.56844,273.247625 125.683815,274.70816 L125.683815,274.70816 L66.3495294,383.612522 C64.5145392,387.489866 61.6040175,390.758705 58.0033943,393.034402 C54.5296642,395.229899 50.4131078,396.5 46,396.5 C39.7867966,396.5 34.1617966,393.981602 30.0900974,389.909903 C26.0183983,385.838203 23.5,380.213203 23.5,374 C23.5,370.661647 24.2265628,367.492955 25.5267035,364.6534 L25.5267035,364.6534 L77.7516386,252.664235 C88.578922,219.369466 89.4404209,167.643485 89.4975777,156.966024 C89.4994111,156.623531 89.5008691,156.238797 89.50146,155.816017 C89.1433135,155.727326 88.786525,155.62939 88.4314432,155.522104 C86.7572966,155.016273 85.1666395,154.316375 83.683847,153.451766 L83.683847,153.451766 L10.268386,107.58048 C7.6079524,106.166519 5.38043782,104.04583 3.83601824,101.468882 C2.35230544,98.9932279 1.5,96.096103 1.5,93 C1.5,89.9681507 2.31726343,87.1270995 3.74446048,84.6857921 L3.74446048,84.6857921 L39.0917651,16.8766584 C39.727892,15.2675858 40.8411191,13.899381 42.2564619,12.9454828 C43.6112292,12.0324107 45.2434906,11.5 47,11.5 C49.3472102,11.5 51.4722102,12.4513949 53.0104076,13.9895924 C54.5486051,15.5277898 55.5,17.6527898 55.5,20 C55.5,20.9612036 55.340845,21.8852304 55.0467839,22.7469132 L55.0467839,22.7469132 L37.6567855,83.8025689 L101.384221,112.378309 C107.37723,111.885153 110.857469,110.171667 112.898157,108.225276 C114.351188,106.839387 115.117167,105.306272 115.496993,103.878368 C115.828053,102.633793 115.859653,101.468105 115.789451,100.546987 L115.789451,100.546987 L166.211825,100.50161 C166.134943,101.428616 166.158227,102.605634 166.483122,103.863366 C166.855506,105.304941 167.616367,106.85315 169.071075,108.248448 C171.109744,110.203857 174.595898,111.91763 180.617681,112.377315 L180.617681,112.377315 L244.342195,83.8025721 L226.95322,22.7469237 C226.659156,21.885238 226.5,20.9612075 226.5,20 C226.5,17.6527898 227.451395,15.5277898 228.989592,13.9895924 C230.52779,12.4513949 232.65279,11.5 235,11.5 L235,11.5 Z" id="Body" stroke="#000000" stroke-width="3" fill="#6DD400"></path>
                        <ellipse id="Left-Foot" fill="#000000" transform="translate(54.005375, 358.997435) rotate(25.000000) translate(-54.005375, -358.997435) " cx="54.0053746" cy="358.997435" rx="12.6191219" ry="25.007358"></ellipse>
                        <ellipse id="Right-Foot" fill="#000000" transform="translate(228.005375, 358.997435) scale(-1, 1) rotate(25.000000) translate(-228.005375, -358.997435) " cx="228.005375" cy="358.997435" rx="12.6191219" ry="25.007358"></ellipse>
                        <circle id="Left-Hand" fill="#000000" cx="47" cy="20" r="20"></circle>
                        <circle id="Right-Hand" fill="#000000" transform="translate(235.000000, 20.000000) scale(-1, 1) translate(-235.000000, -20.000000) " cx="235" cy="20" r="20"></circle>
                        <circle id="Head" fill="#000000" cx="141" cy="79" r="36"></circle>
                    </g>
                    <g id="Rig" transform="translate(70.000000, 109.000000)" fill="#000000">
                        <polygon id="Left-Leg-Strap" points="8.99804688 141.425781 52.8134766 171.421875 43.7158203 188.182617 0.639648438 159.78418"></polygon>
                        <polygon id="Left-Leg-Harness" points="30.8144531 132.661133 11.3427734 132.661133 12.638052 122.413937 28.1416016 115.120117"></polygon>
                        <polygon id="Right-Leg-Strap" transform="translate(115.086914, 164.378418) scale(-1, 1) translate(-115.086914, -164.378418) " points="97.3583984 141 141.173828 170.996094 132.076172 187.756836 89 159.358398"></polygon>
                        <polygon id="Right-Leg-Harness" transform="translate(120.735840, 123.770508) scale(-1, 1) translate(-120.735840, -123.770508) " points="130.47168 132.541016 111 132.541016 112.295279 122.29382 127.798828 115"></polygon>
                        <path d="M110,4 L100,0 L94,9 C94,9 82.5,14 71,14 C59.5,14 48,9 48,9 L42,0 L32,4 L34,17 C34,17 26,74 26,124 C26,131 32,136 36,136 C40,136 42,136 44,141 C46,146 96,146 98,141 C100,136 102,136 106,136 C110,136 116,131 116,124 C116,74 108,17 108,17 L110,4 Z"></path>
                    </g>
                </g>
            </g>
            <g id="Back-Piece" transform="translate(575.584920, 576.292027) rotate(-45.000000) translate(-575.584920, -576.292027) translate(200.584920, 435.292027)">
                <g id="Inside-Center" transform="translate(551.000000, 141.000000) rotate(-270.000000) translate(-551.000000, -141.000000) translate(410.000000, -58.000000)">
                    <g id="Skydiver">
                        <path d="M235,11.5 C236.756509,11.5 238.388771,12.0324107 239.743538,12.9454828 C241.158881,13.899381 242.272108,15.2675858 242.908235,16.8766584 L242.908235,16.8766584 L278.25554,84.6857921 C279.682737,87.1270995 280.5,89.9681507 280.5,93 C280.5,96.096103 279.647695,98.9932279 278.163982,101.468882 C276.619543,104.045862 274.391991,106.166573 271.731513,107.580534 L271.731513,107.580534 L198.327476,153.460659 C196.805471,154.333141 195.177492,155.045128 193.463572,155.558211 C193.126454,155.659131 192.787885,155.751795 192.448254,155.837206 C192.427637,156.237378 192.410124,156.601139 192.395302,156.927055 C191.946416,166.797307 190.803964,211.458531 204.062108,252.269762 L204.062108,252.269762 L256.473052,364.647235 C257.774154,367.496079 258.5,370.66329 258.5,374 C258.5,380.213203 255.981602,385.838203 251.909903,389.909903 C247.838203,393.981602 242.213203,396.5 236,396.5 C231.586892,396.5 227.470336,395.229899 223.996606,393.034402 C220.395983,390.758705 217.485461,387.489866 215.650471,383.612522 L215.650471,383.612522 L156.316185,274.70816 C155.641012,273.593434 155.045692,272.424946 154.538193,271.210615 C154.177661,270.535286 153.886935,269.948725 153.581737,269.334054 C152.340523,266.834238 150.855677,263.945092 148.388678,261.969178 C146.554013,260.499723 144.194286,259.5 141,259.5 C138.191277,259.5 135.762224,260.652887 133.757428,262.297003 C130.898469,264.641612 128.937461,267.984047 127.975232,269.910791 C127.315994,271.694788 126.56844,273.247625 125.683815,274.70816 L125.683815,274.70816 L66.3495294,383.612522 C64.5145392,387.489866 61.6040175,390.758705 58.0033943,393.034402 C54.5296642,395.229899 50.4131078,396.5 46,396.5 C39.7867966,396.5 34.1617966,393.981602 30.0900974,389.909903 C26.0183983,385.838203 23.5,380.213203 23.5,374 C23.5,370.661647 24.2265628,367.492955 25.5267035,364.6534 L25.5267035,364.6534 L77.7516386,252.664235 C88.578922,219.369466 89.4404209,167.643485 89.4975777,156.966024 C89.4994111,156.623531 89.5008691,156.238797 89.50146,155.816017 C89.1433135,155.727326 88.786525,155.62939 88.4314432,155.522104 C86.7572966,155.016273 85.1666395,154.316375 83.683847,153.451766 L83.683847,153.451766 L10.268386,107.58048 C7.6079524,106.166519 5.38043782,104.04583 3.83601824,101.468882 C2.35230544,98.9932279 1.5,96.096103 1.5,93 C1.5,89.9681507 2.31726343,87.1270995 3.74446048,84.6857921 L3.74446048,84.6857921 L39.0917651,16.8766584 C39.727892,15.2675858 40.8411191,13.899381 42.2564619,12.9454828 C43.6112292,12.0324107 45.2434906,11.5 47,11.5 C49.3472102,11.5 51.4722102,12.4513949 53.0104076,13.9895924 C54.5486051,15.5277898 55.5,17.6527898 55.5,20 C55.5,20.9612036 55.340845,21.8852304 55.0467839,22.7469132 L55.0467839,22.7469132 L37.6567855,83.8025689 L101.384221,112.378309 C107.37723,111.885153 110.857469,110.171667 112.898157,108.225276 C114.351188,106.839387 115.117167,105.306272 115.496993,103.878368 C115.828053,102.633793 115.859653,101.468105 115.789451,100.546987 L115.789451,100.546987 L166.211825,100.50161 C166.134943,101.428616 166.158227,102.605634 166.483122,103.863366 C166.855506,105.304941 167.616367,106.85315 169.071075,108.248448 C171.109744,110.203857 174.595898,111.91763 180.617681,112.377315 L180.617681,112.377315 L244.342195,83.8025721 L226.95322,22.7469237 C226.659156,21.885238 226.5,20.9612075 226.5,20 C226.5,17.6527898 227.451395,15.5277898 228.989592,13.9895924 C230.52779,12.4513949 232.65279,11.5 235,11.5 L235,11.5 Z" id="Body" stroke="#000000" stroke-width="3" fill="#0065FF"></path>
                        <ellipse id="Left-Foot" fill="#000000" transform="translate(54.005375, 358.997435) rotate(25.000000) translate(-54.005375, -358.997435) " cx="54.0053746" cy="358.997435" rx="12.6191219" ry="25.007358"></ellipse>
                        <ellipse id="Right-Foot" fill="#000000" transform="translate(228.005375, 358.997435) scale(-1, 1) rotate(25.000000) translate(-228.005375, -358.997435) " cx="228.005375" cy="358.997435" rx="12.6191219" ry="25.007358"></ellipse>
                        <circle id="Left-Hand" fill="#000000" cx="47" cy="20" r="20"></circle>
                        <circle id="Right-Hand" fill="#000000" transform="translate(235.000000, 20.000000) scale(-1, 1) translate(-235.000000, -20.000000) " cx="235" cy="20" r="20"></circle>
                        <circle id="Head" fill="#000000" cx="141" cy="79" r="36"></circle>
                    </g>
                    <g id="Rig" transform="translate(70.000000, 109.000000)" fill="#000000">
                        <polygon id="Left-Leg-Strap" points="8.99804688 141.425781 52.8134766 171.421875 43.7158203 188.182617 0.639648438 159.78418"></polygon>
                        <polygon id="Left-Leg-Harness" points="30.8144531 132.661133 11.3427734 132.661133 12.638052 122.413937 28.1416016 115.120117"></polygon>
                        <polygon id="Right-Leg-Strap" transform="translate(115.086914, 164.378418) scale(-1, 1) translate(-115.086914, -164.378418) " points="97.3583984 141 141.173828 170.996094 132.076172 187.756836 89 159.358398"></polygon>
                        <polygon id="Right-Leg-Harness" transform="translate(120.735840, 123.770508) scale(-1, 1) translate(-120.735840, -123.770508) " points="130.47168 132.541016 111 132.541016 112.295279 122.29382 127.798828 115"></polygon>
                        <path d="M110,4 L100,0 L94,9 C94,9 82.5,14 71,14 C59.5,14 48,9 48,9 L42,0 L32,4 L34,17 C34,17 26,74 26,124 C26,131 32,136 36,136 C40,136 42,136 44,141 C46,146 96,146 98,141 C100,136 102,136 106,136 C110,136 116,131 116,124 C116,74 108,17 108,17 L110,4 Z"></path>
                    </g>
                </g>
                <g id="Tail" transform="translate(199.000000, 141.000000) rotate(-270.000000) translate(-199.000000, -141.000000) translate(58.000000, -58.000000)">
                    <g id="Skydiver">
                        <path d="M235,11.5 C236.756509,11.5 238.388771,12.0324107 239.743538,12.9454828 C241.158881,13.899381 242.272108,15.2675858 242.908235,16.8766584 L242.908235,16.8766584 L278.25554,84.6857921 C279.682737,87.1270995 280.5,89.9681507 280.5,93 C280.5,96.096103 279.647695,98.9932279 278.163982,101.468882 C276.619543,104.045862 274.391991,106.166573 271.731513,107.580534 L271.731513,107.580534 L198.327476,153.460659 C196.805471,154.333141 195.177492,155.045128 193.463572,155.558211 C193.126454,155.659131 192.787885,155.751795 192.448254,155.837206 C192.427637,156.237378 192.410124,156.601139 192.395302,156.927055 C191.946416,166.797307 190.803964,211.458531 204.062108,252.269762 L204.062108,252.269762 L256.473052,364.647235 C257.774154,367.496079 258.5,370.66329 258.5,374 C258.5,380.213203 255.981602,385.838203 251.909903,389.909903 C247.838203,393.981602 242.213203,396.5 236,396.5 C231.586892,396.5 227.470336,395.229899 223.996606,393.034402 C220.395983,390.758705 217.485461,387.489866 215.650471,383.612522 L215.650471,383.612522 L156.316185,274.70816 C155.641012,273.593434 155.045692,272.424946 154.538193,271.210615 C154.177661,270.535286 153.886935,269.948725 153.581737,269.334054 C152.340523,266.834238 150.855677,263.945092 148.388678,261.969178 C146.554013,260.499723 144.194286,259.5 141,259.5 C138.191277,259.5 135.762224,260.652887 133.757428,262.297003 C130.898469,264.641612 128.937461,267.984047 127.975232,269.910791 C127.315994,271.694788 126.56844,273.247625 125.683815,274.70816 L125.683815,274.70816 L66.3495294,383.612522 C64.5145392,387.489866 61.6040175,390.758705 58.0033943,393.034402 C54.5296642,395.229899 50.4131078,396.5 46,396.5 C39.7867966,396.5 34.1617966,393.981602 30.0900974,389.909903 C26.0183983,385.838203 23.5,380.213203 23.5,374 C23.5,370.661647 24.2265628,367.492955 25.5267035,364.6534 L25.5267035,364.6534 L77.7516386,252.664235 C88.578922,219.369466 89.4404209,167.643485 89.4975777,156.966024 C89.4994111,156.623531 89.5008691,156.238797 89.50146,155.816017 C89.1433135,155.727326 88.786525,155.62939 88.4314432,155.522104 C86.7572966,155.016273 85.1666395,154.316375 83.683847,153.451766 L83.683847,153.451766 L10.268386,107.58048 C7.6079524,106.166519 5.38043782,104.04583 3.83601824,101.468882 C2.35230544,98.9932279 1.5,96.096103 1.5,93 C1.5,89.9681507 2.31726343,87.1270995 3.74446048,84.6857921 L3.74446048,84.6857921 L39.0917651,16.8766584 C39.727892,15.2675858 40.8411191,13.899381 42.2564619,12.9454828 C43.6112292,12.0324107 45.2434906,11.5 47,11.5 C49.3472102,11.5 51.4722102,12.4513949 53.0104076,13.9895924 C54.5486051,15.5277898 55.5,17.6527898 55.5,20 C55.5,20.9612036 55.340845,21.8852304 55.0467839,22.7469132 L55.0467839,22.7469132 L37.6567855,83.8025689 L101.384221,112.378309 C107.37723,111.885153 110.857469,110.171667 112.898157,108.225276 C114.351188,106.839387 115.117167,105.306272 115.496993,103.878368 C115.828053,102.633793 115.859653,101.468105 115.789451,100.546987 L115.789451,100.546987 L166.211825,100.50161 C166.134943,101.428616 166.158227,102.605634 166.483122,103.863366 C166.855506,105.304941 167.616367,106.85315 169.071075,108.248448 C171.109744,110.203857 174.595898,111.91763 180.617681,112.377315 L180.617681,112.377315 L244.342195,83.8025721 L226.95322,22.7469237 C226.659156,21.885238 226.5,20.9612075 226.5,20 C226.5,17.6527898 227.451395,15.5277898 228.989592,13.9895924 C230.52779,12.4513949 232.65279,11.5 235,11.5 L235,11.5 Z" id="Body" stroke="#000000" stroke-width="3" fill="#F7E400"></path>
                        <ellipse id="Left-Foot" fill="#000000" transform="translate(54.005375, 358.997435) rotate(25.000000) translate(-54.005375, -358.997435) " cx="54.0053746" cy="358.997435" rx="12.6191219" ry="25.007358"></ellipse>
                        <ellipse id="Right-Foot" fill="#000000" transform="translate(228.005375, 358.997435) scale(-1, 1) rotate(25.000000) translate(-228.005375, -358.997435) " cx="228.005375" cy="358.997435" rx="12.6191219" ry="25.007358"></ellipse>
                        <circle id="Left-Hand" fill="#000000" cx="47" cy="20" r="20"></circle>
                        <circle id="Right-Hand" fill="#000000" transform="translate(235.000000, 20.000000) scale(-1, 1) translate(-235.000000, -20.000000) " cx="235" cy="20" r="20"></circle>
                        <circle id="Head" fill="#000000" cx="141" cy="79" r="36"></circle>
                    </g>
                    <g id="Rig" transform="translate(70.639648, 109.000000)" fill="#000000">
                        <polygon id="Left-Leg-Strap" points="8.35839844 141.425781 52.1738281 171.421875 43.0761719 188.182617 4.54747351e-13 159.78418"></polygon>
                        <polygon id="Left-Leg-Harness" points="30.1748047 132.661133 10.703125 132.661133 11.9984036 122.413937 27.5019531 115.120117"></polygon>
                        <polygon id="Right-Leg-Strap" transform="translate(114.447266, 164.378418) scale(-1, 1) translate(-114.447266, -164.378418) " points="96.71875 141 140.53418 170.996094 131.436523 187.756836 88.3603516 159.358398"></polygon>
                        <polygon id="Right-Leg-Harness" transform="translate(120.096191, 123.770508) scale(-1, 1) translate(-120.096191, -123.770508) " points="129.832031 132.541016 110.360352 132.541016 111.65563 122.29382 127.15918 115"></polygon>
                        <path d="M109.360352,4 L99.3603516,0 L93.3603516,9 C93.3603516,9 81.8603516,14 70.3603516,14 C58.8603516,14 47.3603516,9 47.3603516,9 L41.3603516,0 L31.3603516,4 L33.3603516,17 C33.3603516,17 25.3603516,74 25.3603516,124 C25.3603516,131 31.3603516,136 35.3603516,136 C39.3603516,136 41.3603516,136 43.3603516,141 C45.3603516,146 95.3603516,146 97.3603516,141 C99.3603516,136 101.360352,136 105.360352,136 C109.360352,136 115.360352,131 115.360352,124 C115.360352,74 107.360352,17 107.360352,17 L109.360352,4 Z"></path>
                    </g>
                </g>
            </g>
        </g>
    </g>
</svg>