<?xml version="1.0" encoding="UTF-8"?>
<svg width="1386px" height="3000px" viewBox="0 0 1386 3000" version="1.1" xmlns="http://www.w3.org/2000/svg" xmlns:xlink="http://www.w3.org/1999/xlink">
    <title>8 - Canadian Tee - Canadian Tee</title>
    <g id="8---Canadian-Tee---Canadian-Tee" stroke="none" stroke-width="1" fill="none" fill-rule="evenodd">
        <g id="Bottom" transform="translate(1110.179739, 2437.185836) rotate(-15.000000) translate(-1110.179739, -2437.185836) translate(753.000000, 1892.000000)">
            <g id="Point" transform="translate(526.658946, 228.712725) rotate(-15.000000) translate(-526.658946, -228.712725) translate(385.658946, 29.712725)">
                <g id="Skydiver">
                    <path d="M235,11.5 C236.756509,11.5 238.388771,12.0324107 239.743538,12.9454828 C241.158881,13.899381 242.272108,15.2675858 242.908235,16.8766584 L242.908235,16.8766584 L278.25554,84.6857921 C279.682737,87.1270995 280.5,89.9681507 280.5,93 C280.5,96.096103 279.647695,98.9932279 278.163982,101.468882 C276.619543,104.045862 274.391991,106.166573 271.731513,107.580534 L271.731513,107.580534 L198.327476,153.460659 C196.805471,154.333141 195.177492,155.045128 193.463572,155.558211 C193.126454,155.659131 192.787885,155.751795 192.448254,155.837206 C192.427637,156.237378 192.410124,156.601139 192.395302,156.927055 C191.946416,166.797307 190.803964,211.458531 204.062108,252.269762 L204.062108,252.269762 L256.473052,364.647235 C257.774154,367.496079 258.5,370.66329 258.5,374 C258.5,380.213203 255.981602,385.838203 251.909903,389.909903 C247.838203,393.981602 242.213203,396.5 236,396.5 C231.586892,396.5 227.470336,395.229899 223.996606,393.034402 C220.395983,390.758705 217.485461,387.489866 215.650471,383.612522 L215.650471,383.612522 L156.316185,274.70816 C155.641012,273.593434 155.045692,272.424946 154.538193,271.210615 C154.177661,270.535286 153.886935,269.948725 153.581737,269.334054 C152.340523,266.834238 150.855677,263.945092 148.388678,261.969178 C146.554013,260.499723 144.194286,259.5 141,259.5 C138.191277,259.5 135.762224,260.652887 133.757428,262.297003 C130.898469,264.641612 128.937461,267.984047 127.975232,269.910791 C127.315994,271.694788 126.56844,273.247625 125.683815,274.70816 L125.683815,274.70816 L66.3495294,383.612522 C64.5145392,387.489866 61.6040175,390.758705 58.0033943,393.034402 C54.5296642,395.229899 50.4131078,396.5 46,396.5 C39.7867966,396.5 34.1617966,393.981602 30.0900974,389.909903 C26.0183983,385.838203 23.5,380.213203 23.5,374 C23.5,370.661647 24.2265628,367.492955 25.5267035,364.6534 L25.5267035,364.6534 L77.7516386,252.664235 C88.578922,219.369466 89.4404209,167.643485 89.4975777,156.966024 C89.4994111,156.623531 89.5008691,156.238797 89.50146,155.816017 C89.1433135,155.727326 88.786525,155.62939 88.4314432,155.522104 C86.7572966,155.016273 85.1666395,154.316375 83.683847,153.451766 L83.683847,153.451766 L10.268386,107.58048 C7.6079524,106.166519 5.38043782,104.04583 3.83601824,101.468882 C2.35230544,98.9932279 1.5,96.096103 1.5,93 C1.5,89.9681507 2.31726343,87.1270995 3.74446048,84.6857921 L3.74446048,84.6857921 L39.0917651,16.8766584 C39.727892,15.2675858 40.8411191,13.899381 42.2564619,12.9454828 C43.6112292,12.0324107 45.2434906,11.5 47,11.5 C49.3472102,11.5 51.4722102,12.4513949 53.0104076,13.9895924 C54.5486051,15.5277898 55.5,17.6527898 55.5,20 C55.5,20.9612036 55.340845,21.8852304 55.0467839,22.7469132 L55.0467839,22.7469132 L37.6567855,83.8025689 L101.384221,112.378309 C107.37723,111.885153 110.857469,110.171667 112.898157,108.225276 C114.351188,106.839387 115.117167,105.306272 115.496993,103.878368 C115.828053,102.633793 115.859653,101.468105 115.789451,100.546987 L115.789451,100.546987 L166.211825,100.50161 C166.134943,101.428616 166.158227,102.605634 166.483122,103.863366 C166.855506,105.304941 167.616367,106.85315 169.071075,108.248448 C171.109744,110.203857 174.595898,111.91763 180.617681,112.377315 L180.617681,112.377315 L244.342195,83.8025721 L226.95322,22.7469237 C226.659156,21.885238 226.5,20.9612075 226.5,20 C226.5,17.6527898 227.451395,15.5277898 228.989592,13.9895924 C230.52779,12.4513949 232.65279,11.5 235,11.5 L235,11.5 Z" id="Body" stroke="#000000" stroke-width="3" fill="#E02020"></path>
                    <ellipse id="Left-Foot" fill="#000000" transform="translate(54.005375, 358.997435) rotate(25.000000) translate(-54.005375, -358.997435) " cx="54.0053746" cy="358.997435" rx="12.6191219" ry="25.007358"></ellipse>
                    <ellipse id="Right-Foot" fill="#000000" transform="translate(228.005375, 358.997435) scale(-1, 1) rotate(25.000000) translate(-228.005375, -358.997435) " cx="228.005375" cy="358.997435" rx="12.6191219" ry="25.007358"></ellipse>
                    <circle id="Left-Hand" fill="#000000" cx="47" cy="20" r="20"></circle>
                    <circle id="Right-Hand" fill="#000000" transform="translate(235.000000, 20.000000) scale(-1, 1) translate(-235.000000, -20.000000) " cx="235" cy="20" r="20"></circle>
                    <circle id="Head" fill="#000000" cx="141" cy="79" r="36"></circle>
                </g>
                <g id="Rig" transform="translate(70.000000, 109.000000)" fill="#000000">
                    <polygon id="Left-Leg-Strap" points="8.99804688 141.425781 52.8134766 171.421875 43.7158203 188.182617 0.639648438 159.78418"></polygon>
                    <polygon id="Left-Leg-Harness" points="30.8144531 132.661133 11.3427734 132.661133 12.638052 122.413937 28.1416016 115.120117"></polygon>
                    <polygon id="Right-Leg-Strap" transform="translate(115.086914, 164.378418) scale(-1, 1) translate(-115.086914, -164.378418) " points="97.3583984 141 141.173828 170.996094 132.076172 187.756836 89 159.358398"></polygon>
                    <polygon id="Right-Leg-Harness" transform="translate(120.735840, 123.770508) scale(-1, 1) translate(-120.735840, -123.770508) " points="130.47168 132.541016 111 132.541016 112.295279 122.29382 127.798828 115"></polygon>
                    <path d="M110,4 L100,0 L94,9 C94,9 82.5,14 71,14 C59.5,14 48,9 48,9 L42,0 L32,4 L34,17 C34,17 26,74 26,124 C26,131 32,136 36,136 C40,136 42,136 44,141 C46,146 96,146 98,141 C100,136 102,136 106,136 C110,136 116,131 116,124 C116,74 108,17 108,17 L110,4 Z"></path>
                </g>
            </g>
            <g id="Outside-Center" transform="translate(244.658946, 228.712725) rotate(-345.000000) translate(-244.658946, -228.712725) translate(103.658946, 29.712725)">
                <g id="Skydiver">
                    <path d="M235,11.5 C236.756509,11.5 238.388771,12.0324107 239.743538,12.9454828 C241.158881,13.899381 242.272108,15.2675858 242.908235,16.8766584 L242.908235,16.8766584 L278.25554,84.6857921 C279.682737,87.1270995 280.5,89.9681507 280.5,93 C280.5,96.096103 279.647695,98.9932279 278.163982,101.468882 C276.619543,104.045862 274.391991,106.166573 271.731513,107.580534 L271.731513,107.580534 L198.327476,153.460659 C196.805471,154.333141 195.177492,155.045128 193.463572,155.558211 C193.126454,155.659131 192.787885,155.751795 192.448254,155.837206 C192.427637,156.237378 192.410124,156.601139 192.395302,156.927055 C191.946416,166.797307 190.803964,211.458531 204.062108,252.269762 L204.062108,252.269762 L256.473052,364.647235 C257.774154,367.496079 258.5,370.66329 258.5,374 C258.5,380.213203 255.981602,385.838203 251.909903,389.909903 C247.838203,393.981602 242.213203,396.5 236,396.5 C231.586892,396.5 227.470336,395.229899 223.996606,393.034402 C220.395983,390.758705 217.485461,387.489866 215.650471,383.612522 L215.650471,383.612522 L156.316185,274.70816 C155.641012,273.593434 155.045692,272.424946 154.538193,271.210615 C154.177661,270.535286 153.886935,269.948725 153.581737,269.334054 C152.340523,266.834238 150.855677,263.945092 148.388678,261.969178 C146.554013,260.499723 144.194286,259.5 141,259.5 C138.191277,259.5 135.762224,260.652887 133.757428,262.297003 C130.898469,264.641612 128.937461,267.984047 127.975232,269.910791 C127.315994,271.694788 126.56844,273.247625 125.683815,274.70816 L125.683815,274.70816 L66.3495294,383.612522 C64.5145392,387.489866 61.6040175,390.758705 58.0033943,393.034402 C54.5296642,395.229899 50.4131078,396.5 46,396.5 C39.7867966,396.5 34.1617966,393.981602 30.0900974,389.909903 C26.0183983,385.838203 23.5,380.213203 23.5,374 C23.5,370.661647 24.2265628,367.492955 25.5267035,364.6534 L25.5267035,364.6534 L77.7516386,252.664235 C88.578922,219.369466 89.4404209,167.643485 89.4975777,156.966024 C89.4994111,156.623531 89.5008691,156.238797 89.50146,155.816017 C89.1433135,155.727326 88.786525,155.62939 88.4314432,155.522104 C86.7572966,155.016273 85.1666395,154.316375 83.683847,153.451766 L83.683847,153.451766 L10.268386,107.58048 C7.6079524,106.166519 5.38043782,104.04583 3.83601824,101.468882 C2.35230544,98.9932279 1.5,96.096103 1.5,93 C1.5,89.9681507 2.31726343,87.1270995 3.74446048,84.6857921 L3.74446048,84.6857921 L39.0917651,16.8766584 C39.727892,15.2675858 40.8411191,13.899381 42.2564619,12.9454828 C43.6112292,12.0324107 45.2434906,11.5 47,11.5 C49.3472102,11.5 51.4722102,12.4513949 53.0104076,13.9895924 C54.5486051,15.5277898 55.5,17.6527898 55.5,20 C55.5,20.9612036 55.340845,21.8852304 55.0467839,22.7469132 L55.0467839,22.7469132 L37.6567855,83.8025689 L101.384221,112.378309 C107.37723,111.885153 110.857469,110.171667 112.898157,108.225276 C114.351188,106.839387 115.117167,105.306272 115.496993,103.878368 C115.828053,102.633793 115.859653,101.468105 115.789451,100.546987 L115.789451,100.546987 L166.211825,100.50161 C166.134943,101.428616 166.158227,102.605634 166.483122,103.863366 C166.855506,105.304941 167.616367,106.85315 169.071075,108.248448 C171.109744,110.203857 174.595898,111.91763 180.617681,112.377315 L180.617681,112.377315 L244.342195,83.8025721 L226.95322,22.7469237 C226.659156,21.885238 226.5,20.9612075 226.5,20 C226.5,17.6527898 227.451395,15.5277898 228.989592,13.9895924 C230.52779,12.4513949 232.65279,11.5 235,11.5 L235,11.5 Z" id="Body" stroke="#000000" stroke-width="3" fill="#6DD400"></path>
                    <ellipse id="Left-Foot" fill="#000000" transform="translate(54.005375, 358.997435) rotate(25.000000) translate(-54.005375, -358.997435) " cx="54.0053746" cy="358.997435" rx="12.6191219" ry="25.007358"></ellipse>
                    <ellipse id="Right-Foot" fill="#000000" transform="translate(228.005375, 358.997435) scale(-1, 1) rotate(25.000000) translate(-228.005375, -358.997435) " cx="228.005375" cy="358.997435" rx="12.6191219" ry="25.007358"></ellipse>
                    <circle id="Left-Hand" fill="#000000" cx="47" cy="20" r="20"></circle>
                    <circle id="Right-Hand" fill="#000000" transform="translate(235.000000, 20.000000) scale(-1, 1) translate(-235.000000, -20.000000) " cx="235" cy="20" r="20"></circle>
                    <circle id="Head" fill="#000000" cx="141" cy="79" r="36"></circle>
                </g>
                <g id="Rig" transform="translate(70.000000, 109.000000)" fill="#000000">
                    <polygon id="Left-Leg-Strap" points="8.99804688 141.425781 52.8134766 171.421875 43.7158203 188.182617 0.639648438 159.78418"></polygon>
                    <polygon id="Left-Leg-Harness" points="30.8144531 132.661133 11.3427734 132.661133 12.638052 122.413937 28.1416016 115.120117"></polygon>
                    <polygon id="Right-Leg-Strap" transform="translate(115.086914, 164.378418) scale(-1, 1) translate(-115.086914, -164.378418) " points="97.3583984 141 141.173828 170.996094 132.076172 187.756836 89 159.358398"></polygon>
                    <polygon id="Right-Leg-Harness" transform="translate(120.735840, 123.770508) scale(-1, 1) translate(-120.735840, -123.770508) " points="130.47168 132.541016 111 132.541016 112.295279 122.29382 127.798828 115"></polygon>
                    <path d="M110,4 L100,0 L94,9 C94,9 82.5,14 71,14 C59.5,14 48,9 48,9 L42,0 L32,4 L34,17 C34,17 26,74 26,124 C26,131 32,136 36,136 C40,136 42,136 44,141 C46,146 96,146 98,141 C100,136 102,136 106,136 C110,136 116,131 116,124 C116,74 108,17 108,17 L110,4 Z"></path>
                </g>
            </g>
            <g id="Group" transform="translate(0.000000, 401.712725)">
                <g id="Inside-Center" transform="translate(244.658946, 0.000000)">
                    <g id="Skydiver">
                        <path d="M235,11.5 C236.756509,11.5 238.388771,12.0324107 239.743538,12.9454828 C241.158881,13.899381 242.272108,15.2675858 242.908235,16.8766584 L242.908235,16.8766584 L278.25554,84.6857921 C279.682737,87.1270995 280.5,89.9681507 280.5,93 C280.5,96.096103 279.647695,98.9932279 278.163982,101.468882 C276.619543,104.045862 274.391991,106.166573 271.731513,107.580534 L271.731513,107.580534 L198.327476,153.460659 C196.805471,154.333141 195.177492,155.045128 193.463572,155.558211 C193.126454,155.659131 192.787885,155.751795 192.448254,155.837206 C192.427637,156.237378 192.410124,156.601139 192.395302,156.927055 C191.946416,166.797307 190.803964,211.458531 204.062108,252.269762 L204.062108,252.269762 L256.473052,364.647235 C257.774154,367.496079 258.5,370.66329 258.5,374 C258.5,380.213203 255.981602,385.838203 251.909903,389.909903 C247.838203,393.981602 242.213203,396.5 236,396.5 C231.586892,396.5 227.470336,395.229899 223.996606,393.034402 C220.395983,390.758705 217.485461,387.489866 215.650471,383.612522 L215.650471,383.612522 L156.316185,274.70816 C155.641012,273.593434 155.045692,272.424946 154.538193,271.210615 C154.177661,270.535286 153.886935,269.948725 153.581737,269.334054 C152.340523,266.834238 150.855677,263.945092 148.388678,261.969178 C146.554013,260.499723 144.194286,259.5 141,259.5 C138.191277,259.5 135.762224,260.652887 133.757428,262.297003 C130.898469,264.641612 128.937461,267.984047 127.975232,269.910791 C127.315994,271.694788 126.56844,273.247625 125.683815,274.70816 L125.683815,274.70816 L66.3495294,383.612522 C64.5145392,387.489866 61.6040175,390.758705 58.0033943,393.034402 C54.5296642,395.229899 50.4131078,396.5 46,396.5 C39.7867966,396.5 34.1617966,393.981602 30.0900974,389.909903 C26.0183983,385.838203 23.5,380.213203 23.5,374 C23.5,370.661647 24.2265628,367.492955 25.5267035,364.6534 L25.5267035,364.6534 L77.7516386,252.664235 C88.578922,219.369466 89.4404209,167.643485 89.4975777,156.966024 C89.4994111,156.623531 89.5008691,156.238797 89.50146,155.816017 C89.1433135,155.727326 88.786525,155.62939 88.4314432,155.522104 C86.7572966,155.016273 85.1666395,154.316375 83.683847,153.451766 L83.683847,153.451766 L10.268386,107.58048 C7.6079524,106.166519 5.38043782,104.04583 3.83601824,101.468882 C2.35230544,98.9932279 1.5,96.096103 1.5,93 C1.5,89.9681507 2.31726343,87.1270995 3.74446048,84.6857921 L3.74446048,84.6857921 L39.0917651,16.8766584 C39.727892,15.2675858 40.8411191,13.899381 42.2564619,12.9454828 C43.6112292,12.0324107 45.2434906,11.5 47,11.5 C49.3472102,11.5 51.4722102,12.4513949 53.0104076,13.9895924 C54.5486051,15.5277898 55.5,17.6527898 55.5,20 C55.5,20.9612036 55.340845,21.8852304 55.0467839,22.7469132 L55.0467839,22.7469132 L37.6567855,83.8025689 L101.384221,112.378309 C107.37723,111.885153 110.857469,110.171667 112.898157,108.225276 C114.351188,106.839387 115.117167,105.306272 115.496993,103.878368 C115.828053,102.633793 115.859653,101.468105 115.789451,100.546987 L115.789451,100.546987 L166.211825,100.50161 C166.134943,101.428616 166.158227,102.605634 166.483122,103.863366 C166.855506,105.304941 167.616367,106.85315 169.071075,108.248448 C171.109744,110.203857 174.595898,111.91763 180.617681,112.377315 L180.617681,112.377315 L244.342195,83.8025721 L226.95322,22.7469237 C226.659156,21.885238 226.5,20.9612075 226.5,20 C226.5,17.6527898 227.451395,15.5277898 228.989592,13.9895924 C230.52779,12.4513949 232.65279,11.5 235,11.5 L235,11.5 Z" id="Body" stroke="#000000" stroke-width="3" fill="#0065FF"></path>
                        <ellipse id="Left-Foot" fill="#000000" transform="translate(54.005375, 358.997435) rotate(25.000000) translate(-54.005375, -358.997435) " cx="54.0053746" cy="358.997435" rx="12.6191219" ry="25.007358"></ellipse>
                        <ellipse id="Right-Foot" fill="#000000" transform="translate(228.005375, 358.997435) scale(-1, 1) rotate(25.000000) translate(-228.005375, -358.997435) " cx="228.005375" cy="358.997435" rx="12.6191219" ry="25.007358"></ellipse>
                        <circle id="Left-Hand" fill="#000000" cx="47" cy="20" r="20"></circle>
                        <circle id="Right-Hand" fill="#000000" transform="translate(235.000000, 20.000000) scale(-1, 1) translate(-235.000000, -20.000000) " cx="235" cy="20" r="20"></circle>
                        <circle id="Head" fill="#000000" cx="141" cy="79" r="36"></circle>
                    </g>
                    <g id="Rig" transform="translate(70.000000, 109.000000)" fill="#000000">
                        <polygon id="Left-Leg-Strap" points="8.99804688 141.425781 52.8134766 171.421875 43.7158203 188.182617 0.639648438 159.78418"></polygon>
                        <polygon id="Left-Leg-Harness" points="30.8144531 132.661133 11.3427734 132.661133 12.638052 122.413937 28.1416016 115.120117"></polygon>
                        <polygon id="Right-Leg-Strap" transform="translate(115.086914, 164.378418) scale(-1, 1) translate(-115.086914, -164.378418) " points="97.3583984 141 141.173828 170.996094 132.076172 187.756836 89 159.358398"></polygon>
                        <polygon id="Right-Leg-Harness" transform="translate(120.735840, 123.770508) scale(-1, 1) translate(-120.735840, -123.770508) " points="130.47168 132.541016 111 132.541016 112.295279 122.29382 127.798828 115"></polygon>
                        <path d="M110,4 L100,0 L94,9 C94,9 82.5,14 71,14 C59.5,14 48,9 48,9 L42,0 L32,4 L34,17 C34,17 26,74 26,124 C26,131 32,136 36,136 C40,136 42,136 44,141 C46,146 96,146 98,141 C100,136 102,136 106,136 C110,136 116,131 116,124 C116,74 108,17 108,17 L110,4 Z"></path>
                    </g>
                </g>
                <g id="Tail" transform="translate(244.658946, 444.000000) rotate(-315.000000) translate(-244.658946, -444.000000) translate(114.658946, 228.000000)">
                    <g id="Skydiver" transform="translate(130.000000, 216.000000) scale(-1, 1) translate(-130.000000, -216.000000) ">
                        <path d="M63,12.5 C65.3472102,12.5 67.4722102,13.4513949 69.0104076,14.9895924 C70.5486051,16.5277898 71.5,18.6527898 71.5,21 C71.5,21.9612033 71.340845,22.8852301 71.0467841,23.7469126 L71.0467841,23.7469126 L51.879091,91.0437837 L89.6405528,143.307442 C93.5634731,140.533912 93.9702317,136.768315 93.7839114,134.5 L93.7839114,134.5 L144.211959,134.5 C144.134917,135.427253 144.158039,136.604906 144.483122,137.863366 C144.855506,139.304941 145.616367,140.85315 147.071075,142.248448 C149.109744,144.203857 152.595897,145.91763 158.617681,146.377315 L158.617681,146.377315 L206.334745,124.980534 L172.418249,106.10125 C170.658053,105.540861 169.147163,104.422206 168.09217,102.954265 C167.089779,101.559516 166.5,99.8485809 166.5,98 C166.5,95.6527898 167.451395,93.5277898 168.989592,91.9895924 C170.52779,90.4513949 172.65279,89.5 175,89.5 C175.809296,89.5 176.592237,89.6127912 177.333807,89.823994 L177.333807,89.823994 L244.34443,110.66509 C246.156529,110.922631 247.873789,111.474725 249.446169,112.271374 L249.446169,112.271374 L250.358664,112.558556 C255.200704,115.591359 258.5,120.910235 258.5,127 C258.5,130.096103 257.647695,132.993228 256.163982,135.468882 C254.619543,138.045862 252.391991,140.166573 249.731513,141.580534 L249.731513,141.580534 L176.327476,187.460659 C174.805471,188.333141 173.177492,189.045128 171.463572,189.558211 C171.126454,189.659131 170.787885,189.751795 170.448254,189.837206 C170.427637,190.237378 170.410124,190.601139 170.395302,190.927055 C169.946416,200.797307 168.803964,245.458531 182.062108,286.269762 L182.062108,286.269762 L234.473052,398.647235 C235.774154,401.496079 236.5,404.66329 236.5,408 C236.5,414.213203 233.981602,419.838203 229.909903,423.909903 C225.838203,427.981602 220.213203,430.5 214,430.5 C209.586892,430.5 205.470336,429.229899 201.996606,427.034402 C198.395983,424.758705 195.485461,421.489866 193.650471,417.612522 L193.650471,417.612522 L134.316185,308.70816 C133.641012,307.593434 133.045692,306.424946 132.538193,305.210615 C132.177661,304.535286 131.886935,303.948725 131.581737,303.334054 C130.340523,300.834238 128.855677,297.945092 126.388678,295.969178 C124.554013,294.499723 122.194286,293.5 119,293.5 C116.191277,293.5 113.762224,294.652887 111.757428,296.297003 C108.898469,298.641612 106.937461,301.984047 105.975232,303.910791 C105.315994,305.694788 104.56844,307.247625 103.683815,308.70816 L103.683815,308.70816 L44.3495294,417.612522 C42.5145392,421.489866 39.6040175,424.758705 36.0033943,427.034402 C32.5296642,429.229899 28.4131078,430.5 24,430.5 C17.7867966,430.5 12.1617966,427.981602 8.09009742,423.909903 C4.01839828,419.838203 1.5,414.213203 1.5,408 C1.5,404.661647 2.22656284,401.492955 3.5267015,398.653405 L3.5267015,398.653405 L55.7506974,286.667167 C67.02513,251.997392 67.4932086,197.333746 67.5012828,189.85313 L67.5012828,189.85313 L67.5009995,189.209483 C67.4611358,188.767371 67.3516081,188.193855 67.1896042,187.372382 C67.1438576,187.140414 67.0938457,186.88684 67.0402362,186.608506 C66.9974965,186.386607 66.9584791,186.180168 66.9215117,185.98741 C66.7489319,185.877322 66.5777722,185.764842 66.4080882,185.649993 C62.2771784,182.854025 59.1245324,178.724358 57.5704322,173.878547 L57.5704322,173.878547 L19.1751743,101.641618 C18.1578594,99.2914481 17.5,96.7227174 17.5,94 C17.5,90.9681507 18.3172634,88.1270995 19.7444605,85.6857921 L19.7444605,85.6857921 L55.0917651,17.8766584 C55.727892,16.2675858 56.8411191,14.899381 58.2564619,13.9454828 C59.6112292,13.0324107 61.2434906,12.5 63,12.5 L63,12.5 Z" id="Body" stroke="#000000" stroke-width="3" fill="#F7E400"></path>
                        <ellipse id="Left-Foot" fill="#000000" transform="translate(32.005375, 392.997435) rotate(25.000000) translate(-32.005375, -392.997435) " cx="32.0053746" cy="392.997435" rx="12.6191219" ry="25.007358"></ellipse>
                        <ellipse id="Right-Foot" fill="#000000" transform="translate(206.005375, 392.997435) scale(-1, 1) rotate(25.000000) translate(-206.005375, -392.997435) " cx="206.005375" cy="392.997435" rx="12.6191219" ry="25.007358"></ellipse>
                        <circle id="Left-Hand" fill="#000000" cx="63" cy="20" r="20"></circle>
                        <circle id="Right-Hand" fill="#000000" transform="translate(175.000000, 98.000000) scale(-1, 1) translate(-175.000000, -98.000000) " cx="175" cy="98" r="20"></circle>
                        <circle id="Head" fill="#000000" cx="119" cy="113" r="36"></circle>
                    </g>
                    <g id="Rig" transform="translate(70.000000, 143.000000)" fill="#000000">
                        <polygon id="Left-Leg-Strap" points="8.99804688 141.425781 52.8134766 171.421875 43.7158203 188.182617 0.639648438 159.78418"></polygon>
                        <polygon id="Left-Leg-Harness" points="30.8144531 132.661133 11.3427734 132.661133 12.638052 122.413937 28.1416016 115.120117"></polygon>
                        <polygon id="Right-Leg-Strap" transform="translate(115.086914, 164.378418) scale(-1, 1) translate(-115.086914, -164.378418) " points="97.3583984 141 141.173828 170.996094 132.076172 187.756836 89 159.358398"></polygon>
                        <polygon id="Right-Leg-Harness" transform="translate(120.735840, 123.770508) scale(-1, 1) translate(-120.735840, -123.770508) " points="130.47168 132.541016 111 132.541016 112.295279 122.29382 127.798828 115"></polygon>
                        <path d="M110,4 L100,0 L94,9 C94,9 82.5,14 71,14 C59.5,14 48,9 48,9 L42,0 L32,4 L34,17 C34,17 26,74 26,124 C26,131 32,136 36,136 C40,136 42,136 44,141 C46,146 96,146 98,141 C100,136 102,136 106,136 C110,136 116,131 116,124 C116,74 108,17 108,17 L110,4 Z"></path>
                    </g>
                </g>
            </g>
        </g>
        <g id="Inter" transform="translate(0.000000, 960.000000)">
            <g id="Back-Piece" transform="translate(114.000000, 399.000000)">
                <g id="Inside-Center" transform="translate(141.000000, 482.000000) rotate(-180.000000) translate(-141.000000, -482.000000) translate(0.000000, 283.000000)">
                    <g id="Skydiver">
                        <path d="M235,11.5 C236.756509,11.5 238.388771,12.0324107 239.743538,12.9454828 C241.158881,13.899381 242.272108,15.2675858 242.908235,16.8766584 L242.908235,16.8766584 L278.25554,84.6857921 C279.682737,87.1270995 280.5,89.9681507 280.5,93 C280.5,96.096103 279.647695,98.9932279 278.163982,101.468882 C276.619543,104.045862 274.391991,106.166573 271.731513,107.580534 L271.731513,107.580534 L198.327476,153.460659 C196.805471,154.333141 195.177492,155.045128 193.463572,155.558211 C193.126454,155.659131 192.787885,155.751795 192.448254,155.837206 C192.427637,156.237378 192.410124,156.601139 192.395302,156.927055 C191.946416,166.797307 190.803964,211.458531 204.062108,252.269762 L204.062108,252.269762 L256.473052,364.647235 C257.774154,367.496079 258.5,370.66329 258.5,374 C258.5,380.213203 255.981602,385.838203 251.909903,389.909903 C247.838203,393.981602 242.213203,396.5 236,396.5 C231.586892,396.5 227.470336,395.229899 223.996606,393.034402 C220.395983,390.758705 217.485461,387.489866 215.650471,383.612522 L215.650471,383.612522 L156.316185,274.70816 C155.641012,273.593434 155.045692,272.424946 154.538193,271.210615 C154.177661,270.535286 153.886935,269.948725 153.581737,269.334054 C152.340523,266.834238 150.855677,263.945092 148.388678,261.969178 C146.554013,260.499723 144.194286,259.5 141,259.5 C138.191277,259.5 135.762224,260.652887 133.757428,262.297003 C130.898469,264.641612 128.937461,267.984047 127.975232,269.910791 C127.315994,271.694788 126.56844,273.247625 125.683815,274.70816 L125.683815,274.70816 L66.3495294,383.612522 C64.5145392,387.489866 61.6040175,390.758705 58.0033943,393.034402 C54.5296642,395.229899 50.4131078,396.5 46,396.5 C39.7867966,396.5 34.1617966,393.981602 30.0900974,389.909903 C26.0183983,385.838203 23.5,380.213203 23.5,374 C23.5,370.661647 24.2265628,367.492955 25.5267035,364.6534 L25.5267035,364.6534 L77.7516386,252.664235 C88.578922,219.369466 89.4404209,167.643485 89.4975777,156.966024 C89.4994111,156.623531 89.5008691,156.238797 89.50146,155.816017 C89.1433135,155.727326 88.786525,155.62939 88.4314432,155.522104 C86.7572966,155.016273 85.1666395,154.316375 83.683847,153.451766 L83.683847,153.451766 L10.268386,107.58048 C7.6079524,106.166519 5.38043782,104.04583 3.83601824,101.468882 C2.35230544,98.9932279 1.5,96.096103 1.5,93 C1.5,89.9681507 2.31726343,87.1270995 3.74446048,84.6857921 L3.74446048,84.6857921 L39.0917651,16.8766584 C39.727892,15.2675858 40.8411191,13.899381 42.2564619,12.9454828 C43.6112292,12.0324107 45.2434906,11.5 47,11.5 C49.3472102,11.5 51.4722102,12.4513949 53.0104076,13.9895924 C54.5486051,15.5277898 55.5,17.6527898 55.5,20 C55.5,20.9612036 55.340845,21.8852304 55.0467839,22.7469132 L55.0467839,22.7469132 L37.6567855,83.8025689 L101.384221,112.378309 C107.37723,111.885153 110.857469,110.171667 112.898157,108.225276 C114.351188,106.839387 115.117167,105.306272 115.496993,103.878368 C115.828053,102.633793 115.859653,101.468105 115.789451,100.546987 L115.789451,100.546987 L166.211825,100.50161 C166.134943,101.428616 166.158227,102.605634 166.483122,103.863366 C166.855506,105.304941 167.616367,106.85315 169.071075,108.248448 C171.109744,110.203857 174.595898,111.91763 180.617681,112.377315 L180.617681,112.377315 L244.342195,83.8025721 L226.95322,22.7469237 C226.659156,21.885238 226.5,20.9612075 226.5,20 C226.5,17.6527898 227.451395,15.5277898 228.989592,13.9895924 C230.52779,12.4513949 232.65279,11.5 235,11.5 L235,11.5 Z" id="Body" stroke="#000000" stroke-width="3" fill="#0065FF"></path>
                        <ellipse id="Left-Foot" fill="#000000" transform="translate(54.005375, 358.997435) rotate(25.000000) translate(-54.005375, -358.997435) " cx="54.0053746" cy="358.997435" rx="12.6191219" ry="25.007358"></ellipse>
                        <ellipse id="Right-Foot" fill="#000000" transform="translate(228.005375, 358.997435) scale(-1, 1) rotate(25.000000) translate(-228.005375, -358.997435) " cx="228.005375" cy="358.997435" rx="12.6191219" ry="25.007358"></ellipse>
                        <circle id="Left-Hand" fill="#000000" cx="47" cy="20" r="20"></circle>
                        <circle id="Right-Hand" fill="#000000" transform="translate(235.000000, 20.000000) scale(-1, 1) translate(-235.000000, -20.000000) " cx="235" cy="20" r="20"></circle>
                        <circle id="Head" fill="#000000" cx="141" cy="79" r="36"></circle>
                    </g>
                    <g id="Rig" transform="translate(70.000000, 109.000000)" fill="#000000">
                        <polygon id="Left-Leg-Strap" points="8.99804688 141.425781 52.8134766 171.421875 43.7158203 188.182617 0.639648438 159.78418"></polygon>
                        <polygon id="Left-Leg-Harness" points="30.8144531 132.661133 11.3427734 132.661133 12.638052 122.413937 28.1416016 115.120117"></polygon>
                        <polygon id="Right-Leg-Strap" transform="translate(115.086914, 164.378418) scale(-1, 1) translate(-115.086914, -164.378418) " points="97.3583984 141 141.173828 170.996094 132.076172 187.756836 89 159.358398"></polygon>
                        <polygon id="Right-Leg-Harness" transform="translate(120.735840, 123.770508) scale(-1, 1) translate(-120.735840, -123.770508) " points="130.47168 132.541016 111 132.541016 112.295279 122.29382 127.798828 115"></polygon>
                        <path d="M110,4 L100,0 L94,9 C94,9 82.5,14 71,14 C59.5,14 48,9 48,9 L42,0 L32,4 L34,17 C34,17 26,74 26,124 C26,131 32,136 36,136 C40,136 42,136 44,141 C46,146 96,146 98,141 C100,136 102,136 106,136 C110,136 116,131 116,124 C116,74 108,17 108,17 L110,4 Z"></path>
                    </g>
                </g>
                <g id="Tail" transform="translate(141.000000, 177.500000) rotate(-180.000000) translate(-141.000000, -177.500000) translate(0.000000, 0.000000)">
                    <g id="Skydiver">
                        <path d="M197,12.5 C197.809296,12.5 198.592237,12.6127912 199.333807,12.823994 L199.333807,12.823994 L266.34443,33.6650902 C268.156529,33.9226311 269.873789,34.4747247 271.446169,35.2713738 L271.446169,35.2713738 L272.358664,35.5585558 C277.200704,38.5913589 280.5,43.9102349 280.5,50 C280.5,53.096103 279.647695,55.9932279 278.163982,58.4688825 C276.619543,61.0458623 274.391991,63.1665726 271.731513,64.5805337 L271.731513,64.5805337 L198.327476,110.460659 C196.805471,111.333141 195.177492,112.045128 193.463572,112.558211 C193.126454,112.659131 192.787885,112.751795 192.448254,112.837206 C192.427637,113.237378 192.410124,113.601139 192.395302,113.927055 C191.946416,123.797307 190.803964,168.458531 204.062108,209.269762 L204.062108,209.269762 L256.473052,321.647235 C257.774154,324.496079 258.5,327.66329 258.5,331 C258.5,337.213203 255.981602,342.838203 251.909903,346.909903 C247.838203,350.981602 242.213203,353.5 236,353.5 C231.586892,353.5 227.470336,352.229899 223.996606,350.034402 C220.395983,347.758705 217.485461,344.489866 215.650471,340.612522 L215.650471,340.612522 L156.316185,231.70816 C155.641012,230.593434 155.045692,229.424946 154.538193,228.210615 C154.177661,227.535286 153.886935,226.948725 153.581737,226.334054 C152.340523,223.834238 150.855677,220.945092 148.388678,218.969178 C146.554013,217.499723 144.194286,216.5 141,216.5 C138.191277,216.5 135.762224,217.652887 133.757428,219.297003 C130.898469,221.641612 128.937461,224.984047 127.975232,226.910791 C127.315994,228.694788 126.56844,230.247625 125.683815,231.70816 L125.683815,231.70816 L66.3495294,340.612522 C64.5145392,344.489866 61.6040175,347.758705 58.0033943,350.034402 C54.5296642,352.229899 50.4131078,353.5 46,353.5 C39.7867966,353.5 34.1617966,350.981602 30.0900974,346.909903 C26.0183983,342.838203 23.5,337.213203 23.5,331 C23.5,327.661647 24.2265628,324.492955 25.5267035,321.6534 L25.5267035,321.6534 L77.7516386,209.664235 C88.578922,176.369466 89.4404209,124.643485 89.4975777,113.966024 C89.4994111,113.623531 89.5008691,113.238797 89.50146,112.816017 C89.1433135,112.727326 88.786525,112.62939 88.4314432,112.522104 C86.7572966,112.016273 85.1666395,111.316375 83.683847,110.451766 L83.683847,110.451766 L10.268386,64.5804797 C7.6079524,63.1665187 5.38043782,61.0458295 3.83601824,58.4688825 C2.35230544,55.9932279 1.5,53.096103 1.5,50 C1.5,44.2040432 4.48859865,39.1063853 9.00818592,36.1628541 L9.00818592,36.1628541 L10.0916436,35.5148422 C11.9850492,34.4787197 14.1039701,33.8032718 16.3559911,33.5807651 L16.3559911,33.5807651 L82.8662338,12.6511998 C83.8153954,12.5592789 84.4009698,12.5 85,12.5 C87.3472102,12.5 89.4722102,13.4513949 91.0104076,14.9895924 C92.5486051,16.5277898 93.5,18.6527898 93.5,21 C93.5,23.823945 92.1227017,26.3259756 90.0037937,27.8719645 L90.0037937,27.8719645 L53.9125706,48.0917196 L101.38422,69.3783089 C107.37723,68.8851527 110.857469,67.1716666 112.898157,65.2252763 C114.351188,63.8393874 115.117167,62.3062715 115.496993,60.878368 C115.828053,59.6337934 115.859653,58.4681052 115.789451,57.5469866 L115.789451,57.5469866 L166.211825,57.5016098 C166.134943,58.428616 166.158227,59.605634 166.483122,60.8633665 C166.855506,62.3049407 167.616367,63.8531502 169.071075,65.2484478 C171.109744,67.2038569 174.595897,68.9176303 180.617681,69.3773153 L180.617681,69.3773153 L228.334745,47.9805339 L194.418249,29.1012501 C192.658053,28.5408611 191.147163,27.4222057 190.09217,25.9542651 C189.089779,24.5595164 188.5,22.8485809 188.5,21 C188.5,18.6527898 189.451395,16.5277898 190.989592,14.9895924 C192.52779,13.4513949 194.65279,12.5 197,12.5 Z" id="Body" stroke="#000000" stroke-width="3" fill="#F7E400"></path>
                        <ellipse id="Left-Foot" fill="#000000" transform="translate(54.005375, 315.997435) rotate(25.000000) translate(-54.005375, -315.997435) " cx="54.0053746" cy="315.997435" rx="12.6191219" ry="25.007358"></ellipse>
                        <ellipse id="Right-Foot" fill="#000000" transform="translate(228.005375, 315.997435) scale(-1, 1) rotate(25.000000) translate(-228.005375, -315.997435) " cx="228.005375" cy="315.997435" rx="12.6191219" ry="25.007358"></ellipse>
                        <circle id="Left-Hand" fill="#000000" cx="85" cy="21" r="20"></circle>
                        <circle id="Right-Hand" fill="#000000" transform="translate(197.000000, 21.000000) scale(-1, 1) translate(-197.000000, -21.000000) " cx="197" cy="21" r="20"></circle>
                        <circle id="Head" fill="#000000" cx="141" cy="36" r="36"></circle>
                    </g>
                    <g id="Rig" transform="translate(70.000000, 66.000000)" fill="#000000">
                        <polygon id="Left-Leg-Strap" points="8.99804688 141.425781 52.8134766 171.421875 43.7158203 188.182617 0.639648438 159.78418"></polygon>
                        <polygon id="Left-Leg-Harness" points="30.8144531 132.661133 11.3427734 132.661133 12.638052 122.413937 28.1416016 115.120117"></polygon>
                        <polygon id="Right-Leg-Strap" transform="translate(115.086914, 164.378418) scale(-1, 1) translate(-115.086914, -164.378418) " points="97.3583984 141 141.173828 170.996094 132.076172 187.756836 89 159.358398"></polygon>
                        <polygon id="Right-Leg-Harness" transform="translate(120.735840, 123.770508) scale(-1, 1) translate(-120.735840, -123.770508) " points="130.47168 132.541016 111 132.541016 112.295279 122.29382 127.798828 115"></polygon>
                        <path d="M110,4 L100,0 L94,9 C94,9 82.5,14 71,14 C59.5,14 48,9 48,9 L42,0 L32,4 L34,17 C34,17 26,74 26,124 C26,131 32,136 36,136 C40,136 42,136 44,141 C46,146 96,146 98,141 C100,136 102,136 106,136 C110,136 116,131 116,124 C116,74 108,17 108,17 L110,4 Z"></path>
                    </g>
                </g>
            </g>
            <g id="360°" transform="translate(490.000000, 689.546875)" fill="#000000">
                <path d="M149.375,53.2265625 L159.078125,53.2265625 C173.070312,53.2265625 181.578125,60.46875 181.71875,71.71875 C181.859375,82.7578125 173.5625,90.9140625 159.21875,90.9140625 C145.578125,90.9140625 139.179688,82.8984375 137.984375,73.546875 L128,73.546875 C128.632812,87.9609375 138.617188,100.125 158.867188,100.125 C178.554688,100.125 192.6875,87.890625 192.40625,71.578125 C192.054688,55.96875 179.398438,48.8671875 170.890625,48.1640625 L170.890625,48.0234375 C178.625,46.828125 189.03125,38.109375 188.679688,24.3984375 C188.328125,10.6875 176.9375,0 159.148438,0 C139.882812,0 130.671875,13.78125 130.460938,25.59375 L140.585938,25.59375 C141.148438,18.2109375 146.28125,9.28125 159.148438,9.28125 C170.75,9.28125 177.921875,16.2421875 177.992188,26.15625 C178.0625,36.3515625 170.117188,43.875 158.445312,43.875 L149.375,43.875 L149.375,53.2265625 Z M270.382812,24.1875 C269.257812,12.65625 259.132812,0.3515625 242.046875,0.3515625 C221.65625,0.3515625 206.398438,17.4375 206.398438,54.421875 C206.398438,85.78125 220.390625,99.984375 240.429688,99.984375 C258.5,99.984375 272.914062,87.8203125 272.914062,67.4296875 C272.914062,47.0390625 257.023438,35.859375 241.484375,35.859375 C228.898438,35.859375 219.617188,43.171875 216.734375,50.765625 L216.59375,50.765625 C217.4375,21.234375 228.6875,9.5625 241.554688,9.5625 C253.367188,9.5625 259.203125,18.2109375 259.765625,24.1875 L270.382812,24.1875 Z M218.28125,67.921875 C218.28125,53.3671875 228.757812,45.2109375 240.5,45.2109375 C251.398438,45.2109375 262.507812,52.59375 262.507812,68.0625 C262.507812,83.4609375 251.890625,90.7734375 240.570312,90.7734375 C228.898438,90.7734375 218.28125,82.828125 218.28125,67.921875 L218.28125,67.921875 Z M296.1875,46.40625 C296.1875,22.8515625 304.765625,9.28125 318.757812,9.28125 C332.75,9.28125 341.328125,22.8515625 341.328125,46.40625 L341.328125,53.859375 C341.328125,77.34375 332.75,90.7734375 318.757812,90.7734375 C304.765625,90.7734375 296.1875,77.34375 296.1875,53.859375 L296.1875,46.40625 Z M285.710938,53.9296875 C285.710938,82.40625 297.523438,100.054688 318.757812,100.054688 C339.992188,100.054688 351.664062,82.40625 351.664062,53.9296875 L351.664062,46.3359375 C351.664062,17.859375 339.992188,0 318.757812,0 C297.523438,0 285.710938,17.9296875 285.710938,46.3359375 L285.710938,53.9296875 Z M377.46875,30.8671875 C385.695312,30.8671875 392.445312,24.1171875 392.445312,15.890625 C392.445312,7.59375 385.695312,0.9140625 377.46875,0.9140625 C369.101562,0.9140625 362.421875,7.59375 362.421875,15.890625 C362.421875,24.1171875 369.101562,30.8671875 377.46875,30.8671875 L377.46875,30.8671875 Z M377.46875,24.1171875 C373.039062,24.1171875 369.242188,20.25 369.242188,15.890625 C369.242188,11.25 373.039062,7.59375 377.46875,7.59375 C382.039062,7.59375 385.695312,11.25 385.695312,15.890625 C385.695312,20.25 382.039062,24.1171875 377.46875,24.1171875 L377.46875,24.1171875 Z"></path>
                <path d="M84.234375,83.96875 C93.3750457,74.5468279 97.9453125,63.2031913 97.9453125,49.9375 C97.9453125,36.5780582 93.1289544,25.0820794 83.4960938,15.4492188 C73.8632331,5.81635809 62.343817,1 48.9375,1 C35.531183,1 24.0234855,5.79292082 14.4140625,15.3789062 C4.80463945,24.9648917 0,36.4843077 0,49.9375 C0,61.9844352 3.89058609,72.554642 11.671875,81.6484375 L17.015625,77.2890625 C10.2655912,69.4140231 6.890625,60.2969268 6.890625,49.9375 C6.890625,38.4061923 11.0155837,28.5156663 19.265625,20.265625 C27.5156663,12.0155838 37.4061923,7.890625 48.9375,7.890625 C60.4688077,7.890625 70.3593337,12.0155838 78.609375,20.265625 C86.8594162,28.5156663 90.984375,38.4061923 90.984375,49.9375 C90.984375,61.140681 87.0937889,70.843709 79.3125,79.046875 L73.125,65.3359375 L64.1953125,98.9453125 L97.734375,90.015625 L84.234375,83.96875 Z" id="↻"></path>
            </g>
            <g id="Front-Piece">
                <g id="Outside-Center" transform="translate(372.500000, 200.500000) scale(-1, 1) rotate(-180.000000) translate(-372.500000, -200.500000) translate(235.000000, 0.000000)">
                    <g id="Skydiver" transform="translate(137.500000, 200.500000) scale(-1, 1) translate(-137.500000, -200.500000) ">
                        <path d="M255,13.5 C256.95431,13.5 258.754736,14.159276 260.190439,15.268164 C261.939496,16.6190765 263.148769,18.6358759 263.434671,20.9399585 L263.434671,20.9399585 L263.984,20.955 L270.786696,91.1846498 C271.204328,92.5556931 271.447999,94.002461 271.492556,95.4992521 L271.5,96 C271.5,99.096103 270.647695,101.993228 269.163982,104.468882 C267.619543,107.045862 265.391991,109.166573 262.731513,110.580534 L262.731513,110.580534 L189.330258,156.458921 C188.380794,156.997697 187.394332,157.481289 186.370694,157.89183 C186.076827,158.009688 185.781014,158.121078 185.483596,158.227129 C185.462575,158.597919 185.445191,158.925677 185.430949,159.20863 C185.017951,167.41375 183.450566,213.370702 197.062108,255.269762 L197.062108,255.269762 L249.473052,367.647235 C250.774154,370.496079 251.5,373.66329 251.5,377 C251.5,383.213203 248.981602,388.838203 244.909903,392.909903 C240.838203,396.981602 235.213203,399.5 229,399.5 C224.586892,399.5 220.470336,398.229899 216.996606,396.034402 C213.395983,393.758705 210.485461,390.489866 208.650471,386.612522 L208.650471,386.612522 L149.316185,277.70816 C148.641012,276.593434 148.045692,275.424946 147.538193,274.210615 C147.177661,273.535286 146.886935,272.948725 146.581737,272.334054 C145.340523,269.834238 143.855677,266.945092 141.388678,264.969178 C139.554013,263.499723 137.194286,262.5 134,262.5 C131.191277,262.5 128.762224,263.652887 126.757428,265.297003 C123.898469,267.641612 121.937461,270.984047 120.975232,272.910791 C120.315994,274.694788 119.56844,276.247625 118.683815,277.70816 L118.683815,277.70816 L59.3495294,386.612522 C57.5145392,390.489866 54.6040175,393.758705 51.0033943,396.034402 C47.5296642,398.229899 43.4131078,399.5 39,399.5 C32.7867966,399.5 27.1617966,396.981602 23.0900974,392.909903 C19.0183983,388.838203 16.5,383.213203 16.5,377 C16.5,373.661647 17.2265628,370.492955 18.5267015,367.653405 L18.5267015,367.653405 L70.7506974,255.667167 C82.02513,220.997392 82.4932086,166.333746 82.5012828,158.85313 L82.5012828,158.85313 L82.5010048,158.221329 C82.4453837,157.51133 82.3379827,157.123554 82.1607816,156.226281 L82.1607816,156.226281 L13.2058962,113.041152 C11.8581684,112.431335 10.6070517,111.645619 9.48169754,110.713428 L9.48169754,110.713428 L8.24342003,109.938335 C5.36692726,106.725001 3.5,102.582515 3.5,98 C3.5,96.3248998 3.749269,94.7080312 4.21330376,93.1846498 L4.21330376,93.1846498 L11.1409224,21.6567505 C11.4195592,19.3557281 12.5144886,17.293821 14.1252835,15.8161654 C15.6885459,14.3821135 17.7406354,13.5 20,13.5 C22.3472102,13.5 24.4722102,14.4513949 26.0104076,15.9895924 C27.5486051,17.5277898 28.5,19.6527898 28.5,22 C28.5,22.6113344 28.4356742,23.2076292 28.3131242,23.7824259 L28.3131242,23.7824259 L34.96807,86.0441631 L96.5054929,113.637798 C97.6295915,113.762244 98.728722,113.969497 99.7966344,114.253368 C104.214329,113.079146 106.232061,111.292076 107.384651,109.477818 C108.745511,107.33573 108.906641,105.095451 108.787479,103.546477 L108.787479,103.546477 L159.21275,103.501591 C159.142076,104.354435 159.156031,105.419339 159.412043,106.563623 C159.720301,107.941427 160.373079,109.433166 161.640163,110.808441 C163.442484,112.764654 166.551408,114.544679 171.981148,115.214844 L171.981148,115.214844 L239.957926,84.7331578 L246.557354,22.993951 C246.51945,22.6678955 246.5,22.3362217 246.5,22 C246.5,19.6527898 247.451395,17.5277898 248.989592,15.9895924 C250.52779,14.4513949 252.65279,13.5 255,13.5 L255,13.5 Z" id="Body" stroke="#000000" stroke-width="3" fill="#6DD400"></path>
                        <circle id="Right-Hand" fill="#000000" transform="translate(255.000000, 20.000000) scale(-1, 1) translate(-255.000000, -20.000000) " cx="255" cy="20" r="20"></circle>
                        <ellipse id="Left-Foot" fill="#000000" transform="translate(47.005375, 361.997435) rotate(25.000000) translate(-47.005375, -361.997435) " cx="47.0053746" cy="361.997435" rx="12.6191219" ry="25.007358"></ellipse>
                        <ellipse id="Right-Foot" fill="#000000" transform="translate(221.005375, 361.997435) scale(-1, 1) rotate(25.000000) translate(-221.005375, -361.997435) " cx="221.005375" cy="361.997435" rx="12.6191219" ry="25.007358"></ellipse>
                        <circle id="Left-Hand" fill="#000000" cx="20" cy="20" r="20"></circle>
                        <circle id="Head" fill="#000000" cx="134" cy="82" r="36"></circle>
                    </g>
                    <g id="Rig" transform="translate(70.000000, 112.000000)" fill="#000000">
                        <polygon id="Left-Leg-Strap" points="8.99804688 141.425781 52.8134766 171.421875 43.7158203 188.182617 0.639648438 159.78418"></polygon>
                        <polygon id="Left-Leg-Harness" points="30.8144531 132.661133 11.3427734 132.661133 12.638052 122.413937 28.1416016 115.120117"></polygon>
                        <polygon id="Right-Leg-Strap" transform="translate(115.086914, 164.378418) scale(-1, 1) translate(-115.086914, -164.378418) " points="97.3583984 141 141.173828 170.996094 132.076172 187.756836 89 159.358398"></polygon>
                        <polygon id="Right-Leg-Harness" transform="translate(120.735840, 123.770508) scale(-1, 1) translate(-120.735840, -123.770508) " points="130.47168 132.541016 111 132.541016 112.295279 122.29382 127.798828 115"></polygon>
                        <path d="M110,4 L100,0 L94,9 C94,9 82.5,14 71,14 C59.5,14 48,9 48,9 L42,0 L32,4 L34,17 C34,17 26,74 26,124 C26,131 32,136 36,136 C40,136 42,136 44,141 C46,146 96,146 98,141 C100,136 102,136 106,136 C110,136 116,131 116,124 C116,74 108,17 108,17 L110,4 Z"></path>
                    </g>
                </g>
                <g id="Point" transform="translate(137.500000, 200.500000) scale(-1, 1) rotate(-180.000000) translate(-137.500000, -200.500000) translate(0.000000, 0.000000)">
                    <g id="Skydiver" transform="translate(137.500000, 200.500000) scale(-1, 1) translate(-137.500000, -200.500000) ">
                        <path d="M255,13.5 C256.95431,13.5 258.754736,14.159276 260.190439,15.268164 C261.939496,16.6190765 263.148769,18.6358759 263.434671,20.9399585 L263.434671,20.9399585 L263.984,20.955 L270.786696,91.1846498 C271.204328,92.5556931 271.447999,94.002461 271.492556,95.4992521 L271.5,96 C271.5,99.096103 270.647695,101.993228 269.163982,104.468882 C267.619543,107.045862 265.391991,109.166573 262.731513,110.580534 L262.731513,110.580534 L189.330258,156.458921 C188.380794,156.997697 187.394332,157.481289 186.370694,157.89183 C186.076827,158.009688 185.781014,158.121078 185.483596,158.227129 C185.462575,158.597919 185.445191,158.925677 185.430949,159.20863 C185.017951,167.41375 183.450566,213.370702 197.062108,255.269762 L197.062108,255.269762 L249.473052,367.647235 C250.774154,370.496079 251.5,373.66329 251.5,377 C251.5,383.213203 248.981602,388.838203 244.909903,392.909903 C240.838203,396.981602 235.213203,399.5 229,399.5 C224.586892,399.5 220.470336,398.229899 216.996606,396.034402 C213.395983,393.758705 210.485461,390.489866 208.650471,386.612522 L208.650471,386.612522 L149.316185,277.70816 C148.641012,276.593434 148.045692,275.424946 147.538193,274.210615 C147.177661,273.535286 146.886935,272.948725 146.581737,272.334054 C145.340523,269.834238 143.855677,266.945092 141.388678,264.969178 C139.554013,263.499723 137.194286,262.5 134,262.5 C131.191277,262.5 128.762224,263.652887 126.757428,265.297003 C123.898469,267.641612 121.937461,270.984047 120.975232,272.910791 C120.315994,274.694788 119.56844,276.247625 118.683815,277.70816 L118.683815,277.70816 L59.3495294,386.612522 C57.5145392,390.489866 54.6040175,393.758705 51.0033943,396.034402 C47.5296642,398.229899 43.4131078,399.5 39,399.5 C32.7867966,399.5 27.1617966,396.981602 23.0900974,392.909903 C19.0183983,388.838203 16.5,383.213203 16.5,377 C16.5,373.661647 17.2265628,370.492955 18.5267015,367.653405 L18.5267015,367.653405 L70.7506974,255.667167 C82.02513,220.997392 82.4932086,166.333746 82.5012828,158.85313 L82.5012828,158.85313 L82.5010048,158.221329 C82.4453837,157.51133 82.3379827,157.123554 82.1607816,156.226281 L82.1607816,156.226281 L13.2058962,113.041152 C11.8581684,112.431335 10.6070517,111.645619 9.48169754,110.713428 L9.48169754,110.713428 L8.24342003,109.938335 C5.36692726,106.725001 3.5,102.582515 3.5,98 C3.5,96.3248998 3.749269,94.7080312 4.21330376,93.1846498 L4.21330376,93.1846498 L11.1409224,21.6567505 C11.4195592,19.3557281 12.5144886,17.293821 14.1252835,15.8161654 C15.6885459,14.3821135 17.7406354,13.5 20,13.5 C22.3472102,13.5 24.4722102,14.4513949 26.0104076,15.9895924 C27.5486051,17.5277898 28.5,19.6527898 28.5,22 C28.5,22.6113344 28.4356742,23.2076292 28.3131242,23.7824259 L28.3131242,23.7824259 L34.96807,86.0441631 L96.5054929,113.637798 C97.6295915,113.762244 98.728722,113.969497 99.7966344,114.253368 C104.214329,113.079146 106.232061,111.292076 107.384651,109.477818 C108.745511,107.33573 108.906641,105.095451 108.787479,103.546477 L108.787479,103.546477 L159.21275,103.501591 C159.142076,104.354435 159.156031,105.419339 159.412043,106.563623 C159.720301,107.941427 160.373079,109.433166 161.640163,110.808441 C163.442484,112.764654 166.551408,114.544679 171.981148,115.214844 L171.981148,115.214844 L239.957926,84.7331578 L246.557354,22.993951 C246.51945,22.6678955 246.5,22.3362217 246.5,22 C246.5,19.6527898 247.451395,17.5277898 248.989592,15.9895924 C250.52779,14.4513949 252.65279,13.5 255,13.5 L255,13.5 Z" id="Body" stroke="#000000" stroke-width="3" fill="#E02020"></path>
                        <circle id="Right-Hand" fill="#000000" transform="translate(255.000000, 20.000000) scale(-1, 1) translate(-255.000000, -20.000000) " cx="255" cy="20" r="20"></circle>
                        <ellipse id="Left-Foot" fill="#000000" transform="translate(47.005375, 361.997435) rotate(25.000000) translate(-47.005375, -361.997435) " cx="47.0053746" cy="361.997435" rx="12.6191219" ry="25.007358"></ellipse>
                        <ellipse id="Right-Foot" fill="#000000" transform="translate(221.005375, 361.997435) scale(-1, 1) rotate(25.000000) translate(-221.005375, -361.997435) " cx="221.005375" cy="361.997435" rx="12.6191219" ry="25.007358"></ellipse>
                        <circle id="Left-Hand" fill="#000000" cx="20" cy="20" r="20"></circle>
                        <circle id="Head" fill="#000000" cx="134" cy="82" r="36"></circle>
                    </g>
                    <g id="Rig" transform="translate(70.000000, 112.000000)" fill="#000000">
                        <polygon id="Left-Leg-Strap" points="8.99804688 141.425781 52.8134766 171.421875 43.7158203 188.182617 0.639648438 159.78418"></polygon>
                        <polygon id="Left-Leg-Harness" points="30.8144531 132.661133 11.3427734 132.661133 12.638052 122.413937 28.1416016 115.120117"></polygon>
                        <polygon id="Right-Leg-Strap" transform="translate(115.086914, 164.378418) scale(-1, 1) translate(-115.086914, -164.378418) " points="97.3583984 141 141.173828 170.996094 132.076172 187.756836 89 159.358398"></polygon>
                        <polygon id="Right-Leg-Harness" transform="translate(120.735840, 123.770508) scale(-1, 1) translate(-120.735840, -123.770508) " points="130.47168 132.541016 111 132.541016 112.295279 122.29382 127.798828 115"></polygon>
                        <path d="M110,4 L100,0 L94,9 C94,9 82.5,14 71,14 C59.5,14 48,9 48,9 L42,0 L32,4 L34,17 C34,17 26,74 26,124 C26,131 32,136 36,136 C40,136 42,136 44,141 C46,146 96,146 98,141 C100,136 102,136 106,136 C110,136 116,131 116,124 C116,74 108,17 108,17 L110,4 Z"></path>
                    </g>
                </g>
            </g>
            <g id="360°" transform="translate(490.000000, 150.546875)" fill="#000000">
                <path d="M149.375,53.2265625 L159.078125,53.2265625 C173.070312,53.2265625 181.578125,60.46875 181.71875,71.71875 C181.859375,82.7578125 173.5625,90.9140625 159.21875,90.9140625 C145.578125,90.9140625 139.179688,82.8984375 137.984375,73.546875 L128,73.546875 C128.632812,87.9609375 138.617188,100.125 158.867188,100.125 C178.554688,100.125 192.6875,87.890625 192.40625,71.578125 C192.054688,55.96875 179.398438,48.8671875 170.890625,48.1640625 L170.890625,48.0234375 C178.625,46.828125 189.03125,38.109375 188.679688,24.3984375 C188.328125,10.6875 176.9375,0 159.148438,0 C139.882812,0 130.671875,13.78125 130.460938,25.59375 L140.585938,25.59375 C141.148438,18.2109375 146.28125,9.28125 159.148438,9.28125 C170.75,9.28125 177.921875,16.2421875 177.992188,26.15625 C178.0625,36.3515625 170.117188,43.875 158.445312,43.875 L149.375,43.875 L149.375,53.2265625 Z M270.382812,24.1875 C269.257812,12.65625 259.132812,0.3515625 242.046875,0.3515625 C221.65625,0.3515625 206.398438,17.4375 206.398438,54.421875 C206.398438,85.78125 220.390625,99.984375 240.429688,99.984375 C258.5,99.984375 272.914062,87.8203125 272.914062,67.4296875 C272.914062,47.0390625 257.023438,35.859375 241.484375,35.859375 C228.898438,35.859375 219.617188,43.171875 216.734375,50.765625 L216.59375,50.765625 C217.4375,21.234375 228.6875,9.5625 241.554688,9.5625 C253.367188,9.5625 259.203125,18.2109375 259.765625,24.1875 L270.382812,24.1875 Z M218.28125,67.921875 C218.28125,53.3671875 228.757812,45.2109375 240.5,45.2109375 C251.398438,45.2109375 262.507812,52.59375 262.507812,68.0625 C262.507812,83.4609375 251.890625,90.7734375 240.570312,90.7734375 C228.898438,90.7734375 218.28125,82.828125 218.28125,67.921875 L218.28125,67.921875 Z M296.1875,46.40625 C296.1875,22.8515625 304.765625,9.28125 318.757812,9.28125 C332.75,9.28125 341.328125,22.8515625 341.328125,46.40625 L341.328125,53.859375 C341.328125,77.34375 332.75,90.7734375 318.757812,90.7734375 C304.765625,90.7734375 296.1875,77.34375 296.1875,53.859375 L296.1875,46.40625 Z M285.710938,53.9296875 C285.710938,82.40625 297.523438,100.054688 318.757812,100.054688 C339.992188,100.054688 351.664062,82.40625 351.664062,53.9296875 L351.664062,46.3359375 C351.664062,17.859375 339.992188,0 318.757812,0 C297.523438,0 285.710938,17.9296875 285.710938,46.3359375 L285.710938,53.9296875 Z M377.46875,30.8671875 C385.695312,30.8671875 392.445312,24.1171875 392.445312,15.890625 C392.445312,7.59375 385.695312,0.9140625 377.46875,0.9140625 C369.101562,0.9140625 362.421875,7.59375 362.421875,15.890625 C362.421875,24.1171875 369.101562,30.8671875 377.46875,30.8671875 L377.46875,30.8671875 Z M377.46875,24.1171875 C373.039062,24.1171875 369.242188,20.25 369.242188,15.890625 C369.242188,11.25 373.039062,7.59375 377.46875,7.59375 C382.039062,7.59375 385.695312,11.25 385.695312,15.890625 C385.695312,20.25 382.039062,24.1171875 377.46875,24.1171875 L377.46875,24.1171875 Z"></path>
                <path d="M86.2734375,81.6484375 C94.0547264,72.554642 97.9453125,61.9844352 97.9453125,49.9375 C97.9453125,36.4843077 93.1289544,24.9648917 83.4960938,15.3789062 C73.8632331,5.79292082 62.343817,1 48.9375,1 C35.531183,1 24.0234855,5.81635809 14.4140625,15.4492188 C4.80463945,25.0820794 0,36.5780582 0,49.9375 C0,63.2031913 4.54682953,74.5468279 13.640625,83.96875 L0.140625,90.015625 L33.6796875,98.9453125 L24.75,65.3359375 L18.5625,79.046875 C10.7812111,70.843709 6.890625,61.140681 6.890625,49.9375 C6.890625,38.4061923 11.0155837,28.5156663 19.265625,20.265625 C27.5156663,12.0155838 37.4061923,7.890625 48.9375,7.890625 C60.4688077,7.890625 70.3593337,12.0155838 78.609375,20.265625 C86.8594162,28.5156663 90.984375,38.4061923 90.984375,49.9375 C90.984375,60.2969268 87.632846,69.4140231 80.9296875,77.2890625 L86.2734375,81.6484375 Z" id="↺"></path>
            </g>
        </g>
        <g id="Top" transform="translate(1110.179739, 572.185836) rotate(-15.000000) translate(-1110.179739, -572.185836) translate(753.000000, 27.000000)">
            <g id="Point" transform="translate(526.658946, 228.712725) rotate(-15.000000) translate(-526.658946, -228.712725) translate(385.658946, 29.712725)">
                <g id="Skydiver">
                    <path d="M235,11.5 C236.756509,11.5 238.388771,12.0324107 239.743538,12.9454828 C241.158881,13.899381 242.272108,15.2675858 242.908235,16.8766584 L242.908235,16.8766584 L278.25554,84.6857921 C279.682737,87.1270995 280.5,89.9681507 280.5,93 C280.5,96.096103 279.647695,98.9932279 278.163982,101.468882 C276.619543,104.045862 274.391991,106.166573 271.731513,107.580534 L271.731513,107.580534 L198.327476,153.460659 C196.805471,154.333141 195.177492,155.045128 193.463572,155.558211 C193.126454,155.659131 192.787885,155.751795 192.448254,155.837206 C192.427637,156.237378 192.410124,156.601139 192.395302,156.927055 C191.946416,166.797307 190.803964,211.458531 204.062108,252.269762 L204.062108,252.269762 L256.473052,364.647235 C257.774154,367.496079 258.5,370.66329 258.5,374 C258.5,380.213203 255.981602,385.838203 251.909903,389.909903 C247.838203,393.981602 242.213203,396.5 236,396.5 C231.586892,396.5 227.470336,395.229899 223.996606,393.034402 C220.395983,390.758705 217.485461,387.489866 215.650471,383.612522 L215.650471,383.612522 L156.316185,274.70816 C155.641012,273.593434 155.045692,272.424946 154.538193,271.210615 C154.177661,270.535286 153.886935,269.948725 153.581737,269.334054 C152.340523,266.834238 150.855677,263.945092 148.388678,261.969178 C146.554013,260.499723 144.194286,259.5 141,259.5 C138.191277,259.5 135.762224,260.652887 133.757428,262.297003 C130.898469,264.641612 128.937461,267.984047 127.975232,269.910791 C127.315994,271.694788 126.56844,273.247625 125.683815,274.70816 L125.683815,274.70816 L66.3495294,383.612522 C64.5145392,387.489866 61.6040175,390.758705 58.0033943,393.034402 C54.5296642,395.229899 50.4131078,396.5 46,396.5 C39.7867966,396.5 34.1617966,393.981602 30.0900974,389.909903 C26.0183983,385.838203 23.5,380.213203 23.5,374 C23.5,370.661647 24.2265628,367.492955 25.5267035,364.6534 L25.5267035,364.6534 L77.7516386,252.664235 C88.578922,219.369466 89.4404209,167.643485 89.4975777,156.966024 C89.4994111,156.623531 89.5008691,156.238797 89.50146,155.816017 C89.1433135,155.727326 88.786525,155.62939 88.4314432,155.522104 C86.7572966,155.016273 85.1666395,154.316375 83.683847,153.451766 L83.683847,153.451766 L10.268386,107.58048 C7.6079524,106.166519 5.38043782,104.04583 3.83601824,101.468882 C2.35230544,98.9932279 1.5,96.096103 1.5,93 C1.5,89.9681507 2.31726343,87.1270995 3.74446048,84.6857921 L3.74446048,84.6857921 L39.0917651,16.8766584 C39.727892,15.2675858 40.8411191,13.899381 42.2564619,12.9454828 C43.6112292,12.0324107 45.2434906,11.5 47,11.5 C49.3472102,11.5 51.4722102,12.4513949 53.0104076,13.9895924 C54.5486051,15.5277898 55.5,17.6527898 55.5,20 C55.5,20.9612036 55.340845,21.8852304 55.0467839,22.7469132 L55.0467839,22.7469132 L37.6567855,83.8025689 L101.384221,112.378309 C107.37723,111.885153 110.857469,110.171667 112.898157,108.225276 C114.351188,106.839387 115.117167,105.306272 115.496993,103.878368 C115.828053,102.633793 115.859653,101.468105 115.789451,100.546987 L115.789451,100.546987 L166.211825,100.50161 C166.134943,101.428616 166.158227,102.605634 166.483122,103.863366 C166.855506,105.304941 167.616367,106.85315 169.071075,108.248448 C171.109744,110.203857 174.595898,111.91763 180.617681,112.377315 L180.617681,112.377315 L244.342195,83.8025721 L226.95322,22.7469237 C226.659156,21.885238 226.5,20.9612075 226.5,20 C226.5,17.6527898 227.451395,15.5277898 228.989592,13.9895924 C230.52779,12.4513949 232.65279,11.5 235,11.5 L235,11.5 Z" id="Body" stroke="#000000" stroke-width="3" fill="#E02020"></path>
                    <ellipse id="Left-Foot" fill="#000000" transform="translate(54.005375, 358.997435) rotate(25.000000) translate(-54.005375, -358.997435) " cx="54.0053746" cy="358.997435" rx="12.6191219" ry="25.007358"></ellipse>
                    <ellipse id="Right-Foot" fill="#000000" transform="translate(228.005375, 358.997435) scale(-1, 1) rotate(25.000000) translate(-228.005375, -358.997435) " cx="228.005375" cy="358.997435" rx="12.6191219" ry="25.007358"></ellipse>
                    <circle id="Left-Hand" fill="#000000" cx="47" cy="20" r="20"></circle>
                    <circle id="Right-Hand" fill="#000000" transform="translate(235.000000, 20.000000) scale(-1, 1) translate(-235.000000, -20.000000) " cx="235" cy="20" r="20"></circle>
                    <circle id="Head" fill="#000000" cx="141" cy="79" r="36"></circle>
                </g>
                <g id="Rig" transform="translate(70.000000, 109.000000)" fill="#000000">
                    <polygon id="Left-Leg-Strap" points="8.99804688 141.425781 52.8134766 171.421875 43.7158203 188.182617 0.639648438 159.78418"></polygon>
                    <polygon id="Left-Leg-Harness" points="30.8144531 132.661133 11.3427734 132.661133 12.638052 122.413937 28.1416016 115.120117"></polygon>
                    <polygon id="Right-Leg-Strap" transform="translate(115.086914, 164.378418) scale(-1, 1) translate(-115.086914, -164.378418) " points="97.3583984 141 141.173828 170.996094 132.076172 187.756836 89 159.358398"></polygon>
                    <polygon id="Right-Leg-Harness" transform="translate(120.735840, 123.770508) scale(-1, 1) translate(-120.735840, -123.770508) " points="130.47168 132.541016 111 132.541016 112.295279 122.29382 127.798828 115"></polygon>
                    <path d="M110,4 L100,0 L94,9 C94,9 82.5,14 71,14 C59.5,14 48,9 48,9 L42,0 L32,4 L34,17 C34,17 26,74 26,124 C26,131 32,136 36,136 C40,136 42,136 44,141 C46,146 96,146 98,141 C100,136 102,136 106,136 C110,136 116,131 116,124 C116,74 108,17 108,17 L110,4 Z"></path>
                </g>
            </g>
            <g id="Outside-Center" transform="translate(244.658946, 228.712725) rotate(-345.000000) translate(-244.658946, -228.712725) translate(103.658946, 29.712725)">
                <g id="Skydiver">
                    <path d="M235,11.5 C236.756509,11.5 238.388771,12.0324107 239.743538,12.9454828 C241.158881,13.899381 242.272108,15.2675858 242.908235,16.8766584 L242.908235,16.8766584 L278.25554,84.6857921 C279.682737,87.1270995 280.5,89.9681507 280.5,93 C280.5,96.096103 279.647695,98.9932279 278.163982,101.468882 C276.619543,104.045862 274.391991,106.166573 271.731513,107.580534 L271.731513,107.580534 L198.327476,153.460659 C196.805471,154.333141 195.177492,155.045128 193.463572,155.558211 C193.126454,155.659131 192.787885,155.751795 192.448254,155.837206 C192.427637,156.237378 192.410124,156.601139 192.395302,156.927055 C191.946416,166.797307 190.803964,211.458531 204.062108,252.269762 L204.062108,252.269762 L256.473052,364.647235 C257.774154,367.496079 258.5,370.66329 258.5,374 C258.5,380.213203 255.981602,385.838203 251.909903,389.909903 C247.838203,393.981602 242.213203,396.5 236,396.5 C231.586892,396.5 227.470336,395.229899 223.996606,393.034402 C220.395983,390.758705 217.485461,387.489866 215.650471,383.612522 L215.650471,383.612522 L156.316185,274.70816 C155.641012,273.593434 155.045692,272.424946 154.538193,271.210615 C154.177661,270.535286 153.886935,269.948725 153.581737,269.334054 C152.340523,266.834238 150.855677,263.945092 148.388678,261.969178 C146.554013,260.499723 144.194286,259.5 141,259.5 C138.191277,259.5 135.762224,260.652887 133.757428,262.297003 C130.898469,264.641612 128.937461,267.984047 127.975232,269.910791 C127.315994,271.694788 126.56844,273.247625 125.683815,274.70816 L125.683815,274.70816 L66.3495294,383.612522 C64.5145392,387.489866 61.6040175,390.758705 58.0033943,393.034402 C54.5296642,395.229899 50.4131078,396.5 46,396.5 C39.7867966,396.5 34.1617966,393.981602 30.0900974,389.909903 C26.0183983,385.838203 23.5,380.213203 23.5,374 C23.5,370.661647 24.2265628,367.492955 25.5267035,364.6534 L25.5267035,364.6534 L77.7516386,252.664235 C88.578922,219.369466 89.4404209,167.643485 89.4975777,156.966024 C89.4994111,156.623531 89.5008691,156.238797 89.50146,155.816017 C89.1433135,155.727326 88.786525,155.62939 88.4314432,155.522104 C86.7572966,155.016273 85.1666395,154.316375 83.683847,153.451766 L83.683847,153.451766 L10.268386,107.58048 C7.6079524,106.166519 5.38043782,104.04583 3.83601824,101.468882 C2.35230544,98.9932279 1.5,96.096103 1.5,93 C1.5,89.9681507 2.31726343,87.1270995 3.74446048,84.6857921 L3.74446048,84.6857921 L39.0917651,16.8766584 C39.727892,15.2675858 40.8411191,13.899381 42.2564619,12.9454828 C43.6112292,12.0324107 45.2434906,11.5 47,11.5 C49.3472102,11.5 51.4722102,12.4513949 53.0104076,13.9895924 C54.5486051,15.5277898 55.5,17.6527898 55.5,20 C55.5,20.9612036 55.340845,21.8852304 55.0467839,22.7469132 L55.0467839,22.7469132 L37.6567855,83.8025689 L101.384221,112.378309 C107.37723,111.885153 110.857469,110.171667 112.898157,108.225276 C114.351188,106.839387 115.117167,105.306272 115.496993,103.878368 C115.828053,102.633793 115.859653,101.468105 115.789451,100.546987 L115.789451,100.546987 L166.211825,100.50161 C166.134943,101.428616 166.158227,102.605634 166.483122,103.863366 C166.855506,105.304941 167.616367,106.85315 169.071075,108.248448 C171.109744,110.203857 174.595898,111.91763 180.617681,112.377315 L180.617681,112.377315 L244.342195,83.8025721 L226.95322,22.7469237 C226.659156,21.885238 226.5,20.9612075 226.5,20 C226.5,17.6527898 227.451395,15.5277898 228.989592,13.9895924 C230.52779,12.4513949 232.65279,11.5 235,11.5 L235,11.5 Z" id="Body" stroke="#000000" stroke-width="3" fill="#6DD400"></path>
                    <ellipse id="Left-Foot" fill="#000000" transform="translate(54.005375, 358.997435) rotate(25.000000) translate(-54.005375, -358.997435) " cx="54.0053746" cy="358.997435" rx="12.6191219" ry="25.007358"></ellipse>
                    <ellipse id="Right-Foot" fill="#000000" transform="translate(228.005375, 358.997435) scale(-1, 1) rotate(25.000000) translate(-228.005375, -358.997435) " cx="228.005375" cy="358.997435" rx="12.6191219" ry="25.007358"></ellipse>
                    <circle id="Left-Hand" fill="#000000" cx="47" cy="20" r="20"></circle>
                    <circle id="Right-Hand" fill="#000000" transform="translate(235.000000, 20.000000) scale(-1, 1) translate(-235.000000, -20.000000) " cx="235" cy="20" r="20"></circle>
                    <circle id="Head" fill="#000000" cx="141" cy="79" r="36"></circle>
                </g>
                <g id="Rig" transform="translate(70.000000, 109.000000)" fill="#000000">
                    <polygon id="Left-Leg-Strap" points="8.99804688 141.425781 52.8134766 171.421875 43.7158203 188.182617 0.639648438 159.78418"></polygon>
                    <polygon id="Left-Leg-Harness" points="30.8144531 132.661133 11.3427734 132.661133 12.638052 122.413937 28.1416016 115.120117"></polygon>
                    <polygon id="Right-Leg-Strap" transform="translate(115.086914, 164.378418) scale(-1, 1) translate(-115.086914, -164.378418) " points="97.3583984 141 141.173828 170.996094 132.076172 187.756836 89 159.358398"></polygon>
                    <polygon id="Right-Leg-Harness" transform="translate(120.735840, 123.770508) scale(-1, 1) translate(-120.735840, -123.770508) " points="130.47168 132.541016 111 132.541016 112.295279 122.29382 127.798828 115"></polygon>
                    <path d="M110,4 L100,0 L94,9 C94,9 82.5,14 71,14 C59.5,14 48,9 48,9 L42,0 L32,4 L34,17 C34,17 26,74 26,124 C26,131 32,136 36,136 C40,136 42,136 44,141 C46,146 96,146 98,141 C100,136 102,136 106,136 C110,136 116,131 116,124 C116,74 108,17 108,17 L110,4 Z"></path>
                </g>
            </g>
            <g id="Group" transform="translate(0.000000, 401.712725)">
                <g id="Inside-Center" transform="translate(244.658946, 0.000000)">
                    <g id="Skydiver">
                        <path d="M235,11.5 C236.756509,11.5 238.388771,12.0324107 239.743538,12.9454828 C241.158881,13.899381 242.272108,15.2675858 242.908235,16.8766584 L242.908235,16.8766584 L278.25554,84.6857921 C279.682737,87.1270995 280.5,89.9681507 280.5,93 C280.5,96.096103 279.647695,98.9932279 278.163982,101.468882 C276.619543,104.045862 274.391991,106.166573 271.731513,107.580534 L271.731513,107.580534 L198.327476,153.460659 C196.805471,154.333141 195.177492,155.045128 193.463572,155.558211 C193.126454,155.659131 192.787885,155.751795 192.448254,155.837206 C192.427637,156.237378 192.410124,156.601139 192.395302,156.927055 C191.946416,166.797307 190.803964,211.458531 204.062108,252.269762 L204.062108,252.269762 L256.473052,364.647235 C257.774154,367.496079 258.5,370.66329 258.5,374 C258.5,380.213203 255.981602,385.838203 251.909903,389.909903 C247.838203,393.981602 242.213203,396.5 236,396.5 C231.586892,396.5 227.470336,395.229899 223.996606,393.034402 C220.395983,390.758705 217.485461,387.489866 215.650471,383.612522 L215.650471,383.612522 L156.316185,274.70816 C155.641012,273.593434 155.045692,272.424946 154.538193,271.210615 C154.177661,270.535286 153.886935,269.948725 153.581737,269.334054 C152.340523,266.834238 150.855677,263.945092 148.388678,261.969178 C146.554013,260.499723 144.194286,259.5 141,259.5 C138.191277,259.5 135.762224,260.652887 133.757428,262.297003 C130.898469,264.641612 128.937461,267.984047 127.975232,269.910791 C127.315994,271.694788 126.56844,273.247625 125.683815,274.70816 L125.683815,274.70816 L66.3495294,383.612522 C64.5145392,387.489866 61.6040175,390.758705 58.0033943,393.034402 C54.5296642,395.229899 50.4131078,396.5 46,396.5 C39.7867966,396.5 34.1617966,393.981602 30.0900974,389.909903 C26.0183983,385.838203 23.5,380.213203 23.5,374 C23.5,370.661647 24.2265628,367.492955 25.5267035,364.6534 L25.5267035,364.6534 L77.7516386,252.664235 C88.578922,219.369466 89.4404209,167.643485 89.4975777,156.966024 C89.4994111,156.623531 89.5008691,156.238797 89.50146,155.816017 C89.1433135,155.727326 88.786525,155.62939 88.4314432,155.522104 C86.7572966,155.016273 85.1666395,154.316375 83.683847,153.451766 L83.683847,153.451766 L10.268386,107.58048 C7.6079524,106.166519 5.38043782,104.04583 3.83601824,101.468882 C2.35230544,98.9932279 1.5,96.096103 1.5,93 C1.5,89.9681507 2.31726343,87.1270995 3.74446048,84.6857921 L3.74446048,84.6857921 L39.0917651,16.8766584 C39.727892,15.2675858 40.8411191,13.899381 42.2564619,12.9454828 C43.6112292,12.0324107 45.2434906,11.5 47,11.5 C49.3472102,11.5 51.4722102,12.4513949 53.0104076,13.9895924 C54.5486051,15.5277898 55.5,17.6527898 55.5,20 C55.5,20.9612036 55.340845,21.8852304 55.0467839,22.7469132 L55.0467839,22.7469132 L37.6567855,83.8025689 L101.384221,112.378309 C107.37723,111.885153 110.857469,110.171667 112.898157,108.225276 C114.351188,106.839387 115.117167,105.306272 115.496993,103.878368 C115.828053,102.633793 115.859653,101.468105 115.789451,100.546987 L115.789451,100.546987 L166.211825,100.50161 C166.134943,101.428616 166.158227,102.605634 166.483122,103.863366 C166.855506,105.304941 167.616367,106.85315 169.071075,108.248448 C171.109744,110.203857 174.595898,111.91763 180.617681,112.377315 L180.617681,112.377315 L244.342195,83.8025721 L226.95322,22.7469237 C226.659156,21.885238 226.5,20.9612075 226.5,20 C226.5,17.6527898 227.451395,15.5277898 228.989592,13.9895924 C230.52779,12.4513949 232.65279,11.5 235,11.5 L235,11.5 Z" id="Body" stroke="#000000" stroke-width="3" fill="#0065FF"></path>
                        <ellipse id="Left-Foot" fill="#000000" transform="translate(54.005375, 358.997435) rotate(25.000000) translate(-54.005375, -358.997435) " cx="54.0053746" cy="358.997435" rx="12.6191219" ry="25.007358"></ellipse>
                        <ellipse id="Right-Foot" fill="#000000" transform="translate(228.005375, 358.997435) scale(-1, 1) rotate(25.000000) translate(-228.005375, -358.997435) " cx="228.005375" cy="358.997435" rx="12.6191219" ry="25.007358"></ellipse>
                        <circle id="Left-Hand" fill="#000000" cx="47" cy="20" r="20"></circle>
                        <circle id="Right-Hand" fill="#000000" transform="translate(235.000000, 20.000000) scale(-1, 1) translate(-235.000000, -20.000000) " cx="235" cy="20" r="20"></circle>
                        <circle id="Head" fill="#000000" cx="141" cy="79" r="36"></circle>
                    </g>
                    <g id="Rig" transform="translate(70.000000, 109.000000)" fill="#000000">
                        <polygon id="Left-Leg-Strap" points="8.99804688 141.425781 52.8134766 171.421875 43.7158203 188.182617 0.639648438 159.78418"></polygon>
                        <polygon id="Left-Leg-Harness" points="30.8144531 132.661133 11.3427734 132.661133 12.638052 122.413937 28.1416016 115.120117"></polygon>
                        <polygon id="Right-Leg-Strap" transform="translate(115.086914, 164.378418) scale(-1, 1) translate(-115.086914, -164.378418) " points="97.3583984 141 141.173828 170.996094 132.076172 187.756836 89 159.358398"></polygon>
                        <polygon id="Right-Leg-Harness" transform="translate(120.735840, 123.770508) scale(-1, 1) translate(-120.735840, -123.770508) " points="130.47168 132.541016 111 132.541016 112.295279 122.29382 127.798828 115"></polygon>
                        <path d="M110,4 L100,0 L94,9 C94,9 82.5,14 71,14 C59.5,14 48,9 48,9 L42,0 L32,4 L34,17 C34,17 26,74 26,124 C26,131 32,136 36,136 C40,136 42,136 44,141 C46,146 96,146 98,141 C100,136 102,136 106,136 C110,136 116,131 116,124 C116,74 108,17 108,17 L110,4 Z"></path>
                    </g>
                </g>
                <g id="Tail" transform="translate(244.658946, 444.000000) rotate(-315.000000) translate(-244.658946, -444.000000) translate(114.658946, 228.000000)">
                    <g id="Skydiver" transform="translate(130.000000, 216.000000) scale(-1, 1) translate(-130.000000, -216.000000) ">
                        <path d="M63,12.5 C65.3472102,12.5 67.4722102,13.4513949 69.0104076,14.9895924 C70.5486051,16.5277898 71.5,18.6527898 71.5,21 C71.5,21.9612033 71.340845,22.8852301 71.0467841,23.7469126 L71.0467841,23.7469126 L51.879091,91.0437837 L89.6405528,143.307442 C93.5634731,140.533912 93.9702317,136.768315 93.7839114,134.5 L93.7839114,134.5 L144.211959,134.5 C144.134917,135.427253 144.158039,136.604906 144.483122,137.863366 C144.855506,139.304941 145.616367,140.85315 147.071075,142.248448 C149.109744,144.203857 152.595897,145.91763 158.617681,146.377315 L158.617681,146.377315 L206.334745,124.980534 L172.418249,106.10125 C170.658053,105.540861 169.147163,104.422206 168.09217,102.954265 C167.089779,101.559516 166.5,99.8485809 166.5,98 C166.5,95.6527898 167.451395,93.5277898 168.989592,91.9895924 C170.52779,90.4513949 172.65279,89.5 175,89.5 C175.809296,89.5 176.592237,89.6127912 177.333807,89.823994 L177.333807,89.823994 L244.34443,110.66509 C246.156529,110.922631 247.873789,111.474725 249.446169,112.271374 L249.446169,112.271374 L250.358664,112.558556 C255.200704,115.591359 258.5,120.910235 258.5,127 C258.5,130.096103 257.647695,132.993228 256.163982,135.468882 C254.619543,138.045862 252.391991,140.166573 249.731513,141.580534 L249.731513,141.580534 L176.327476,187.460659 C174.805471,188.333141 173.177492,189.045128 171.463572,189.558211 C171.126454,189.659131 170.787885,189.751795 170.448254,189.837206 C170.427637,190.237378 170.410124,190.601139 170.395302,190.927055 C169.946416,200.797307 168.803964,245.458531 182.062108,286.269762 L182.062108,286.269762 L234.473052,398.647235 C235.774154,401.496079 236.5,404.66329 236.5,408 C236.5,414.213203 233.981602,419.838203 229.909903,423.909903 C225.838203,427.981602 220.213203,430.5 214,430.5 C209.586892,430.5 205.470336,429.229899 201.996606,427.034402 C198.395983,424.758705 195.485461,421.489866 193.650471,417.612522 L193.650471,417.612522 L134.316185,308.70816 C133.641012,307.593434 133.045692,306.424946 132.538193,305.210615 C132.177661,304.535286 131.886935,303.948725 131.581737,303.334054 C130.340523,300.834238 128.855677,297.945092 126.388678,295.969178 C124.554013,294.499723 122.194286,293.5 119,293.5 C116.191277,293.5 113.762224,294.652887 111.757428,296.297003 C108.898469,298.641612 106.937461,301.984047 105.975232,303.910791 C105.315994,305.694788 104.56844,307.247625 103.683815,308.70816 L103.683815,308.70816 L44.3495294,417.612522 C42.5145392,421.489866 39.6040175,424.758705 36.0033943,427.034402 C32.5296642,429.229899 28.4131078,430.5 24,430.5 C17.7867966,430.5 12.1617966,427.981602 8.09009742,423.909903 C4.01839828,419.838203 1.5,414.213203 1.5,408 C1.5,404.661647 2.22656284,401.492955 3.5267015,398.653405 L3.5267015,398.653405 L55.7506974,286.667167 C67.02513,251.997392 67.4932086,197.333746 67.5012828,189.85313 L67.5012828,189.85313 L67.5009995,189.209483 C67.4611358,188.767371 67.3516081,188.193855 67.1896042,187.372382 C67.1438576,187.140414 67.0938457,186.88684 67.0402362,186.608506 C66.9974965,186.386607 66.9584791,186.180168 66.9215117,185.98741 C66.7489319,185.877322 66.5777722,185.764842 66.4080882,185.649993 C62.2771784,182.854025 59.1245324,178.724358 57.5704322,173.878547 L57.5704322,173.878547 L19.1751743,101.641618 C18.1578594,99.2914481 17.5,96.7227174 17.5,94 C17.5,90.9681507 18.3172634,88.1270995 19.7444605,85.6857921 L19.7444605,85.6857921 L55.0917651,17.8766584 C55.727892,16.2675858 56.8411191,14.899381 58.2564619,13.9454828 C59.6112292,13.0324107 61.2434906,12.5 63,12.5 L63,12.5 Z" id="Body" stroke="#000000" stroke-width="3" fill="#F7E400"></path>
                        <ellipse id="Left-Foot" fill="#000000" transform="translate(32.005375, 392.997435) rotate(25.000000) translate(-32.005375, -392.997435) " cx="32.0053746" cy="392.997435" rx="12.6191219" ry="25.007358"></ellipse>
                        <ellipse id="Right-Foot" fill="#000000" transform="translate(206.005375, 392.997435) scale(-1, 1) rotate(25.000000) translate(-206.005375, -392.997435) " cx="206.005375" cy="392.997435" rx="12.6191219" ry="25.007358"></ellipse>
                        <circle id="Left-Hand" fill="#000000" cx="63" cy="20" r="20"></circle>
                        <circle id="Right-Hand" fill="#000000" transform="translate(175.000000, 98.000000) scale(-1, 1) translate(-175.000000, -98.000000) " cx="175" cy="98" r="20"></circle>
                        <circle id="Head" fill="#000000" cx="119" cy="113" r="36"></circle>
                    </g>
                    <g id="Rig" transform="translate(70.000000, 143.000000)" fill="#000000">
                        <polygon id="Left-Leg-Strap" points="8.99804688 141.425781 52.8134766 171.421875 43.7158203 188.182617 0.639648438 159.78418"></polygon>
                        <polygon id="Left-Leg-Harness" points="30.8144531 132.661133 11.3427734 132.661133 12.638052 122.413937 28.1416016 115.120117"></polygon>
                        <polygon id="Right-Leg-Strap" transform="translate(115.086914, 164.378418) scale(-1, 1) translate(-115.086914, -164.378418) " points="97.3583984 141 141.173828 170.996094 132.076172 187.756836 89 159.358398"></polygon>
                        <polygon id="Right-Leg-Harness" transform="translate(120.735840, 123.770508) scale(-1, 1) translate(-120.735840, -123.770508) " points="130.47168 132.541016 111 132.541016 112.295279 122.29382 127.798828 115"></polygon>
                        <path d="M110,4 L100,0 L94,9 C94,9 82.5,14 71,14 C59.5,14 48,9 48,9 L42,0 L32,4 L34,17 C34,17 26,74 26,124 C26,131 32,136 36,136 C40,136 42,136 44,141 C46,146 96,146 98,141 C100,136 102,136 106,136 C110,136 116,131 116,124 C116,74 108,17 108,17 L110,4 Z"></path>
                    </g>
                </g>
            </g>
        </g>
    </g>
</svg>