<?xml version="1.0" encoding="UTF-8"?>
<svg width="1386px" height="3000px" viewBox="0 0 1386 3000" version="1.1" xmlns="http://www.w3.org/2000/svg" xmlns:xlink="http://www.w3.org/1999/xlink">
    <title>11 - Photon - Photon</title>
    <g id="11---Photon---Photon" stroke="none" stroke-width="1" fill="none" fill-rule="evenodd">
        <g id="Bottom" transform="translate(295.000000, 1989.000000)">
            <g id="Front-Piece" transform="translate(323.150692, 712.331740) rotate(-140.000000) translate(-323.150692, -712.331740) translate(84.650692, 493.831740)">
                <g id="Point" transform="translate(195.000000, 39.000000)">
                    <g id="Skydiver">
                        <path d="M235,11.5 C236.756509,11.5 238.388771,12.0324107 239.743538,12.9454828 C241.158881,13.899381 242.272108,15.2675858 242.908235,16.8766584 L242.908235,16.8766584 L278.25554,84.6857921 C279.682737,87.1270995 280.5,89.9681507 280.5,93 C280.5,96.096103 279.647695,98.9932279 278.163982,101.468882 C276.619543,104.045862 274.391991,106.166573 271.731513,107.580534 L271.731513,107.580534 L198.327476,153.460659 C196.805471,154.333141 195.177492,155.045128 193.463572,155.558211 C193.126454,155.659131 192.787885,155.751795 192.448254,155.837206 C192.427637,156.237378 192.410124,156.601139 192.395302,156.927055 C191.946416,166.797307 190.803964,211.458531 204.062108,252.269762 L204.062108,252.269762 L256.473052,364.647235 C257.774154,367.496079 258.5,370.66329 258.5,374 C258.5,380.213203 255.981602,385.838203 251.909903,389.909903 C247.838203,393.981602 242.213203,396.5 236,396.5 C231.586892,396.5 227.470336,395.229899 223.996606,393.034402 C220.395983,390.758705 217.485461,387.489866 215.650471,383.612522 L215.650471,383.612522 L156.316185,274.70816 C155.641012,273.593434 155.045692,272.424946 154.538193,271.210615 C154.177661,270.535286 153.886935,269.948725 153.581737,269.334054 C152.340523,266.834238 150.855677,263.945092 148.388678,261.969178 C146.554013,260.499723 144.194286,259.5 141,259.5 C138.191277,259.5 135.762224,260.652887 133.757428,262.297003 C130.898469,264.641612 128.937461,267.984047 127.975232,269.910791 C127.315994,271.694788 126.56844,273.247625 125.683815,274.70816 L125.683815,274.70816 L66.3495294,383.612522 C64.5145392,387.489866 61.6040175,390.758705 58.0033943,393.034402 C54.5296642,395.229899 50.4131078,396.5 46,396.5 C39.7867966,396.5 34.1617966,393.981602 30.0900974,389.909903 C26.0183983,385.838203 23.5,380.213203 23.5,374 C23.5,370.661647 24.2265628,367.492955 25.5267035,364.6534 L25.5267035,364.6534 L77.7516386,252.664235 C88.578922,219.369466 89.4404209,167.643485 89.4975777,156.966024 C89.4994111,156.623531 89.5008691,156.238797 89.50146,155.816017 C89.1433135,155.727326 88.786525,155.62939 88.4314432,155.522104 C86.7572966,155.016273 85.1666395,154.316375 83.683847,153.451766 L83.683847,153.451766 L10.268386,107.58048 C7.6079524,106.166519 5.38043782,104.04583 3.83601824,101.468882 C2.35230544,98.9932279 1.5,96.096103 1.5,93 C1.5,89.9681507 2.31726343,87.1270995 3.74446048,84.6857921 L3.74446048,84.6857921 L39.0917651,16.8766584 C39.727892,15.2675858 40.8411191,13.899381 42.2564619,12.9454828 C43.6112292,12.0324107 45.2434906,11.5 47,11.5 C49.3472102,11.5 51.4722102,12.4513949 53.0104076,13.9895924 C54.5486051,15.5277898 55.5,17.6527898 55.5,20 C55.5,20.9612036 55.340845,21.8852304 55.0467839,22.7469132 L55.0467839,22.7469132 L37.6567855,83.8025689 L101.384221,112.378309 C107.37723,111.885153 110.857469,110.171667 112.898157,108.225276 C114.351188,106.839387 115.117167,105.306272 115.496993,103.878368 C115.828053,102.633793 115.859653,101.468105 115.789451,100.546987 L115.789451,100.546987 L166.211825,100.50161 C166.134943,101.428616 166.158227,102.605634 166.483122,103.863366 C166.855506,105.304941 167.616367,106.85315 169.071075,108.248448 C171.109744,110.203857 174.595898,111.91763 180.617681,112.377315 L180.617681,112.377315 L244.342195,83.8025721 L226.95322,22.7469237 C226.659156,21.885238 226.5,20.9612075 226.5,20 C226.5,17.6527898 227.451395,15.5277898 228.989592,13.9895924 C230.52779,12.4513949 232.65279,11.5 235,11.5 L235,11.5 Z" id="Body" stroke="#000000" stroke-width="3" fill="#E02020"></path>
                        <ellipse id="Left-Foot" fill="#000000" transform="translate(54.005375, 358.997435) rotate(25.000000) translate(-54.005375, -358.997435) " cx="54.0053746" cy="358.997435" rx="12.6191219" ry="25.007358"></ellipse>
                        <ellipse id="Right-Foot" fill="#000000" transform="translate(228.005375, 358.997435) scale(-1, 1) rotate(25.000000) translate(-228.005375, -358.997435) " cx="228.005375" cy="358.997435" rx="12.6191219" ry="25.007358"></ellipse>
                        <circle id="Left-Hand" fill="#000000" cx="47" cy="20" r="20"></circle>
                        <circle id="Right-Hand" fill="#000000" transform="translate(235.000000, 20.000000) scale(-1, 1) translate(-235.000000, -20.000000) " cx="235" cy="20" r="20"></circle>
                        <circle id="Head" fill="#000000" cx="141" cy="79" r="36"></circle>
                    </g>
                    <g id="Rig" transform="translate(70.000000, 109.000000)" fill="#000000">
                        <polygon id="Left-Leg-Strap" points="8.99804688 141.425781 52.8134766 171.421875 43.7158203 188.182617 0.639648438 159.78418"></polygon>
                        <polygon id="Left-Leg-Harness" points="30.8144531 132.661133 11.3427734 132.661133 12.638052 122.413937 28.1416016 115.120117"></polygon>
                        <polygon id="Right-Leg-Strap" transform="translate(115.086914, 164.378418) scale(-1, 1) translate(-115.086914, -164.378418) " points="97.3583984 141 141.173828 170.996094 132.076172 187.756836 89 159.358398"></polygon>
                        <polygon id="Right-Leg-Harness" transform="translate(120.735840, 123.770508) scale(-1, 1) translate(-120.735840, -123.770508) " points="130.47168 132.541016 111 132.541016 112.295279 122.29382 127.798828 115"></polygon>
                        <path d="M110,4 L100,0 L94,9 C94,9 82.5,14 71,14 C59.5,14 48,9 48,9 L42,0 L32,4 L34,17 C34,17 26,74 26,124 C26,131 32,136 36,136 C40,136 42,136 44,141 C46,146 96,146 98,141 C100,136 102,136 106,136 C110,136 116,131 116,124 C116,74 108,17 108,17 L110,4 Z"></path>
                    </g>
                </g>
                <g id="Outside-Center" transform="translate(141.000000, 199.000000) rotate(-180.000000) translate(-141.000000, -199.000000) ">
                    <g id="Skydiver">
                        <path d="M235,11.5 C236.756509,11.5 238.388771,12.0324107 239.743538,12.9454828 C241.158881,13.899381 242.272108,15.2675858 242.908235,16.8766584 L242.908235,16.8766584 L278.25554,84.6857921 C279.682737,87.1270995 280.5,89.9681507 280.5,93 C280.5,96.096103 279.647695,98.9932279 278.163982,101.468882 C276.619543,104.045862 274.391991,106.166573 271.731513,107.580534 L271.731513,107.580534 L198.327476,153.460659 C196.805471,154.333141 195.177492,155.045128 193.463572,155.558211 C193.126454,155.659131 192.787885,155.751795 192.448254,155.837206 C192.427637,156.237378 192.410124,156.601139 192.395302,156.927055 C191.946416,166.797307 190.803964,211.458531 204.062108,252.269762 L204.062108,252.269762 L256.473052,364.647235 C257.774154,367.496079 258.5,370.66329 258.5,374 C258.5,380.213203 255.981602,385.838203 251.909903,389.909903 C247.838203,393.981602 242.213203,396.5 236,396.5 C231.586892,396.5 227.470336,395.229899 223.996606,393.034402 C220.395983,390.758705 217.485461,387.489866 215.650471,383.612522 L215.650471,383.612522 L156.316185,274.70816 C155.641012,273.593434 155.045692,272.424946 154.538193,271.210615 C154.177661,270.535286 153.886935,269.948725 153.581737,269.334054 C152.340523,266.834238 150.855677,263.945092 148.388678,261.969178 C146.554013,260.499723 144.194286,259.5 141,259.5 C138.191277,259.5 135.762224,260.652887 133.757428,262.297003 C130.898469,264.641612 128.937461,267.984047 127.975232,269.910791 C127.315994,271.694788 126.56844,273.247625 125.683815,274.70816 L125.683815,274.70816 L66.3495294,383.612522 C64.5145392,387.489866 61.6040175,390.758705 58.0033943,393.034402 C54.5296642,395.229899 50.4131078,396.5 46,396.5 C39.7867966,396.5 34.1617966,393.981602 30.0900974,389.909903 C26.0183983,385.838203 23.5,380.213203 23.5,374 C23.5,370.661647 24.2265628,367.492955 25.5267035,364.6534 L25.5267035,364.6534 L77.7516386,252.664235 C88.578922,219.369466 89.4404209,167.643485 89.4975777,156.966024 C89.4994111,156.623531 89.5008691,156.238797 89.50146,155.816017 C89.1433135,155.727326 88.786525,155.62939 88.4314432,155.522104 C86.7572966,155.016273 85.1666395,154.316375 83.683847,153.451766 L83.683847,153.451766 L10.268386,107.58048 C7.6079524,106.166519 5.38043782,104.04583 3.83601824,101.468882 C2.35230544,98.9932279 1.5,96.096103 1.5,93 C1.5,89.9681507 2.31726343,87.1270995 3.74446048,84.6857921 L3.74446048,84.6857921 L39.0917651,16.8766584 C39.727892,15.2675858 40.8411191,13.899381 42.2564619,12.9454828 C43.6112292,12.0324107 45.2434906,11.5 47,11.5 C49.3472102,11.5 51.4722102,12.4513949 53.0104076,13.9895924 C54.5486051,15.5277898 55.5,17.6527898 55.5,20 C55.5,20.9612036 55.340845,21.8852304 55.0467839,22.7469132 L55.0467839,22.7469132 L37.6567855,83.8025689 L101.384221,112.378309 C107.37723,111.885153 110.857469,110.171667 112.898157,108.225276 C114.351188,106.839387 115.117167,105.306272 115.496993,103.878368 C115.828053,102.633793 115.859653,101.468105 115.789451,100.546987 L115.789451,100.546987 L166.211825,100.50161 C166.134943,101.428616 166.158227,102.605634 166.483122,103.863366 C166.855506,105.304941 167.616367,106.85315 169.071075,108.248448 C171.109744,110.203857 174.595898,111.91763 180.617681,112.377315 L180.617681,112.377315 L244.342195,83.8025721 L226.95322,22.7469237 C226.659156,21.885238 226.5,20.9612075 226.5,20 C226.5,17.6527898 227.451395,15.5277898 228.989592,13.9895924 C230.52779,12.4513949 232.65279,11.5 235,11.5 L235,11.5 Z" id="Body" stroke="#000000" stroke-width="3" fill="#6DD400"></path>
                        <ellipse id="Left-Foot" fill="#000000" transform="translate(54.005375, 358.997435) rotate(25.000000) translate(-54.005375, -358.997435) " cx="54.0053746" cy="358.997435" rx="12.6191219" ry="25.007358"></ellipse>
                        <ellipse id="Right-Foot" fill="#000000" transform="translate(228.005375, 358.997435) scale(-1, 1) rotate(25.000000) translate(-228.005375, -358.997435) " cx="228.005375" cy="358.997435" rx="12.6191219" ry="25.007358"></ellipse>
                        <circle id="Left-Hand" fill="#000000" cx="47" cy="20" r="20"></circle>
                        <circle id="Right-Hand" fill="#000000" transform="translate(235.000000, 20.000000) scale(-1, 1) translate(-235.000000, -20.000000) " cx="235" cy="20" r="20"></circle>
                        <circle id="Head" fill="#000000" cx="141" cy="79" r="36"></circle>
                    </g>
                    <g id="Rig" transform="translate(70.000000, 109.000000)" fill="#000000">
                        <polygon id="Left-Leg-Strap" points="8.99804688 141.425781 52.8134766 171.421875 43.7158203 188.182617 0.639648438 159.78418"></polygon>
                        <polygon id="Left-Leg-Harness" points="30.8144531 132.661133 11.3427734 132.661133 12.638052 122.413937 28.1416016 115.120117"></polygon>
                        <polygon id="Right-Leg-Strap" transform="translate(115.086914, 164.378418) scale(-1, 1) translate(-115.086914, -164.378418) " points="97.3583984 141 141.173828 170.996094 132.076172 187.756836 89 159.358398"></polygon>
                        <polygon id="Right-Leg-Harness" transform="translate(120.735840, 123.770508) scale(-1, 1) translate(-120.735840, -123.770508) " points="130.47168 132.541016 111 132.541016 112.295279 122.29382 127.798828 115"></polygon>
                        <path d="M110,4 L100,0 L94,9 C94,9 82.5,14 71,14 C59.5,14 48,9 48,9 L42,0 L32,4 L34,17 C34,17 26,74 26,124 C26,131 32,136 36,136 C40,136 42,136 44,141 C46,146 96,146 98,141 C100,136 102,136 106,136 C110,136 116,131 116,124 C116,74 108,17 108,17 L110,4 Z"></path>
                    </g>
                </g>
            </g>
            <g id="Back-Piece" transform="translate(469.615422, 394.655280) rotate(-200.000000) translate(-469.615422, -394.655280) translate(247.115422, 55.655280)">
                <g id="Inside-Center" transform="translate(163.000000, 280.000000)">
                    <g id="Skydiver">
                        <path d="M235,11.5 C236.756509,11.5 238.388771,12.0324107 239.743538,12.9454828 C241.158881,13.899381 242.272108,15.2675858 242.908235,16.8766584 L242.908235,16.8766584 L278.25554,84.6857921 C279.682737,87.1270995 280.5,89.9681507 280.5,93 C280.5,96.096103 279.647695,98.9932279 278.163982,101.468882 C276.619543,104.045862 274.391991,106.166573 271.731513,107.580534 L271.731513,107.580534 L198.327476,153.460659 C196.805471,154.333141 195.177492,155.045128 193.463572,155.558211 C193.126454,155.659131 192.787885,155.751795 192.448254,155.837206 C192.427637,156.237378 192.410124,156.601139 192.395302,156.927055 C191.946416,166.797307 190.803964,211.458531 204.062108,252.269762 L204.062108,252.269762 L256.473052,364.647235 C257.774154,367.496079 258.5,370.66329 258.5,374 C258.5,380.213203 255.981602,385.838203 251.909903,389.909903 C247.838203,393.981602 242.213203,396.5 236,396.5 C231.586892,396.5 227.470336,395.229899 223.996606,393.034402 C220.395983,390.758705 217.485461,387.489866 215.650471,383.612522 L215.650471,383.612522 L156.316185,274.70816 C155.641012,273.593434 155.045692,272.424946 154.538193,271.210615 C154.177661,270.535286 153.886935,269.948725 153.581737,269.334054 C152.340523,266.834238 150.855677,263.945092 148.388678,261.969178 C146.554013,260.499723 144.194286,259.5 141,259.5 C138.191277,259.5 135.762224,260.652887 133.757428,262.297003 C130.898469,264.641612 128.937461,267.984047 127.975232,269.910791 C127.315994,271.694788 126.56844,273.247625 125.683815,274.70816 L125.683815,274.70816 L66.3495294,383.612522 C64.5145392,387.489866 61.6040175,390.758705 58.0033943,393.034402 C54.5296642,395.229899 50.4131078,396.5 46,396.5 C39.7867966,396.5 34.1617966,393.981602 30.0900974,389.909903 C26.0183983,385.838203 23.5,380.213203 23.5,374 C23.5,370.661647 24.2265628,367.492955 25.5267035,364.6534 L25.5267035,364.6534 L77.7516386,252.664235 C88.578922,219.369466 89.4404209,167.643485 89.4975777,156.966024 C89.4994111,156.623531 89.5008691,156.238797 89.50146,155.816017 C89.1433135,155.727326 88.786525,155.62939 88.4314432,155.522104 C86.7572966,155.016273 85.1666395,154.316375 83.683847,153.451766 L83.683847,153.451766 L10.268386,107.58048 C7.6079524,106.166519 5.38043782,104.04583 3.83601824,101.468882 C2.35230544,98.9932279 1.5,96.096103 1.5,93 C1.5,89.9681507 2.31726343,87.1270995 3.74446048,84.6857921 L3.74446048,84.6857921 L39.0917651,16.8766584 C39.727892,15.2675858 40.8411191,13.899381 42.2564619,12.9454828 C43.6112292,12.0324107 45.2434906,11.5 47,11.5 C49.3472102,11.5 51.4722102,12.4513949 53.0104076,13.9895924 C54.5486051,15.5277898 55.5,17.6527898 55.5,20 C55.5,20.9612036 55.340845,21.8852304 55.0467839,22.7469132 L55.0467839,22.7469132 L37.6567855,83.8025689 L101.384221,112.378309 C107.37723,111.885153 110.857469,110.171667 112.898157,108.225276 C114.351188,106.839387 115.117167,105.306272 115.496993,103.878368 C115.828053,102.633793 115.859653,101.468105 115.789451,100.546987 L115.789451,100.546987 L166.211825,100.50161 C166.134943,101.428616 166.158227,102.605634 166.483122,103.863366 C166.855506,105.304941 167.616367,106.85315 169.071075,108.248448 C171.109744,110.203857 174.595898,111.91763 180.617681,112.377315 L180.617681,112.377315 L244.342195,83.8025721 L226.95322,22.7469237 C226.659156,21.885238 226.5,20.9612075 226.5,20 C226.5,17.6527898 227.451395,15.5277898 228.989592,13.9895924 C230.52779,12.4513949 232.65279,11.5 235,11.5 L235,11.5 Z" id="Body" stroke="#000000" stroke-width="3" fill="#0065FF"></path>
                        <ellipse id="Left-Foot" fill="#000000" transform="translate(54.005375, 358.997435) rotate(25.000000) translate(-54.005375, -358.997435) " cx="54.0053746" cy="358.997435" rx="12.6191219" ry="25.007358"></ellipse>
                        <ellipse id="Right-Foot" fill="#000000" transform="translate(228.005375, 358.997435) scale(-1, 1) rotate(25.000000) translate(-228.005375, -358.997435) " cx="228.005375" cy="358.997435" rx="12.6191219" ry="25.007358"></ellipse>
                        <circle id="Left-Hand" fill="#000000" cx="47" cy="20" r="20"></circle>
                        <circle id="Right-Hand" fill="#000000" transform="translate(235.000000, 20.000000) scale(-1, 1) translate(-235.000000, -20.000000) " cx="235" cy="20" r="20"></circle>
                        <circle id="Head" fill="#000000" cx="141" cy="79" r="36"></circle>
                    </g>
                    <g id="Rig" transform="translate(70.000000, 109.000000)" fill="#000000">
                        <polygon id="Left-Leg-Strap" points="8.99804688 141.425781 52.8134766 171.421875 43.7158203 188.182617 0.639648438 159.78418"></polygon>
                        <polygon id="Left-Leg-Harness" points="30.8144531 132.661133 11.3427734 132.661133 12.638052 122.413937 28.1416016 115.120117"></polygon>
                        <polygon id="Right-Leg-Strap" transform="translate(115.086914, 164.378418) scale(-1, 1) translate(-115.086914, -164.378418) " points="97.3583984 141 141.173828 170.996094 132.076172 187.756836 89 159.358398"></polygon>
                        <polygon id="Right-Leg-Harness" transform="translate(120.735840, 123.770508) scale(-1, 1) translate(-120.735840, -123.770508) " points="130.47168 132.541016 111 132.541016 112.295279 122.29382 127.798828 115"></polygon>
                        <path d="M110,4 L100,0 L94,9 C94,9 82.5,14 71,14 C59.5,14 48,9 48,9 L42,0 L32,4 L34,17 C34,17 26,74 26,124 C26,131 32,136 36,136 C40,136 42,136 44,141 C46,146 96,146 98,141 C100,136 102,136 106,136 C110,136 116,131 116,124 C116,74 108,17 108,17 L110,4 Z"></path>
                    </g>
                </g>
                <g id="Tail" transform="translate(141.000000, 199.000000) rotate(-180.000000) translate(-141.000000, -199.000000) ">
                    <g id="Skydiver">
                        <path d="M235,11.5 C236.756509,11.5 238.388771,12.0324107 239.743538,12.9454828 C241.158881,13.899381 242.272108,15.2675858 242.908235,16.8766584 L242.908235,16.8766584 L278.25554,84.6857921 C279.682737,87.1270995 280.5,89.9681507 280.5,93 C280.5,96.096103 279.647695,98.9932279 278.163982,101.468882 C276.619543,104.045862 274.391991,106.166573 271.731513,107.580534 L271.731513,107.580534 L198.327476,153.460659 C196.805471,154.333141 195.177492,155.045128 193.463572,155.558211 C193.126454,155.659131 192.787885,155.751795 192.448254,155.837206 C192.427637,156.237378 192.410124,156.601139 192.395302,156.927055 C191.946416,166.797307 190.803964,211.458531 204.062108,252.269762 L204.062108,252.269762 L256.473052,364.647235 C257.774154,367.496079 258.5,370.66329 258.5,374 C258.5,380.213203 255.981602,385.838203 251.909903,389.909903 C247.838203,393.981602 242.213203,396.5 236,396.5 C231.586892,396.5 227.470336,395.229899 223.996606,393.034402 C220.395983,390.758705 217.485461,387.489866 215.650471,383.612522 L215.650471,383.612522 L156.316185,274.70816 C155.641012,273.593434 155.045692,272.424946 154.538193,271.210615 C154.177661,270.535286 153.886935,269.948725 153.581737,269.334054 C152.340523,266.834238 150.855677,263.945092 148.388678,261.969178 C146.554013,260.499723 144.194286,259.5 141,259.5 C138.191277,259.5 135.762224,260.652887 133.757428,262.297003 C130.898469,264.641612 128.937461,267.984047 127.975232,269.910791 C127.315994,271.694788 126.56844,273.247625 125.683815,274.70816 L125.683815,274.70816 L66.3495294,383.612522 C64.5145392,387.489866 61.6040175,390.758705 58.0033943,393.034402 C54.5296642,395.229899 50.4131078,396.5 46,396.5 C39.7867966,396.5 34.1617966,393.981602 30.0900974,389.909903 C26.0183983,385.838203 23.5,380.213203 23.5,374 C23.5,370.661647 24.2265628,367.492955 25.5267035,364.6534 L25.5267035,364.6534 L77.7516386,252.664235 C88.578922,219.369466 89.4404209,167.643485 89.4975777,156.966024 C89.4994111,156.623531 89.5008691,156.238797 89.50146,155.816017 C89.1433135,155.727326 88.786525,155.62939 88.4314432,155.522104 C86.7572966,155.016273 85.1666395,154.316375 83.683847,153.451766 L83.683847,153.451766 L10.268386,107.58048 C7.6079524,106.166519 5.38043782,104.04583 3.83601824,101.468882 C2.35230544,98.9932279 1.5,96.096103 1.5,93 C1.5,89.9681507 2.31726343,87.1270995 3.74446048,84.6857921 L3.74446048,84.6857921 L39.0917651,16.8766584 C39.727892,15.2675858 40.8411191,13.899381 42.2564619,12.9454828 C43.6112292,12.0324107 45.2434906,11.5 47,11.5 C49.3472102,11.5 51.4722102,12.4513949 53.0104076,13.9895924 C54.5486051,15.5277898 55.5,17.6527898 55.5,20 C55.5,20.9612036 55.340845,21.8852304 55.0467839,22.7469132 L55.0467839,22.7469132 L37.6567855,83.8025689 L101.384221,112.378309 C107.37723,111.885153 110.857469,110.171667 112.898157,108.225276 C114.351188,106.839387 115.117167,105.306272 115.496993,103.878368 C115.828053,102.633793 115.859653,101.468105 115.789451,100.546987 L115.789451,100.546987 L166.211825,100.50161 C166.134943,101.428616 166.158227,102.605634 166.483122,103.863366 C166.855506,105.304941 167.616367,106.85315 169.071075,108.248448 C171.109744,110.203857 174.595898,111.91763 180.617681,112.377315 L180.617681,112.377315 L244.342195,83.8025721 L226.95322,22.7469237 C226.659156,21.885238 226.5,20.9612075 226.5,20 C226.5,17.6527898 227.451395,15.5277898 228.989592,13.9895924 C230.52779,12.4513949 232.65279,11.5 235,11.5 L235,11.5 Z" id="Body" stroke="#000000" stroke-width="3" fill="#F7E400"></path>
                        <ellipse id="Left-Foot" fill="#000000" transform="translate(54.005375, 358.997435) rotate(25.000000) translate(-54.005375, -358.997435) " cx="54.0053746" cy="358.997435" rx="12.6191219" ry="25.007358"></ellipse>
                        <ellipse id="Right-Foot" fill="#000000" transform="translate(228.005375, 358.997435) scale(-1, 1) rotate(25.000000) translate(-228.005375, -358.997435) " cx="228.005375" cy="358.997435" rx="12.6191219" ry="25.007358"></ellipse>
                        <circle id="Left-Hand" fill="#000000" cx="47" cy="20" r="20"></circle>
                        <circle id="Right-Hand" fill="#000000" transform="translate(235.000000, 20.000000) scale(-1, 1) translate(-235.000000, -20.000000) " cx="235" cy="20" r="20"></circle>
                        <circle id="Head" fill="#000000" cx="141" cy="79" r="36"></circle>
                    </g>
                    <g id="Rig" transform="translate(70.000000, 109.000000)" fill="#000000">
                        <polygon id="Left-Leg-Strap" points="8.99804688 141.425781 52.8134766 171.421875 43.7158203 188.182617 0.639648438 159.78418"></polygon>
                        <polygon id="Left-Leg-Harness" points="30.8144531 132.661133 11.3427734 132.661133 12.638052 122.413937 28.1416016 115.120117"></polygon>
                        <polygon id="Right-Leg-Strap" transform="translate(115.086914, 164.378418) scale(-1, 1) translate(-115.086914, -164.378418) " points="97.3583984 141 141.173828 170.996094 132.076172 187.756836 89 159.358398"></polygon>
                        <polygon id="Right-Leg-Harness" transform="translate(120.735840, 123.770508) scale(-1, 1) translate(-120.735840, -123.770508) " points="130.47168 132.541016 111 132.541016 112.295279 122.29382 127.798828 115"></polygon>
                        <path d="M110,4 L100,0 L94,9 C94,9 82.5,14 71,14 C59.5,14 48,9 48,9 L42,0 L32,4 L34,17 C34,17 26,74 26,124 C26,131 32,136 36,136 C40,136 42,136 44,141 C46,146 96,146 98,141 C100,136 102,136 106,136 C110,136 116,131 116,124 C116,74 108,17 108,17 L110,4 Z"></path>
                    </g>
                </g>
            </g>
        </g>
        <g id="Inter" transform="translate(692.832612, 1367.072393) rotate(-90.000000) translate(-692.832612, -1367.072393) translate(288.000000, 872.000000)">
            <g id="Front-Piece" transform="translate(348.832612, 346.454134) rotate(-180.000000) translate(-348.832612, -346.454134) translate(110.332612, 127.954134)">
                <g id="Point" transform="translate(195.000000, 39.000000)">
                    <g id="Skydiver">
                        <path d="M235,11.5 C236.756509,11.5 238.388771,12.0324107 239.743538,12.9454828 C241.158881,13.899381 242.272108,15.2675858 242.908235,16.8766584 L242.908235,16.8766584 L278.25554,84.6857921 C279.682737,87.1270995 280.5,89.9681507 280.5,93 C280.5,96.096103 279.647695,98.9932279 278.163982,101.468882 C276.619543,104.045862 274.391991,106.166573 271.731513,107.580534 L271.731513,107.580534 L198.327476,153.460659 C196.805471,154.333141 195.177492,155.045128 193.463572,155.558211 C193.126454,155.659131 192.787885,155.751795 192.448254,155.837206 C192.427637,156.237378 192.410124,156.601139 192.395302,156.927055 C191.946416,166.797307 190.803964,211.458531 204.062108,252.269762 L204.062108,252.269762 L256.473052,364.647235 C257.774154,367.496079 258.5,370.66329 258.5,374 C258.5,380.213203 255.981602,385.838203 251.909903,389.909903 C247.838203,393.981602 242.213203,396.5 236,396.5 C231.586892,396.5 227.470336,395.229899 223.996606,393.034402 C220.395983,390.758705 217.485461,387.489866 215.650471,383.612522 L215.650471,383.612522 L156.316185,274.70816 C155.641012,273.593434 155.045692,272.424946 154.538193,271.210615 C154.177661,270.535286 153.886935,269.948725 153.581737,269.334054 C152.340523,266.834238 150.855677,263.945092 148.388678,261.969178 C146.554013,260.499723 144.194286,259.5 141,259.5 C138.191277,259.5 135.762224,260.652887 133.757428,262.297003 C130.898469,264.641612 128.937461,267.984047 127.975232,269.910791 C127.315994,271.694788 126.56844,273.247625 125.683815,274.70816 L125.683815,274.70816 L66.3495294,383.612522 C64.5145392,387.489866 61.6040175,390.758705 58.0033943,393.034402 C54.5296642,395.229899 50.4131078,396.5 46,396.5 C39.7867966,396.5 34.1617966,393.981602 30.0900974,389.909903 C26.0183983,385.838203 23.5,380.213203 23.5,374 C23.5,370.661647 24.2265628,367.492955 25.5267035,364.6534 L25.5267035,364.6534 L77.7516386,252.664235 C88.578922,219.369466 89.4404209,167.643485 89.4975777,156.966024 C89.4994111,156.623531 89.5008691,156.238797 89.50146,155.816017 C89.1433135,155.727326 88.786525,155.62939 88.4314432,155.522104 C86.7572966,155.016273 85.1666395,154.316375 83.683847,153.451766 L83.683847,153.451766 L10.268386,107.58048 C7.6079524,106.166519 5.38043782,104.04583 3.83601824,101.468882 C2.35230544,98.9932279 1.5,96.096103 1.5,93 C1.5,89.9681507 2.31726343,87.1270995 3.74446048,84.6857921 L3.74446048,84.6857921 L39.0917651,16.8766584 C39.727892,15.2675858 40.8411191,13.899381 42.2564619,12.9454828 C43.6112292,12.0324107 45.2434906,11.5 47,11.5 C49.3472102,11.5 51.4722102,12.4513949 53.0104076,13.9895924 C54.5486051,15.5277898 55.5,17.6527898 55.5,20 C55.5,20.9612036 55.340845,21.8852304 55.0467839,22.7469132 L55.0467839,22.7469132 L37.6567855,83.8025689 L101.384221,112.378309 C107.37723,111.885153 110.857469,110.171667 112.898157,108.225276 C114.351188,106.839387 115.117167,105.306272 115.496993,103.878368 C115.828053,102.633793 115.859653,101.468105 115.789451,100.546987 L115.789451,100.546987 L166.211825,100.50161 C166.134943,101.428616 166.158227,102.605634 166.483122,103.863366 C166.855506,105.304941 167.616367,106.85315 169.071075,108.248448 C171.109744,110.203857 174.595898,111.91763 180.617681,112.377315 L180.617681,112.377315 L244.342195,83.8025721 L226.95322,22.7469237 C226.659156,21.885238 226.5,20.9612075 226.5,20 C226.5,17.6527898 227.451395,15.5277898 228.989592,13.9895924 C230.52779,12.4513949 232.65279,11.5 235,11.5 L235,11.5 Z" id="Body" stroke="#000000" stroke-width="3" fill="#E02020"></path>
                        <ellipse id="Left-Foot" fill="#000000" transform="translate(54.005375, 358.997435) rotate(25.000000) translate(-54.005375, -358.997435) " cx="54.0053746" cy="358.997435" rx="12.6191219" ry="25.007358"></ellipse>
                        <ellipse id="Right-Foot" fill="#000000" transform="translate(228.005375, 358.997435) scale(-1, 1) rotate(25.000000) translate(-228.005375, -358.997435) " cx="228.005375" cy="358.997435" rx="12.6191219" ry="25.007358"></ellipse>
                        <circle id="Left-Hand" fill="#000000" cx="47" cy="20" r="20"></circle>
                        <circle id="Right-Hand" fill="#000000" transform="translate(235.000000, 20.000000) scale(-1, 1) translate(-235.000000, -20.000000) " cx="235" cy="20" r="20"></circle>
                        <circle id="Head" fill="#000000" cx="141" cy="79" r="36"></circle>
                    </g>
                    <g id="Rig" transform="translate(70.000000, 109.000000)" fill="#000000">
                        <polygon id="Left-Leg-Strap" points="8.99804688 141.425781 52.8134766 171.421875 43.7158203 188.182617 0.639648438 159.78418"></polygon>
                        <polygon id="Left-Leg-Harness" points="30.8144531 132.661133 11.3427734 132.661133 12.638052 122.413937 28.1416016 115.120117"></polygon>
                        <polygon id="Right-Leg-Strap" transform="translate(115.086914, 164.378418) scale(-1, 1) translate(-115.086914, -164.378418) " points="97.3583984 141 141.173828 170.996094 132.076172 187.756836 89 159.358398"></polygon>
                        <polygon id="Right-Leg-Harness" transform="translate(120.735840, 123.770508) scale(-1, 1) translate(-120.735840, -123.770508) " points="130.47168 132.541016 111 132.541016 112.295279 122.29382 127.798828 115"></polygon>
                        <path d="M110,4 L100,0 L94,9 C94,9 82.5,14 71,14 C59.5,14 48,9 48,9 L42,0 L32,4 L34,17 C34,17 26,74 26,124 C26,131 32,136 36,136 C40,136 42,136 44,141 C46,146 96,146 98,141 C100,136 102,136 106,136 C110,136 116,131 116,124 C116,74 108,17 108,17 L110,4 Z"></path>
                    </g>
                </g>
                <g id="Outside-Center" transform="translate(141.000000, 199.000000) rotate(-180.000000) translate(-141.000000, -199.000000) ">
                    <g id="Skydiver">
                        <path d="M235,11.5 C236.756509,11.5 238.388771,12.0324107 239.743538,12.9454828 C241.158881,13.899381 242.272108,15.2675858 242.908235,16.8766584 L242.908235,16.8766584 L278.25554,84.6857921 C279.682737,87.1270995 280.5,89.9681507 280.5,93 C280.5,96.096103 279.647695,98.9932279 278.163982,101.468882 C276.619543,104.045862 274.391991,106.166573 271.731513,107.580534 L271.731513,107.580534 L198.327476,153.460659 C196.805471,154.333141 195.177492,155.045128 193.463572,155.558211 C193.126454,155.659131 192.787885,155.751795 192.448254,155.837206 C192.427637,156.237378 192.410124,156.601139 192.395302,156.927055 C191.946416,166.797307 190.803964,211.458531 204.062108,252.269762 L204.062108,252.269762 L256.473052,364.647235 C257.774154,367.496079 258.5,370.66329 258.5,374 C258.5,380.213203 255.981602,385.838203 251.909903,389.909903 C247.838203,393.981602 242.213203,396.5 236,396.5 C231.586892,396.5 227.470336,395.229899 223.996606,393.034402 C220.395983,390.758705 217.485461,387.489866 215.650471,383.612522 L215.650471,383.612522 L156.316185,274.70816 C155.641012,273.593434 155.045692,272.424946 154.538193,271.210615 C154.177661,270.535286 153.886935,269.948725 153.581737,269.334054 C152.340523,266.834238 150.855677,263.945092 148.388678,261.969178 C146.554013,260.499723 144.194286,259.5 141,259.5 C138.191277,259.5 135.762224,260.652887 133.757428,262.297003 C130.898469,264.641612 128.937461,267.984047 127.975232,269.910791 C127.315994,271.694788 126.56844,273.247625 125.683815,274.70816 L125.683815,274.70816 L66.3495294,383.612522 C64.5145392,387.489866 61.6040175,390.758705 58.0033943,393.034402 C54.5296642,395.229899 50.4131078,396.5 46,396.5 C39.7867966,396.5 34.1617966,393.981602 30.0900974,389.909903 C26.0183983,385.838203 23.5,380.213203 23.5,374 C23.5,370.661647 24.2265628,367.492955 25.5267035,364.6534 L25.5267035,364.6534 L77.7516386,252.664235 C88.578922,219.369466 89.4404209,167.643485 89.4975777,156.966024 C89.4994111,156.623531 89.5008691,156.238797 89.50146,155.816017 C89.1433135,155.727326 88.786525,155.62939 88.4314432,155.522104 C86.7572966,155.016273 85.1666395,154.316375 83.683847,153.451766 L83.683847,153.451766 L10.268386,107.58048 C7.6079524,106.166519 5.38043782,104.04583 3.83601824,101.468882 C2.35230544,98.9932279 1.5,96.096103 1.5,93 C1.5,89.9681507 2.31726343,87.1270995 3.74446048,84.6857921 L3.74446048,84.6857921 L39.0917651,16.8766584 C39.727892,15.2675858 40.8411191,13.899381 42.2564619,12.9454828 C43.6112292,12.0324107 45.2434906,11.5 47,11.5 C49.3472102,11.5 51.4722102,12.4513949 53.0104076,13.9895924 C54.5486051,15.5277898 55.5,17.6527898 55.5,20 C55.5,20.9612036 55.340845,21.8852304 55.0467839,22.7469132 L55.0467839,22.7469132 L37.6567855,83.8025689 L101.384221,112.378309 C107.37723,111.885153 110.857469,110.171667 112.898157,108.225276 C114.351188,106.839387 115.117167,105.306272 115.496993,103.878368 C115.828053,102.633793 115.859653,101.468105 115.789451,100.546987 L115.789451,100.546987 L166.211825,100.50161 C166.134943,101.428616 166.158227,102.605634 166.483122,103.863366 C166.855506,105.304941 167.616367,106.85315 169.071075,108.248448 C171.109744,110.203857 174.595898,111.91763 180.617681,112.377315 L180.617681,112.377315 L244.342195,83.8025721 L226.95322,22.7469237 C226.659156,21.885238 226.5,20.9612075 226.5,20 C226.5,17.6527898 227.451395,15.5277898 228.989592,13.9895924 C230.52779,12.4513949 232.65279,11.5 235,11.5 L235,11.5 Z" id="Body" stroke="#000000" stroke-width="3" fill="#6DD400"></path>
                        <ellipse id="Left-Foot" fill="#000000" transform="translate(54.005375, 358.997435) rotate(25.000000) translate(-54.005375, -358.997435) " cx="54.0053746" cy="358.997435" rx="12.6191219" ry="25.007358"></ellipse>
                        <ellipse id="Right-Foot" fill="#000000" transform="translate(228.005375, 358.997435) scale(-1, 1) rotate(25.000000) translate(-228.005375, -358.997435) " cx="228.005375" cy="358.997435" rx="12.6191219" ry="25.007358"></ellipse>
                        <circle id="Left-Hand" fill="#000000" cx="47" cy="20" r="20"></circle>
                        <circle id="Right-Hand" fill="#000000" transform="translate(235.000000, 20.000000) scale(-1, 1) translate(-235.000000, -20.000000) " cx="235" cy="20" r="20"></circle>
                        <circle id="Head" fill="#000000" cx="141" cy="79" r="36"></circle>
                    </g>
                    <g id="Rig" transform="translate(70.000000, 109.000000)" fill="#000000">
                        <polygon id="Left-Leg-Strap" points="8.99804688 141.425781 52.8134766 171.421875 43.7158203 188.182617 0.639648438 159.78418"></polygon>
                        <polygon id="Left-Leg-Harness" points="30.8144531 132.661133 11.3427734 132.661133 12.638052 122.413937 28.1416016 115.120117"></polygon>
                        <polygon id="Right-Leg-Strap" transform="translate(115.086914, 164.378418) scale(-1, 1) translate(-115.086914, -164.378418) " points="97.3583984 141 141.173828 170.996094 132.076172 187.756836 89 159.358398"></polygon>
                        <polygon id="Right-Leg-Harness" transform="translate(120.735840, 123.770508) scale(-1, 1) translate(-120.735840, -123.770508) " points="130.47168 132.541016 111 132.541016 112.295279 122.29382 127.798828 115"></polygon>
                        <path d="M110,4 L100,0 L94,9 C94,9 82.5,14 71,14 C59.5,14 48,9 48,9 L42,0 L32,4 L34,17 C34,17 26,74 26,124 C26,131 32,136 36,136 C40,136 42,136 44,141 C46,146 96,146 98,141 C100,136 102,136 106,136 C110,136 116,131 116,124 C116,74 108,17 108,17 L110,4 Z"></path>
                    </g>
                </g>
            </g>
            <g id="Back-Piece" transform="translate(0.000000, 545.763481)">
                <g id="Inside-Center" transform="translate(242.839055, 222.771723) rotate(-240.000000) translate(-242.839055, -222.771723) translate(101.839055, 23.771723)">
                    <g id="Skydiver">
                        <path d="M235,11.5 C236.756509,11.5 238.388771,12.0324107 239.743538,12.9454828 C241.158881,13.899381 242.272108,15.2675858 242.908235,16.8766584 L242.908235,16.8766584 L278.25554,84.6857921 C279.682737,87.1270995 280.5,89.9681507 280.5,93 C280.5,96.096103 279.647695,98.9932279 278.163982,101.468882 C276.619543,104.045862 274.391991,106.166573 271.731513,107.580534 L271.731513,107.580534 L198.327476,153.460659 C196.805471,154.333141 195.177492,155.045128 193.463572,155.558211 C193.126454,155.659131 192.787885,155.751795 192.448254,155.837206 C192.427637,156.237378 192.410124,156.601139 192.395302,156.927055 C191.946416,166.797307 190.803964,211.458531 204.062108,252.269762 L204.062108,252.269762 L256.473052,364.647235 C257.774154,367.496079 258.5,370.66329 258.5,374 C258.5,380.213203 255.981602,385.838203 251.909903,389.909903 C247.838203,393.981602 242.213203,396.5 236,396.5 C231.586892,396.5 227.470336,395.229899 223.996606,393.034402 C220.395983,390.758705 217.485461,387.489866 215.650471,383.612522 L215.650471,383.612522 L156.316185,274.70816 C155.641012,273.593434 155.045692,272.424946 154.538193,271.210615 C154.177661,270.535286 153.886935,269.948725 153.581737,269.334054 C152.340523,266.834238 150.855677,263.945092 148.388678,261.969178 C146.554013,260.499723 144.194286,259.5 141,259.5 C138.191277,259.5 135.762224,260.652887 133.757428,262.297003 C130.898469,264.641612 128.937461,267.984047 127.975232,269.910791 C127.315994,271.694788 126.56844,273.247625 125.683815,274.70816 L125.683815,274.70816 L66.3495294,383.612522 C64.5145392,387.489866 61.6040175,390.758705 58.0033943,393.034402 C54.5296642,395.229899 50.4131078,396.5 46,396.5 C39.7867966,396.5 34.1617966,393.981602 30.0900974,389.909903 C26.0183983,385.838203 23.5,380.213203 23.5,374 C23.5,370.661647 24.2265628,367.492955 25.5267035,364.6534 L25.5267035,364.6534 L77.7516386,252.664235 C88.578922,219.369466 89.4404209,167.643485 89.4975777,156.966024 C89.4994111,156.623531 89.5008691,156.238797 89.50146,155.816017 C89.1433135,155.727326 88.786525,155.62939 88.4314432,155.522104 C86.7572966,155.016273 85.1666395,154.316375 83.683847,153.451766 L83.683847,153.451766 L10.268386,107.58048 C7.6079524,106.166519 5.38043782,104.04583 3.83601824,101.468882 C2.35230544,98.9932279 1.5,96.096103 1.5,93 C1.5,89.9681507 2.31726343,87.1270995 3.74446048,84.6857921 L3.74446048,84.6857921 L39.0917651,16.8766584 C39.727892,15.2675858 40.8411191,13.899381 42.2564619,12.9454828 C43.6112292,12.0324107 45.2434906,11.5 47,11.5 C49.3472102,11.5 51.4722102,12.4513949 53.0104076,13.9895924 C54.5486051,15.5277898 55.5,17.6527898 55.5,20 C55.5,20.9612036 55.340845,21.8852304 55.0467839,22.7469132 L55.0467839,22.7469132 L37.6567855,83.8025689 L101.384221,112.378309 C107.37723,111.885153 110.857469,110.171667 112.898157,108.225276 C114.351188,106.839387 115.117167,105.306272 115.496993,103.878368 C115.828053,102.633793 115.859653,101.468105 115.789451,100.546987 L115.789451,100.546987 L166.211825,100.50161 C166.134943,101.428616 166.158227,102.605634 166.483122,103.863366 C166.855506,105.304941 167.616367,106.85315 169.071075,108.248448 C171.109744,110.203857 174.595898,111.91763 180.617681,112.377315 L180.617681,112.377315 L244.342195,83.8025721 L226.95322,22.7469237 C226.659156,21.885238 226.5,20.9612075 226.5,20 C226.5,17.6527898 227.451395,15.5277898 228.989592,13.9895924 C230.52779,12.4513949 232.65279,11.5 235,11.5 L235,11.5 Z" id="Body" stroke="#000000" stroke-width="3" fill="#0065FF"></path>
                        <ellipse id="Left-Foot" fill="#000000" transform="translate(54.005375, 358.997435) rotate(25.000000) translate(-54.005375, -358.997435) " cx="54.0053746" cy="358.997435" rx="12.6191219" ry="25.007358"></ellipse>
                        <ellipse id="Right-Foot" fill="#000000" transform="translate(228.005375, 358.997435) scale(-1, 1) rotate(25.000000) translate(-228.005375, -358.997435) " cx="228.005375" cy="358.997435" rx="12.6191219" ry="25.007358"></ellipse>
                        <circle id="Left-Hand" fill="#000000" cx="47" cy="20" r="20"></circle>
                        <circle id="Right-Hand" fill="#000000" transform="translate(235.000000, 20.000000) scale(-1, 1) translate(-235.000000, -20.000000) " cx="235" cy="20" r="20"></circle>
                        <circle id="Head" fill="#000000" cx="141" cy="79" r="36"></circle>
                    </g>
                    <g id="Rig" transform="translate(70.000000, 109.000000)" fill="#000000">
                        <polygon id="Left-Leg-Strap" points="8.99804688 141.425781 52.8134766 171.421875 43.7158203 188.182617 0.639648438 159.78418"></polygon>
                        <polygon id="Left-Leg-Harness" points="30.8144531 132.661133 11.3427734 132.661133 12.638052 122.413937 28.1416016 115.120117"></polygon>
                        <polygon id="Right-Leg-Strap" transform="translate(115.086914, 164.378418) scale(-1, 1) translate(-115.086914, -164.378418) " points="97.3583984 141 141.173828 170.996094 132.076172 187.756836 89 159.358398"></polygon>
                        <polygon id="Right-Leg-Harness" transform="translate(120.735840, 123.770508) scale(-1, 1) translate(-120.735840, -123.770508) " points="130.47168 132.541016 111 132.541016 112.295279 122.29382 127.798828 115"></polygon>
                        <path d="M110,4 L100,0 L94,9 C94,9 82.5,14 71,14 C59.5,14 48,9 48,9 L42,0 L32,4 L34,17 C34,17 26,74 26,124 C26,131 32,136 36,136 C40,136 42,136 44,141 C46,146 96,146 98,141 C100,136 102,136 106,136 C110,136 116,131 116,124 C116,74 108,17 108,17 L110,4 Z"></path>
                    </g>
                </g>
                <g id="Tail" transform="translate(566.826168, 221.609582) rotate(-420.000000) translate(-566.826168, -221.609582) translate(425.826168, 22.609582)">
                    <g id="Skydiver">
                        <path d="M235,11.5 C236.756509,11.5 238.388771,12.0324107 239.743538,12.9454828 C241.158881,13.899381 242.272108,15.2675858 242.908235,16.8766584 L242.908235,16.8766584 L278.25554,84.6857921 C279.682737,87.1270995 280.5,89.9681507 280.5,93 C280.5,96.096103 279.647695,98.9932279 278.163982,101.468882 C276.619543,104.045862 274.391991,106.166573 271.731513,107.580534 L271.731513,107.580534 L198.327476,153.460659 C196.805471,154.333141 195.177492,155.045128 193.463572,155.558211 C193.126454,155.659131 192.787885,155.751795 192.448254,155.837206 C192.427637,156.237378 192.410124,156.601139 192.395302,156.927055 C191.946416,166.797307 190.803964,211.458531 204.062108,252.269762 L204.062108,252.269762 L256.473052,364.647235 C257.774154,367.496079 258.5,370.66329 258.5,374 C258.5,380.213203 255.981602,385.838203 251.909903,389.909903 C247.838203,393.981602 242.213203,396.5 236,396.5 C231.586892,396.5 227.470336,395.229899 223.996606,393.034402 C220.395983,390.758705 217.485461,387.489866 215.650471,383.612522 L215.650471,383.612522 L156.316185,274.70816 C155.641012,273.593434 155.045692,272.424946 154.538193,271.210615 C154.177661,270.535286 153.886935,269.948725 153.581737,269.334054 C152.340523,266.834238 150.855677,263.945092 148.388678,261.969178 C146.554013,260.499723 144.194286,259.5 141,259.5 C138.191277,259.5 135.762224,260.652887 133.757428,262.297003 C130.898469,264.641612 128.937461,267.984047 127.975232,269.910791 C127.315994,271.694788 126.56844,273.247625 125.683815,274.70816 L125.683815,274.70816 L66.3495294,383.612522 C64.5145392,387.489866 61.6040175,390.758705 58.0033943,393.034402 C54.5296642,395.229899 50.4131078,396.5 46,396.5 C39.7867966,396.5 34.1617966,393.981602 30.0900974,389.909903 C26.0183983,385.838203 23.5,380.213203 23.5,374 C23.5,370.661647 24.2265628,367.492955 25.5267035,364.6534 L25.5267035,364.6534 L77.7516386,252.664235 C88.578922,219.369466 89.4404209,167.643485 89.4975777,156.966024 C89.4994111,156.623531 89.5008691,156.238797 89.50146,155.816017 C89.1433135,155.727326 88.786525,155.62939 88.4314432,155.522104 C86.7572966,155.016273 85.1666395,154.316375 83.683847,153.451766 L83.683847,153.451766 L10.268386,107.58048 C7.6079524,106.166519 5.38043782,104.04583 3.83601824,101.468882 C2.35230544,98.9932279 1.5,96.096103 1.5,93 C1.5,89.9681507 2.31726343,87.1270995 3.74446048,84.6857921 L3.74446048,84.6857921 L39.0917651,16.8766584 C39.727892,15.2675858 40.8411191,13.899381 42.2564619,12.9454828 C43.6112292,12.0324107 45.2434906,11.5 47,11.5 C49.3472102,11.5 51.4722102,12.4513949 53.0104076,13.9895924 C54.5486051,15.5277898 55.5,17.6527898 55.5,20 C55.5,20.9612036 55.340845,21.8852304 55.0467839,22.7469132 L55.0467839,22.7469132 L37.6567855,83.8025689 L101.384221,112.378309 C107.37723,111.885153 110.857469,110.171667 112.898157,108.225276 C114.351188,106.839387 115.117167,105.306272 115.496993,103.878368 C115.828053,102.633793 115.859653,101.468105 115.789451,100.546987 L115.789451,100.546987 L166.211825,100.50161 C166.134943,101.428616 166.158227,102.605634 166.483122,103.863366 C166.855506,105.304941 167.616367,106.85315 169.071075,108.248448 C171.109744,110.203857 174.595898,111.91763 180.617681,112.377315 L180.617681,112.377315 L244.342195,83.8025721 L226.95322,22.7469237 C226.659156,21.885238 226.5,20.9612075 226.5,20 C226.5,17.6527898 227.451395,15.5277898 228.989592,13.9895924 C230.52779,12.4513949 232.65279,11.5 235,11.5 L235,11.5 Z" id="Body" stroke="#000000" stroke-width="3" fill="#F7E400"></path>
                        <ellipse id="Left-Foot" fill="#000000" transform="translate(54.005375, 358.997435) rotate(25.000000) translate(-54.005375, -358.997435) " cx="54.0053746" cy="358.997435" rx="12.6191219" ry="25.007358"></ellipse>
                        <ellipse id="Right-Foot" fill="#000000" transform="translate(228.005375, 358.997435) scale(-1, 1) rotate(25.000000) translate(-228.005375, -358.997435) " cx="228.005375" cy="358.997435" rx="12.6191219" ry="25.007358"></ellipse>
                        <circle id="Left-Hand" fill="#000000" cx="47" cy="20" r="20"></circle>
                        <circle id="Right-Hand" fill="#000000" transform="translate(235.000000, 20.000000) scale(-1, 1) translate(-235.000000, -20.000000) " cx="235" cy="20" r="20"></circle>
                        <circle id="Head" fill="#000000" cx="141" cy="79" r="36"></circle>
                    </g>
                    <g id="Rig" transform="translate(70.000000, 109.000000)" fill="#000000">
                        <polygon id="Left-Leg-Strap" points="8.99804688 141.425781 52.8134766 171.421875 43.7158203 188.182617 0.639648438 159.78418"></polygon>
                        <polygon id="Left-Leg-Harness" points="30.8144531 132.661133 11.3427734 132.661133 12.638052 122.413937 28.1416016 115.120117"></polygon>
                        <polygon id="Right-Leg-Strap" transform="translate(115.086914, 164.378418) scale(-1, 1) translate(-115.086914, -164.378418) " points="97.3583984 141 141.173828 170.996094 132.076172 187.756836 89 159.358398"></polygon>
                        <polygon id="Right-Leg-Harness" transform="translate(120.735840, 123.770508) scale(-1, 1) translate(-120.735840, -123.770508) " points="130.47168 132.541016 111 132.541016 112.295279 122.29382 127.798828 115"></polygon>
                        <path d="M110,4 L100,0 L94,9 C94,9 82.5,14 71,14 C59.5,14 48,9 48,9 L42,0 L32,4 L34,17 C34,17 26,74 26,124 C26,131 32,136 36,136 C40,136 42,136 44,141 C46,146 96,146 98,141 C100,136 102,136 106,136 C110,136 116,131 116,124 C116,74 108,17 108,17 L110,4 Z"></path>
                    </g>
                </g>
            </g>
            <g id="360°" transform="translate(693.603719, 559.222656) rotate(-270.000000) translate(-693.603719, -559.222656) translate(561.381063, 509.160156)" fill="#000000">
                <path d="M21.375,53.2265625 L31.078125,53.2265625 C45.0703125,53.2265625 53.578125,60.46875 53.71875,71.71875 C53.859375,82.7578125 45.5625,90.9140625 31.21875,90.9140625 C17.578125,90.9140625 11.1796875,82.8984375 9.984375,73.546875 L0,73.546875 C0.6328125,87.9609375 10.6171875,100.125 30.8671875,100.125 C50.5546875,100.125 64.6875,87.890625 64.40625,71.578125 C64.0546875,55.96875 51.3984375,48.8671875 42.890625,48.1640625 L42.890625,48.0234375 C50.625,46.828125 61.03125,38.109375 60.6796875,24.3984375 C60.328125,10.6875 48.9375,0 31.1484375,0 C11.8828125,0 2.671875,13.78125 2.4609375,25.59375 L12.5859375,25.59375 C13.1484375,18.2109375 18.28125,9.28125 31.1484375,9.28125 C42.75,9.28125 49.921875,16.2421875 49.9921875,26.15625 C50.0625,36.3515625 42.1171875,43.875 30.4453125,43.875 L21.375,43.875 L21.375,53.2265625 Z M142.382812,24.1875 C141.257812,12.65625 131.132812,0.3515625 114.046875,0.3515625 C93.65625,0.3515625 78.3984375,17.4375 78.3984375,54.421875 C78.3984375,85.78125 92.390625,99.984375 112.429688,99.984375 C130.5,99.984375 144.914062,87.8203125 144.914062,67.4296875 C144.914062,47.0390625 129.023438,35.859375 113.484375,35.859375 C100.898438,35.859375 91.6171875,43.171875 88.734375,50.765625 L88.59375,50.765625 C89.4375,21.234375 100.6875,9.5625 113.554688,9.5625 C125.367188,9.5625 131.203125,18.2109375 131.765625,24.1875 L142.382812,24.1875 Z M90.28125,67.921875 C90.28125,53.3671875 100.757812,45.2109375 112.5,45.2109375 C123.398438,45.2109375 134.507812,52.59375 134.507812,68.0625 C134.507812,83.4609375 123.890625,90.7734375 112.570312,90.7734375 C100.898438,90.7734375 90.28125,82.828125 90.28125,67.921875 L90.28125,67.921875 Z M168.1875,46.40625 C168.1875,22.8515625 176.765625,9.28125 190.757812,9.28125 C204.75,9.28125 213.328125,22.8515625 213.328125,46.40625 L213.328125,53.859375 C213.328125,77.34375 204.75,90.7734375 190.757812,90.7734375 C176.765625,90.7734375 168.1875,77.34375 168.1875,53.859375 L168.1875,46.40625 Z M157.710938,53.9296875 C157.710938,82.40625 169.523438,100.054688 190.757812,100.054688 C211.992188,100.054688 223.664062,82.40625 223.664062,53.9296875 L223.664062,46.3359375 C223.664062,17.859375 211.992188,0 190.757812,0 C169.523438,0 157.710938,17.9296875 157.710938,46.3359375 L157.710938,53.9296875 Z M249.46875,30.8671875 C257.695312,30.8671875 264.445312,24.1171875 264.445312,15.890625 C264.445312,7.59375 257.695312,0.9140625 249.46875,0.9140625 C241.101562,0.9140625 234.421875,7.59375 234.421875,15.890625 C234.421875,24.1171875 241.101562,30.8671875 249.46875,30.8671875 L249.46875,30.8671875 Z M249.46875,24.1171875 C245.039062,24.1171875 241.242188,20.25 241.242188,15.890625 C241.242188,11.25 245.039062,7.59375 249.46875,7.59375 C254.039062,7.59375 257.695312,11.25 257.695312,15.890625 C257.695312,20.25 254.039062,24.1171875 249.46875,24.1171875 L249.46875,24.1171875 Z"></path>
            </g>
            <path d="M383.900594,82.96875 C393.041265,73.5468279 397.611532,62.2031913 397.611532,48.9375 C397.611532,35.5780582 392.795174,24.0820794 383.162313,14.4492188 C373.529452,4.81635809 362.010036,4.54747351e-13 348.603719,4.54747351e-13 C335.197402,4.54747351e-13 323.689705,4.79292082 314.080282,14.3789063 C304.470859,23.9648917 299.666219,35.4843077 299.666219,48.9375 C299.666219,60.9844352 303.556805,71.554642 311.338094,80.6484375 L316.681844,76.2890625 C309.931811,68.4140231 306.556844,59.2969268 306.556844,48.9375 C306.556844,37.4061923 310.681803,27.5156663 318.931844,19.265625 C327.181886,11.0155838 337.072412,6.890625 348.603719,6.890625 C360.135027,6.890625 370.025553,11.0155838 378.275594,19.265625 C386.525636,27.5156663 390.650594,37.4061923 390.650594,48.9375 C390.650594,60.140681 386.760008,69.843709 378.978719,78.046875 L372.791219,64.3359375 L363.861532,97.9453125 L397.400594,89.015625 L383.900594,82.96875 Z" id="↺" fill="#000000" transform="translate(348.638876, 48.972656) rotate(-270.000000) translate(-348.638876, -48.972656) "></path>
            <path d="M520.900594,974.96875 C530.041265,965.546828 534.611532,954.203191 534.611532,940.9375 C534.611532,927.578058 529.795174,916.082079 520.162313,906.449219 C510.529452,896.816358 499.010036,892 485.603719,892 C472.197402,892 460.689705,896.792921 451.080282,906.378906 C441.470859,915.964892 436.666219,927.484308 436.666219,940.9375 C436.666219,952.984435 440.556805,963.554642 448.338094,972.648437 L453.681844,968.289062 C446.931811,960.414023 443.556844,951.296927 443.556844,940.9375 C443.556844,929.406192 447.681803,919.515666 455.931844,911.265625 C464.181886,903.015584 474.072412,898.890625 485.603719,898.890625 C497.135027,898.890625 507.025553,903.015584 515.275594,911.265625 C523.525636,919.515666 527.650594,929.406192 527.650594,940.9375 C527.650594,952.140681 523.760008,961.843709 515.978719,970.046875 L509.791219,956.335937 L500.861532,989.945312 L534.400594,981.015625 L520.900594,974.96875 Z" id="↺" fill="#000000" transform="translate(485.638876, 940.972656) rotate(-270.000000) translate(-485.638876, -940.972656) "></path>
        </g>
        <g id="Top" transform="translate(187.000000, -54.000000)">
            <g id="Front-Piece" transform="translate(323.147799, 323.147799) rotate(-45.000000) translate(-323.147799, -323.147799) translate(84.647799, 104.647799)">
                <g id="Point" transform="translate(195.000000, 39.000000)">
                    <g id="Skydiver">
                        <path d="M235,11.5 C236.756509,11.5 238.388771,12.0324107 239.743538,12.9454828 C241.158881,13.899381 242.272108,15.2675858 242.908235,16.8766584 L242.908235,16.8766584 L278.25554,84.6857921 C279.682737,87.1270995 280.5,89.9681507 280.5,93 C280.5,96.096103 279.647695,98.9932279 278.163982,101.468882 C276.619543,104.045862 274.391991,106.166573 271.731513,107.580534 L271.731513,107.580534 L198.327476,153.460659 C196.805471,154.333141 195.177492,155.045128 193.463572,155.558211 C193.126454,155.659131 192.787885,155.751795 192.448254,155.837206 C192.427637,156.237378 192.410124,156.601139 192.395302,156.927055 C191.946416,166.797307 190.803964,211.458531 204.062108,252.269762 L204.062108,252.269762 L256.473052,364.647235 C257.774154,367.496079 258.5,370.66329 258.5,374 C258.5,380.213203 255.981602,385.838203 251.909903,389.909903 C247.838203,393.981602 242.213203,396.5 236,396.5 C231.586892,396.5 227.470336,395.229899 223.996606,393.034402 C220.395983,390.758705 217.485461,387.489866 215.650471,383.612522 L215.650471,383.612522 L156.316185,274.70816 C155.641012,273.593434 155.045692,272.424946 154.538193,271.210615 C154.177661,270.535286 153.886935,269.948725 153.581737,269.334054 C152.340523,266.834238 150.855677,263.945092 148.388678,261.969178 C146.554013,260.499723 144.194286,259.5 141,259.5 C138.191277,259.5 135.762224,260.652887 133.757428,262.297003 C130.898469,264.641612 128.937461,267.984047 127.975232,269.910791 C127.315994,271.694788 126.56844,273.247625 125.683815,274.70816 L125.683815,274.70816 L66.3495294,383.612522 C64.5145392,387.489866 61.6040175,390.758705 58.0033943,393.034402 C54.5296642,395.229899 50.4131078,396.5 46,396.5 C39.7867966,396.5 34.1617966,393.981602 30.0900974,389.909903 C26.0183983,385.838203 23.5,380.213203 23.5,374 C23.5,370.661647 24.2265628,367.492955 25.5267035,364.6534 L25.5267035,364.6534 L77.7516386,252.664235 C88.578922,219.369466 89.4404209,167.643485 89.4975777,156.966024 C89.4994111,156.623531 89.5008691,156.238797 89.50146,155.816017 C89.1433135,155.727326 88.786525,155.62939 88.4314432,155.522104 C86.7572966,155.016273 85.1666395,154.316375 83.683847,153.451766 L83.683847,153.451766 L10.268386,107.58048 C7.6079524,106.166519 5.38043782,104.04583 3.83601824,101.468882 C2.35230544,98.9932279 1.5,96.096103 1.5,93 C1.5,89.9681507 2.31726343,87.1270995 3.74446048,84.6857921 L3.74446048,84.6857921 L39.0917651,16.8766584 C39.727892,15.2675858 40.8411191,13.899381 42.2564619,12.9454828 C43.6112292,12.0324107 45.2434906,11.5 47,11.5 C49.3472102,11.5 51.4722102,12.4513949 53.0104076,13.9895924 C54.5486051,15.5277898 55.5,17.6527898 55.5,20 C55.5,20.9612036 55.340845,21.8852304 55.0467839,22.7469132 L55.0467839,22.7469132 L37.6567855,83.8025689 L101.384221,112.378309 C107.37723,111.885153 110.857469,110.171667 112.898157,108.225276 C114.351188,106.839387 115.117167,105.306272 115.496993,103.878368 C115.828053,102.633793 115.859653,101.468105 115.789451,100.546987 L115.789451,100.546987 L166.211825,100.50161 C166.134943,101.428616 166.158227,102.605634 166.483122,103.863366 C166.855506,105.304941 167.616367,106.85315 169.071075,108.248448 C171.109744,110.203857 174.595898,111.91763 180.617681,112.377315 L180.617681,112.377315 L244.342195,83.8025721 L226.95322,22.7469237 C226.659156,21.885238 226.5,20.9612075 226.5,20 C226.5,17.6527898 227.451395,15.5277898 228.989592,13.9895924 C230.52779,12.4513949 232.65279,11.5 235,11.5 L235,11.5 Z" id="Body" stroke="#000000" stroke-width="3" fill="#E02020"></path>
                        <ellipse id="Left-Foot" fill="#000000" transform="translate(54.005375, 358.997435) rotate(25.000000) translate(-54.005375, -358.997435) " cx="54.0053746" cy="358.997435" rx="12.6191219" ry="25.007358"></ellipse>
                        <ellipse id="Right-Foot" fill="#000000" transform="translate(228.005375, 358.997435) scale(-1, 1) rotate(25.000000) translate(-228.005375, -358.997435) " cx="228.005375" cy="358.997435" rx="12.6191219" ry="25.007358"></ellipse>
                        <circle id="Left-Hand" fill="#000000" cx="47" cy="20" r="20"></circle>
                        <circle id="Right-Hand" fill="#000000" transform="translate(235.000000, 20.000000) scale(-1, 1) translate(-235.000000, -20.000000) " cx="235" cy="20" r="20"></circle>
                        <circle id="Head" fill="#000000" cx="141" cy="79" r="36"></circle>
                    </g>
                    <g id="Rig" transform="translate(70.000000, 109.000000)" fill="#000000">
                        <polygon id="Left-Leg-Strap" points="8.99804688 141.425781 52.8134766 171.421875 43.7158203 188.182617 0.639648438 159.78418"></polygon>
                        <polygon id="Left-Leg-Harness" points="30.8144531 132.661133 11.3427734 132.661133 12.638052 122.413937 28.1416016 115.120117"></polygon>
                        <polygon id="Right-Leg-Strap" transform="translate(115.086914, 164.378418) scale(-1, 1) translate(-115.086914, -164.378418) " points="97.3583984 141 141.173828 170.996094 132.076172 187.756836 89 159.358398"></polygon>
                        <polygon id="Right-Leg-Harness" transform="translate(120.735840, 123.770508) scale(-1, 1) translate(-120.735840, -123.770508) " points="130.47168 132.541016 111 132.541016 112.295279 122.29382 127.798828 115"></polygon>
                        <path d="M110,4 L100,0 L94,9 C94,9 82.5,14 71,14 C59.5,14 48,9 48,9 L42,0 L32,4 L34,17 C34,17 26,74 26,124 C26,131 32,136 36,136 C40,136 42,136 44,141 C46,146 96,146 98,141 C100,136 102,136 106,136 C110,136 116,131 116,124 C116,74 108,17 108,17 L110,4 Z"></path>
                    </g>
                </g>
                <g id="Outside-Center" transform="translate(141.000000, 199.000000) rotate(-180.000000) translate(-141.000000, -199.000000) ">
                    <g id="Skydiver">
                        <path d="M235,11.5 C236.756509,11.5 238.388771,12.0324107 239.743538,12.9454828 C241.158881,13.899381 242.272108,15.2675858 242.908235,16.8766584 L242.908235,16.8766584 L278.25554,84.6857921 C279.682737,87.1270995 280.5,89.9681507 280.5,93 C280.5,96.096103 279.647695,98.9932279 278.163982,101.468882 C276.619543,104.045862 274.391991,106.166573 271.731513,107.580534 L271.731513,107.580534 L198.327476,153.460659 C196.805471,154.333141 195.177492,155.045128 193.463572,155.558211 C193.126454,155.659131 192.787885,155.751795 192.448254,155.837206 C192.427637,156.237378 192.410124,156.601139 192.395302,156.927055 C191.946416,166.797307 190.803964,211.458531 204.062108,252.269762 L204.062108,252.269762 L256.473052,364.647235 C257.774154,367.496079 258.5,370.66329 258.5,374 C258.5,380.213203 255.981602,385.838203 251.909903,389.909903 C247.838203,393.981602 242.213203,396.5 236,396.5 C231.586892,396.5 227.470336,395.229899 223.996606,393.034402 C220.395983,390.758705 217.485461,387.489866 215.650471,383.612522 L215.650471,383.612522 L156.316185,274.70816 C155.641012,273.593434 155.045692,272.424946 154.538193,271.210615 C154.177661,270.535286 153.886935,269.948725 153.581737,269.334054 C152.340523,266.834238 150.855677,263.945092 148.388678,261.969178 C146.554013,260.499723 144.194286,259.5 141,259.5 C138.191277,259.5 135.762224,260.652887 133.757428,262.297003 C130.898469,264.641612 128.937461,267.984047 127.975232,269.910791 C127.315994,271.694788 126.56844,273.247625 125.683815,274.70816 L125.683815,274.70816 L66.3495294,383.612522 C64.5145392,387.489866 61.6040175,390.758705 58.0033943,393.034402 C54.5296642,395.229899 50.4131078,396.5 46,396.5 C39.7867966,396.5 34.1617966,393.981602 30.0900974,389.909903 C26.0183983,385.838203 23.5,380.213203 23.5,374 C23.5,370.661647 24.2265628,367.492955 25.5267035,364.6534 L25.5267035,364.6534 L77.7516386,252.664235 C88.578922,219.369466 89.4404209,167.643485 89.4975777,156.966024 C89.4994111,156.623531 89.5008691,156.238797 89.50146,155.816017 C89.1433135,155.727326 88.786525,155.62939 88.4314432,155.522104 C86.7572966,155.016273 85.1666395,154.316375 83.683847,153.451766 L83.683847,153.451766 L10.268386,107.58048 C7.6079524,106.166519 5.38043782,104.04583 3.83601824,101.468882 C2.35230544,98.9932279 1.5,96.096103 1.5,93 C1.5,89.9681507 2.31726343,87.1270995 3.74446048,84.6857921 L3.74446048,84.6857921 L39.0917651,16.8766584 C39.727892,15.2675858 40.8411191,13.899381 42.2564619,12.9454828 C43.6112292,12.0324107 45.2434906,11.5 47,11.5 C49.3472102,11.5 51.4722102,12.4513949 53.0104076,13.9895924 C54.5486051,15.5277898 55.5,17.6527898 55.5,20 C55.5,20.9612036 55.340845,21.8852304 55.0467839,22.7469132 L55.0467839,22.7469132 L37.6567855,83.8025689 L101.384221,112.378309 C107.37723,111.885153 110.857469,110.171667 112.898157,108.225276 C114.351188,106.839387 115.117167,105.306272 115.496993,103.878368 C115.828053,102.633793 115.859653,101.468105 115.789451,100.546987 L115.789451,100.546987 L166.211825,100.50161 C166.134943,101.428616 166.158227,102.605634 166.483122,103.863366 C166.855506,105.304941 167.616367,106.85315 169.071075,108.248448 C171.109744,110.203857 174.595898,111.91763 180.617681,112.377315 L180.617681,112.377315 L244.342195,83.8025721 L226.95322,22.7469237 C226.659156,21.885238 226.5,20.9612075 226.5,20 C226.5,17.6527898 227.451395,15.5277898 228.989592,13.9895924 C230.52779,12.4513949 232.65279,11.5 235,11.5 L235,11.5 Z" id="Body" stroke="#000000" stroke-width="3" fill="#6DD400"></path>
                        <ellipse id="Left-Foot" fill="#000000" transform="translate(54.005375, 358.997435) rotate(25.000000) translate(-54.005375, -358.997435) " cx="54.0053746" cy="358.997435" rx="12.6191219" ry="25.007358"></ellipse>
                        <ellipse id="Right-Foot" fill="#000000" transform="translate(228.005375, 358.997435) scale(-1, 1) rotate(25.000000) translate(-228.005375, -358.997435) " cx="228.005375" cy="358.997435" rx="12.6191219" ry="25.007358"></ellipse>
                        <circle id="Left-Hand" fill="#000000" cx="47" cy="20" r="20"></circle>
                        <circle id="Right-Hand" fill="#000000" transform="translate(235.000000, 20.000000) scale(-1, 1) translate(-235.000000, -20.000000) " cx="235" cy="20" r="20"></circle>
                        <circle id="Head" fill="#000000" cx="141" cy="79" r="36"></circle>
                    </g>
                    <g id="Rig" transform="translate(70.000000, 109.000000)" fill="#000000">
                        <polygon id="Left-Leg-Strap" points="8.99804688 141.425781 52.8134766 171.421875 43.7158203 188.182617 0.639648438 159.78418"></polygon>
                        <polygon id="Left-Leg-Harness" points="30.8144531 132.661133 11.3427734 132.661133 12.638052 122.413937 28.1416016 115.120117"></polygon>
                        <polygon id="Right-Leg-Strap" transform="translate(115.086914, 164.378418) scale(-1, 1) translate(-115.086914, -164.378418) " points="97.3583984 141 141.173828 170.996094 132.076172 187.756836 89 159.358398"></polygon>
                        <polygon id="Right-Leg-Harness" transform="translate(120.735840, 123.770508) scale(-1, 1) translate(-120.735840, -123.770508) " points="130.47168 132.541016 111 132.541016 112.295279 122.29382 127.798828 115"></polygon>
                        <path d="M110,4 L100,0 L94,9 C94,9 82.5,14 71,14 C59.5,14 48,9 48,9 L42,0 L32,4 L34,17 C34,17 26,74 26,124 C26,131 32,136 36,136 C40,136 42,136 44,141 C46,146 96,146 98,141 C100,136 102,136 106,136 C110,136 116,131 116,124 C116,74 108,17 108,17 L110,4 Z"></path>
                    </g>
                </g>
            </g>
            <g id="Back-Piece" transform="translate(626.850162, 496.742514) rotate(-105.000000) translate(-626.850162, -496.742514) translate(404.350162, 157.742514)">
                <g id="Inside-Center" transform="translate(163.000000, 280.000000)">
                    <g id="Skydiver">
                        <path d="M235,11.5 C236.756509,11.5 238.388771,12.0324107 239.743538,12.9454828 C241.158881,13.899381 242.272108,15.2675858 242.908235,16.8766584 L242.908235,16.8766584 L278.25554,84.6857921 C279.682737,87.1270995 280.5,89.9681507 280.5,93 C280.5,96.096103 279.647695,98.9932279 278.163982,101.468882 C276.619543,104.045862 274.391991,106.166573 271.731513,107.580534 L271.731513,107.580534 L198.327476,153.460659 C196.805471,154.333141 195.177492,155.045128 193.463572,155.558211 C193.126454,155.659131 192.787885,155.751795 192.448254,155.837206 C192.427637,156.237378 192.410124,156.601139 192.395302,156.927055 C191.946416,166.797307 190.803964,211.458531 204.062108,252.269762 L204.062108,252.269762 L256.473052,364.647235 C257.774154,367.496079 258.5,370.66329 258.5,374 C258.5,380.213203 255.981602,385.838203 251.909903,389.909903 C247.838203,393.981602 242.213203,396.5 236,396.5 C231.586892,396.5 227.470336,395.229899 223.996606,393.034402 C220.395983,390.758705 217.485461,387.489866 215.650471,383.612522 L215.650471,383.612522 L156.316185,274.70816 C155.641012,273.593434 155.045692,272.424946 154.538193,271.210615 C154.177661,270.535286 153.886935,269.948725 153.581737,269.334054 C152.340523,266.834238 150.855677,263.945092 148.388678,261.969178 C146.554013,260.499723 144.194286,259.5 141,259.5 C138.191277,259.5 135.762224,260.652887 133.757428,262.297003 C130.898469,264.641612 128.937461,267.984047 127.975232,269.910791 C127.315994,271.694788 126.56844,273.247625 125.683815,274.70816 L125.683815,274.70816 L66.3495294,383.612522 C64.5145392,387.489866 61.6040175,390.758705 58.0033943,393.034402 C54.5296642,395.229899 50.4131078,396.5 46,396.5 C39.7867966,396.5 34.1617966,393.981602 30.0900974,389.909903 C26.0183983,385.838203 23.5,380.213203 23.5,374 C23.5,370.661647 24.2265628,367.492955 25.5267035,364.6534 L25.5267035,364.6534 L77.7516386,252.664235 C88.578922,219.369466 89.4404209,167.643485 89.4975777,156.966024 C89.4994111,156.623531 89.5008691,156.238797 89.50146,155.816017 C89.1433135,155.727326 88.786525,155.62939 88.4314432,155.522104 C86.7572966,155.016273 85.1666395,154.316375 83.683847,153.451766 L83.683847,153.451766 L10.268386,107.58048 C7.6079524,106.166519 5.38043782,104.04583 3.83601824,101.468882 C2.35230544,98.9932279 1.5,96.096103 1.5,93 C1.5,89.9681507 2.31726343,87.1270995 3.74446048,84.6857921 L3.74446048,84.6857921 L39.0917651,16.8766584 C39.727892,15.2675858 40.8411191,13.899381 42.2564619,12.9454828 C43.6112292,12.0324107 45.2434906,11.5 47,11.5 C49.3472102,11.5 51.4722102,12.4513949 53.0104076,13.9895924 C54.5486051,15.5277898 55.5,17.6527898 55.5,20 C55.5,20.9612036 55.340845,21.8852304 55.0467839,22.7469132 L55.0467839,22.7469132 L37.6567855,83.8025689 L101.384221,112.378309 C107.37723,111.885153 110.857469,110.171667 112.898157,108.225276 C114.351188,106.839387 115.117167,105.306272 115.496993,103.878368 C115.828053,102.633793 115.859653,101.468105 115.789451,100.546987 L115.789451,100.546987 L166.211825,100.50161 C166.134943,101.428616 166.158227,102.605634 166.483122,103.863366 C166.855506,105.304941 167.616367,106.85315 169.071075,108.248448 C171.109744,110.203857 174.595898,111.91763 180.617681,112.377315 L180.617681,112.377315 L244.342195,83.8025721 L226.95322,22.7469237 C226.659156,21.885238 226.5,20.9612075 226.5,20 C226.5,17.6527898 227.451395,15.5277898 228.989592,13.9895924 C230.52779,12.4513949 232.65279,11.5 235,11.5 L235,11.5 Z" id="Body" stroke="#000000" stroke-width="3" fill="#0065FF"></path>
                        <ellipse id="Left-Foot" fill="#000000" transform="translate(54.005375, 358.997435) rotate(25.000000) translate(-54.005375, -358.997435) " cx="54.0053746" cy="358.997435" rx="12.6191219" ry="25.007358"></ellipse>
                        <ellipse id="Right-Foot" fill="#000000" transform="translate(228.005375, 358.997435) scale(-1, 1) rotate(25.000000) translate(-228.005375, -358.997435) " cx="228.005375" cy="358.997435" rx="12.6191219" ry="25.007358"></ellipse>
                        <circle id="Left-Hand" fill="#000000" cx="47" cy="20" r="20"></circle>
                        <circle id="Right-Hand" fill="#000000" transform="translate(235.000000, 20.000000) scale(-1, 1) translate(-235.000000, -20.000000) " cx="235" cy="20" r="20"></circle>
                        <circle id="Head" fill="#000000" cx="141" cy="79" r="36"></circle>
                    </g>
                    <g id="Rig" transform="translate(70.000000, 109.000000)" fill="#000000">
                        <polygon id="Left-Leg-Strap" points="8.99804688 141.425781 52.8134766 171.421875 43.7158203 188.182617 0.639648438 159.78418"></polygon>
                        <polygon id="Left-Leg-Harness" points="30.8144531 132.661133 11.3427734 132.661133 12.638052 122.413937 28.1416016 115.120117"></polygon>
                        <polygon id="Right-Leg-Strap" transform="translate(115.086914, 164.378418) scale(-1, 1) translate(-115.086914, -164.378418) " points="97.3583984 141 141.173828 170.996094 132.076172 187.756836 89 159.358398"></polygon>
                        <polygon id="Right-Leg-Harness" transform="translate(120.735840, 123.770508) scale(-1, 1) translate(-120.735840, -123.770508) " points="130.47168 132.541016 111 132.541016 112.295279 122.29382 127.798828 115"></polygon>
                        <path d="M110,4 L100,0 L94,9 C94,9 82.5,14 71,14 C59.5,14 48,9 48,9 L42,0 L32,4 L34,17 C34,17 26,74 26,124 C26,131 32,136 36,136 C40,136 42,136 44,141 C46,146 96,146 98,141 C100,136 102,136 106,136 C110,136 116,131 116,124 C116,74 108,17 108,17 L110,4 Z"></path>
                    </g>
                </g>
                <g id="Tail" transform="translate(141.000000, 199.000000) rotate(-180.000000) translate(-141.000000, -199.000000) ">
                    <g id="Skydiver">
                        <path d="M235,11.5 C236.756509,11.5 238.388771,12.0324107 239.743538,12.9454828 C241.158881,13.899381 242.272108,15.2675858 242.908235,16.8766584 L242.908235,16.8766584 L278.25554,84.6857921 C279.682737,87.1270995 280.5,89.9681507 280.5,93 C280.5,96.096103 279.647695,98.9932279 278.163982,101.468882 C276.619543,104.045862 274.391991,106.166573 271.731513,107.580534 L271.731513,107.580534 L198.327476,153.460659 C196.805471,154.333141 195.177492,155.045128 193.463572,155.558211 C193.126454,155.659131 192.787885,155.751795 192.448254,155.837206 C192.427637,156.237378 192.410124,156.601139 192.395302,156.927055 C191.946416,166.797307 190.803964,211.458531 204.062108,252.269762 L204.062108,252.269762 L256.473052,364.647235 C257.774154,367.496079 258.5,370.66329 258.5,374 C258.5,380.213203 255.981602,385.838203 251.909903,389.909903 C247.838203,393.981602 242.213203,396.5 236,396.5 C231.586892,396.5 227.470336,395.229899 223.996606,393.034402 C220.395983,390.758705 217.485461,387.489866 215.650471,383.612522 L215.650471,383.612522 L156.316185,274.70816 C155.641012,273.593434 155.045692,272.424946 154.538193,271.210615 C154.177661,270.535286 153.886935,269.948725 153.581737,269.334054 C152.340523,266.834238 150.855677,263.945092 148.388678,261.969178 C146.554013,260.499723 144.194286,259.5 141,259.5 C138.191277,259.5 135.762224,260.652887 133.757428,262.297003 C130.898469,264.641612 128.937461,267.984047 127.975232,269.910791 C127.315994,271.694788 126.56844,273.247625 125.683815,274.70816 L125.683815,274.70816 L66.3495294,383.612522 C64.5145392,387.489866 61.6040175,390.758705 58.0033943,393.034402 C54.5296642,395.229899 50.4131078,396.5 46,396.5 C39.7867966,396.5 34.1617966,393.981602 30.0900974,389.909903 C26.0183983,385.838203 23.5,380.213203 23.5,374 C23.5,370.661647 24.2265628,367.492955 25.5267035,364.6534 L25.5267035,364.6534 L77.7516386,252.664235 C88.578922,219.369466 89.4404209,167.643485 89.4975777,156.966024 C89.4994111,156.623531 89.5008691,156.238797 89.50146,155.816017 C89.1433135,155.727326 88.786525,155.62939 88.4314432,155.522104 C86.7572966,155.016273 85.1666395,154.316375 83.683847,153.451766 L83.683847,153.451766 L10.268386,107.58048 C7.6079524,106.166519 5.38043782,104.04583 3.83601824,101.468882 C2.35230544,98.9932279 1.5,96.096103 1.5,93 C1.5,89.9681507 2.31726343,87.1270995 3.74446048,84.6857921 L3.74446048,84.6857921 L39.0917651,16.8766584 C39.727892,15.2675858 40.8411191,13.899381 42.2564619,12.9454828 C43.6112292,12.0324107 45.2434906,11.5 47,11.5 C49.3472102,11.5 51.4722102,12.4513949 53.0104076,13.9895924 C54.5486051,15.5277898 55.5,17.6527898 55.5,20 C55.5,20.9612036 55.340845,21.8852304 55.0467839,22.7469132 L55.0467839,22.7469132 L37.6567855,83.8025689 L101.384221,112.378309 C107.37723,111.885153 110.857469,110.171667 112.898157,108.225276 C114.351188,106.839387 115.117167,105.306272 115.496993,103.878368 C115.828053,102.633793 115.859653,101.468105 115.789451,100.546987 L115.789451,100.546987 L166.211825,100.50161 C166.134943,101.428616 166.158227,102.605634 166.483122,103.863366 C166.855506,105.304941 167.616367,106.85315 169.071075,108.248448 C171.109744,110.203857 174.595898,111.91763 180.617681,112.377315 L180.617681,112.377315 L244.342195,83.8025721 L226.95322,22.7469237 C226.659156,21.885238 226.5,20.9612075 226.5,20 C226.5,17.6527898 227.451395,15.5277898 228.989592,13.9895924 C230.52779,12.4513949 232.65279,11.5 235,11.5 L235,11.5 Z" id="Body" stroke="#000000" stroke-width="3" fill="#F7E400"></path>
                        <ellipse id="Left-Foot" fill="#000000" transform="translate(54.005375, 358.997435) rotate(25.000000) translate(-54.005375, -358.997435) " cx="54.0053746" cy="358.997435" rx="12.6191219" ry="25.007358"></ellipse>
                        <ellipse id="Right-Foot" fill="#000000" transform="translate(228.005375, 358.997435) scale(-1, 1) rotate(25.000000) translate(-228.005375, -358.997435) " cx="228.005375" cy="358.997435" rx="12.6191219" ry="25.007358"></ellipse>
                        <circle id="Left-Hand" fill="#000000" cx="47" cy="20" r="20"></circle>
                        <circle id="Right-Hand" fill="#000000" transform="translate(235.000000, 20.000000) scale(-1, 1) translate(-235.000000, -20.000000) " cx="235" cy="20" r="20"></circle>
                        <circle id="Head" fill="#000000" cx="141" cy="79" r="36"></circle>
                    </g>
                    <g id="Rig" transform="translate(70.000000, 109.000000)" fill="#000000">
                        <polygon id="Left-Leg-Strap" points="8.99804688 141.425781 52.8134766 171.421875 43.7158203 188.182617 0.639648438 159.78418"></polygon>
                        <polygon id="Left-Leg-Harness" points="30.8144531 132.661133 11.3427734 132.661133 12.638052 122.413937 28.1416016 115.120117"></polygon>
                        <polygon id="Right-Leg-Strap" transform="translate(115.086914, 164.378418) scale(-1, 1) translate(-115.086914, -164.378418) " points="97.3583984 141 141.173828 170.996094 132.076172 187.756836 89 159.358398"></polygon>
                        <polygon id="Right-Leg-Harness" transform="translate(120.735840, 123.770508) scale(-1, 1) translate(-120.735840, -123.770508) " points="130.47168 132.541016 111 132.541016 112.295279 122.29382 127.798828 115"></polygon>
                        <path d="M110,4 L100,0 L94,9 C94,9 82.5,14 71,14 C59.5,14 48,9 48,9 L42,0 L32,4 L34,17 C34,17 26,74 26,124 C26,131 32,136 36,136 C40,136 42,136 44,141 C46,146 96,146 98,141 C100,136 102,136 106,136 C110,136 116,131 116,124 C116,74 108,17 108,17 L110,4 Z"></path>
                    </g>
                </g>
            </g>
        </g>
    </g>
</svg>