<?xml version="1.0" encoding="UTF-8"?>
<svg width="1386px" height="3000px" viewBox="0 0 1386 3000" version="1.1" xmlns="http://www.w3.org/2000/svg" xmlns:xlink="http://www.w3.org/1999/xlink">
    <title>16 - Compressed Accordion - Box</title>
    <g id="16---Compressed-Accordion---Box" stroke="none" stroke-width="1" fill="none" fill-rule="evenodd">
        <g id="Bottom" transform="translate(460.000000, 2166.000000)">
            <g id="Tail" transform="translate(141.000000, 597.000000) rotate(-540.000000) translate(-141.000000, -597.000000) translate(0.000000, 398.000000)">
                <g id="Skydiver">
                    <path d="M235,11.5 C236.756509,11.5 238.388771,12.0324107 239.743538,12.9454828 C241.158881,13.899381 242.272108,15.2675858 242.908235,16.8766584 L242.908235,16.8766584 L278.25554,84.6857921 C279.682737,87.1270995 280.5,89.9681507 280.5,93 C280.5,96.096103 279.647695,98.9932279 278.163982,101.468882 C276.619543,104.045862 274.391991,106.166573 271.731513,107.580534 L271.731513,107.580534 L198.327476,153.460659 C196.805471,154.333141 195.177492,155.045128 193.463572,155.558211 C193.126454,155.659131 192.787885,155.751795 192.448254,155.837206 C192.427637,156.237378 192.410124,156.601139 192.395302,156.927055 C191.946416,166.797307 190.803964,211.458531 204.062108,252.269762 L204.062108,252.269762 L256.473052,364.647235 C257.774154,367.496079 258.5,370.66329 258.5,374 C258.5,380.213203 255.981602,385.838203 251.909903,389.909903 C247.838203,393.981602 242.213203,396.5 236,396.5 C231.586892,396.5 227.470336,395.229899 223.996606,393.034402 C220.395983,390.758705 217.485461,387.489866 215.650471,383.612522 L215.650471,383.612522 L156.316185,274.70816 C155.641012,273.593434 155.045692,272.424946 154.538193,271.210615 C154.177661,270.535286 153.886935,269.948725 153.581737,269.334054 C152.340523,266.834238 150.855677,263.945092 148.388678,261.969178 C146.554013,260.499723 144.194286,259.5 141,259.5 C138.191277,259.5 135.762224,260.652887 133.757428,262.297003 C130.898469,264.641612 128.937461,267.984047 127.975232,269.910791 C127.315994,271.694788 126.56844,273.247625 125.683815,274.70816 L125.683815,274.70816 L66.3495294,383.612522 C64.5145392,387.489866 61.6040175,390.758705 58.0033943,393.034402 C54.5296642,395.229899 50.4131078,396.5 46,396.5 C39.7867966,396.5 34.1617966,393.981602 30.0900974,389.909903 C26.0183983,385.838203 23.5,380.213203 23.5,374 C23.5,370.661647 24.2265628,367.492955 25.5267035,364.6534 L25.5267035,364.6534 L77.7516386,252.664235 C88.578922,219.369466 89.4404209,167.643485 89.4975777,156.966024 C89.4994111,156.623531 89.5008691,156.238797 89.50146,155.816017 C89.1433135,155.727326 88.786525,155.62939 88.4314432,155.522104 C86.7572966,155.016273 85.1666395,154.316375 83.683847,153.451766 L83.683847,153.451766 L10.268386,107.58048 C7.6079524,106.166519 5.38043782,104.04583 3.83601824,101.468882 C2.35230544,98.9932279 1.5,96.096103 1.5,93 C1.5,89.9681507 2.31726343,87.1270995 3.74446048,84.6857921 L3.74446048,84.6857921 L39.0917651,16.8766584 C39.727892,15.2675858 40.8411191,13.899381 42.2564619,12.9454828 C43.6112292,12.0324107 45.2434906,11.5 47,11.5 C49.3472102,11.5 51.4722102,12.4513949 53.0104076,13.9895924 C54.5486051,15.5277898 55.5,17.6527898 55.5,20 C55.5,20.9612036 55.340845,21.8852304 55.0467839,22.7469132 L55.0467839,22.7469132 L37.6567855,83.8025689 L101.384221,112.378309 C107.37723,111.885153 110.857469,110.171667 112.898157,108.225276 C114.351188,106.839387 115.117167,105.306272 115.496993,103.878368 C115.828053,102.633793 115.859653,101.468105 115.789451,100.546987 L115.789451,100.546987 L166.211825,100.50161 C166.134943,101.428616 166.158227,102.605634 166.483122,103.863366 C166.855506,105.304941 167.616367,106.85315 169.071075,108.248448 C171.109744,110.203857 174.595898,111.91763 180.617681,112.377315 L180.617681,112.377315 L244.342195,83.8025721 L226.95322,22.7469237 C226.659156,21.885238 226.5,20.9612075 226.5,20 C226.5,17.6527898 227.451395,15.5277898 228.989592,13.9895924 C230.52779,12.4513949 232.65279,11.5 235,11.5 L235,11.5 Z" id="Body" stroke="#000000" stroke-width="3" fill="#F7E400"></path>
                    <ellipse id="Left-Foot" fill="#000000" transform="translate(54.005375, 358.997435) rotate(25.000000) translate(-54.005375, -358.997435) " cx="54.0053746" cy="358.997435" rx="12.6191219" ry="25.007358"></ellipse>
                    <ellipse id="Right-Foot" fill="#000000" transform="translate(228.005375, 358.997435) scale(-1, 1) rotate(25.000000) translate(-228.005375, -358.997435) " cx="228.005375" cy="358.997435" rx="12.6191219" ry="25.007358"></ellipse>
                    <circle id="Left-Hand" fill="#000000" cx="47" cy="20" r="20"></circle>
                    <circle id="Right-Hand" fill="#000000" transform="translate(235.000000, 20.000000) scale(-1, 1) translate(-235.000000, -20.000000) " cx="235" cy="20" r="20"></circle>
                    <circle id="Head" fill="#000000" cx="141" cy="79" r="36"></circle>
                </g>
                <g id="Rig" transform="translate(70.000000, 109.000000)" fill="#000000">
                    <polygon id="Left-Leg-Strap" points="8.99804688 141.425781 52.8134766 171.421875 43.7158203 188.182617 0.639648438 159.78418"></polygon>
                    <polygon id="Left-Leg-Harness" points="30.8144531 132.661133 11.3427734 132.661133 12.638052 122.413937 28.1416016 115.120117"></polygon>
                    <polygon id="Right-Leg-Strap" transform="translate(115.086914, 164.378418) scale(-1, 1) translate(-115.086914, -164.378418) " points="97.3583984 141 141.173828 170.996094 132.076172 187.756836 89 159.358398"></polygon>
                    <polygon id="Right-Leg-Harness" transform="translate(120.735840, 123.770508) scale(-1, 1) translate(-120.735840, -123.770508) " points="130.47168 132.541016 111 132.541016 112.295279 122.29382 127.798828 115"></polygon>
                    <path d="M110,4 L100,0 L94,9 C94,9 82.5,14 71,14 C59.5,14 48,9 48,9 L42,0 L32,4 L34,17 C34,17 26,74 26,124 C26,131 32,136 36,136 C40,136 42,136 44,141 C46,146 96,146 98,141 C100,136 102,136 106,136 C110,136 116,131 116,124 C116,74 108,17 108,17 L110,4 Z"></path>
                </g>
            </g>
            <g id="Front-Piece" transform="translate(12.000000, 0.000000)">
                <g id="Outside-Center" transform="translate(312.000000, 237.000000) rotate(-360.000000) translate(-312.000000, -237.000000) translate(171.000000, 38.000000)">
                    <g id="Skydiver">
                        <path d="M235,11.5 C236.756509,11.5 238.388771,12.0324107 239.743538,12.9454828 C241.158881,13.899381 242.272108,15.2675858 242.908235,16.8766584 L242.908235,16.8766584 L278.25554,84.6857921 C279.682737,87.1270995 280.5,89.9681507 280.5,93 C280.5,96.096103 279.647695,98.9932279 278.163982,101.468882 C276.619543,104.045862 274.391991,106.166573 271.731513,107.580534 L271.731513,107.580534 L198.327476,153.460659 C196.805471,154.333141 195.177492,155.045128 193.463572,155.558211 C193.126454,155.659131 192.787885,155.751795 192.448254,155.837206 C192.427637,156.237378 192.410124,156.601139 192.395302,156.927055 C191.946416,166.797307 190.803964,211.458531 204.062108,252.269762 L204.062108,252.269762 L256.473052,364.647235 C257.774154,367.496079 258.5,370.66329 258.5,374 C258.5,380.213203 255.981602,385.838203 251.909903,389.909903 C247.838203,393.981602 242.213203,396.5 236,396.5 C231.586892,396.5 227.470336,395.229899 223.996606,393.034402 C220.395983,390.758705 217.485461,387.489866 215.650471,383.612522 L215.650471,383.612522 L156.316185,274.70816 C155.641012,273.593434 155.045692,272.424946 154.538193,271.210615 C154.177661,270.535286 153.886935,269.948725 153.581737,269.334054 C152.340523,266.834238 150.855677,263.945092 148.388678,261.969178 C146.554013,260.499723 144.194286,259.5 141,259.5 C138.191277,259.5 135.762224,260.652887 133.757428,262.297003 C130.898469,264.641612 128.937461,267.984047 127.975232,269.910791 C127.315994,271.694788 126.56844,273.247625 125.683815,274.70816 L125.683815,274.70816 L66.3495294,383.612522 C64.5145392,387.489866 61.6040175,390.758705 58.0033943,393.034402 C54.5296642,395.229899 50.4131078,396.5 46,396.5 C39.7867966,396.5 34.1617966,393.981602 30.0900974,389.909903 C26.0183983,385.838203 23.5,380.213203 23.5,374 C23.5,370.661647 24.2265628,367.492955 25.5267035,364.6534 L25.5267035,364.6534 L77.7516386,252.664235 C88.578922,219.369466 89.4404209,167.643485 89.4975777,156.966024 C89.4994111,156.623531 89.5008691,156.238797 89.50146,155.816017 C89.1433135,155.727326 88.786525,155.62939 88.4314432,155.522104 C86.7572966,155.016273 85.1666395,154.316375 83.683847,153.451766 L83.683847,153.451766 L10.268386,107.58048 C7.6079524,106.166519 5.38043782,104.04583 3.83601824,101.468882 C2.35230544,98.9932279 1.5,96.096103 1.5,93 C1.5,89.9681507 2.31726343,87.1270995 3.74446048,84.6857921 L3.74446048,84.6857921 L39.0917651,16.8766584 C39.727892,15.2675858 40.8411191,13.899381 42.2564619,12.9454828 C43.6112292,12.0324107 45.2434906,11.5 47,11.5 C49.3472102,11.5 51.4722102,12.4513949 53.0104076,13.9895924 C54.5486051,15.5277898 55.5,17.6527898 55.5,20 C55.5,20.9612036 55.340845,21.8852304 55.0467839,22.7469132 L55.0467839,22.7469132 L37.6567855,83.8025689 L101.384221,112.378309 C107.37723,111.885153 110.857469,110.171667 112.898157,108.225276 C114.351188,106.839387 115.117167,105.306272 115.496993,103.878368 C115.828053,102.633793 115.859653,101.468105 115.789451,100.546987 L115.789451,100.546987 L166.211825,100.50161 C166.134943,101.428616 166.158227,102.605634 166.483122,103.863366 C166.855506,105.304941 167.616367,106.85315 169.071075,108.248448 C171.109744,110.203857 174.595898,111.91763 180.617681,112.377315 L180.617681,112.377315 L244.342195,83.8025721 L226.95322,22.7469237 C226.659156,21.885238 226.5,20.9612075 226.5,20 C226.5,17.6527898 227.451395,15.5277898 228.989592,13.9895924 C230.52779,12.4513949 232.65279,11.5 235,11.5 L235,11.5 Z" id="Body" stroke="#000000" stroke-width="3" fill="#6DD400"></path>
                        <ellipse id="Left-Foot" fill="#000000" transform="translate(54.005375, 358.997435) rotate(25.000000) translate(-54.005375, -358.997435) " cx="54.0053746" cy="358.997435" rx="12.6191219" ry="25.007358"></ellipse>
                        <ellipse id="Right-Foot" fill="#000000" transform="translate(228.005375, 358.997435) scale(-1, 1) rotate(25.000000) translate(-228.005375, -358.997435) " cx="228.005375" cy="358.997435" rx="12.6191219" ry="25.007358"></ellipse>
                        <circle id="Left-Hand" fill="#000000" cx="47" cy="20" r="20"></circle>
                        <circle id="Right-Hand" fill="#000000" transform="translate(235.000000, 20.000000) scale(-1, 1) translate(-235.000000, -20.000000) " cx="235" cy="20" r="20"></circle>
                        <circle id="Head" fill="#000000" cx="141" cy="79" r="36"></circle>
                    </g>
                    <g id="Rig" transform="translate(70.000000, 109.000000)" fill="#000000">
                        <polygon id="Left-Leg-Strap" points="8.99804688 141.425781 52.8134766 171.421875 43.7158203 188.182617 0.639648438 159.78418"></polygon>
                        <polygon id="Left-Leg-Harness" points="30.8144531 132.661133 11.3427734 132.661133 12.638052 122.413937 28.1416016 115.120117"></polygon>
                        <polygon id="Right-Leg-Strap" transform="translate(115.086914, 164.378418) scale(-1, 1) translate(-115.086914, -164.378418) " points="97.3583984 141 141.173828 170.996094 132.076172 187.756836 89 159.358398"></polygon>
                        <polygon id="Right-Leg-Harness" transform="translate(120.735840, 123.770508) scale(-1, 1) translate(-120.735840, -123.770508) " points="130.47168 132.541016 111 132.541016 112.295279 122.29382 127.798828 115"></polygon>
                        <path d="M110,4 L100,0 L94,9 C94,9 82.5,14 71,14 C59.5,14 48,9 48,9 L42,0 L32,4 L34,17 C34,17 26,74 26,124 C26,131 32,136 36,136 C40,136 42,136 44,141 C46,146 96,146 98,141 C100,136 102,136 106,136 C110,136 116,131 116,124 C116,74 108,17 108,17 L110,4 Z"></path>
                    </g>
                </g>
                <g id="Point" transform="translate(129.000000, 216.000000) rotate(-180.000000) translate(-129.000000, -216.000000) ">
                    <g id="Skydiver" transform="translate(129.000000, 216.000000) scale(-1, 1) translate(-129.000000, -216.000000) ">
                        <path d="M63,12.5 C65.3472102,12.5 67.4722102,13.4513949 69.0104076,14.9895924 C70.5486051,16.5277898 71.5,18.6527898 71.5,21 C71.5,21.9612033 71.340845,22.8852301 71.0467841,23.7469126 L71.0467841,23.7469126 L51.879091,91.0437837 L89.6405528,143.307442 C93.5634731,140.533912 93.9702317,136.768315 93.7839114,134.5 L93.7839114,134.5 L144.212882,134.5 C144.142058,135.35311 144.155872,136.418627 144.412043,137.563623 C144.720301,138.941427 145.373079,140.433166 146.640163,141.808441 C148.442484,143.764655 151.55141,145.54468 156.981152,146.214845 L156.981152,146.214845 L220.342192,117.802563 L202.95322,56.7469237 C202.659156,55.885238 202.5,54.9612075 202.5,54 C202.5,51.6527898 203.451395,49.5277898 204.989592,47.9895924 C206.52779,46.4513949 208.65279,45.5 211,45.5 C212.756509,45.5 214.388771,46.0324107 215.743538,46.9454828 C217.158881,47.899381 218.272108,49.2675858 218.908235,50.8766584 L218.908235,50.8766584 L254.25554,118.685792 C255.682737,121.1271 256.5,123.968151 256.5,127 C256.5,130.096103 255.647695,132.993228 254.163982,135.468882 C252.619543,138.045862 250.391991,140.166573 247.731513,141.580534 L247.731513,141.580534 L174.330258,187.458921 C173.380794,187.997697 172.394332,188.481289 171.370694,188.89183 C171.076827,189.009688 170.781014,189.121078 170.483596,189.227129 C170.462575,189.597919 170.445191,189.925677 170.430949,190.20863 C170.017951,198.41375 168.450566,244.370702 182.062108,286.269762 L182.062108,286.269762 L234.473052,398.647235 C235.774154,401.496079 236.5,404.66329 236.5,408 C236.5,414.213203 233.981602,419.838203 229.909903,423.909903 C225.838203,427.981602 220.213203,430.5 214,430.5 C209.586892,430.5 205.470336,429.229899 201.996606,427.034402 C198.395983,424.758705 195.485461,421.489866 193.650471,417.612522 L193.650471,417.612522 L134.316185,308.70816 C133.641012,307.593434 133.045692,306.424946 132.538193,305.210615 C132.177661,304.535286 131.886935,303.948725 131.581737,303.334054 C130.340523,300.834238 128.855677,297.945092 126.388678,295.969178 C124.554013,294.499723 122.194286,293.5 119,293.5 C116.191277,293.5 113.762224,294.652887 111.757428,296.297003 C108.898469,298.641612 106.937461,301.984047 105.975232,303.910791 C105.315994,305.694788 104.56844,307.247625 103.683815,308.70816 L103.683815,308.70816 L44.3495294,417.612522 C42.5145392,421.489866 39.6040175,424.758705 36.0033943,427.034402 C32.5296642,429.229899 28.4131078,430.5 24,430.5 C17.7867966,430.5 12.1617966,427.981602 8.09009742,423.909903 C4.01839828,419.838203 1.5,414.213203 1.5,408 C1.5,404.661647 2.22656284,401.492955 3.5267015,398.653405 L3.5267015,398.653405 L55.7506974,286.667167 C67.02513,251.997392 67.4932086,197.333746 67.5012828,189.85313 L67.5012828,189.85313 L67.5009995,189.209483 C67.4611358,188.767371 67.3516081,188.193855 67.1896042,187.372382 C67.1438576,187.140414 67.0938457,186.88684 67.0402362,186.608506 C66.9974965,186.386607 66.9584791,186.180168 66.9215117,185.98741 C66.7489319,185.877322 66.5777722,185.764842 66.4080882,185.649993 C62.2771784,182.854025 59.1245324,178.724358 57.5704322,173.878547 L57.5704322,173.878547 L19.1751743,101.641618 C18.1578594,99.2914481 17.5,96.7227174 17.5,94 C17.5,90.9681507 18.3172634,88.1270995 19.7444605,85.6857921 L19.7444605,85.6857921 L55.0917651,17.8766584 C55.727892,16.2675858 56.8411191,14.899381 58.2564619,13.9454828 C59.6112292,13.0324107 61.2434906,12.5 63,12.5 L63,12.5 Z" id="Body" stroke="#000000" stroke-width="3" fill="#E02020"></path>
                        <circle id="Right-Hand" fill="#000000" transform="translate(210.000000, 51.000000) scale(-1, 1) translate(-210.000000, -51.000000) " cx="210" cy="51" r="20"></circle>
                        <ellipse id="Left-Foot" fill="#000000" transform="translate(32.005375, 392.997435) rotate(25.000000) translate(-32.005375, -392.997435) " cx="32.0053746" cy="392.997435" rx="12.6191219" ry="25.007358"></ellipse>
                        <ellipse id="Right-Foot" fill="#000000" transform="translate(206.005375, 392.997435) scale(-1, 1) rotate(25.000000) translate(-206.005375, -392.997435) " cx="206.005375" cy="392.997435" rx="12.6191219" ry="25.007358"></ellipse>
                        <circle id="Left-Hand" fill="#000000" cx="63" cy="20" r="20"></circle>
                        <circle id="Head" fill="#000000" cx="119" cy="113" r="36"></circle>
                    </g>
                    <g id="Rig" transform="translate(68.000000, 143.000000)" fill="#000000">
                        <polygon id="Left-Leg-Strap" points="8.99804688 141.425781 52.8134766 171.421875 43.7158203 188.182617 0.639648438 159.78418"></polygon>
                        <polygon id="Left-Leg-Harness" points="30.8144531 132.661133 11.3427734 132.661133 12.638052 122.413937 28.1416016 115.120117"></polygon>
                        <polygon id="Right-Leg-Strap" transform="translate(115.086914, 164.378418) scale(-1, 1) translate(-115.086914, -164.378418) " points="97.3583984 141 141.173828 170.996094 132.076172 187.756836 89 159.358398"></polygon>
                        <polygon id="Right-Leg-Harness" transform="translate(120.735840, 123.770508) scale(-1, 1) translate(-120.735840, -123.770508) " points="130.47168 132.541016 111 132.541016 112.295279 122.29382 127.798828 115"></polygon>
                        <path d="M110,4 L100,0 L94,9 C94,9 82.5,14 71,14 C59.5,14 48,9 48,9 L42,0 L32,4 L34,17 C34,17 26,74 26,124 C26,131 32,136 36,136 C40,136 42,136 44,141 C46,146 96,146 98,141 C100,136 102,136 106,136 C110,136 116,131 116,124 C116,74 108,17 108,17 L110,4 Z"></path>
                    </g>
                </g>
            </g>
            <g id="Inside-Center" transform="translate(195.000000, 402.000000)">
                <g id="Skydiver" transform="translate(129.000000, 216.000000) scale(-1, 1) translate(-129.000000, -216.000000) ">
                    <path d="M63,12.5 C65.3472102,12.5 67.4722102,13.4513949 69.0104076,14.9895924 C70.5486051,16.5277898 71.5,18.6527898 71.5,21 C71.5,21.9612033 71.340845,22.8852301 71.0467841,23.7469126 L71.0467841,23.7469126 L51.879091,91.0437837 L89.6405528,143.307442 C93.5634731,140.533912 93.9702317,136.768315 93.7839114,134.5 L93.7839114,134.5 L144.212882,134.5 C144.142058,135.35311 144.155872,136.418627 144.412043,137.563623 C144.720301,138.941427 145.373079,140.433166 146.640163,141.808441 C148.442484,143.764655 151.55141,145.54468 156.981152,146.214845 L156.981152,146.214845 L220.342192,117.802563 L202.95322,56.7469237 C202.659156,55.885238 202.5,54.9612075 202.5,54 C202.5,51.6527898 203.451395,49.5277898 204.989592,47.9895924 C206.52779,46.4513949 208.65279,45.5 211,45.5 C212.756509,45.5 214.388771,46.0324107 215.743538,46.9454828 C217.158881,47.899381 218.272108,49.2675858 218.908235,50.8766584 L218.908235,50.8766584 L254.25554,118.685792 C255.682737,121.1271 256.5,123.968151 256.5,127 C256.5,130.096103 255.647695,132.993228 254.163982,135.468882 C252.619543,138.045862 250.391991,140.166573 247.731513,141.580534 L247.731513,141.580534 L174.330258,187.458921 C173.380794,187.997697 172.394332,188.481289 171.370694,188.89183 C171.076827,189.009688 170.781014,189.121078 170.483596,189.227129 C170.462575,189.597919 170.445191,189.925677 170.430949,190.20863 C170.017951,198.41375 168.450566,244.370702 182.062108,286.269762 L182.062108,286.269762 L234.473052,398.647235 C235.774154,401.496079 236.5,404.66329 236.5,408 C236.5,414.213203 233.981602,419.838203 229.909903,423.909903 C225.838203,427.981602 220.213203,430.5 214,430.5 C209.586892,430.5 205.470336,429.229899 201.996606,427.034402 C198.395983,424.758705 195.485461,421.489866 193.650471,417.612522 L193.650471,417.612522 L134.316185,308.70816 C133.641012,307.593434 133.045692,306.424946 132.538193,305.210615 C132.177661,304.535286 131.886935,303.948725 131.581737,303.334054 C130.340523,300.834238 128.855677,297.945092 126.388678,295.969178 C124.554013,294.499723 122.194286,293.5 119,293.5 C116.191277,293.5 113.762224,294.652887 111.757428,296.297003 C108.898469,298.641612 106.937461,301.984047 105.975232,303.910791 C105.315994,305.694788 104.56844,307.247625 103.683815,308.70816 L103.683815,308.70816 L44.3495294,417.612522 C42.5145392,421.489866 39.6040175,424.758705 36.0033943,427.034402 C32.5296642,429.229899 28.4131078,430.5 24,430.5 C17.7867966,430.5 12.1617966,427.981602 8.09009742,423.909903 C4.01839828,419.838203 1.5,414.213203 1.5,408 C1.5,404.661647 2.22656284,401.492955 3.5267015,398.653405 L3.5267015,398.653405 L55.7506974,286.667167 C67.02513,251.997392 67.4932086,197.333746 67.5012828,189.85313 L67.5012828,189.85313 L67.5009995,189.209483 C67.4611358,188.767371 67.3516081,188.193855 67.1896042,187.372382 C67.1438576,187.140414 67.0938457,186.88684 67.0402362,186.608506 C66.9974965,186.386607 66.9584791,186.180168 66.9215117,185.98741 C66.7489319,185.877322 66.5777722,185.764842 66.4080882,185.649993 C62.2771784,182.854025 59.1245324,178.724358 57.5704322,173.878547 L57.5704322,173.878547 L19.1751743,101.641618 C18.1578594,99.2914481 17.5,96.7227174 17.5,94 C17.5,90.9681507 18.3172634,88.1270995 19.7444605,85.6857921 L19.7444605,85.6857921 L55.0917651,17.8766584 C55.727892,16.2675858 56.8411191,14.899381 58.2564619,13.9454828 C59.6112292,13.0324107 61.2434906,12.5 63,12.5 L63,12.5 Z" id="Body" stroke="#000000" stroke-width="3" fill="#0065FF"></path>
                    <circle id="Right-Hand" fill="#000000" transform="translate(210.000000, 51.000000) scale(-1, 1) translate(-210.000000, -51.000000) " cx="210" cy="51" r="20"></circle>
                    <ellipse id="Left-Foot" fill="#000000" transform="translate(32.005375, 392.997435) rotate(25.000000) translate(-32.005375, -392.997435) " cx="32.0053746" cy="392.997435" rx="12.6191219" ry="25.007358"></ellipse>
                    <ellipse id="Right-Foot" fill="#000000" transform="translate(206.005375, 392.997435) scale(-1, 1) rotate(25.000000) translate(-206.005375, -392.997435) " cx="206.005375" cy="392.997435" rx="12.6191219" ry="25.007358"></ellipse>
                    <circle id="Left-Hand" fill="#000000" cx="63" cy="20" r="20"></circle>
                    <circle id="Head" fill="#000000" cx="119" cy="113" r="36"></circle>
                </g>
                <g id="Rig" transform="translate(68.000000, 143.000000)" fill="#000000">
                    <polygon id="Left-Leg-Strap" points="8.99804688 141.425781 52.8134766 171.421875 43.7158203 188.182617 0.639648438 159.78418"></polygon>
                    <polygon id="Left-Leg-Harness" points="30.8144531 132.661133 11.3427734 132.661133 12.638052 122.413937 28.1416016 115.120117"></polygon>
                    <polygon id="Right-Leg-Strap" transform="translate(115.086914, 164.378418) scale(-1, 1) translate(-115.086914, -164.378418) " points="97.3583984 141 141.173828 170.996094 132.076172 187.756836 89 159.358398"></polygon>
                    <polygon id="Right-Leg-Harness" transform="translate(120.735840, 123.770508) scale(-1, 1) translate(-120.735840, -123.770508) " points="130.47168 132.541016 111 132.541016 112.295279 122.29382 127.798828 115"></polygon>
                    <path d="M110,4 L100,0 L94,9 C94,9 82.5,14 71,14 C59.5,14 48,9 48,9 L42,0 L32,4 L34,17 C34,17 26,74 26,124 C26,131 32,136 36,136 C40,136 42,136 44,141 C46,146 96,146 98,141 C100,136 102,136 106,136 C110,136 116,131 116,124 C116,74 108,17 108,17 L110,4 Z"></path>
                </g>
            </g>
        </g>
        <g id="Inter" transform="translate(194.000000, 1064.000000)">
            <g id="Back-Piece" transform="translate(495.000000, 654.000000) rotate(-90.000000) translate(-495.000000, -654.000000) translate(277.000000, 415.500000)">
                <g id="Tail" transform="translate(199.000000, 336.000000) rotate(-270.000000) translate(-199.000000, -336.000000) translate(58.000000, 137.000000)">
                    <g id="Skydiver">
                        <path d="M235,11.5 C236.756509,11.5 238.388771,12.0324107 239.743538,12.9454828 C241.158881,13.899381 242.272108,15.2675858 242.908235,16.8766584 L242.908235,16.8766584 L278.25554,84.6857921 C279.682737,87.1270995 280.5,89.9681507 280.5,93 C280.5,96.096103 279.647695,98.9932279 278.163982,101.468882 C276.619543,104.045862 274.391991,106.166573 271.731513,107.580534 L271.731513,107.580534 L198.327476,153.460659 C196.805471,154.333141 195.177492,155.045128 193.463572,155.558211 C193.126454,155.659131 192.787885,155.751795 192.448254,155.837206 C192.427637,156.237378 192.410124,156.601139 192.395302,156.927055 C191.946416,166.797307 190.803964,211.458531 204.062108,252.269762 L204.062108,252.269762 L256.473052,364.647235 C257.774154,367.496079 258.5,370.66329 258.5,374 C258.5,380.213203 255.981602,385.838203 251.909903,389.909903 C247.838203,393.981602 242.213203,396.5 236,396.5 C231.586892,396.5 227.470336,395.229899 223.996606,393.034402 C220.395983,390.758705 217.485461,387.489866 215.650471,383.612522 L215.650471,383.612522 L156.316185,274.70816 C155.641012,273.593434 155.045692,272.424946 154.538193,271.210615 C154.177661,270.535286 153.886935,269.948725 153.581737,269.334054 C152.340523,266.834238 150.855677,263.945092 148.388678,261.969178 C146.554013,260.499723 144.194286,259.5 141,259.5 C138.191277,259.5 135.762224,260.652887 133.757428,262.297003 C130.898469,264.641612 128.937461,267.984047 127.975232,269.910791 C127.315994,271.694788 126.56844,273.247625 125.683815,274.70816 L125.683815,274.70816 L66.3495294,383.612522 C64.5145392,387.489866 61.6040175,390.758705 58.0033943,393.034402 C54.5296642,395.229899 50.4131078,396.5 46,396.5 C39.7867966,396.5 34.1617966,393.981602 30.0900974,389.909903 C26.0183983,385.838203 23.5,380.213203 23.5,374 C23.5,370.661647 24.2265628,367.492955 25.5267035,364.6534 L25.5267035,364.6534 L77.7516386,252.664235 C88.578922,219.369466 89.4404209,167.643485 89.4975777,156.966024 C89.4994111,156.623531 89.5008691,156.238797 89.50146,155.816017 C89.1433135,155.727326 88.786525,155.62939 88.4314432,155.522104 C86.7572966,155.016273 85.1666395,154.316375 83.683847,153.451766 L83.683847,153.451766 L10.268386,107.58048 C7.6079524,106.166519 5.38043782,104.04583 3.83601824,101.468882 C2.35230544,98.9932279 1.5,96.096103 1.5,93 C1.5,89.9681507 2.31726343,87.1270995 3.74446048,84.6857921 L3.74446048,84.6857921 L39.0917651,16.8766584 C39.727892,15.2675858 40.8411191,13.899381 42.2564619,12.9454828 C43.6112292,12.0324107 45.2434906,11.5 47,11.5 C49.3472102,11.5 51.4722102,12.4513949 53.0104076,13.9895924 C54.5486051,15.5277898 55.5,17.6527898 55.5,20 C55.5,20.9612036 55.340845,21.8852304 55.0467839,22.7469132 L55.0467839,22.7469132 L37.6567855,83.8025689 L101.384221,112.378309 C107.37723,111.885153 110.857469,110.171667 112.898157,108.225276 C114.351188,106.839387 115.117167,105.306272 115.496993,103.878368 C115.828053,102.633793 115.859653,101.468105 115.789451,100.546987 L115.789451,100.546987 L166.211825,100.50161 C166.134943,101.428616 166.158227,102.605634 166.483122,103.863366 C166.855506,105.304941 167.616367,106.85315 169.071075,108.248448 C171.109744,110.203857 174.595898,111.91763 180.617681,112.377315 L180.617681,112.377315 L244.342195,83.8025721 L226.95322,22.7469237 C226.659156,21.885238 226.5,20.9612075 226.5,20 C226.5,17.6527898 227.451395,15.5277898 228.989592,13.9895924 C230.52779,12.4513949 232.65279,11.5 235,11.5 L235,11.5 Z" id="Body" stroke="#000000" stroke-width="3" fill="#F7E400"></path>
                        <ellipse id="Left-Foot" fill="#000000" transform="translate(54.005375, 358.997435) rotate(25.000000) translate(-54.005375, -358.997435) " cx="54.0053746" cy="358.997435" rx="12.6191219" ry="25.007358"></ellipse>
                        <ellipse id="Right-Foot" fill="#000000" transform="translate(228.005375, 358.997435) scale(-1, 1) rotate(25.000000) translate(-228.005375, -358.997435) " cx="228.005375" cy="358.997435" rx="12.6191219" ry="25.007358"></ellipse>
                        <circle id="Left-Hand" fill="#000000" cx="47" cy="20" r="20"></circle>
                        <circle id="Right-Hand" fill="#000000" transform="translate(235.000000, 20.000000) scale(-1, 1) translate(-235.000000, -20.000000) " cx="235" cy="20" r="20"></circle>
                        <circle id="Head" fill="#000000" cx="141" cy="79" r="36"></circle>
                    </g>
                    <g id="Rig" transform="translate(70.000000, 109.000000)" fill="#000000">
                        <polygon id="Left-Leg-Strap" points="8.99804688 141.425781 52.8134766 171.421875 43.7158203 188.182617 0.639648438 159.78418"></polygon>
                        <polygon id="Left-Leg-Harness" points="30.8144531 132.661133 11.3427734 132.661133 12.638052 122.413937 28.1416016 115.120117"></polygon>
                        <polygon id="Right-Leg-Strap" transform="translate(115.086914, 164.378418) scale(-1, 1) translate(-115.086914, -164.378418) " points="97.3583984 141 141.173828 170.996094 132.076172 187.756836 89 159.358398"></polygon>
                        <polygon id="Right-Leg-Harness" transform="translate(120.735840, 123.770508) scale(-1, 1) translate(-120.735840, -123.770508) " points="130.47168 132.541016 111 132.541016 112.295279 122.29382 127.798828 115"></polygon>
                        <path d="M110,4 L100,0 L94,9 C94,9 82.5,14 71,14 C59.5,14 48,9 48,9 L42,0 L32,4 L34,17 C34,17 26,74 26,124 C26,131 32,136 36,136 C40,136 42,136 44,141 C46,146 96,146 98,141 C100,136 102,136 106,136 C110,136 116,131 116,124 C116,74 108,17 108,17 L110,4 Z"></path>
                    </g>
                </g>
                <g id="Inside-Center" transform="translate(237.000000, 141.000000) rotate(-90.000000) translate(-237.000000, -141.000000) translate(96.000000, -58.000000)">
                    <g id="Skydiver">
                        <path d="M235,11.5 C236.756509,11.5 238.388771,12.0324107 239.743538,12.9454828 C241.158881,13.899381 242.272108,15.2675858 242.908235,16.8766584 L242.908235,16.8766584 L278.25554,84.6857921 C279.682737,87.1270995 280.5,89.9681507 280.5,93 C280.5,96.096103 279.647695,98.9932279 278.163982,101.468882 C276.619543,104.045862 274.391991,106.166573 271.731513,107.580534 L271.731513,107.580534 L198.327476,153.460659 C196.805471,154.333141 195.177492,155.045128 193.463572,155.558211 C193.126454,155.659131 192.787885,155.751795 192.448254,155.837206 C192.427637,156.237378 192.410124,156.601139 192.395302,156.927055 C191.946416,166.797307 190.803964,211.458531 204.062108,252.269762 L204.062108,252.269762 L256.473052,364.647235 C257.774154,367.496079 258.5,370.66329 258.5,374 C258.5,380.213203 255.981602,385.838203 251.909903,389.909903 C247.838203,393.981602 242.213203,396.5 236,396.5 C231.586892,396.5 227.470336,395.229899 223.996606,393.034402 C220.395983,390.758705 217.485461,387.489866 215.650471,383.612522 L215.650471,383.612522 L156.316185,274.70816 C155.641012,273.593434 155.045692,272.424946 154.538193,271.210615 C154.177661,270.535286 153.886935,269.948725 153.581737,269.334054 C152.340523,266.834238 150.855677,263.945092 148.388678,261.969178 C146.554013,260.499723 144.194286,259.5 141,259.5 C138.191277,259.5 135.762224,260.652887 133.757428,262.297003 C130.898469,264.641612 128.937461,267.984047 127.975232,269.910791 C127.315994,271.694788 126.56844,273.247625 125.683815,274.70816 L125.683815,274.70816 L66.3495294,383.612522 C64.5145392,387.489866 61.6040175,390.758705 58.0033943,393.034402 C54.5296642,395.229899 50.4131078,396.5 46,396.5 C39.7867966,396.5 34.1617966,393.981602 30.0900974,389.909903 C26.0183983,385.838203 23.5,380.213203 23.5,374 C23.5,370.661647 24.2265628,367.492955 25.5267035,364.6534 L25.5267035,364.6534 L77.7516386,252.664235 C88.578922,219.369466 89.4404209,167.643485 89.4975777,156.966024 C89.4994111,156.623531 89.5008691,156.238797 89.50146,155.816017 C89.1433135,155.727326 88.786525,155.62939 88.4314432,155.522104 C86.7572966,155.016273 85.1666395,154.316375 83.683847,153.451766 L83.683847,153.451766 L10.268386,107.58048 C7.6079524,106.166519 5.38043782,104.04583 3.83601824,101.468882 C2.35230544,98.9932279 1.5,96.096103 1.5,93 C1.5,89.9681507 2.31726343,87.1270995 3.74446048,84.6857921 L3.74446048,84.6857921 L39.0917651,16.8766584 C39.727892,15.2675858 40.8411191,13.899381 42.2564619,12.9454828 C43.6112292,12.0324107 45.2434906,11.5 47,11.5 C49.3472102,11.5 51.4722102,12.4513949 53.0104076,13.9895924 C54.5486051,15.5277898 55.5,17.6527898 55.5,20 C55.5,20.9612036 55.340845,21.8852304 55.0467839,22.7469132 L55.0467839,22.7469132 L37.6567855,83.8025689 L101.384221,112.378309 C107.37723,111.885153 110.857469,110.171667 112.898157,108.225276 C114.351188,106.839387 115.117167,105.306272 115.496993,103.878368 C115.828053,102.633793 115.859653,101.468105 115.789451,100.546987 L115.789451,100.546987 L166.211825,100.50161 C166.134943,101.428616 166.158227,102.605634 166.483122,103.863366 C166.855506,105.304941 167.616367,106.85315 169.071075,108.248448 C171.109744,110.203857 174.595898,111.91763 180.617681,112.377315 L180.617681,112.377315 L244.342195,83.8025721 L226.95322,22.7469237 C226.659156,21.885238 226.5,20.9612075 226.5,20 C226.5,17.6527898 227.451395,15.5277898 228.989592,13.9895924 C230.52779,12.4513949 232.65279,11.5 235,11.5 L235,11.5 Z" id="Body" stroke="#000000" stroke-width="3" fill="#0065FF"></path>
                        <ellipse id="Left-Foot" fill="#000000" transform="translate(54.005375, 358.997435) rotate(25.000000) translate(-54.005375, -358.997435) " cx="54.0053746" cy="358.997435" rx="12.6191219" ry="25.007358"></ellipse>
                        <ellipse id="Right-Foot" fill="#000000" transform="translate(228.005375, 358.997435) scale(-1, 1) rotate(25.000000) translate(-228.005375, -358.997435) " cx="228.005375" cy="358.997435" rx="12.6191219" ry="25.007358"></ellipse>
                        <circle id="Left-Hand" fill="#000000" cx="47" cy="20" r="20"></circle>
                        <circle id="Right-Hand" fill="#000000" transform="translate(235.000000, 20.000000) scale(-1, 1) translate(-235.000000, -20.000000) " cx="235" cy="20" r="20"></circle>
                        <circle id="Head" fill="#000000" cx="141" cy="79" r="36"></circle>
                    </g>
                    <g id="Rig" transform="translate(70.000000, 109.000000)" fill="#000000">
                        <polygon id="Left-Leg-Strap" points="8.99804688 141.425781 52.8134766 171.421875 43.7158203 188.182617 0.639648438 159.78418"></polygon>
                        <polygon id="Left-Leg-Harness" points="30.8144531 132.661133 11.3427734 132.661133 12.638052 122.413937 28.1416016 115.120117"></polygon>
                        <polygon id="Right-Leg-Strap" transform="translate(115.086914, 164.378418) scale(-1, 1) translate(-115.086914, -164.378418) " points="97.3583984 141 141.173828 170.996094 132.076172 187.756836 89 159.358398"></polygon>
                        <polygon id="Right-Leg-Harness" transform="translate(120.735840, 123.770508) scale(-1, 1) translate(-120.735840, -123.770508) " points="130.47168 132.541016 111 132.541016 112.295279 122.29382 127.798828 115"></polygon>
                        <path d="M110,4 L100,0 L94,9 C94,9 82.5,14 71,14 C59.5,14 48,9 48,9 L42,0 L32,4 L34,17 C34,17 26,74 26,124 C26,131 32,136 36,136 C40,136 42,136 44,141 C46,146 96,146 98,141 C100,136 102,136 106,136 C110,136 116,131 116,124 C116,74 108,17 108,17 L110,4 Z"></path>
                    </g>
                </g>
            </g>
            <g id="Front-Piece" transform="translate(495.000000, 218.000000) rotate(-270.000000) translate(-495.000000, -218.000000) translate(277.000000, -20.500000)">
                <g id="Outside-Center" transform="translate(199.000000, 336.000000) rotate(-270.000000) translate(-199.000000, -336.000000) translate(58.000000, 137.000000)">
                    <g id="Skydiver">
                        <path d="M235,11.5 C236.756509,11.5 238.388771,12.0324107 239.743538,12.9454828 C241.158881,13.899381 242.272108,15.2675858 242.908235,16.8766584 L242.908235,16.8766584 L278.25554,84.6857921 C279.682737,87.1270995 280.5,89.9681507 280.5,93 C280.5,96.096103 279.647695,98.9932279 278.163982,101.468882 C276.619543,104.045862 274.391991,106.166573 271.731513,107.580534 L271.731513,107.580534 L198.327476,153.460659 C196.805471,154.333141 195.177492,155.045128 193.463572,155.558211 C193.126454,155.659131 192.787885,155.751795 192.448254,155.837206 C192.427637,156.237378 192.410124,156.601139 192.395302,156.927055 C191.946416,166.797307 190.803964,211.458531 204.062108,252.269762 L204.062108,252.269762 L256.473052,364.647235 C257.774154,367.496079 258.5,370.66329 258.5,374 C258.5,380.213203 255.981602,385.838203 251.909903,389.909903 C247.838203,393.981602 242.213203,396.5 236,396.5 C231.586892,396.5 227.470336,395.229899 223.996606,393.034402 C220.395983,390.758705 217.485461,387.489866 215.650471,383.612522 L215.650471,383.612522 L156.316185,274.70816 C155.641012,273.593434 155.045692,272.424946 154.538193,271.210615 C154.177661,270.535286 153.886935,269.948725 153.581737,269.334054 C152.340523,266.834238 150.855677,263.945092 148.388678,261.969178 C146.554013,260.499723 144.194286,259.5 141,259.5 C138.191277,259.5 135.762224,260.652887 133.757428,262.297003 C130.898469,264.641612 128.937461,267.984047 127.975232,269.910791 C127.315994,271.694788 126.56844,273.247625 125.683815,274.70816 L125.683815,274.70816 L66.3495294,383.612522 C64.5145392,387.489866 61.6040175,390.758705 58.0033943,393.034402 C54.5296642,395.229899 50.4131078,396.5 46,396.5 C39.7867966,396.5 34.1617966,393.981602 30.0900974,389.909903 C26.0183983,385.838203 23.5,380.213203 23.5,374 C23.5,370.661647 24.2265628,367.492955 25.5267035,364.6534 L25.5267035,364.6534 L77.7516386,252.664235 C88.578922,219.369466 89.4404209,167.643485 89.4975777,156.966024 C89.4994111,156.623531 89.5008691,156.238797 89.50146,155.816017 C89.1433135,155.727326 88.786525,155.62939 88.4314432,155.522104 C86.7572966,155.016273 85.1666395,154.316375 83.683847,153.451766 L83.683847,153.451766 L10.268386,107.58048 C7.6079524,106.166519 5.38043782,104.04583 3.83601824,101.468882 C2.35230544,98.9932279 1.5,96.096103 1.5,93 C1.5,89.9681507 2.31726343,87.1270995 3.74446048,84.6857921 L3.74446048,84.6857921 L39.0917651,16.8766584 C39.727892,15.2675858 40.8411191,13.899381 42.2564619,12.9454828 C43.6112292,12.0324107 45.2434906,11.5 47,11.5 C49.3472102,11.5 51.4722102,12.4513949 53.0104076,13.9895924 C54.5486051,15.5277898 55.5,17.6527898 55.5,20 C55.5,20.9612036 55.340845,21.8852304 55.0467839,22.7469132 L55.0467839,22.7469132 L37.6567855,83.8025689 L101.384221,112.378309 C107.37723,111.885153 110.857469,110.171667 112.898157,108.225276 C114.351188,106.839387 115.117167,105.306272 115.496993,103.878368 C115.828053,102.633793 115.859653,101.468105 115.789451,100.546987 L115.789451,100.546987 L166.211825,100.50161 C166.134943,101.428616 166.158227,102.605634 166.483122,103.863366 C166.855506,105.304941 167.616367,106.85315 169.071075,108.248448 C171.109744,110.203857 174.595898,111.91763 180.617681,112.377315 L180.617681,112.377315 L244.342195,83.8025721 L226.95322,22.7469237 C226.659156,21.885238 226.5,20.9612075 226.5,20 C226.5,17.6527898 227.451395,15.5277898 228.989592,13.9895924 C230.52779,12.4513949 232.65279,11.5 235,11.5 L235,11.5 Z" id="Body" stroke="#000000" stroke-width="3" fill="#6DD400"></path>
                        <ellipse id="Left-Foot" fill="#000000" transform="translate(54.005375, 358.997435) rotate(25.000000) translate(-54.005375, -358.997435) " cx="54.0053746" cy="358.997435" rx="12.6191219" ry="25.007358"></ellipse>
                        <ellipse id="Right-Foot" fill="#000000" transform="translate(228.005375, 358.997435) scale(-1, 1) rotate(25.000000) translate(-228.005375, -358.997435) " cx="228.005375" cy="358.997435" rx="12.6191219" ry="25.007358"></ellipse>
                        <circle id="Left-Hand" fill="#000000" cx="47" cy="20" r="20"></circle>
                        <circle id="Right-Hand" fill="#000000" transform="translate(235.000000, 20.000000) scale(-1, 1) translate(-235.000000, -20.000000) " cx="235" cy="20" r="20"></circle>
                        <circle id="Head" fill="#000000" cx="141" cy="79" r="36"></circle>
                    </g>
                    <g id="Rig" transform="translate(70.000000, 109.000000)" fill="#000000">
                        <polygon id="Left-Leg-Strap" points="8.99804688 141.425781 52.8134766 171.421875 43.7158203 188.182617 0.639648438 159.78418"></polygon>
                        <polygon id="Left-Leg-Harness" points="30.8144531 132.661133 11.3427734 132.661133 12.638052 122.413937 28.1416016 115.120117"></polygon>
                        <polygon id="Right-Leg-Strap" transform="translate(115.086914, 164.378418) scale(-1, 1) translate(-115.086914, -164.378418) " points="97.3583984 141 141.173828 170.996094 132.076172 187.756836 89 159.358398"></polygon>
                        <polygon id="Right-Leg-Harness" transform="translate(120.735840, 123.770508) scale(-1, 1) translate(-120.735840, -123.770508) " points="130.47168 132.541016 111 132.541016 112.295279 122.29382 127.798828 115"></polygon>
                        <path d="M110,4 L100,0 L94,9 C94,9 82.5,14 71,14 C59.5,14 48,9 48,9 L42,0 L32,4 L34,17 C34,17 26,74 26,124 C26,131 32,136 36,136 C40,136 42,136 44,141 C46,146 96,146 98,141 C100,136 102,136 106,136 C110,136 116,131 116,124 C116,74 108,17 108,17 L110,4 Z"></path>
                    </g>
                </g>
                <g id="Point" transform="translate(237.000000, 141.000000) rotate(-90.000000) translate(-237.000000, -141.000000) translate(96.000000, -58.000000)">
                    <g id="Skydiver">
                        <path d="M235,11.5 C236.756509,11.5 238.388771,12.0324107 239.743538,12.9454828 C241.158881,13.899381 242.272108,15.2675858 242.908235,16.8766584 L242.908235,16.8766584 L278.25554,84.6857921 C279.682737,87.1270995 280.5,89.9681507 280.5,93 C280.5,96.096103 279.647695,98.9932279 278.163982,101.468882 C276.619543,104.045862 274.391991,106.166573 271.731513,107.580534 L271.731513,107.580534 L198.327476,153.460659 C196.805471,154.333141 195.177492,155.045128 193.463572,155.558211 C193.126454,155.659131 192.787885,155.751795 192.448254,155.837206 C192.427637,156.237378 192.410124,156.601139 192.395302,156.927055 C191.946416,166.797307 190.803964,211.458531 204.062108,252.269762 L204.062108,252.269762 L256.473052,364.647235 C257.774154,367.496079 258.5,370.66329 258.5,374 C258.5,380.213203 255.981602,385.838203 251.909903,389.909903 C247.838203,393.981602 242.213203,396.5 236,396.5 C231.586892,396.5 227.470336,395.229899 223.996606,393.034402 C220.395983,390.758705 217.485461,387.489866 215.650471,383.612522 L215.650471,383.612522 L156.316185,274.70816 C155.641012,273.593434 155.045692,272.424946 154.538193,271.210615 C154.177661,270.535286 153.886935,269.948725 153.581737,269.334054 C152.340523,266.834238 150.855677,263.945092 148.388678,261.969178 C146.554013,260.499723 144.194286,259.5 141,259.5 C138.191277,259.5 135.762224,260.652887 133.757428,262.297003 C130.898469,264.641612 128.937461,267.984047 127.975232,269.910791 C127.315994,271.694788 126.56844,273.247625 125.683815,274.70816 L125.683815,274.70816 L66.3495294,383.612522 C64.5145392,387.489866 61.6040175,390.758705 58.0033943,393.034402 C54.5296642,395.229899 50.4131078,396.5 46,396.5 C39.7867966,396.5 34.1617966,393.981602 30.0900974,389.909903 C26.0183983,385.838203 23.5,380.213203 23.5,374 C23.5,370.661647 24.2265628,367.492955 25.5267035,364.6534 L25.5267035,364.6534 L77.7516386,252.664235 C88.578922,219.369466 89.4404209,167.643485 89.4975777,156.966024 C89.4994111,156.623531 89.5008691,156.238797 89.50146,155.816017 C89.1433135,155.727326 88.786525,155.62939 88.4314432,155.522104 C86.7572966,155.016273 85.1666395,154.316375 83.683847,153.451766 L83.683847,153.451766 L10.268386,107.58048 C7.6079524,106.166519 5.38043782,104.04583 3.83601824,101.468882 C2.35230544,98.9932279 1.5,96.096103 1.5,93 C1.5,89.9681507 2.31726343,87.1270995 3.74446048,84.6857921 L3.74446048,84.6857921 L39.0917651,16.8766584 C39.727892,15.2675858 40.8411191,13.899381 42.2564619,12.9454828 C43.6112292,12.0324107 45.2434906,11.5 47,11.5 C49.3472102,11.5 51.4722102,12.4513949 53.0104076,13.9895924 C54.5486051,15.5277898 55.5,17.6527898 55.5,20 C55.5,20.9612036 55.340845,21.8852304 55.0467839,22.7469132 L55.0467839,22.7469132 L37.6567855,83.8025689 L101.384221,112.378309 C107.37723,111.885153 110.857469,110.171667 112.898157,108.225276 C114.351188,106.839387 115.117167,105.306272 115.496993,103.878368 C115.828053,102.633793 115.859653,101.468105 115.789451,100.546987 L115.789451,100.546987 L166.211825,100.50161 C166.134943,101.428616 166.158227,102.605634 166.483122,103.863366 C166.855506,105.304941 167.616367,106.85315 169.071075,108.248448 C171.109744,110.203857 174.595898,111.91763 180.617681,112.377315 L180.617681,112.377315 L244.342195,83.8025721 L226.95322,22.7469237 C226.659156,21.885238 226.5,20.9612075 226.5,20 C226.5,17.6527898 227.451395,15.5277898 228.989592,13.9895924 C230.52779,12.4513949 232.65279,11.5 235,11.5 L235,11.5 Z" id="Body" stroke="#000000" stroke-width="3" fill="#E02020"></path>
                        <ellipse id="Left-Foot" fill="#000000" transform="translate(54.005375, 358.997435) rotate(25.000000) translate(-54.005375, -358.997435) " cx="54.0053746" cy="358.997435" rx="12.6191219" ry="25.007358"></ellipse>
                        <ellipse id="Right-Foot" fill="#000000" transform="translate(228.005375, 358.997435) scale(-1, 1) rotate(25.000000) translate(-228.005375, -358.997435) " cx="228.005375" cy="358.997435" rx="12.6191219" ry="25.007358"></ellipse>
                        <circle id="Left-Hand" fill="#000000" cx="47" cy="20" r="20"></circle>
                        <circle id="Right-Hand" fill="#000000" transform="translate(235.000000, 20.000000) scale(-1, 1) translate(-235.000000, -20.000000) " cx="235" cy="20" r="20"></circle>
                        <circle id="Head" fill="#000000" cx="141" cy="79" r="36"></circle>
                    </g>
                    <g id="Rig" transform="translate(70.000000, 109.000000)" fill="#000000">
                        <polygon id="Left-Leg-Strap" points="8.99804688 141.425781 52.8134766 171.421875 43.7158203 188.182617 0.639648438 159.78418"></polygon>
                        <polygon id="Left-Leg-Harness" points="30.8144531 132.661133 11.3427734 132.661133 12.638052 122.413937 28.1416016 115.120117"></polygon>
                        <polygon id="Right-Leg-Strap" transform="translate(115.086914, 164.378418) scale(-1, 1) translate(-115.086914, -164.378418) " points="97.3583984 141 141.173828 170.996094 132.076172 187.756836 89 159.358398"></polygon>
                        <polygon id="Right-Leg-Harness" transform="translate(120.735840, 123.770508) scale(-1, 1) translate(-120.735840, -123.770508) " points="130.47168 132.541016 111 132.541016 112.295279 122.29382 127.798828 115"></polygon>
                        <path d="M110,4 L100,0 L94,9 C94,9 82.5,14 71,14 C59.5,14 48,9 48,9 L42,0 L32,4 L34,17 C34,17 26,74 26,124 C26,131 32,136 36,136 C40,136 42,136 44,141 C46,146 96,146 98,141 C100,136 102,136 106,136 C110,136 116,131 116,124 C116,74 108,17 108,17 L110,4 Z"></path>
                    </g>
                </g>
            </g>
            <g id="270°" transform="translate(0.000000, 386.226562)" fill="#000000">
                <path d="M10.265625,27.9140625 L10.265625,27.5625 C10.265625,17.9296875 17.2265625,9.28125 29.390625,9.28125 C40.2890625,9.28125 47.953125,16.1015625 47.953125,26.6484375 C47.953125,35.859375 42.1171875,42.75 36.7734375,48.9375 L0.4921875,91.265625 L0.4921875,98.015625 L60.609375,98.015625 L60.609375,88.6640625 L15.1875,88.6640625 L15.1875,88.5234375 L42.75,56.1796875 C51.46875,45.84375 58.7109375,37.7578125 58.7109375,26.0859375 C58.7109375,11.25 47.390625,0 29.6015625,0 C10.3359375,0 0,13.2890625 0,27.5625 L0,27.9140625 L10.265625,27.9140625 Z M75.796875,2.109375 L75.796875,11.4609375 L125.4375,11.4609375 L125.4375,11.6015625 L84.8671875,98.015625 L95.90625,98.015625 L135.492188,11.8828125 L135.492188,2.109375 L75.796875,2.109375 Z M159.890625,46.40625 C159.890625,22.8515625 168.46875,9.28125 182.460938,9.28125 C196.453125,9.28125 205.03125,22.8515625 205.03125,46.40625 L205.03125,53.859375 C205.03125,77.34375 196.453125,90.7734375 182.460938,90.7734375 C168.46875,90.7734375 159.890625,77.34375 159.890625,53.859375 L159.890625,46.40625 Z M149.414062,53.9296875 C149.414062,82.40625 161.226562,100.054688 182.460938,100.054688 C203.695312,100.054688 215.367188,82.40625 215.367188,53.9296875 L215.367188,46.3359375 C215.367188,17.859375 203.695312,0 182.460938,0 C161.226562,0 149.414062,17.9296875 149.414062,46.3359375 L149.414062,53.9296875 Z M241.171875,30.8671875 C249.398438,30.8671875 256.148438,24.1171875 256.148438,15.890625 C256.148438,7.59375 249.398438,0.9140625 241.171875,0.9140625 C232.804688,0.9140625 226.125,7.59375 226.125,15.890625 C226.125,24.1171875 232.804688,30.8671875 241.171875,30.8671875 L241.171875,30.8671875 Z M241.171875,24.1171875 C236.742188,24.1171875 232.945312,20.25 232.945312,15.890625 C232.945312,11.25 236.742188,7.59375 241.171875,7.59375 C245.742188,7.59375 249.398438,11.25 249.398438,15.890625 C249.398438,20.25 245.742188,24.1171875 241.171875,24.1171875 L241.171875,24.1171875 Z"></path>
            </g>
            <path d="M819.273438,685.648438 C827.054726,676.554642 830.945312,665.984435 830.945312,653.9375 C830.945312,640.484308 826.128954,628.964892 816.496094,619.378906 C806.863233,609.792921 795.343817,605 781.9375,605 C768.531183,605 757.023486,609.816358 747.414062,619.449219 C737.804639,629.082079 733,640.578058 733,653.9375 C733,667.203191 737.54683,678.546828 746.640625,687.96875 L733.140625,694.015625 L766.679688,702.945312 L757.75,669.335938 L751.5625,683.046875 C743.781211,674.843709 739.890625,665.140681 739.890625,653.9375 C739.890625,642.406192 744.015584,632.515666 752.265625,624.265625 C760.515666,616.015584 770.406192,611.890625 781.9375,611.890625 C793.468808,611.890625 803.359334,616.015584 811.609375,624.265625 C819.859416,632.515666 823.984375,642.406192 823.984375,653.9375 C823.984375,664.296927 820.632846,673.414023 813.929688,681.289062 L819.273438,685.648438 Z" id="↻" fill="#000000"></path>
            <path d="M817.234375,251.96875 C826.375046,242.546828 830.945312,231.203191 830.945312,217.9375 C830.945312,204.578058 826.128954,193.082079 816.496094,183.449219 C806.863233,173.816358 795.343817,169 781.9375,169 C768.531183,169 757.023486,173.792921 747.414062,183.378906 C737.804639,192.964892 733,204.484308 733,217.9375 C733,229.984435 736.890586,240.554642 744.671875,249.648438 L750.015625,245.289062 C743.265591,237.414023 739.890625,228.296927 739.890625,217.9375 C739.890625,206.406192 744.015584,196.515666 752.265625,188.265625 C760.515666,180.015584 770.406192,175.890625 781.9375,175.890625 C793.468808,175.890625 803.359334,180.015584 811.609375,188.265625 C819.859416,196.515666 823.984375,206.406192 823.984375,217.9375 C823.984375,229.140681 820.093789,238.843709 812.3125,247.046875 L806.125,233.335938 L797.195312,266.945312 L830.734375,258.015625 L817.234375,251.96875 Z" id="↺" fill="#000000"></path>
        </g>
        <g id="Top" transform="translate(475.000000, 0.000000)">
            <g id="Back-Piece" transform="translate(0.000000, 388.000000)">
                <g id="Tail" transform="translate(199.000000, 336.000000) rotate(-270.000000) translate(-199.000000, -336.000000) translate(58.000000, 137.000000)">
                    <g id="Skydiver">
                        <path d="M235,11.5 C236.756509,11.5 238.388771,12.0324107 239.743538,12.9454828 C241.158881,13.899381 242.272108,15.2675858 242.908235,16.8766584 L242.908235,16.8766584 L278.25554,84.6857921 C279.682737,87.1270995 280.5,89.9681507 280.5,93 C280.5,96.096103 279.647695,98.9932279 278.163982,101.468882 C276.619543,104.045862 274.391991,106.166573 271.731513,107.580534 L271.731513,107.580534 L198.327476,153.460659 C196.805471,154.333141 195.177492,155.045128 193.463572,155.558211 C193.126454,155.659131 192.787885,155.751795 192.448254,155.837206 C192.427637,156.237378 192.410124,156.601139 192.395302,156.927055 C191.946416,166.797307 190.803964,211.458531 204.062108,252.269762 L204.062108,252.269762 L256.473052,364.647235 C257.774154,367.496079 258.5,370.66329 258.5,374 C258.5,380.213203 255.981602,385.838203 251.909903,389.909903 C247.838203,393.981602 242.213203,396.5 236,396.5 C231.586892,396.5 227.470336,395.229899 223.996606,393.034402 C220.395983,390.758705 217.485461,387.489866 215.650471,383.612522 L215.650471,383.612522 L156.316185,274.70816 C155.641012,273.593434 155.045692,272.424946 154.538193,271.210615 C154.177661,270.535286 153.886935,269.948725 153.581737,269.334054 C152.340523,266.834238 150.855677,263.945092 148.388678,261.969178 C146.554013,260.499723 144.194286,259.5 141,259.5 C138.191277,259.5 135.762224,260.652887 133.757428,262.297003 C130.898469,264.641612 128.937461,267.984047 127.975232,269.910791 C127.315994,271.694788 126.56844,273.247625 125.683815,274.70816 L125.683815,274.70816 L66.3495294,383.612522 C64.5145392,387.489866 61.6040175,390.758705 58.0033943,393.034402 C54.5296642,395.229899 50.4131078,396.5 46,396.5 C39.7867966,396.5 34.1617966,393.981602 30.0900974,389.909903 C26.0183983,385.838203 23.5,380.213203 23.5,374 C23.5,370.661647 24.2265628,367.492955 25.5267035,364.6534 L25.5267035,364.6534 L77.7516386,252.664235 C88.578922,219.369466 89.4404209,167.643485 89.4975777,156.966024 C89.4994111,156.623531 89.5008691,156.238797 89.50146,155.816017 C89.1433135,155.727326 88.786525,155.62939 88.4314432,155.522104 C86.7572966,155.016273 85.1666395,154.316375 83.683847,153.451766 L83.683847,153.451766 L10.268386,107.58048 C7.6079524,106.166519 5.38043782,104.04583 3.83601824,101.468882 C2.35230544,98.9932279 1.5,96.096103 1.5,93 C1.5,89.9681507 2.31726343,87.1270995 3.74446048,84.6857921 L3.74446048,84.6857921 L39.0917651,16.8766584 C39.727892,15.2675858 40.8411191,13.899381 42.2564619,12.9454828 C43.6112292,12.0324107 45.2434906,11.5 47,11.5 C49.3472102,11.5 51.4722102,12.4513949 53.0104076,13.9895924 C54.5486051,15.5277898 55.5,17.6527898 55.5,20 C55.5,20.9612036 55.340845,21.8852304 55.0467839,22.7469132 L55.0467839,22.7469132 L37.6567855,83.8025689 L101.384221,112.378309 C107.37723,111.885153 110.857469,110.171667 112.898157,108.225276 C114.351188,106.839387 115.117167,105.306272 115.496993,103.878368 C115.828053,102.633793 115.859653,101.468105 115.789451,100.546987 L115.789451,100.546987 L166.211825,100.50161 C166.134943,101.428616 166.158227,102.605634 166.483122,103.863366 C166.855506,105.304941 167.616367,106.85315 169.071075,108.248448 C171.109744,110.203857 174.595898,111.91763 180.617681,112.377315 L180.617681,112.377315 L244.342195,83.8025721 L226.95322,22.7469237 C226.659156,21.885238 226.5,20.9612075 226.5,20 C226.5,17.6527898 227.451395,15.5277898 228.989592,13.9895924 C230.52779,12.4513949 232.65279,11.5 235,11.5 L235,11.5 Z" id="Body" stroke="#000000" stroke-width="3" fill="#F7E400"></path>
                        <ellipse id="Left-Foot" fill="#000000" transform="translate(54.005375, 358.997435) rotate(25.000000) translate(-54.005375, -358.997435) " cx="54.0053746" cy="358.997435" rx="12.6191219" ry="25.007358"></ellipse>
                        <ellipse id="Right-Foot" fill="#000000" transform="translate(228.005375, 358.997435) scale(-1, 1) rotate(25.000000) translate(-228.005375, -358.997435) " cx="228.005375" cy="358.997435" rx="12.6191219" ry="25.007358"></ellipse>
                        <circle id="Left-Hand" fill="#000000" cx="47" cy="20" r="20"></circle>
                        <circle id="Right-Hand" fill="#000000" transform="translate(235.000000, 20.000000) scale(-1, 1) translate(-235.000000, -20.000000) " cx="235" cy="20" r="20"></circle>
                        <circle id="Head" fill="#000000" cx="141" cy="79" r="36"></circle>
                    </g>
                    <g id="Rig" transform="translate(70.000000, 109.000000)" fill="#000000">
                        <polygon id="Left-Leg-Strap" points="8.99804688 141.425781 52.8134766 171.421875 43.7158203 188.182617 0.639648438 159.78418"></polygon>
                        <polygon id="Left-Leg-Harness" points="30.8144531 132.661133 11.3427734 132.661133 12.638052 122.413937 28.1416016 115.120117"></polygon>
                        <polygon id="Right-Leg-Strap" transform="translate(115.086914, 164.378418) scale(-1, 1) translate(-115.086914, -164.378418) " points="97.3583984 141 141.173828 170.996094 132.076172 187.756836 89 159.358398"></polygon>
                        <polygon id="Right-Leg-Harness" transform="translate(120.735840, 123.770508) scale(-1, 1) translate(-120.735840, -123.770508) " points="130.47168 132.541016 111 132.541016 112.295279 122.29382 127.798828 115"></polygon>
                        <path d="M110,4 L100,0 L94,9 C94,9 82.5,14 71,14 C59.5,14 48,9 48,9 L42,0 L32,4 L34,17 C34,17 26,74 26,124 C26,131 32,136 36,136 C40,136 42,136 44,141 C46,146 96,146 98,141 C100,136 102,136 106,136 C110,136 116,131 116,124 C116,74 108,17 108,17 L110,4 Z"></path>
                    </g>
                </g>
                <g id="Inside-Center" transform="translate(237.000000, 141.000000) rotate(-90.000000) translate(-237.000000, -141.000000) translate(96.000000, -58.000000)">
                    <g id="Skydiver">
                        <path d="M235,11.5 C236.756509,11.5 238.388771,12.0324107 239.743538,12.9454828 C241.158881,13.899381 242.272108,15.2675858 242.908235,16.8766584 L242.908235,16.8766584 L278.25554,84.6857921 C279.682737,87.1270995 280.5,89.9681507 280.5,93 C280.5,96.096103 279.647695,98.9932279 278.163982,101.468882 C276.619543,104.045862 274.391991,106.166573 271.731513,107.580534 L271.731513,107.580534 L198.327476,153.460659 C196.805471,154.333141 195.177492,155.045128 193.463572,155.558211 C193.126454,155.659131 192.787885,155.751795 192.448254,155.837206 C192.427637,156.237378 192.410124,156.601139 192.395302,156.927055 C191.946416,166.797307 190.803964,211.458531 204.062108,252.269762 L204.062108,252.269762 L256.473052,364.647235 C257.774154,367.496079 258.5,370.66329 258.5,374 C258.5,380.213203 255.981602,385.838203 251.909903,389.909903 C247.838203,393.981602 242.213203,396.5 236,396.5 C231.586892,396.5 227.470336,395.229899 223.996606,393.034402 C220.395983,390.758705 217.485461,387.489866 215.650471,383.612522 L215.650471,383.612522 L156.316185,274.70816 C155.641012,273.593434 155.045692,272.424946 154.538193,271.210615 C154.177661,270.535286 153.886935,269.948725 153.581737,269.334054 C152.340523,266.834238 150.855677,263.945092 148.388678,261.969178 C146.554013,260.499723 144.194286,259.5 141,259.5 C138.191277,259.5 135.762224,260.652887 133.757428,262.297003 C130.898469,264.641612 128.937461,267.984047 127.975232,269.910791 C127.315994,271.694788 126.56844,273.247625 125.683815,274.70816 L125.683815,274.70816 L66.3495294,383.612522 C64.5145392,387.489866 61.6040175,390.758705 58.0033943,393.034402 C54.5296642,395.229899 50.4131078,396.5 46,396.5 C39.7867966,396.5 34.1617966,393.981602 30.0900974,389.909903 C26.0183983,385.838203 23.5,380.213203 23.5,374 C23.5,370.661647 24.2265628,367.492955 25.5267035,364.6534 L25.5267035,364.6534 L77.7516386,252.664235 C88.578922,219.369466 89.4404209,167.643485 89.4975777,156.966024 C89.4994111,156.623531 89.5008691,156.238797 89.50146,155.816017 C89.1433135,155.727326 88.786525,155.62939 88.4314432,155.522104 C86.7572966,155.016273 85.1666395,154.316375 83.683847,153.451766 L83.683847,153.451766 L10.268386,107.58048 C7.6079524,106.166519 5.38043782,104.04583 3.83601824,101.468882 C2.35230544,98.9932279 1.5,96.096103 1.5,93 C1.5,89.9681507 2.31726343,87.1270995 3.74446048,84.6857921 L3.74446048,84.6857921 L39.0917651,16.8766584 C39.727892,15.2675858 40.8411191,13.899381 42.2564619,12.9454828 C43.6112292,12.0324107 45.2434906,11.5 47,11.5 C49.3472102,11.5 51.4722102,12.4513949 53.0104076,13.9895924 C54.5486051,15.5277898 55.5,17.6527898 55.5,20 C55.5,20.9612036 55.340845,21.8852304 55.0467839,22.7469132 L55.0467839,22.7469132 L37.6567855,83.8025689 L101.384221,112.378309 C107.37723,111.885153 110.857469,110.171667 112.898157,108.225276 C114.351188,106.839387 115.117167,105.306272 115.496993,103.878368 C115.828053,102.633793 115.859653,101.468105 115.789451,100.546987 L115.789451,100.546987 L166.211825,100.50161 C166.134943,101.428616 166.158227,102.605634 166.483122,103.863366 C166.855506,105.304941 167.616367,106.85315 169.071075,108.248448 C171.109744,110.203857 174.595898,111.91763 180.617681,112.377315 L180.617681,112.377315 L244.342195,83.8025721 L226.95322,22.7469237 C226.659156,21.885238 226.5,20.9612075 226.5,20 C226.5,17.6527898 227.451395,15.5277898 228.989592,13.9895924 C230.52779,12.4513949 232.65279,11.5 235,11.5 L235,11.5 Z" id="Body" stroke="#000000" stroke-width="3" fill="#0065FF"></path>
                        <ellipse id="Left-Foot" fill="#000000" transform="translate(54.005375, 358.997435) rotate(25.000000) translate(-54.005375, -358.997435) " cx="54.0053746" cy="358.997435" rx="12.6191219" ry="25.007358"></ellipse>
                        <ellipse id="Right-Foot" fill="#000000" transform="translate(228.005375, 358.997435) scale(-1, 1) rotate(25.000000) translate(-228.005375, -358.997435) " cx="228.005375" cy="358.997435" rx="12.6191219" ry="25.007358"></ellipse>
                        <circle id="Left-Hand" fill="#000000" cx="47" cy="20" r="20"></circle>
                        <circle id="Right-Hand" fill="#000000" transform="translate(235.000000, 20.000000) scale(-1, 1) translate(-235.000000, -20.000000) " cx="235" cy="20" r="20"></circle>
                        <circle id="Head" fill="#000000" cx="141" cy="79" r="36"></circle>
                    </g>
                    <g id="Rig" transform="translate(70.000000, 109.000000)" fill="#000000">
                        <polygon id="Left-Leg-Strap" points="8.99804688 141.425781 52.8134766 171.421875 43.7158203 188.182617 0.639648438 159.78418"></polygon>
                        <polygon id="Left-Leg-Harness" points="30.8144531 132.661133 11.3427734 132.661133 12.638052 122.413937 28.1416016 115.120117"></polygon>
                        <polygon id="Right-Leg-Strap" transform="translate(115.086914, 164.378418) scale(-1, 1) translate(-115.086914, -164.378418) " points="97.3583984 141 141.173828 170.996094 132.076172 187.756836 89 159.358398"></polygon>
                        <polygon id="Right-Leg-Harness" transform="translate(120.735840, 123.770508) scale(-1, 1) translate(-120.735840, -123.770508) " points="130.47168 132.541016 111 132.541016 112.295279 122.29382 127.798828 115"></polygon>
                        <path d="M110,4 L100,0 L94,9 C94,9 82.5,14 71,14 C59.5,14 48,9 48,9 L42,0 L32,4 L34,17 C34,17 26,74 26,124 C26,131 32,136 36,136 C40,136 42,136 44,141 C46,146 96,146 98,141 C100,136 102,136 106,136 C110,136 116,131 116,124 C116,74 108,17 108,17 L110,4 Z"></path>
                    </g>
                </g>
            </g>
            <g id="Front-Piece" transform="translate(0.000000, 0.000000)">
                <g id="Outside-Center" transform="translate(199.000000, 336.000000) rotate(-270.000000) translate(-199.000000, -336.000000) translate(58.000000, 137.000000)">
                    <g id="Skydiver">
                        <path d="M235,11.5 C236.756509,11.5 238.388771,12.0324107 239.743538,12.9454828 C241.158881,13.899381 242.272108,15.2675858 242.908235,16.8766584 L242.908235,16.8766584 L278.25554,84.6857921 C279.682737,87.1270995 280.5,89.9681507 280.5,93 C280.5,96.096103 279.647695,98.9932279 278.163982,101.468882 C276.619543,104.045862 274.391991,106.166573 271.731513,107.580534 L271.731513,107.580534 L198.327476,153.460659 C196.805471,154.333141 195.177492,155.045128 193.463572,155.558211 C193.126454,155.659131 192.787885,155.751795 192.448254,155.837206 C192.427637,156.237378 192.410124,156.601139 192.395302,156.927055 C191.946416,166.797307 190.803964,211.458531 204.062108,252.269762 L204.062108,252.269762 L256.473052,364.647235 C257.774154,367.496079 258.5,370.66329 258.5,374 C258.5,380.213203 255.981602,385.838203 251.909903,389.909903 C247.838203,393.981602 242.213203,396.5 236,396.5 C231.586892,396.5 227.470336,395.229899 223.996606,393.034402 C220.395983,390.758705 217.485461,387.489866 215.650471,383.612522 L215.650471,383.612522 L156.316185,274.70816 C155.641012,273.593434 155.045692,272.424946 154.538193,271.210615 C154.177661,270.535286 153.886935,269.948725 153.581737,269.334054 C152.340523,266.834238 150.855677,263.945092 148.388678,261.969178 C146.554013,260.499723 144.194286,259.5 141,259.5 C138.191277,259.5 135.762224,260.652887 133.757428,262.297003 C130.898469,264.641612 128.937461,267.984047 127.975232,269.910791 C127.315994,271.694788 126.56844,273.247625 125.683815,274.70816 L125.683815,274.70816 L66.3495294,383.612522 C64.5145392,387.489866 61.6040175,390.758705 58.0033943,393.034402 C54.5296642,395.229899 50.4131078,396.5 46,396.5 C39.7867966,396.5 34.1617966,393.981602 30.0900974,389.909903 C26.0183983,385.838203 23.5,380.213203 23.5,374 C23.5,370.661647 24.2265628,367.492955 25.5267035,364.6534 L25.5267035,364.6534 L77.7516386,252.664235 C88.578922,219.369466 89.4404209,167.643485 89.4975777,156.966024 C89.4994111,156.623531 89.5008691,156.238797 89.50146,155.816017 C89.1433135,155.727326 88.786525,155.62939 88.4314432,155.522104 C86.7572966,155.016273 85.1666395,154.316375 83.683847,153.451766 L83.683847,153.451766 L10.268386,107.58048 C7.6079524,106.166519 5.38043782,104.04583 3.83601824,101.468882 C2.35230544,98.9932279 1.5,96.096103 1.5,93 C1.5,89.9681507 2.31726343,87.1270995 3.74446048,84.6857921 L3.74446048,84.6857921 L39.0917651,16.8766584 C39.727892,15.2675858 40.8411191,13.899381 42.2564619,12.9454828 C43.6112292,12.0324107 45.2434906,11.5 47,11.5 C49.3472102,11.5 51.4722102,12.4513949 53.0104076,13.9895924 C54.5486051,15.5277898 55.5,17.6527898 55.5,20 C55.5,20.9612036 55.340845,21.8852304 55.0467839,22.7469132 L55.0467839,22.7469132 L37.6567855,83.8025689 L101.384221,112.378309 C107.37723,111.885153 110.857469,110.171667 112.898157,108.225276 C114.351188,106.839387 115.117167,105.306272 115.496993,103.878368 C115.828053,102.633793 115.859653,101.468105 115.789451,100.546987 L115.789451,100.546987 L166.211825,100.50161 C166.134943,101.428616 166.158227,102.605634 166.483122,103.863366 C166.855506,105.304941 167.616367,106.85315 169.071075,108.248448 C171.109744,110.203857 174.595898,111.91763 180.617681,112.377315 L180.617681,112.377315 L244.342195,83.8025721 L226.95322,22.7469237 C226.659156,21.885238 226.5,20.9612075 226.5,20 C226.5,17.6527898 227.451395,15.5277898 228.989592,13.9895924 C230.52779,12.4513949 232.65279,11.5 235,11.5 L235,11.5 Z" id="Body" stroke="#000000" stroke-width="3" fill="#6DD400"></path>
                        <ellipse id="Left-Foot" fill="#000000" transform="translate(54.005375, 358.997435) rotate(25.000000) translate(-54.005375, -358.997435) " cx="54.0053746" cy="358.997435" rx="12.6191219" ry="25.007358"></ellipse>
                        <ellipse id="Right-Foot" fill="#000000" transform="translate(228.005375, 358.997435) scale(-1, 1) rotate(25.000000) translate(-228.005375, -358.997435) " cx="228.005375" cy="358.997435" rx="12.6191219" ry="25.007358"></ellipse>
                        <circle id="Left-Hand" fill="#000000" cx="47" cy="20" r="20"></circle>
                        <circle id="Right-Hand" fill="#000000" transform="translate(235.000000, 20.000000) scale(-1, 1) translate(-235.000000, -20.000000) " cx="235" cy="20" r="20"></circle>
                        <circle id="Head" fill="#000000" cx="141" cy="79" r="36"></circle>
                    </g>
                    <g id="Rig" transform="translate(70.000000, 109.000000)" fill="#000000">
                        <polygon id="Left-Leg-Strap" points="8.99804688 141.425781 52.8134766 171.421875 43.7158203 188.182617 0.639648438 159.78418"></polygon>
                        <polygon id="Left-Leg-Harness" points="30.8144531 132.661133 11.3427734 132.661133 12.638052 122.413937 28.1416016 115.120117"></polygon>
                        <polygon id="Right-Leg-Strap" transform="translate(115.086914, 164.378418) scale(-1, 1) translate(-115.086914, -164.378418) " points="97.3583984 141 141.173828 170.996094 132.076172 187.756836 89 159.358398"></polygon>
                        <polygon id="Right-Leg-Harness" transform="translate(120.735840, 123.770508) scale(-1, 1) translate(-120.735840, -123.770508) " points="130.47168 132.541016 111 132.541016 112.295279 122.29382 127.798828 115"></polygon>
                        <path d="M110,4 L100,0 L94,9 C94,9 82.5,14 71,14 C59.5,14 48,9 48,9 L42,0 L32,4 L34,17 C34,17 26,74 26,124 C26,131 32,136 36,136 C40,136 42,136 44,141 C46,146 96,146 98,141 C100,136 102,136 106,136 C110,136 116,131 116,124 C116,74 108,17 108,17 L110,4 Z"></path>
                    </g>
                </g>
                <g id="Point" transform="translate(237.000000, 141.000000) rotate(-90.000000) translate(-237.000000, -141.000000) translate(96.000000, -58.000000)">
                    <g id="Skydiver">
                        <path d="M235,11.5 C236.756509,11.5 238.388771,12.0324107 239.743538,12.9454828 C241.158881,13.899381 242.272108,15.2675858 242.908235,16.8766584 L242.908235,16.8766584 L278.25554,84.6857921 C279.682737,87.1270995 280.5,89.9681507 280.5,93 C280.5,96.096103 279.647695,98.9932279 278.163982,101.468882 C276.619543,104.045862 274.391991,106.166573 271.731513,107.580534 L271.731513,107.580534 L198.327476,153.460659 C196.805471,154.333141 195.177492,155.045128 193.463572,155.558211 C193.126454,155.659131 192.787885,155.751795 192.448254,155.837206 C192.427637,156.237378 192.410124,156.601139 192.395302,156.927055 C191.946416,166.797307 190.803964,211.458531 204.062108,252.269762 L204.062108,252.269762 L256.473052,364.647235 C257.774154,367.496079 258.5,370.66329 258.5,374 C258.5,380.213203 255.981602,385.838203 251.909903,389.909903 C247.838203,393.981602 242.213203,396.5 236,396.5 C231.586892,396.5 227.470336,395.229899 223.996606,393.034402 C220.395983,390.758705 217.485461,387.489866 215.650471,383.612522 L215.650471,383.612522 L156.316185,274.70816 C155.641012,273.593434 155.045692,272.424946 154.538193,271.210615 C154.177661,270.535286 153.886935,269.948725 153.581737,269.334054 C152.340523,266.834238 150.855677,263.945092 148.388678,261.969178 C146.554013,260.499723 144.194286,259.5 141,259.5 C138.191277,259.5 135.762224,260.652887 133.757428,262.297003 C130.898469,264.641612 128.937461,267.984047 127.975232,269.910791 C127.315994,271.694788 126.56844,273.247625 125.683815,274.70816 L125.683815,274.70816 L66.3495294,383.612522 C64.5145392,387.489866 61.6040175,390.758705 58.0033943,393.034402 C54.5296642,395.229899 50.4131078,396.5 46,396.5 C39.7867966,396.5 34.1617966,393.981602 30.0900974,389.909903 C26.0183983,385.838203 23.5,380.213203 23.5,374 C23.5,370.661647 24.2265628,367.492955 25.5267035,364.6534 L25.5267035,364.6534 L77.7516386,252.664235 C88.578922,219.369466 89.4404209,167.643485 89.4975777,156.966024 C89.4994111,156.623531 89.5008691,156.238797 89.50146,155.816017 C89.1433135,155.727326 88.786525,155.62939 88.4314432,155.522104 C86.7572966,155.016273 85.1666395,154.316375 83.683847,153.451766 L83.683847,153.451766 L10.268386,107.58048 C7.6079524,106.166519 5.38043782,104.04583 3.83601824,101.468882 C2.35230544,98.9932279 1.5,96.096103 1.5,93 C1.5,89.9681507 2.31726343,87.1270995 3.74446048,84.6857921 L3.74446048,84.6857921 L39.0917651,16.8766584 C39.727892,15.2675858 40.8411191,13.899381 42.2564619,12.9454828 C43.6112292,12.0324107 45.2434906,11.5 47,11.5 C49.3472102,11.5 51.4722102,12.4513949 53.0104076,13.9895924 C54.5486051,15.5277898 55.5,17.6527898 55.5,20 C55.5,20.9612036 55.340845,21.8852304 55.0467839,22.7469132 L55.0467839,22.7469132 L37.6567855,83.8025689 L101.384221,112.378309 C107.37723,111.885153 110.857469,110.171667 112.898157,108.225276 C114.351188,106.839387 115.117167,105.306272 115.496993,103.878368 C115.828053,102.633793 115.859653,101.468105 115.789451,100.546987 L115.789451,100.546987 L166.211825,100.50161 C166.134943,101.428616 166.158227,102.605634 166.483122,103.863366 C166.855506,105.304941 167.616367,106.85315 169.071075,108.248448 C171.109744,110.203857 174.595898,111.91763 180.617681,112.377315 L180.617681,112.377315 L244.342195,83.8025721 L226.95322,22.7469237 C226.659156,21.885238 226.5,20.9612075 226.5,20 C226.5,17.6527898 227.451395,15.5277898 228.989592,13.9895924 C230.52779,12.4513949 232.65279,11.5 235,11.5 L235,11.5 Z" id="Body" stroke="#000000" stroke-width="3" fill="#E02020"></path>
                        <ellipse id="Left-Foot" fill="#000000" transform="translate(54.005375, 358.997435) rotate(25.000000) translate(-54.005375, -358.997435) " cx="54.0053746" cy="358.997435" rx="12.6191219" ry="25.007358"></ellipse>
                        <ellipse id="Right-Foot" fill="#000000" transform="translate(228.005375, 358.997435) scale(-1, 1) rotate(25.000000) translate(-228.005375, -358.997435) " cx="228.005375" cy="358.997435" rx="12.6191219" ry="25.007358"></ellipse>
                        <circle id="Left-Hand" fill="#000000" cx="47" cy="20" r="20"></circle>
                        <circle id="Right-Hand" fill="#000000" transform="translate(235.000000, 20.000000) scale(-1, 1) translate(-235.000000, -20.000000) " cx="235" cy="20" r="20"></circle>
                        <circle id="Head" fill="#000000" cx="141" cy="79" r="36"></circle>
                    </g>
                    <g id="Rig" transform="translate(70.000000, 109.000000)" fill="#000000">
                        <polygon id="Left-Leg-Strap" points="8.99804688 141.425781 52.8134766 171.421875 43.7158203 188.182617 0.639648438 159.78418"></polygon>
                        <polygon id="Left-Leg-Harness" points="30.8144531 132.661133 11.3427734 132.661133 12.638052 122.413937 28.1416016 115.120117"></polygon>
                        <polygon id="Right-Leg-Strap" transform="translate(115.086914, 164.378418) scale(-1, 1) translate(-115.086914, -164.378418) " points="97.3583984 141 141.173828 170.996094 132.076172 187.756836 89 159.358398"></polygon>
                        <polygon id="Right-Leg-Harness" transform="translate(120.735840, 123.770508) scale(-1, 1) translate(-120.735840, -123.770508) " points="130.47168 132.541016 111 132.541016 112.295279 122.29382 127.798828 115"></polygon>
                        <path d="M110,4 L100,0 L94,9 C94,9 82.5,14 71,14 C59.5,14 48,9 48,9 L42,0 L32,4 L34,17 C34,17 26,74 26,124 C26,131 32,136 36,136 C40,136 42,136 44,141 C46,146 96,146 98,141 C100,136 102,136 106,136 C110,136 116,131 116,124 C116,74 108,17 108,17 L110,4 Z"></path>
                    </g>
                </g>
            </g>
        </g>
    </g>
</svg>