<?xml version="1.0" encoding="UTF-8"?>
<svg width="1386px" height="3000px" viewBox="0 0 1386 3000" version="1.1" xmlns="http://www.w3.org/2000/svg" xmlns:xlink="http://www.w3.org/1999/xlink">
    <title>4 - Monopod - Monopod</title>
    <g id="4---Monopod---Monopod" stroke="none" stroke-width="1" fill="none" fill-rule="evenodd">
        <g id="Bottom" transform="translate(118.000000, 2151.000000)">
            <g id="Point" transform="translate(908.826862, 240.416306) rotate(-315.000000) translate(-908.826862, -240.416306) translate(767.826862, 41.416306)">
                <g id="Skydiver">
                    <path d="M235,11.5 C236.756509,11.5 238.388771,12.0324107 239.743538,12.9454828 C241.158881,13.899381 242.272108,15.2675858 242.908235,16.8766584 L242.908235,16.8766584 L278.25554,84.6857921 C279.682737,87.1270995 280.5,89.9681507 280.5,93 C280.5,96.096103 279.647695,98.9932279 278.163982,101.468882 C276.619543,104.045862 274.391991,106.166573 271.731513,107.580534 L271.731513,107.580534 L198.327476,153.460659 C196.805471,154.333141 195.177492,155.045128 193.463572,155.558211 C193.126454,155.659131 192.787885,155.751795 192.448254,155.837206 C192.427637,156.237378 192.410124,156.601139 192.395302,156.927055 C191.946416,166.797307 190.803964,211.458531 204.062108,252.269762 L204.062108,252.269762 L256.473052,364.647235 C257.774154,367.496079 258.5,370.66329 258.5,374 C258.5,380.213203 255.981602,385.838203 251.909903,389.909903 C247.838203,393.981602 242.213203,396.5 236,396.5 C231.586892,396.5 227.470336,395.229899 223.996606,393.034402 C220.395983,390.758705 217.485461,387.489866 215.650471,383.612522 L215.650471,383.612522 L156.316185,274.70816 C155.641012,273.593434 155.045692,272.424946 154.538193,271.210615 C154.177661,270.535286 153.886935,269.948725 153.581737,269.334054 C152.340523,266.834238 150.855677,263.945092 148.388678,261.969178 C146.554013,260.499723 144.194286,259.5 141,259.5 C138.191277,259.5 135.762224,260.652887 133.757428,262.297003 C130.898469,264.641612 128.937461,267.984047 127.975232,269.910791 C127.315994,271.694788 126.56844,273.247625 125.683815,274.70816 L125.683815,274.70816 L66.3495294,383.612522 C64.5145392,387.489866 61.6040175,390.758705 58.0033943,393.034402 C54.5296642,395.229899 50.4131078,396.5 46,396.5 C39.7867966,396.5 34.1617966,393.981602 30.0900974,389.909903 C26.0183983,385.838203 23.5,380.213203 23.5,374 C23.5,370.661647 24.2265628,367.492955 25.5267035,364.6534 L25.5267035,364.6534 L77.7516386,252.664235 C88.578922,219.369466 89.4404209,167.643485 89.4975777,156.966024 C89.4994111,156.623531 89.5008691,156.238797 89.50146,155.816017 C89.1433135,155.727326 88.786525,155.62939 88.4314432,155.522104 C86.7572966,155.016273 85.1666395,154.316375 83.683847,153.451766 L83.683847,153.451766 L10.268386,107.58048 C7.6079524,106.166519 5.38043782,104.04583 3.83601824,101.468882 C2.35230544,98.9932279 1.5,96.096103 1.5,93 C1.5,89.9681507 2.31726343,87.1270995 3.74446048,84.6857921 L3.74446048,84.6857921 L39.0917651,16.8766584 C39.727892,15.2675858 40.8411191,13.899381 42.2564619,12.9454828 C43.6112292,12.0324107 45.2434906,11.5 47,11.5 C49.3472102,11.5 51.4722102,12.4513949 53.0104076,13.9895924 C54.5486051,15.5277898 55.5,17.6527898 55.5,20 C55.5,20.9612036 55.340845,21.8852304 55.0467839,22.7469132 L55.0467839,22.7469132 L37.6567855,83.8025689 L101.384221,112.378309 C107.37723,111.885153 110.857469,110.171667 112.898157,108.225276 C114.351188,106.839387 115.117167,105.306272 115.496993,103.878368 C115.828053,102.633793 115.859653,101.468105 115.789451,100.546987 L115.789451,100.546987 L166.211825,100.50161 C166.134943,101.428616 166.158227,102.605634 166.483122,103.863366 C166.855506,105.304941 167.616367,106.85315 169.071075,108.248448 C171.109744,110.203857 174.595898,111.91763 180.617681,112.377315 L180.617681,112.377315 L244.342195,83.8025721 L226.95322,22.7469237 C226.659156,21.885238 226.5,20.9612075 226.5,20 C226.5,17.6527898 227.451395,15.5277898 228.989592,13.9895924 C230.52779,12.4513949 232.65279,11.5 235,11.5 L235,11.5 Z" id="Body" stroke="#000000" stroke-width="3" fill="#E02020"></path>
                    <ellipse id="Left-Foot" fill="#000000" transform="translate(54.005375, 358.997435) rotate(25.000000) translate(-54.005375, -358.997435) " cx="54.0053746" cy="358.997435" rx="12.6191219" ry="25.007358"></ellipse>
                    <ellipse id="Right-Foot" fill="#000000" transform="translate(228.005375, 358.997435) scale(-1, 1) rotate(25.000000) translate(-228.005375, -358.997435) " cx="228.005375" cy="358.997435" rx="12.6191219" ry="25.007358"></ellipse>
                    <circle id="Left-Hand" fill="#000000" cx="47" cy="20" r="20"></circle>
                    <circle id="Right-Hand" fill="#000000" transform="translate(235.000000, 20.000000) scale(-1, 1) translate(-235.000000, -20.000000) " cx="235" cy="20" r="20"></circle>
                    <circle id="Head" fill="#000000" cx="141" cy="79" r="36"></circle>
                </g>
                <g id="Rig" transform="translate(70.000000, 109.000000)" fill="#000000">
                    <polygon id="Left-Leg-Strap" points="8.99804688 141.425781 52.8134766 171.421875 43.7158203 188.182617 0.639648438 159.78418"></polygon>
                    <polygon id="Left-Leg-Harness" points="30.8144531 132.661133 11.3427734 132.661133 12.638052 122.413937 28.1416016 115.120117"></polygon>
                    <polygon id="Right-Leg-Strap" transform="translate(115.086914, 164.378418) scale(-1, 1) translate(-115.086914, -164.378418) " points="97.3583984 141 141.173828 170.996094 132.076172 187.756836 89 159.358398"></polygon>
                    <polygon id="Right-Leg-Harness" transform="translate(120.735840, 123.770508) scale(-1, 1) translate(-120.735840, -123.770508) " points="130.47168 132.541016 111 132.541016 112.295279 122.29382 127.798828 115"></polygon>
                    <path d="M110,4 L100,0 L94,9 C94,9 82.5,14 71,14 C59.5,14 48,9 48,9 L42,0 L32,4 L34,17 C34,17 26,74 26,124 C26,131 32,136 36,136 C40,136 42,136 44,141 C46,146 96,146 98,141 C100,136 102,136 106,136 C110,136 116,131 116,124 C116,74 108,17 108,17 L110,4 Z"></path>
                </g>
            </g>
            <g id="Back-Piece" transform="translate(425.913431, 453.439112) rotate(-270.000000) translate(-425.913431, -453.439112) translate(29.852543, 27.525681)">
                <g id="Outside-Center" transform="translate(185.121775, 0.000000)">
                    <g id="Skydiver" transform="translate(129.000000, 216.000000) scale(-1, 1) translate(-129.000000, -216.000000) ">
                        <path d="M63,12.5 C65.3472102,12.5 67.4722102,13.4513949 69.0104076,14.9895924 C70.5486051,16.5277898 71.5,18.6527898 71.5,21 C71.5,21.9612033 71.340845,22.8852301 71.0467841,23.7469126 L71.0467841,23.7469126 L51.879091,91.0437837 L89.6405528,143.307442 C93.5634731,140.533912 93.9702317,136.768315 93.7839114,134.5 L93.7839114,134.5 L144.212882,134.5 C144.142058,135.35311 144.155872,136.418627 144.412043,137.563623 C144.720301,138.941427 145.373079,140.433166 146.640163,141.808441 C148.442484,143.764655 151.55141,145.54468 156.981152,146.214845 L156.981152,146.214845 L220.342192,117.802563 L202.95322,56.7469237 C202.659156,55.885238 202.5,54.9612075 202.5,54 C202.5,51.6527898 203.451395,49.5277898 204.989592,47.9895924 C206.52779,46.4513949 208.65279,45.5 211,45.5 C212.756509,45.5 214.388771,46.0324107 215.743538,46.9454828 C217.158881,47.899381 218.272108,49.2675858 218.908235,50.8766584 L218.908235,50.8766584 L254.25554,118.685792 C255.682737,121.1271 256.5,123.968151 256.5,127 C256.5,130.096103 255.647695,132.993228 254.163982,135.468882 C252.619543,138.045862 250.391991,140.166573 247.731513,141.580534 L247.731513,141.580534 L174.330258,187.458921 C173.380794,187.997697 172.394332,188.481289 171.370694,188.89183 C171.076827,189.009688 170.781014,189.121078 170.483596,189.227129 C170.462575,189.597919 170.445191,189.925677 170.430949,190.20863 C170.017951,198.41375 168.450566,244.370702 182.062108,286.269762 L182.062108,286.269762 L234.473052,398.647235 C235.774154,401.496079 236.5,404.66329 236.5,408 C236.5,414.213203 233.981602,419.838203 229.909903,423.909903 C225.838203,427.981602 220.213203,430.5 214,430.5 C209.586892,430.5 205.470336,429.229899 201.996606,427.034402 C198.395983,424.758705 195.485461,421.489866 193.650471,417.612522 L193.650471,417.612522 L134.316185,308.70816 C133.641012,307.593434 133.045692,306.424946 132.538193,305.210615 C132.177661,304.535286 131.886935,303.948725 131.581737,303.334054 C130.340523,300.834238 128.855677,297.945092 126.388678,295.969178 C124.554013,294.499723 122.194286,293.5 119,293.5 C116.191277,293.5 113.762224,294.652887 111.757428,296.297003 C108.898469,298.641612 106.937461,301.984047 105.975232,303.910791 C105.315994,305.694788 104.56844,307.247625 103.683815,308.70816 L103.683815,308.70816 L44.3495294,417.612522 C42.5145392,421.489866 39.6040175,424.758705 36.0033943,427.034402 C32.5296642,429.229899 28.4131078,430.5 24,430.5 C17.7867966,430.5 12.1617966,427.981602 8.09009742,423.909903 C4.01839828,419.838203 1.5,414.213203 1.5,408 C1.5,404.661647 2.22656284,401.492955 3.5267015,398.653405 L3.5267015,398.653405 L55.7506974,286.667167 C67.02513,251.997392 67.4932086,197.333746 67.5012828,189.85313 L67.5012828,189.85313 L67.5009995,189.209483 C67.4611358,188.767371 67.3516081,188.193855 67.1896042,187.372382 C67.1438576,187.140414 67.0938457,186.88684 67.0402362,186.608506 C66.9974965,186.386607 66.9584791,186.180168 66.9215117,185.98741 C66.7489319,185.877322 66.5777722,185.764842 66.4080882,185.649993 C62.2771784,182.854025 59.1245324,178.724358 57.5704322,173.878547 L57.5704322,173.878547 L19.1751743,101.641618 C18.1578594,99.2914481 17.5,96.7227174 17.5,94 C17.5,90.9681507 18.3172634,88.1270995 19.7444605,85.6857921 L19.7444605,85.6857921 L55.0917651,17.8766584 C55.727892,16.2675858 56.8411191,14.899381 58.2564619,13.9454828 C59.6112292,13.0324107 61.2434906,12.5 63,12.5 L63,12.5 Z" id="Body" stroke="#000000" stroke-width="3" fill="#6DD400"></path>
                        <circle id="Right-Hand" fill="#000000" transform="translate(210.000000, 51.000000) scale(-1, 1) translate(-210.000000, -51.000000) " cx="210" cy="51" r="20"></circle>
                        <ellipse id="Left-Foot" fill="#000000" transform="translate(32.005375, 392.997435) rotate(25.000000) translate(-32.005375, -392.997435) " cx="32.0053746" cy="392.997435" rx="12.6191219" ry="25.007358"></ellipse>
                        <ellipse id="Right-Foot" fill="#000000" transform="translate(206.005375, 392.997435) scale(-1, 1) rotate(25.000000) translate(-206.005375, -392.997435) " cx="206.005375" cy="392.997435" rx="12.6191219" ry="25.007358"></ellipse>
                        <circle id="Left-Hand" fill="#000000" cx="63" cy="20" r="20"></circle>
                        <circle id="Head" fill="#000000" cx="119" cy="113" r="36"></circle>
                    </g>
                    <g id="Rig" transform="translate(68.000000, 143.000000)" fill="#000000">
                        <polygon id="Left-Leg-Strap" points="8.99804688 141.425781 52.8134766 171.421875 43.7158203 188.182617 0.639648438 159.78418"></polygon>
                        <polygon id="Left-Leg-Harness" points="30.8144531 132.661133 11.3427734 132.661133 12.638052 122.413937 28.1416016 115.120117"></polygon>
                        <polygon id="Right-Leg-Strap" transform="translate(115.086914, 164.378418) scale(-1, 1) translate(-115.086914, -164.378418) " points="97.3583984 141 141.173828 170.996094 132.076172 187.756836 89 159.358398"></polygon>
                        <polygon id="Right-Leg-Harness" transform="translate(120.735840, 123.770508) scale(-1, 1) translate(-120.735840, -123.770508) " points="130.47168 132.541016 111 132.541016 112.295279 122.29382 127.798828 115"></polygon>
                        <path d="M110,4 L100,0 L94,9 C94,9 82.5,14 71,14 C59.5,14 48,9 48,9 L42,0 L32,4 L34,17 C34,17 26,74 26,124 C26,131 32,136 36,136 C40,136 42,136 44,141 C46,146 96,146 98,141 C100,136 102,136 106,136 C110,136 116,131 116,124 C116,74 108,17 108,17 L110,4 Z"></path>
                    </g>
                </g>
                <g id="Tail" transform="translate(221.609582, 608.987807) rotate(-330.000000) translate(-221.609582, -608.987807) translate(80.609582, 409.987807)">
                    <g id="Skydiver">
                        <path d="M235,11.5 C236.756509,11.5 238.388771,12.0324107 239.743538,12.9454828 C241.158881,13.899381 242.272108,15.2675858 242.908235,16.8766584 L242.908235,16.8766584 L278.25554,84.6857921 C279.682737,87.1270995 280.5,89.9681507 280.5,93 C280.5,96.096103 279.647695,98.9932279 278.163982,101.468882 C276.619543,104.045862 274.391991,106.166573 271.731513,107.580534 L271.731513,107.580534 L198.327476,153.460659 C196.805471,154.333141 195.177492,155.045128 193.463572,155.558211 C193.126454,155.659131 192.787885,155.751795 192.448254,155.837206 C192.427637,156.237378 192.410124,156.601139 192.395302,156.927055 C191.946416,166.797307 190.803964,211.458531 204.062108,252.269762 L204.062108,252.269762 L256.473052,364.647235 C257.774154,367.496079 258.5,370.66329 258.5,374 C258.5,380.213203 255.981602,385.838203 251.909903,389.909903 C247.838203,393.981602 242.213203,396.5 236,396.5 C231.586892,396.5 227.470336,395.229899 223.996606,393.034402 C220.395983,390.758705 217.485461,387.489866 215.650471,383.612522 L215.650471,383.612522 L156.316185,274.70816 C155.641012,273.593434 155.045692,272.424946 154.538193,271.210615 C154.177661,270.535286 153.886935,269.948725 153.581737,269.334054 C152.340523,266.834238 150.855677,263.945092 148.388678,261.969178 C146.554013,260.499723 144.194286,259.5 141,259.5 C138.191277,259.5 135.762224,260.652887 133.757428,262.297003 C130.898469,264.641612 128.937461,267.984047 127.975232,269.910791 C127.315994,271.694788 126.56844,273.247625 125.683815,274.70816 L125.683815,274.70816 L66.3495294,383.612522 C64.5145392,387.489866 61.6040175,390.758705 58.0033943,393.034402 C54.5296642,395.229899 50.4131078,396.5 46,396.5 C39.7867966,396.5 34.1617966,393.981602 30.0900974,389.909903 C26.0183983,385.838203 23.5,380.213203 23.5,374 C23.5,370.661647 24.2265628,367.492955 25.5267035,364.6534 L25.5267035,364.6534 L77.7516386,252.664235 C88.578922,219.369466 89.4404209,167.643485 89.4975777,156.966024 C89.4994111,156.623531 89.5008691,156.238797 89.50146,155.816017 C89.1433135,155.727326 88.786525,155.62939 88.4314432,155.522104 C86.7572966,155.016273 85.1666395,154.316375 83.683847,153.451766 L83.683847,153.451766 L10.268386,107.58048 C7.6079524,106.166519 5.38043782,104.04583 3.83601824,101.468882 C2.35230544,98.9932279 1.5,96.096103 1.5,93 C1.5,89.9681507 2.31726343,87.1270995 3.74446048,84.6857921 L3.74446048,84.6857921 L39.0917651,16.8766584 C39.727892,15.2675858 40.8411191,13.899381 42.2564619,12.9454828 C43.6112292,12.0324107 45.2434906,11.5 47,11.5 C49.3472102,11.5 51.4722102,12.4513949 53.0104076,13.9895924 C54.5486051,15.5277898 55.5,17.6527898 55.5,20 C55.5,20.9612036 55.340845,21.8852304 55.0467839,22.7469132 L55.0467839,22.7469132 L37.6567855,83.8025689 L101.384221,112.378309 C107.37723,111.885153 110.857469,110.171667 112.898157,108.225276 C114.351188,106.839387 115.117167,105.306272 115.496993,103.878368 C115.828053,102.633793 115.859653,101.468105 115.789451,100.546987 L115.789451,100.546987 L166.211825,100.50161 C166.134943,101.428616 166.158227,102.605634 166.483122,103.863366 C166.855506,105.304941 167.616367,106.85315 169.071075,108.248448 C171.109744,110.203857 174.595898,111.91763 180.617681,112.377315 L180.617681,112.377315 L244.342195,83.8025721 L226.95322,22.7469237 C226.659156,21.885238 226.5,20.9612075 226.5,20 C226.5,17.6527898 227.451395,15.5277898 228.989592,13.9895924 C230.52779,12.4513949 232.65279,11.5 235,11.5 L235,11.5 Z" id="Body" stroke="#000000" stroke-width="3" fill="#F7E400"></path>
                        <ellipse id="Left-Foot" fill="#000000" transform="translate(54.005375, 358.997435) rotate(25.000000) translate(-54.005375, -358.997435) " cx="54.0053746" cy="358.997435" rx="12.6191219" ry="25.007358"></ellipse>
                        <ellipse id="Right-Foot" fill="#000000" transform="translate(228.005375, 358.997435) scale(-1, 1) rotate(25.000000) translate(-228.005375, -358.997435) " cx="228.005375" cy="358.997435" rx="12.6191219" ry="25.007358"></ellipse>
                        <circle id="Left-Hand" fill="#000000" cx="47" cy="20" r="20"></circle>
                        <circle id="Right-Hand" fill="#000000" transform="translate(235.000000, 20.000000) scale(-1, 1) translate(-235.000000, -20.000000) " cx="235" cy="20" r="20"></circle>
                        <circle id="Head" fill="#000000" cx="141" cy="79" r="36"></circle>
                    </g>
                    <g id="Rig" transform="translate(70.000000, 109.000000)" fill="#000000">
                        <polygon id="Left-Leg-Strap" points="8.99804688 141.425781 52.8134766 171.421875 43.7158203 188.182617 0.639648438 159.78418"></polygon>
                        <polygon id="Left-Leg-Harness" points="30.8144531 132.661133 11.3427734 132.661133 12.638052 122.413937 28.1416016 115.120117"></polygon>
                        <polygon id="Right-Leg-Strap" transform="translate(115.086914, 164.378418) scale(-1, 1) translate(-115.086914, -164.378418) " points="97.3583984 141 141.173828 170.996094 132.076172 187.756836 89 159.358398"></polygon>
                        <polygon id="Right-Leg-Harness" transform="translate(120.735840, 123.770508) scale(-1, 1) translate(-120.735840, -123.770508) " points="130.47168 132.541016 111 132.541016 112.295279 122.29382 127.798828 115"></polygon>
                        <path d="M110,4 L100,0 L94,9 C94,9 82.5,14 71,14 C59.5,14 48,9 48,9 L42,0 L32,4 L34,17 C34,17 26,74 26,124 C26,131 32,136 36,136 C40,136 42,136 44,141 C46,146 96,146 98,141 C100,136 102,136 106,136 C110,136 116,131 116,124 C116,74 108,17 108,17 L110,4 Z"></path>
                    </g>
                </g>
                <g id="Inside-Center" transform="translate(593.121775, 432.000000) rotate(-90.000000) translate(-593.121775, -432.000000) translate(452.121775, 233.000000)">
                    <g id="Skydiver">
                        <path d="M235,11.5 C236.756509,11.5 238.388771,12.0324107 239.743538,12.9454828 C241.158881,13.899381 242.272108,15.2675858 242.908235,16.8766584 L242.908235,16.8766584 L278.25554,84.6857921 C279.682737,87.1270995 280.5,89.9681507 280.5,93 C280.5,96.096103 279.647695,98.9932279 278.163982,101.468882 C276.619543,104.045862 274.391991,106.166573 271.731513,107.580534 L271.731513,107.580534 L198.327476,153.460659 C196.805471,154.333141 195.177492,155.045128 193.463572,155.558211 C193.126454,155.659131 192.787885,155.751795 192.448254,155.837206 C192.427637,156.237378 192.410124,156.601139 192.395302,156.927055 C191.946416,166.797307 190.803964,211.458531 204.062108,252.269762 L204.062108,252.269762 L256.473052,364.647235 C257.774154,367.496079 258.5,370.66329 258.5,374 C258.5,380.213203 255.981602,385.838203 251.909903,389.909903 C247.838203,393.981602 242.213203,396.5 236,396.5 C231.586892,396.5 227.470336,395.229899 223.996606,393.034402 C220.395983,390.758705 217.485461,387.489866 215.650471,383.612522 L215.650471,383.612522 L156.316185,274.70816 C155.641012,273.593434 155.045692,272.424946 154.538193,271.210615 C154.177661,270.535286 153.886935,269.948725 153.581737,269.334054 C152.340523,266.834238 150.855677,263.945092 148.388678,261.969178 C146.554013,260.499723 144.194286,259.5 141,259.5 C138.191277,259.5 135.762224,260.652887 133.757428,262.297003 C130.898469,264.641612 128.937461,267.984047 127.975232,269.910791 C127.315994,271.694788 126.56844,273.247625 125.683815,274.70816 L125.683815,274.70816 L66.3495294,383.612522 C64.5145392,387.489866 61.6040175,390.758705 58.0033943,393.034402 C54.5296642,395.229899 50.4131078,396.5 46,396.5 C39.7867966,396.5 34.1617966,393.981602 30.0900974,389.909903 C26.0183983,385.838203 23.5,380.213203 23.5,374 C23.5,370.661647 24.2265628,367.492955 25.5267035,364.6534 L25.5267035,364.6534 L77.7516386,252.664235 C88.578922,219.369466 89.4404209,167.643485 89.4975777,156.966024 C89.4994111,156.623531 89.5008691,156.238797 89.50146,155.816017 C89.1433135,155.727326 88.786525,155.62939 88.4314432,155.522104 C86.7572966,155.016273 85.1666395,154.316375 83.683847,153.451766 L83.683847,153.451766 L10.268386,107.58048 C7.6079524,106.166519 5.38043782,104.04583 3.83601824,101.468882 C2.35230544,98.9932279 1.5,96.096103 1.5,93 C1.5,89.9681507 2.31726343,87.1270995 3.74446048,84.6857921 L3.74446048,84.6857921 L39.0917651,16.8766584 C39.727892,15.2675858 40.8411191,13.899381 42.2564619,12.9454828 C43.6112292,12.0324107 45.2434906,11.5 47,11.5 C49.3472102,11.5 51.4722102,12.4513949 53.0104076,13.9895924 C54.5486051,15.5277898 55.5,17.6527898 55.5,20 C55.5,20.9612036 55.340845,21.8852304 55.0467839,22.7469132 L55.0467839,22.7469132 L37.6567855,83.8025689 L101.384221,112.378309 C107.37723,111.885153 110.857469,110.171667 112.898157,108.225276 C114.351188,106.839387 115.117167,105.306272 115.496993,103.878368 C115.828053,102.633793 115.859653,101.468105 115.789451,100.546987 L115.789451,100.546987 L166.211825,100.50161 C166.134943,101.428616 166.158227,102.605634 166.483122,103.863366 C166.855506,105.304941 167.616367,106.85315 169.071075,108.248448 C171.109744,110.203857 174.595898,111.91763 180.617681,112.377315 L180.617681,112.377315 L244.342195,83.8025721 L226.95322,22.7469237 C226.659156,21.885238 226.5,20.9612075 226.5,20 C226.5,17.6527898 227.451395,15.5277898 228.989592,13.9895924 C230.52779,12.4513949 232.65279,11.5 235,11.5 L235,11.5 Z" id="Body" stroke="#000000" stroke-width="3" fill="#0065FF"></path>
                        <ellipse id="Left-Foot" fill="#000000" transform="translate(54.005375, 358.997435) rotate(25.000000) translate(-54.005375, -358.997435) " cx="54.0053746" cy="358.997435" rx="12.6191219" ry="25.007358"></ellipse>
                        <ellipse id="Right-Foot" fill="#000000" transform="translate(228.005375, 358.997435) scale(-1, 1) rotate(25.000000) translate(-228.005375, -358.997435) " cx="228.005375" cy="358.997435" rx="12.6191219" ry="25.007358"></ellipse>
                        <circle id="Left-Hand" fill="#000000" cx="47" cy="20" r="20"></circle>
                        <circle id="Right-Hand" fill="#000000" transform="translate(235.000000, 20.000000) scale(-1, 1) translate(-235.000000, -20.000000) " cx="235" cy="20" r="20"></circle>
                        <circle id="Head" fill="#000000" cx="141" cy="79" r="36"></circle>
                    </g>
                    <g id="Rig" transform="translate(70.000000, 109.000000)" fill="#000000">
                        <polygon id="Left-Leg-Strap" points="8.99804688 141.425781 52.8134766 171.421875 43.7158203 188.182617 0.639648438 159.78418"></polygon>
                        <polygon id="Left-Leg-Harness" points="30.8144531 132.661133 11.3427734 132.661133 12.638052 122.413937 28.1416016 115.120117"></polygon>
                        <polygon id="Right-Leg-Strap" transform="translate(115.086914, 164.378418) scale(-1, 1) translate(-115.086914, -164.378418) " points="97.3583984 141 141.173828 170.996094 132.076172 187.756836 89 159.358398"></polygon>
                        <polygon id="Right-Leg-Harness" transform="translate(120.735840, 123.770508) scale(-1, 1) translate(-120.735840, -123.770508) " points="130.47168 132.541016 111 132.541016 112.295279 122.29382 127.798828 115"></polygon>
                        <path d="M110,4 L100,0 L94,9 C94,9 82.5,14 71,14 C59.5,14 48,9 48,9 L42,0 L32,4 L34,17 C34,17 26,74 26,124 C26,131 32,136 36,136 C40,136 42,136 44,141 C46,146 96,146 98,141 C100,136 102,136 106,136 C110,136 116,131 116,124 C116,74 108,17 108,17 L110,4 Z"></path>
                    </g>
                </g>
            </g>
        </g>
        <g id="Inter" transform="translate(0.000000, 1010.000000)">
            <g id="Back-Piece" transform="translate(210.390418, 311.205775)">
                <g id="Outside-Center" transform="translate(221.609582, 242.839055) rotate(-30.000000) translate(-221.609582, -242.839055) translate(80.609582, 43.839055)">
                    <g id="Skydiver">
                        <path d="M235,11.5 C236.756509,11.5 238.388771,12.0324107 239.743538,12.9454828 C241.158881,13.899381 242.272108,15.2675858 242.908235,16.8766584 L242.908235,16.8766584 L278.25554,84.6857921 C279.682737,87.1270995 280.5,89.9681507 280.5,93 C280.5,96.096103 279.647695,98.9932279 278.163982,101.468882 C276.619543,104.045862 274.391991,106.166573 271.731513,107.580534 L271.731513,107.580534 L198.327476,153.460659 C196.805471,154.333141 195.177492,155.045128 193.463572,155.558211 C193.126454,155.659131 192.787885,155.751795 192.448254,155.837206 C192.427637,156.237378 192.410124,156.601139 192.395302,156.927055 C191.946416,166.797307 190.803964,211.458531 204.062108,252.269762 L204.062108,252.269762 L256.473052,364.647235 C257.774154,367.496079 258.5,370.66329 258.5,374 C258.5,380.213203 255.981602,385.838203 251.909903,389.909903 C247.838203,393.981602 242.213203,396.5 236,396.5 C231.586892,396.5 227.470336,395.229899 223.996606,393.034402 C220.395983,390.758705 217.485461,387.489866 215.650471,383.612522 L215.650471,383.612522 L156.316185,274.70816 C155.641012,273.593434 155.045692,272.424946 154.538193,271.210615 C154.177661,270.535286 153.886935,269.948725 153.581737,269.334054 C152.340523,266.834238 150.855677,263.945092 148.388678,261.969178 C146.554013,260.499723 144.194286,259.5 141,259.5 C138.191277,259.5 135.762224,260.652887 133.757428,262.297003 C130.898469,264.641612 128.937461,267.984047 127.975232,269.910791 C127.315994,271.694788 126.56844,273.247625 125.683815,274.70816 L125.683815,274.70816 L66.3495294,383.612522 C64.5145392,387.489866 61.6040175,390.758705 58.0033943,393.034402 C54.5296642,395.229899 50.4131078,396.5 46,396.5 C39.7867966,396.5 34.1617966,393.981602 30.0900974,389.909903 C26.0183983,385.838203 23.5,380.213203 23.5,374 C23.5,370.661647 24.2265628,367.492955 25.5267035,364.6534 L25.5267035,364.6534 L77.7516386,252.664235 C88.578922,219.369466 89.4404209,167.643485 89.4975777,156.966024 C89.4994111,156.623531 89.5008691,156.238797 89.50146,155.816017 C89.1433135,155.727326 88.786525,155.62939 88.4314432,155.522104 C86.7572966,155.016273 85.1666395,154.316375 83.683847,153.451766 L83.683847,153.451766 L10.268386,107.58048 C7.6079524,106.166519 5.38043782,104.04583 3.83601824,101.468882 C2.35230544,98.9932279 1.5,96.096103 1.5,93 C1.5,89.9681507 2.31726343,87.1270995 3.74446048,84.6857921 L3.74446048,84.6857921 L39.0917651,16.8766584 C39.727892,15.2675858 40.8411191,13.899381 42.2564619,12.9454828 C43.6112292,12.0324107 45.2434906,11.5 47,11.5 C49.3472102,11.5 51.4722102,12.4513949 53.0104076,13.9895924 C54.5486051,15.5277898 55.5,17.6527898 55.5,20 C55.5,20.9612036 55.340845,21.8852304 55.0467839,22.7469132 L55.0467839,22.7469132 L37.6567855,83.8025689 L101.384221,112.378309 C107.37723,111.885153 110.857469,110.171667 112.898157,108.225276 C114.351188,106.839387 115.117167,105.306272 115.496993,103.878368 C115.828053,102.633793 115.859653,101.468105 115.789451,100.546987 L115.789451,100.546987 L166.211825,100.50161 C166.134943,101.428616 166.158227,102.605634 166.483122,103.863366 C166.855506,105.304941 167.616367,106.85315 169.071075,108.248448 C171.109744,110.203857 174.595898,111.91763 180.617681,112.377315 L180.617681,112.377315 L244.342195,83.8025721 L226.95322,22.7469237 C226.659156,21.885238 226.5,20.9612075 226.5,20 C226.5,17.6527898 227.451395,15.5277898 228.989592,13.9895924 C230.52779,12.4513949 232.65279,11.5 235,11.5 L235,11.5 Z" id="Body" stroke="#000000" stroke-width="3" fill="#6DD400"></path>
                        <ellipse id="Left-Foot" fill="#000000" transform="translate(54.005375, 358.997435) rotate(25.000000) translate(-54.005375, -358.997435) " cx="54.0053746" cy="358.997435" rx="12.6191219" ry="25.007358"></ellipse>
                        <ellipse id="Right-Foot" fill="#000000" transform="translate(228.005375, 358.997435) scale(-1, 1) rotate(25.000000) translate(-228.005375, -358.997435) " cx="228.005375" cy="358.997435" rx="12.6191219" ry="25.007358"></ellipse>
                        <circle id="Left-Hand" fill="#000000" cx="47" cy="20" r="20"></circle>
                        <circle id="Right-Hand" fill="#000000" transform="translate(235.000000, 20.000000) scale(-1, 1) translate(-235.000000, -20.000000) " cx="235" cy="20" r="20"></circle>
                        <circle id="Head" fill="#000000" cx="141" cy="79" r="36"></circle>
                    </g>
                    <g id="Rig" transform="translate(70.000000, 109.000000)" fill="#000000">
                        <polygon id="Left-Leg-Strap" points="8.99804688 141.425781 52.8134766 171.421875 43.7158203 188.182617 0.639648438 159.78418"></polygon>
                        <polygon id="Left-Leg-Harness" points="30.8144531 132.661133 11.3427734 132.661133 12.638052 122.413937 28.1416016 115.120117"></polygon>
                        <polygon id="Right-Leg-Strap" transform="translate(115.086914, 164.378418) scale(-1, 1) translate(-115.086914, -164.378418) " points="97.3583984 141 141.173828 170.996094 132.076172 187.756836 89 159.358398"></polygon>
                        <polygon id="Right-Leg-Harness" transform="translate(120.735840, 123.770508) scale(-1, 1) translate(-120.735840, -123.770508) " points="130.47168 132.541016 111 132.541016 112.295279 122.29382 127.798828 115"></polygon>
                        <path d="M110,4 L100,0 L94,9 C94,9 82.5,14 71,14 C59.5,14 48,9 48,9 L42,0 L32,4 L34,17 C34,17 26,74 26,124 C26,131 32,136 36,136 C40,136 42,136 44,141 C46,146 96,146 98,141 C100,136 102,136 106,136 C110,136 116,131 116,124 C116,74 108,17 108,17 L110,4 Z"></path>
                    </g>
                </g>
                <g id="Tail" transform="translate(386.609582, 600.839055) rotate(-15.000000) translate(-386.609582, -600.839055) translate(245.609582, 401.839055)">
                    <g id="Skydiver">
                        <path d="M235,11.5 C236.756509,11.5 238.388771,12.0324107 239.743538,12.9454828 C241.158881,13.899381 242.272108,15.2675858 242.908235,16.8766584 L242.908235,16.8766584 L278.25554,84.6857921 C279.682737,87.1270995 280.5,89.9681507 280.5,93 C280.5,96.096103 279.647695,98.9932279 278.163982,101.468882 C276.619543,104.045862 274.391991,106.166573 271.731513,107.580534 L271.731513,107.580534 L198.327476,153.460659 C196.805471,154.333141 195.177492,155.045128 193.463572,155.558211 C193.126454,155.659131 192.787885,155.751795 192.448254,155.837206 C192.427637,156.237378 192.410124,156.601139 192.395302,156.927055 C191.946416,166.797307 190.803964,211.458531 204.062108,252.269762 L204.062108,252.269762 L256.473052,364.647235 C257.774154,367.496079 258.5,370.66329 258.5,374 C258.5,380.213203 255.981602,385.838203 251.909903,389.909903 C247.838203,393.981602 242.213203,396.5 236,396.5 C231.586892,396.5 227.470336,395.229899 223.996606,393.034402 C220.395983,390.758705 217.485461,387.489866 215.650471,383.612522 L215.650471,383.612522 L156.316185,274.70816 C155.641012,273.593434 155.045692,272.424946 154.538193,271.210615 C154.177661,270.535286 153.886935,269.948725 153.581737,269.334054 C152.340523,266.834238 150.855677,263.945092 148.388678,261.969178 C146.554013,260.499723 144.194286,259.5 141,259.5 C138.191277,259.5 135.762224,260.652887 133.757428,262.297003 C130.898469,264.641612 128.937461,267.984047 127.975232,269.910791 C127.315994,271.694788 126.56844,273.247625 125.683815,274.70816 L125.683815,274.70816 L66.3495294,383.612522 C64.5145392,387.489866 61.6040175,390.758705 58.0033943,393.034402 C54.5296642,395.229899 50.4131078,396.5 46,396.5 C39.7867966,396.5 34.1617966,393.981602 30.0900974,389.909903 C26.0183983,385.838203 23.5,380.213203 23.5,374 C23.5,370.661647 24.2265628,367.492955 25.5267035,364.6534 L25.5267035,364.6534 L77.7516386,252.664235 C88.578922,219.369466 89.4404209,167.643485 89.4975777,156.966024 C89.4994111,156.623531 89.5008691,156.238797 89.50146,155.816017 C89.1433135,155.727326 88.786525,155.62939 88.4314432,155.522104 C86.7572966,155.016273 85.1666395,154.316375 83.683847,153.451766 L83.683847,153.451766 L10.268386,107.58048 C7.6079524,106.166519 5.38043782,104.04583 3.83601824,101.468882 C2.35230544,98.9932279 1.5,96.096103 1.5,93 C1.5,89.9681507 2.31726343,87.1270995 3.74446048,84.6857921 L3.74446048,84.6857921 L39.0917651,16.8766584 C39.727892,15.2675858 40.8411191,13.899381 42.2564619,12.9454828 C43.6112292,12.0324107 45.2434906,11.5 47,11.5 C49.3472102,11.5 51.4722102,12.4513949 53.0104076,13.9895924 C54.5486051,15.5277898 55.5,17.6527898 55.5,20 C55.5,20.9612036 55.340845,21.8852304 55.0467839,22.7469132 L55.0467839,22.7469132 L37.6567855,83.8025689 L101.384221,112.378309 C107.37723,111.885153 110.857469,110.171667 112.898157,108.225276 C114.351188,106.839387 115.117167,105.306272 115.496993,103.878368 C115.828053,102.633793 115.859653,101.468105 115.789451,100.546987 L115.789451,100.546987 L166.211825,100.50161 C166.134943,101.428616 166.158227,102.605634 166.483122,103.863366 C166.855506,105.304941 167.616367,106.85315 169.071075,108.248448 C171.109744,110.203857 174.595898,111.91763 180.617681,112.377315 L180.617681,112.377315 L244.342195,83.8025721 L226.95322,22.7469237 C226.659156,21.885238 226.5,20.9612075 226.5,20 C226.5,17.6527898 227.451395,15.5277898 228.989592,13.9895924 C230.52779,12.4513949 232.65279,11.5 235,11.5 L235,11.5 Z" id="Body" stroke="#000000" stroke-width="3" fill="#F7E400"></path>
                        <ellipse id="Left-Foot" fill="#000000" transform="translate(54.005375, 358.997435) rotate(25.000000) translate(-54.005375, -358.997435) " cx="54.0053746" cy="358.997435" rx="12.6191219" ry="25.007358"></ellipse>
                        <ellipse id="Right-Foot" fill="#000000" transform="translate(228.005375, 358.997435) scale(-1, 1) rotate(25.000000) translate(-228.005375, -358.997435) " cx="228.005375" cy="358.997435" rx="12.6191219" ry="25.007358"></ellipse>
                        <circle id="Left-Hand" fill="#000000" cx="47" cy="20" r="20"></circle>
                        <circle id="Right-Hand" fill="#000000" transform="translate(235.000000, 20.000000) scale(-1, 1) translate(-235.000000, -20.000000) " cx="235" cy="20" r="20"></circle>
                        <circle id="Head" fill="#000000" cx="141" cy="79" r="36"></circle>
                    </g>
                    <g id="Rig" transform="translate(70.000000, 109.000000)" fill="#000000">
                        <polygon id="Left-Leg-Strap" points="8.99804688 141.425781 52.8134766 171.421875 43.7158203 188.182617 0.639648438 159.78418"></polygon>
                        <polygon id="Left-Leg-Harness" points="30.8144531 132.661133 11.3427734 132.661133 12.638052 122.413937 28.1416016 115.120117"></polygon>
                        <polygon id="Right-Leg-Strap" transform="translate(115.086914, 164.378418) scale(-1, 1) translate(-115.086914, -164.378418) " points="97.3583984 141 141.173828 170.996094 132.076172 187.756836 89 159.358398"></polygon>
                        <polygon id="Right-Leg-Harness" transform="translate(120.735840, 123.770508) scale(-1, 1) translate(-120.735840, -123.770508) " points="130.47168 132.541016 111 132.541016 112.295279 122.29382 127.798828 115"></polygon>
                        <path d="M110,4 L100,0 L94,9 C94,9 82.5,14 71,14 C59.5,14 48,9 48,9 L42,0 L32,4 L34,17 C34,17 26,74 26,124 C26,131 32,136 36,136 C40,136 42,136 44,141 C46,146 96,146 98,141 C100,136 102,136 106,136 C110,136 116,131 116,124 C116,74 108,17 108,17 L110,4 Z"></path>
                    </g>
                </g>
                <g id="Inside-Center" transform="translate(402.609582, 228.839055) scale(-1, 1) rotate(-180.000000) translate(-402.609582, -228.839055) translate(272.609582, 12.839055)">
                    <g id="Skydiver" transform="translate(130.000000, 216.000000) scale(-1, 1) translate(-130.000000, -216.000000) ">
                        <path d="M63,12.5 C65.3472102,12.5 67.4722102,13.4513949 69.0104076,14.9895924 C70.5486051,16.5277898 71.5,18.6527898 71.5,21 C71.5,21.9612033 71.340845,22.8852301 71.0467841,23.7469126 L71.0467841,23.7469126 L51.879091,91.0437837 L89.6405528,143.307442 C93.5634731,140.533912 93.9702317,136.768315 93.7839114,134.5 L93.7839114,134.5 L144.211959,134.5 C144.134917,135.427253 144.158039,136.604906 144.483122,137.863366 C144.855506,139.304941 145.616367,140.85315 147.071075,142.248448 C149.109744,144.203857 152.595897,145.91763 158.617681,146.377315 L158.617681,146.377315 L206.334745,124.980534 L172.418249,106.10125 C170.658053,105.540861 169.147163,104.422206 168.09217,102.954265 C167.089779,101.559516 166.5,99.8485809 166.5,98 C166.5,95.6527898 167.451395,93.5277898 168.989592,91.9895924 C170.52779,90.4513949 172.65279,89.5 175,89.5 C175.809296,89.5 176.592237,89.6127912 177.333807,89.823994 L177.333807,89.823994 L244.34443,110.66509 C246.156529,110.922631 247.873789,111.474725 249.446169,112.271374 L249.446169,112.271374 L250.358664,112.558556 C255.200704,115.591359 258.5,120.910235 258.5,127 C258.5,130.096103 257.647695,132.993228 256.163982,135.468882 C254.619543,138.045862 252.391991,140.166573 249.731513,141.580534 L249.731513,141.580534 L176.327476,187.460659 C174.805471,188.333141 173.177492,189.045128 171.463572,189.558211 C171.126454,189.659131 170.787885,189.751795 170.448254,189.837206 C170.427637,190.237378 170.410124,190.601139 170.395302,190.927055 C169.946416,200.797307 168.803964,245.458531 182.062108,286.269762 L182.062108,286.269762 L234.473052,398.647235 C235.774154,401.496079 236.5,404.66329 236.5,408 C236.5,414.213203 233.981602,419.838203 229.909903,423.909903 C225.838203,427.981602 220.213203,430.5 214,430.5 C209.586892,430.5 205.470336,429.229899 201.996606,427.034402 C198.395983,424.758705 195.485461,421.489866 193.650471,417.612522 L193.650471,417.612522 L134.316185,308.70816 C133.641012,307.593434 133.045692,306.424946 132.538193,305.210615 C132.177661,304.535286 131.886935,303.948725 131.581737,303.334054 C130.340523,300.834238 128.855677,297.945092 126.388678,295.969178 C124.554013,294.499723 122.194286,293.5 119,293.5 C116.191277,293.5 113.762224,294.652887 111.757428,296.297003 C108.898469,298.641612 106.937461,301.984047 105.975232,303.910791 C105.315994,305.694788 104.56844,307.247625 103.683815,308.70816 L103.683815,308.70816 L44.3495294,417.612522 C42.5145392,421.489866 39.6040175,424.758705 36.0033943,427.034402 C32.5296642,429.229899 28.4131078,430.5 24,430.5 C17.7867966,430.5 12.1617966,427.981602 8.09009742,423.909903 C4.01839828,419.838203 1.5,414.213203 1.5,408 C1.5,404.661647 2.22656284,401.492955 3.5267015,398.653405 L3.5267015,398.653405 L55.7506974,286.667167 C67.02513,251.997392 67.4932086,197.333746 67.5012828,189.85313 L67.5012828,189.85313 L67.5009995,189.209483 C67.4611358,188.767371 67.3516081,188.193855 67.1896042,187.372382 C67.1438576,187.140414 67.0938457,186.88684 67.0402362,186.608506 C66.9974965,186.386607 66.9584791,186.180168 66.9215117,185.98741 C66.7489319,185.877322 66.5777722,185.764842 66.4080882,185.649993 C62.2771784,182.854025 59.1245324,178.724358 57.5704322,173.878547 L57.5704322,173.878547 L19.1751743,101.641618 C18.1578594,99.2914481 17.5,96.7227174 17.5,94 C17.5,90.9681507 18.3172634,88.1270995 19.7444605,85.6857921 L19.7444605,85.6857921 L55.0917651,17.8766584 C55.727892,16.2675858 56.8411191,14.899381 58.2564619,13.9454828 C59.6112292,13.0324107 61.2434906,12.5 63,12.5 L63,12.5 Z" id="Body" stroke="#000000" stroke-width="3" fill="#0065FF"></path>
                        <ellipse id="Left-Foot" fill="#000000" transform="translate(32.005375, 392.997435) rotate(25.000000) translate(-32.005375, -392.997435) " cx="32.0053746" cy="392.997435" rx="12.6191219" ry="25.007358"></ellipse>
                        <ellipse id="Right-Foot" fill="#000000" transform="translate(206.005375, 392.997435) scale(-1, 1) rotate(25.000000) translate(-206.005375, -392.997435) " cx="206.005375" cy="392.997435" rx="12.6191219" ry="25.007358"></ellipse>
                        <circle id="Left-Hand" fill="#000000" cx="63" cy="20" r="20"></circle>
                        <circle id="Right-Hand" fill="#000000" transform="translate(175.000000, 98.000000) scale(-1, 1) translate(-175.000000, -98.000000) " cx="175" cy="98" r="20"></circle>
                        <circle id="Head" fill="#000000" cx="119" cy="113" r="36"></circle>
                    </g>
                    <g id="Rig" transform="translate(70.000000, 143.000000)" fill="#000000">
                        <polygon id="Left-Leg-Strap" points="8.99804688 141.425781 52.8134766 171.421875 43.7158203 188.182617 0.639648438 159.78418"></polygon>
                        <polygon id="Left-Leg-Harness" points="30.8144531 132.661133 11.3427734 132.661133 12.638052 122.413937 28.1416016 115.120117"></polygon>
                        <polygon id="Right-Leg-Strap" transform="translate(115.086914, 164.378418) scale(-1, 1) translate(-115.086914, -164.378418) " points="97.3583984 141 141.173828 170.996094 132.076172 187.756836 89 159.358398"></polygon>
                        <polygon id="Right-Leg-Harness" transform="translate(120.735840, 123.770508) scale(-1, 1) translate(-120.735840, -123.770508) " points="130.47168 132.541016 111 132.541016 112.295279 122.29382 127.798828 115"></polygon>
                        <path d="M110,4 L100,0 L94,9 C94,9 82.5,14 71,14 C59.5,14 48,9 48,9 L42,0 L32,4 L34,17 C34,17 26,74 26,124 C26,131 32,136 36,136 C40,136 42,136 44,141 C46,146 96,146 98,141 C100,136 102,136 106,136 C110,136 116,131 116,124 C116,74 108,17 108,17 L110,4 Z"></path>
                    </g>
                </g>
            </g>
            <g id="360°" transform="translate(0.000000, 861.591705)" fill="#000000">
                <path d="M149.375,53.2265625 L159.078125,53.2265625 C173.070312,53.2265625 181.578125,60.46875 181.71875,71.71875 C181.859375,82.7578125 173.5625,90.9140625 159.21875,90.9140625 C145.578125,90.9140625 139.179688,82.8984375 137.984375,73.546875 L128,73.546875 C128.632812,87.9609375 138.617188,100.125 158.867188,100.125 C178.554688,100.125 192.6875,87.890625 192.40625,71.578125 C192.054688,55.96875 179.398438,48.8671875 170.890625,48.1640625 L170.890625,48.0234375 C178.625,46.828125 189.03125,38.109375 188.679688,24.3984375 C188.328125,10.6875 176.9375,0 159.148438,0 C139.882812,0 130.671875,13.78125 130.460938,25.59375 L140.585938,25.59375 C141.148438,18.2109375 146.28125,9.28125 159.148438,9.28125 C170.75,9.28125 177.921875,16.2421875 177.992188,26.15625 C178.0625,36.3515625 170.117188,43.875 158.445312,43.875 L149.375,43.875 L149.375,53.2265625 Z M270.382812,24.1875 C269.257812,12.65625 259.132812,0.3515625 242.046875,0.3515625 C221.65625,0.3515625 206.398438,17.4375 206.398438,54.421875 C206.398438,85.78125 220.390625,99.984375 240.429688,99.984375 C258.5,99.984375 272.914062,87.8203125 272.914062,67.4296875 C272.914062,47.0390625 257.023438,35.859375 241.484375,35.859375 C228.898438,35.859375 219.617188,43.171875 216.734375,50.765625 L216.59375,50.765625 C217.4375,21.234375 228.6875,9.5625 241.554688,9.5625 C253.367188,9.5625 259.203125,18.2109375 259.765625,24.1875 L270.382812,24.1875 Z M218.28125,67.921875 C218.28125,53.3671875 228.757812,45.2109375 240.5,45.2109375 C251.398438,45.2109375 262.507812,52.59375 262.507812,68.0625 C262.507812,83.4609375 251.890625,90.7734375 240.570312,90.7734375 C228.898438,90.7734375 218.28125,82.828125 218.28125,67.921875 L218.28125,67.921875 Z M296.1875,46.40625 C296.1875,22.8515625 304.765625,9.28125 318.757812,9.28125 C332.75,9.28125 341.328125,22.8515625 341.328125,46.40625 L341.328125,53.859375 C341.328125,77.34375 332.75,90.7734375 318.757812,90.7734375 C304.765625,90.7734375 296.1875,77.34375 296.1875,53.859375 L296.1875,46.40625 Z M285.710938,53.9296875 C285.710938,82.40625 297.523438,100.054688 318.757812,100.054688 C339.992188,100.054688 351.664062,82.40625 351.664062,53.9296875 L351.664062,46.3359375 C351.664062,17.859375 339.992188,0 318.757812,0 C297.523438,0 285.710938,17.9296875 285.710938,46.3359375 L285.710938,53.9296875 Z M377.46875,30.8671875 C385.695312,30.8671875 392.445312,24.1171875 392.445312,15.890625 C392.445312,7.59375 385.695312,0.9140625 377.46875,0.9140625 C369.101562,0.9140625 362.421875,7.59375 362.421875,15.890625 C362.421875,24.1171875 369.101562,30.8671875 377.46875,30.8671875 L377.46875,30.8671875 Z M377.46875,24.1171875 C373.039062,24.1171875 369.242188,20.25 369.242188,15.890625 C369.242188,11.25 373.039062,7.59375 377.46875,7.59375 C382.039062,7.59375 385.695312,11.25 385.695312,15.890625 C385.695312,20.25 382.039062,24.1171875 377.46875,24.1171875 L377.46875,24.1171875 Z"></path>
                <path d="M86.2734375,81.6484375 C94.0547264,72.554642 97.9453125,61.9844352 97.9453125,49.9375 C97.9453125,36.4843077 93.1289544,24.9648917 83.4960938,15.3789062 C73.8632331,5.79292082 62.343817,1 48.9375,1 C35.531183,1 24.0234855,5.81635809 14.4140625,15.4492188 C4.80463945,25.0820794 0,36.5780582 0,49.9375 C0,63.2031913 4.54682953,74.5468279 13.640625,83.96875 L0.140625,90.015625 L33.6796875,98.9453125 L24.75,65.3359375 L18.5625,79.046875 C10.7812111,70.843709 6.890625,61.140681 6.890625,49.9375 C6.890625,38.4061923 11.0155837,28.5156663 19.265625,20.265625 C27.5156663,12.0155838 37.4061923,7.890625 48.9375,7.890625 C60.4688077,7.890625 70.3593337,12.0155838 78.609375,20.265625 C86.8594162,28.5156663 90.984375,38.4061923 90.984375,49.9375 C90.984375,60.2969268 87.632846,69.4140231 80.9296875,77.2890625 L86.2734375,81.6484375 Z" id="↺"></path>
            </g>
            <g id="Point" transform="translate(916.000000, 220.461136) rotate(-170.000000) translate(-916.000000, -220.461136) translate(775.000000, 21.461136)">
                <g id="Skydiver">
                    <path d="M235,11.5 C236.756509,11.5 238.388771,12.0324107 239.743538,12.9454828 C241.158881,13.899381 242.272108,15.2675858 242.908235,16.8766584 L242.908235,16.8766584 L278.25554,84.6857921 C279.682737,87.1270995 280.5,89.9681507 280.5,93 C280.5,96.096103 279.647695,98.9932279 278.163982,101.468882 C276.619543,104.045862 274.391991,106.166573 271.731513,107.580534 L271.731513,107.580534 L198.327476,153.460659 C196.805471,154.333141 195.177492,155.045128 193.463572,155.558211 C193.126454,155.659131 192.787885,155.751795 192.448254,155.837206 C192.427637,156.237378 192.410124,156.601139 192.395302,156.927055 C191.946416,166.797307 190.803964,211.458531 204.062108,252.269762 L204.062108,252.269762 L256.473052,364.647235 C257.774154,367.496079 258.5,370.66329 258.5,374 C258.5,380.213203 255.981602,385.838203 251.909903,389.909903 C247.838203,393.981602 242.213203,396.5 236,396.5 C231.586892,396.5 227.470336,395.229899 223.996606,393.034402 C220.395983,390.758705 217.485461,387.489866 215.650471,383.612522 L215.650471,383.612522 L156.316185,274.70816 C155.641012,273.593434 155.045692,272.424946 154.538193,271.210615 C154.177661,270.535286 153.886935,269.948725 153.581737,269.334054 C152.340523,266.834238 150.855677,263.945092 148.388678,261.969178 C146.554013,260.499723 144.194286,259.5 141,259.5 C138.191277,259.5 135.762224,260.652887 133.757428,262.297003 C130.898469,264.641612 128.937461,267.984047 127.975232,269.910791 C127.315994,271.694788 126.56844,273.247625 125.683815,274.70816 L125.683815,274.70816 L66.3495294,383.612522 C64.5145392,387.489866 61.6040175,390.758705 58.0033943,393.034402 C54.5296642,395.229899 50.4131078,396.5 46,396.5 C39.7867966,396.5 34.1617966,393.981602 30.0900974,389.909903 C26.0183983,385.838203 23.5,380.213203 23.5,374 C23.5,370.661647 24.2265628,367.492955 25.5267035,364.6534 L25.5267035,364.6534 L77.7516386,252.664235 C88.578922,219.369466 89.4404209,167.643485 89.4975777,156.966024 C89.4994111,156.623531 89.5008691,156.238797 89.50146,155.816017 C89.1433135,155.727326 88.786525,155.62939 88.4314432,155.522104 C86.7572966,155.016273 85.1666395,154.316375 83.683847,153.451766 L83.683847,153.451766 L10.268386,107.58048 C7.6079524,106.166519 5.38043782,104.04583 3.83601824,101.468882 C2.35230544,98.9932279 1.5,96.096103 1.5,93 C1.5,89.9681507 2.31726343,87.1270995 3.74446048,84.6857921 L3.74446048,84.6857921 L39.0917651,16.8766584 C39.727892,15.2675858 40.8411191,13.899381 42.2564619,12.9454828 C43.6112292,12.0324107 45.2434906,11.5 47,11.5 C49.3472102,11.5 51.4722102,12.4513949 53.0104076,13.9895924 C54.5486051,15.5277898 55.5,17.6527898 55.5,20 C55.5,20.9612036 55.340845,21.8852304 55.0467839,22.7469132 L55.0467839,22.7469132 L37.6567855,83.8025689 L101.384221,112.378309 C107.37723,111.885153 110.857469,110.171667 112.898157,108.225276 C114.351188,106.839387 115.117167,105.306272 115.496993,103.878368 C115.828053,102.633793 115.859653,101.468105 115.789451,100.546987 L115.789451,100.546987 L166.211825,100.50161 C166.134943,101.428616 166.158227,102.605634 166.483122,103.863366 C166.855506,105.304941 167.616367,106.85315 169.071075,108.248448 C171.109744,110.203857 174.595898,111.91763 180.617681,112.377315 L180.617681,112.377315 L244.342195,83.8025721 L226.95322,22.7469237 C226.659156,21.885238 226.5,20.9612075 226.5,20 C226.5,17.6527898 227.451395,15.5277898 228.989592,13.9895924 C230.52779,12.4513949 232.65279,11.5 235,11.5 L235,11.5 Z" id="Body" stroke="#000000" stroke-width="3" fill="#E02020"></path>
                    <ellipse id="Left-Foot" fill="#000000" transform="translate(54.005375, 358.997435) rotate(25.000000) translate(-54.005375, -358.997435) " cx="54.0053746" cy="358.997435" rx="12.6191219" ry="25.007358"></ellipse>
                    <ellipse id="Right-Foot" fill="#000000" transform="translate(228.005375, 358.997435) scale(-1, 1) rotate(25.000000) translate(-228.005375, -358.997435) " cx="228.005375" cy="358.997435" rx="12.6191219" ry="25.007358"></ellipse>
                    <circle id="Left-Hand" fill="#000000" cx="47" cy="20" r="20"></circle>
                    <circle id="Right-Hand" fill="#000000" transform="translate(235.000000, 20.000000) scale(-1, 1) translate(-235.000000, -20.000000) " cx="235" cy="20" r="20"></circle>
                    <circle id="Head" fill="#000000" cx="141" cy="79" r="36"></circle>
                </g>
                <g id="Rig" transform="translate(70.000000, 109.000000)" fill="#000000">
                    <polygon id="Left-Leg-Strap" points="8.99804688 141.425781 52.8134766 171.421875 43.7158203 188.182617 0.639648438 159.78418"></polygon>
                    <polygon id="Left-Leg-Harness" points="30.8144531 132.661133 11.3427734 132.661133 12.638052 122.413937 28.1416016 115.120117"></polygon>
                    <polygon id="Right-Leg-Strap" transform="translate(115.086914, 164.378418) scale(-1, 1) translate(-115.086914, -164.378418) " points="97.3583984 141 141.173828 170.996094 132.076172 187.756836 89 159.358398"></polygon>
                    <polygon id="Right-Leg-Harness" transform="translate(120.735840, 123.770508) scale(-1, 1) translate(-120.735840, -123.770508) " points="130.47168 132.541016 111 132.541016 112.295279 122.29382 127.798828 115"></polygon>
                    <path d="M110,4 L100,0 L94,9 C94,9 82.5,14 71,14 C59.5,14 48,9 48,9 L42,0 L32,4 L34,17 C34,17 26,74 26,124 C26,131 32,136 36,136 C40,136 42,136 44,141 C46,146 96,146 98,141 C100,136 102,136 106,136 C110,136 116,131 116,124 C116,74 108,17 108,17 L110,4 Z"></path>
                </g>
            </g>
            <g id="360°" transform="translate(993.000000, 183.591705)" fill="#000000">
                <path d="M149.375,53.2265625 L159.078125,53.2265625 C173.070312,53.2265625 181.578125,60.46875 181.71875,71.71875 C181.859375,82.7578125 173.5625,90.9140625 159.21875,90.9140625 C145.578125,90.9140625 139.179688,82.8984375 137.984375,73.546875 L128,73.546875 C128.632812,87.9609375 138.617188,100.125 158.867188,100.125 C178.554688,100.125 192.6875,87.890625 192.40625,71.578125 C192.054688,55.96875 179.398438,48.8671875 170.890625,48.1640625 L170.890625,48.0234375 C178.625,46.828125 189.03125,38.109375 188.679688,24.3984375 C188.328125,10.6875 176.9375,0 159.148438,0 C139.882812,0 130.671875,13.78125 130.460938,25.59375 L140.585938,25.59375 C141.148438,18.2109375 146.28125,9.28125 159.148438,9.28125 C170.75,9.28125 177.921875,16.2421875 177.992188,26.15625 C178.0625,36.3515625 170.117188,43.875 158.445312,43.875 L149.375,43.875 L149.375,53.2265625 Z M270.382812,24.1875 C269.257812,12.65625 259.132812,0.3515625 242.046875,0.3515625 C221.65625,0.3515625 206.398438,17.4375 206.398438,54.421875 C206.398438,85.78125 220.390625,99.984375 240.429688,99.984375 C258.5,99.984375 272.914062,87.8203125 272.914062,67.4296875 C272.914062,47.0390625 257.023438,35.859375 241.484375,35.859375 C228.898438,35.859375 219.617188,43.171875 216.734375,50.765625 L216.59375,50.765625 C217.4375,21.234375 228.6875,9.5625 241.554688,9.5625 C253.367188,9.5625 259.203125,18.2109375 259.765625,24.1875 L270.382812,24.1875 Z M218.28125,67.921875 C218.28125,53.3671875 228.757812,45.2109375 240.5,45.2109375 C251.398438,45.2109375 262.507812,52.59375 262.507812,68.0625 C262.507812,83.4609375 251.890625,90.7734375 240.570312,90.7734375 C228.898438,90.7734375 218.28125,82.828125 218.28125,67.921875 L218.28125,67.921875 Z M296.1875,46.40625 C296.1875,22.8515625 304.765625,9.28125 318.757812,9.28125 C332.75,9.28125 341.328125,22.8515625 341.328125,46.40625 L341.328125,53.859375 C341.328125,77.34375 332.75,90.7734375 318.757812,90.7734375 C304.765625,90.7734375 296.1875,77.34375 296.1875,53.859375 L296.1875,46.40625 Z M285.710938,53.9296875 C285.710938,82.40625 297.523438,100.054688 318.757812,100.054688 C339.992188,100.054688 351.664062,82.40625 351.664062,53.9296875 L351.664062,46.3359375 C351.664062,17.859375 339.992188,0 318.757812,0 C297.523438,0 285.710938,17.9296875 285.710938,46.3359375 L285.710938,53.9296875 Z M377.46875,30.8671875 C385.695312,30.8671875 392.445312,24.1171875 392.445312,15.890625 C392.445312,7.59375 385.695312,0.9140625 377.46875,0.9140625 C369.101562,0.9140625 362.421875,7.59375 362.421875,15.890625 C362.421875,24.1171875 369.101562,30.8671875 377.46875,30.8671875 L377.46875,30.8671875 Z M377.46875,24.1171875 C373.039062,24.1171875 369.242188,20.25 369.242188,15.890625 C369.242188,11.25 373.039062,7.59375 377.46875,7.59375 C382.039062,7.59375 385.695312,11.25 385.695312,15.890625 C385.695312,20.25 382.039062,24.1171875 377.46875,24.1171875 L377.46875,24.1171875 Z"></path>
                <path d="M84.234375,83.96875 C93.3750457,74.5468279 97.9453125,63.2031913 97.9453125,49.9375 C97.9453125,36.5780582 93.1289544,25.0820794 83.4960938,15.4492188 C73.8632331,5.81635809 62.343817,1 48.9375,1 C35.531183,1 24.0234855,5.79292082 14.4140625,15.3789062 C4.80463945,24.9648917 0,36.4843077 0,49.9375 C0,61.9844352 3.89058609,72.554642 11.671875,81.6484375 L17.015625,77.2890625 C10.2655912,69.4140231 6.890625,60.2969268 6.890625,49.9375 C6.890625,38.4061923 11.0155837,28.5156663 19.265625,20.265625 C27.5156663,12.0155838 37.4061923,7.890625 48.9375,7.890625 C60.4688077,7.890625 70.3593337,12.0155838 78.609375,20.265625 C86.8594162,28.5156663 90.984375,38.4061923 90.984375,49.9375 C90.984375,61.140681 87.0937889,70.843709 79.3125,79.046875 L73.125,65.3359375 L64.1953125,98.9453125 L97.734375,90.015625 L84.234375,83.96875 Z" id="↻"></path>
            </g>
        </g>
        <g id="Top" transform="translate(454.500000, 512.708153) rotate(-5.000000) translate(-454.500000, -512.708153) translate(150.000000, -29.000000)">
            <g id="Point" transform="translate(241.000000, 240.416306) rotate(-315.000000) translate(-241.000000, -240.416306) translate(100.000000, 41.416306)">
                <g id="Skydiver">
                    <path d="M235,11.5 C236.756509,11.5 238.388771,12.0324107 239.743538,12.9454828 C241.158881,13.899381 242.272108,15.2675858 242.908235,16.8766584 L242.908235,16.8766584 L278.25554,84.6857921 C279.682737,87.1270995 280.5,89.9681507 280.5,93 C280.5,96.096103 279.647695,98.9932279 278.163982,101.468882 C276.619543,104.045862 274.391991,106.166573 271.731513,107.580534 L271.731513,107.580534 L198.327476,153.460659 C196.805471,154.333141 195.177492,155.045128 193.463572,155.558211 C193.126454,155.659131 192.787885,155.751795 192.448254,155.837206 C192.427637,156.237378 192.410124,156.601139 192.395302,156.927055 C191.946416,166.797307 190.803964,211.458531 204.062108,252.269762 L204.062108,252.269762 L256.473052,364.647235 C257.774154,367.496079 258.5,370.66329 258.5,374 C258.5,380.213203 255.981602,385.838203 251.909903,389.909903 C247.838203,393.981602 242.213203,396.5 236,396.5 C231.586892,396.5 227.470336,395.229899 223.996606,393.034402 C220.395983,390.758705 217.485461,387.489866 215.650471,383.612522 L215.650471,383.612522 L156.316185,274.70816 C155.641012,273.593434 155.045692,272.424946 154.538193,271.210615 C154.177661,270.535286 153.886935,269.948725 153.581737,269.334054 C152.340523,266.834238 150.855677,263.945092 148.388678,261.969178 C146.554013,260.499723 144.194286,259.5 141,259.5 C138.191277,259.5 135.762224,260.652887 133.757428,262.297003 C130.898469,264.641612 128.937461,267.984047 127.975232,269.910791 C127.315994,271.694788 126.56844,273.247625 125.683815,274.70816 L125.683815,274.70816 L66.3495294,383.612522 C64.5145392,387.489866 61.6040175,390.758705 58.0033943,393.034402 C54.5296642,395.229899 50.4131078,396.5 46,396.5 C39.7867966,396.5 34.1617966,393.981602 30.0900974,389.909903 C26.0183983,385.838203 23.5,380.213203 23.5,374 C23.5,370.661647 24.2265628,367.492955 25.5267035,364.6534 L25.5267035,364.6534 L77.7516386,252.664235 C88.578922,219.369466 89.4404209,167.643485 89.4975777,156.966024 C89.4994111,156.623531 89.5008691,156.238797 89.50146,155.816017 C89.1433135,155.727326 88.786525,155.62939 88.4314432,155.522104 C86.7572966,155.016273 85.1666395,154.316375 83.683847,153.451766 L83.683847,153.451766 L10.268386,107.58048 C7.6079524,106.166519 5.38043782,104.04583 3.83601824,101.468882 C2.35230544,98.9932279 1.5,96.096103 1.5,93 C1.5,89.9681507 2.31726343,87.1270995 3.74446048,84.6857921 L3.74446048,84.6857921 L39.0917651,16.8766584 C39.727892,15.2675858 40.8411191,13.899381 42.2564619,12.9454828 C43.6112292,12.0324107 45.2434906,11.5 47,11.5 C49.3472102,11.5 51.4722102,12.4513949 53.0104076,13.9895924 C54.5486051,15.5277898 55.5,17.6527898 55.5,20 C55.5,20.9612036 55.340845,21.8852304 55.0467839,22.7469132 L55.0467839,22.7469132 L37.6567855,83.8025689 L101.384221,112.378309 C107.37723,111.885153 110.857469,110.171667 112.898157,108.225276 C114.351188,106.839387 115.117167,105.306272 115.496993,103.878368 C115.828053,102.633793 115.859653,101.468105 115.789451,100.546987 L115.789451,100.546987 L166.211825,100.50161 C166.134943,101.428616 166.158227,102.605634 166.483122,103.863366 C166.855506,105.304941 167.616367,106.85315 169.071075,108.248448 C171.109744,110.203857 174.595898,111.91763 180.617681,112.377315 L180.617681,112.377315 L244.342195,83.8025721 L226.95322,22.7469237 C226.659156,21.885238 226.5,20.9612075 226.5,20 C226.5,17.6527898 227.451395,15.5277898 228.989592,13.9895924 C230.52779,12.4513949 232.65279,11.5 235,11.5 L235,11.5 Z" id="Body" stroke="#000000" stroke-width="3" fill="#E02020"></path>
                    <ellipse id="Left-Foot" fill="#000000" transform="translate(54.005375, 358.997435) rotate(25.000000) translate(-54.005375, -358.997435) " cx="54.0053746" cy="358.997435" rx="12.6191219" ry="25.007358"></ellipse>
                    <ellipse id="Right-Foot" fill="#000000" transform="translate(228.005375, 358.997435) scale(-1, 1) rotate(25.000000) translate(-228.005375, -358.997435) " cx="228.005375" cy="358.997435" rx="12.6191219" ry="25.007358"></ellipse>
                    <circle id="Left-Hand" fill="#000000" cx="47" cy="20" r="20"></circle>
                    <circle id="Right-Hand" fill="#000000" transform="translate(235.000000, 20.000000) scale(-1, 1) translate(-235.000000, -20.000000) " cx="235" cy="20" r="20"></circle>
                    <circle id="Head" fill="#000000" cx="141" cy="79" r="36"></circle>
                </g>
                <g id="Rig" transform="translate(70.000000, 109.000000)" fill="#000000">
                    <polygon id="Left-Leg-Strap" points="8.99804688 141.425781 52.8134766 171.421875 43.7158203 188.182617 0.639648438 159.78418"></polygon>
                    <polygon id="Left-Leg-Harness" points="30.8144531 132.661133 11.3427734 132.661133 12.638052 122.413937 28.1416016 115.120117"></polygon>
                    <polygon id="Right-Leg-Strap" transform="translate(115.086914, 164.378418) scale(-1, 1) translate(-115.086914, -164.378418) " points="97.3583984 141 141.173828 170.996094 132.076172 187.756836 89 159.358398"></polygon>
                    <polygon id="Right-Leg-Harness" transform="translate(120.735840, 123.770508) scale(-1, 1) translate(-120.735840, -123.770508) " points="130.47168 132.541016 111 132.541016 112.295279 122.29382 127.798828 115"></polygon>
                    <path d="M110,4 L100,0 L94,9 C94,9 82.5,14 71,14 C59.5,14 48,9 48,9 L42,0 L32,4 L34,17 C34,17 26,74 26,124 C26,131 32,136 36,136 C40,136 42,136 44,141 C46,146 96,146 98,141 C100,136 102,136 106,136 C110,136 116,131 116,124 C116,74 108,17 108,17 L110,4 Z"></path>
                </g>
            </g>
            <g id="Outside-Center" transform="translate(151.000000, 515.416306) scale(-1, 1) translate(-151.000000, -515.416306) translate(22.000000, 299.416306)">
                <g id="Skydiver" transform="translate(129.000000, 216.000000) scale(-1, 1) translate(-129.000000, -216.000000) ">
                    <path d="M63,12.5 C65.3472102,12.5 67.4722102,13.4513949 69.0104076,14.9895924 C70.5486051,16.5277898 71.5,18.6527898 71.5,21 C71.5,21.9612033 71.340845,22.8852301 71.0467841,23.7469126 L71.0467841,23.7469126 L51.879091,91.0437837 L89.6405528,143.307442 C93.5634731,140.533912 93.9702317,136.768315 93.7839114,134.5 L93.7839114,134.5 L144.212882,134.5 C144.142058,135.35311 144.155872,136.418627 144.412043,137.563623 C144.720301,138.941427 145.373079,140.433166 146.640163,141.808441 C148.442484,143.764655 151.55141,145.54468 156.981152,146.214845 L156.981152,146.214845 L220.342192,117.802563 L202.95322,56.7469237 C202.659156,55.885238 202.5,54.9612075 202.5,54 C202.5,51.6527898 203.451395,49.5277898 204.989592,47.9895924 C206.52779,46.4513949 208.65279,45.5 211,45.5 C212.756509,45.5 214.388771,46.0324107 215.743538,46.9454828 C217.158881,47.899381 218.272108,49.2675858 218.908235,50.8766584 L218.908235,50.8766584 L254.25554,118.685792 C255.682737,121.1271 256.5,123.968151 256.5,127 C256.5,130.096103 255.647695,132.993228 254.163982,135.468882 C252.619543,138.045862 250.391991,140.166573 247.731513,141.580534 L247.731513,141.580534 L174.330258,187.458921 C173.380794,187.997697 172.394332,188.481289 171.370694,188.89183 C171.076827,189.009688 170.781014,189.121078 170.483596,189.227129 C170.462575,189.597919 170.445191,189.925677 170.430949,190.20863 C170.017951,198.41375 168.450566,244.370702 182.062108,286.269762 L182.062108,286.269762 L234.473052,398.647235 C235.774154,401.496079 236.5,404.66329 236.5,408 C236.5,414.213203 233.981602,419.838203 229.909903,423.909903 C225.838203,427.981602 220.213203,430.5 214,430.5 C209.586892,430.5 205.470336,429.229899 201.996606,427.034402 C198.395983,424.758705 195.485461,421.489866 193.650471,417.612522 L193.650471,417.612522 L134.316185,308.70816 C133.641012,307.593434 133.045692,306.424946 132.538193,305.210615 C132.177661,304.535286 131.886935,303.948725 131.581737,303.334054 C130.340523,300.834238 128.855677,297.945092 126.388678,295.969178 C124.554013,294.499723 122.194286,293.5 119,293.5 C116.191277,293.5 113.762224,294.652887 111.757428,296.297003 C108.898469,298.641612 106.937461,301.984047 105.975232,303.910791 C105.315994,305.694788 104.56844,307.247625 103.683815,308.70816 L103.683815,308.70816 L44.3495294,417.612522 C42.5145392,421.489866 39.6040175,424.758705 36.0033943,427.034402 C32.5296642,429.229899 28.4131078,430.5 24,430.5 C17.7867966,430.5 12.1617966,427.981602 8.09009742,423.909903 C4.01839828,419.838203 1.5,414.213203 1.5,408 C1.5,404.661647 2.22656284,401.492955 3.5267015,398.653405 L3.5267015,398.653405 L55.7506974,286.667167 C67.02513,251.997392 67.4932086,197.333746 67.5012828,189.85313 L67.5012828,189.85313 L67.5009995,189.209483 C67.4611358,188.767371 67.3516081,188.193855 67.1896042,187.372382 C67.1438576,187.140414 67.0938457,186.88684 67.0402362,186.608506 C66.9974965,186.386607 66.9584791,186.180168 66.9215117,185.98741 C66.7489319,185.877322 66.5777722,185.764842 66.4080882,185.649993 C62.2771784,182.854025 59.1245324,178.724358 57.5704322,173.878547 L57.5704322,173.878547 L19.1751743,101.641618 C18.1578594,99.2914481 17.5,96.7227174 17.5,94 C17.5,90.9681507 18.3172634,88.1270995 19.7444605,85.6857921 L19.7444605,85.6857921 L55.0917651,17.8766584 C55.727892,16.2675858 56.8411191,14.899381 58.2564619,13.9454828 C59.6112292,13.0324107 61.2434906,12.5 63,12.5 L63,12.5 Z" id="Body" stroke="#000000" stroke-width="3" fill="#6DD400"></path>
                    <circle id="Right-Hand" fill="#000000" transform="translate(210.000000, 51.000000) scale(-1, 1) translate(-210.000000, -51.000000) " cx="210" cy="51" r="20"></circle>
                    <ellipse id="Left-Foot" fill="#000000" transform="translate(32.005375, 392.997435) rotate(25.000000) translate(-32.005375, -392.997435) " cx="32.0053746" cy="392.997435" rx="12.6191219" ry="25.007358"></ellipse>
                    <ellipse id="Right-Foot" fill="#000000" transform="translate(206.005375, 392.997435) scale(-1, 1) rotate(25.000000) translate(-206.005375, -392.997435) " cx="206.005375" cy="392.997435" rx="12.6191219" ry="25.007358"></ellipse>
                    <circle id="Left-Hand" fill="#000000" cx="63" cy="20" r="20"></circle>
                    <circle id="Head" fill="#000000" cx="119" cy="113" r="36"></circle>
                </g>
                <g id="Rig" transform="translate(68.000000, 143.000000)" fill="#000000">
                    <polygon id="Left-Leg-Strap" points="8.99804688 141.425781 52.8134766 171.421875 43.7158203 188.182617 0.639648438 159.78418"></polygon>
                    <polygon id="Left-Leg-Harness" points="30.8144531 132.661133 11.3427734 132.661133 12.638052 122.413937 28.1416016 115.120117"></polygon>
                    <polygon id="Right-Leg-Strap" transform="translate(115.086914, 164.378418) scale(-1, 1) translate(-115.086914, -164.378418) " points="97.3583984 141 141.173828 170.996094 132.076172 187.756836 89 159.358398"></polygon>
                    <polygon id="Right-Leg-Harness" transform="translate(120.735840, 123.770508) scale(-1, 1) translate(-120.735840, -123.770508) " points="130.47168 132.541016 111 132.541016 112.295279 122.29382 127.798828 115"></polygon>
                    <path d="M110,4 L100,0 L94,9 C94,9 82.5,14 71,14 C59.5,14 48,9 48,9 L42,0 L32,4 L34,17 C34,17 26,74 26,124 C26,131 32,136 36,136 C40,136 42,136 44,141 C46,146 96,146 98,141 C100,136 102,136 106,136 C110,136 116,131 116,124 C116,74 108,17 108,17 L110,4 Z"></path>
                </g>
            </g>
            <g id="Tail" transform="translate(0.000000, 685.416306)">
                <g id="Skydiver">
                    <path d="M47,11.5 C49.3472102,11.5 51.4722102,12.4513949 53.0104076,13.9895924 C54.5486051,15.5277898 55.5,17.6527898 55.5,20 C55.5,20.9612036 55.340845,21.8852304 55.0467839,22.7469132 L55.0467839,22.7469132 L37.6567855,83.8025689 L101.384221,112.378309 C107.37723,111.885153 110.857469,110.171667 112.898157,108.225276 C114.351188,106.839387 115.117167,105.306272 115.496993,103.878368 C115.828053,102.633793 115.859653,101.468105 115.789451,100.546987 L115.789451,100.546987 L166.211825,100.50161 C166.134943,101.428616 166.158227,102.605634 166.483122,103.863366 C166.855506,105.304941 167.616367,106.85315 169.071075,108.248448 C171.109744,110.203857 174.595897,111.91763 180.617681,112.377315 L180.617681,112.377315 L228.334745,90.9805339 L194.418249,72.1012501 C192.658053,71.5408611 191.147163,70.4222057 190.09217,68.9542651 C189.089779,67.5595164 188.5,65.8485809 188.5,64 C188.5,61.6527898 189.451395,59.5277898 190.989592,57.9895924 C192.52779,56.4513949 194.65279,55.5 197,55.5 C197.809296,55.5 198.592237,55.6127912 199.333807,55.823994 L199.333807,55.823994 L266.34443,76.6650902 C268.156529,76.9226311 269.873789,77.4747247 271.446169,78.2713738 L271.446169,78.2713738 L272.358664,78.5585558 C277.200704,81.5913589 280.5,86.9102349 280.5,93 C280.5,96.096103 279.647695,98.9932279 278.163982,101.468882 C276.619543,104.045862 274.391991,106.166573 271.731513,107.580534 L271.731513,107.580534 L198.327476,153.460659 C196.805471,154.333141 195.177492,155.045128 193.463572,155.558211 C193.126454,155.659131 192.787885,155.751795 192.448254,155.837206 C192.427637,156.237378 192.410124,156.601139 192.395302,156.927055 C191.946416,166.797307 190.803964,211.458531 204.062108,252.269762 L204.062108,252.269762 L256.473052,364.647235 C257.774154,367.496079 258.5,370.66329 258.5,374 C258.5,380.213203 255.981602,385.838203 251.909903,389.909903 C247.838203,393.981602 242.213203,396.5 236,396.5 C231.586892,396.5 227.470336,395.229899 223.996606,393.034402 C220.395983,390.758705 217.485461,387.489866 215.650471,383.612522 L215.650471,383.612522 L156.316185,274.70816 C155.641012,273.593434 155.045692,272.424946 154.538193,271.210615 C154.177661,270.535286 153.886935,269.948725 153.581737,269.334054 C152.340523,266.834238 150.855677,263.945092 148.388678,261.969178 C146.554013,260.499723 144.194286,259.5 141,259.5 C138.191277,259.5 135.762224,260.652887 133.757428,262.297003 C130.898469,264.641612 128.937461,267.984047 127.975232,269.910791 C127.315994,271.694788 126.56844,273.247625 125.683815,274.70816 L125.683815,274.70816 L66.3495294,383.612522 C64.5145392,387.489866 61.6040175,390.758705 58.0033943,393.034402 C54.5296642,395.229899 50.4131078,396.5 46,396.5 C39.7867966,396.5 34.1617966,393.981602 30.0900974,389.909903 C26.0183983,385.838203 23.5,380.213203 23.5,374 C23.5,370.661647 24.2265628,367.492955 25.5267035,364.6534 L25.5267035,364.6534 L77.7516386,252.664235 C88.578922,219.369466 89.4404209,167.643485 89.4975777,156.966024 C89.4994111,156.623531 89.5008691,156.238797 89.50146,155.816017 C89.1433135,155.727326 88.786525,155.62939 88.4314432,155.522104 C86.7572966,155.016273 85.1666395,154.316375 83.683847,153.451766 L83.683847,153.451766 L10.268386,107.58048 C7.6079524,106.166519 5.38043782,104.04583 3.83601824,101.468882 C2.35230544,98.9932279 1.5,96.096103 1.5,93 C1.5,89.9681507 2.31726343,87.1270995 3.74446048,84.6857921 L3.74446048,84.6857921 L39.0917651,16.8766584 C39.727892,15.2675858 40.8411191,13.899381 42.2564619,12.9454828 C43.6112292,12.0324107 45.2434906,11.5 47,11.5 Z" id="Body" stroke="#000000" stroke-width="3" fill="#F7E400"></path>
                    <ellipse id="Left-Foot" fill="#000000" transform="translate(54.005375, 358.997435) rotate(25.000000) translate(-54.005375, -358.997435) " cx="54.0053746" cy="358.997435" rx="12.6191219" ry="25.007358"></ellipse>
                    <ellipse id="Right-Foot" fill="#000000" transform="translate(228.005375, 358.997435) scale(-1, 1) rotate(25.000000) translate(-228.005375, -358.997435) " cx="228.005375" cy="358.997435" rx="12.6191219" ry="25.007358"></ellipse>
                    <circle id="Left-Hand" fill="#000000" cx="47" cy="20" r="20"></circle>
                    <circle id="Right-Hand" fill="#000000" transform="translate(197.000000, 64.000000) scale(-1, 1) translate(-197.000000, -64.000000) " cx="197" cy="64" r="20"></circle>
                    <circle id="Head" fill="#000000" cx="141" cy="79" r="36"></circle>
                </g>
                <g id="Rig" transform="translate(70.000000, 109.000000)" fill="#000000">
                    <polygon id="Left-Leg-Strap" points="8.99804688 141.425781 52.8134766 171.421875 43.7158203 188.182617 0.639648438 159.78418"></polygon>
                    <polygon id="Left-Leg-Harness" points="30.8144531 132.661133 11.3427734 132.661133 12.638052 122.413937 28.1416016 115.120117"></polygon>
                    <polygon id="Right-Leg-Strap" transform="translate(115.086914, 164.378418) scale(-1, 1) translate(-115.086914, -164.378418) " points="97.3583984 141 141.173828 170.996094 132.076172 187.756836 89 159.358398"></polygon>
                    <polygon id="Right-Leg-Harness" transform="translate(120.735840, 123.770508) scale(-1, 1) translate(-120.735840, -123.770508) " points="130.47168 132.541016 111 132.541016 112.295279 122.29382 127.798828 115"></polygon>
                    <path d="M110,4 L100,0 L94,9 C94,9 82.5,14 71,14 C59.5,14 48,9 48,9 L42,0 L32,4 L34,17 C34,17 26,74 26,124 C26,131 32,136 36,136 C40,136 42,136 44,141 C46,146 96,146 98,141 C100,136 102,136 106,136 C110,136 116,131 116,124 C116,74 108,17 108,17 L110,4 Z"></path>
                </g>
            </g>
            <g id="Inside-Center" transform="translate(410.000000, 731.416306) rotate(-90.000000) translate(-410.000000, -731.416306) translate(269.000000, 532.416306)">
                <g id="Skydiver">
                    <path d="M235,11.5 C236.756509,11.5 238.388771,12.0324107 239.743538,12.9454828 C241.158881,13.899381 242.272108,15.2675858 242.908235,16.8766584 L242.908235,16.8766584 L278.25554,84.6857921 C279.682737,87.1270995 280.5,89.9681507 280.5,93 C280.5,96.096103 279.647695,98.9932279 278.163982,101.468882 C276.619543,104.045862 274.391991,106.166573 271.731513,107.580534 L271.731513,107.580534 L198.327476,153.460659 C196.805471,154.333141 195.177492,155.045128 193.463572,155.558211 C193.126454,155.659131 192.787885,155.751795 192.448254,155.837206 C192.427637,156.237378 192.410124,156.601139 192.395302,156.927055 C191.946416,166.797307 190.803964,211.458531 204.062108,252.269762 L204.062108,252.269762 L256.473052,364.647235 C257.774154,367.496079 258.5,370.66329 258.5,374 C258.5,380.213203 255.981602,385.838203 251.909903,389.909903 C247.838203,393.981602 242.213203,396.5 236,396.5 C231.586892,396.5 227.470336,395.229899 223.996606,393.034402 C220.395983,390.758705 217.485461,387.489866 215.650471,383.612522 L215.650471,383.612522 L156.316185,274.70816 C155.641012,273.593434 155.045692,272.424946 154.538193,271.210615 C154.177661,270.535286 153.886935,269.948725 153.581737,269.334054 C152.340523,266.834238 150.855677,263.945092 148.388678,261.969178 C146.554013,260.499723 144.194286,259.5 141,259.5 C138.191277,259.5 135.762224,260.652887 133.757428,262.297003 C130.898469,264.641612 128.937461,267.984047 127.975232,269.910791 C127.315994,271.694788 126.56844,273.247625 125.683815,274.70816 L125.683815,274.70816 L66.3495294,383.612522 C64.5145392,387.489866 61.6040175,390.758705 58.0033943,393.034402 C54.5296642,395.229899 50.4131078,396.5 46,396.5 C39.7867966,396.5 34.1617966,393.981602 30.0900974,389.909903 C26.0183983,385.838203 23.5,380.213203 23.5,374 C23.5,370.661647 24.2265628,367.492955 25.5267035,364.6534 L25.5267035,364.6534 L77.7516386,252.664235 C88.578922,219.369466 89.4404209,167.643485 89.4975777,156.966024 C89.4994111,156.623531 89.5008691,156.238797 89.50146,155.816017 C89.1433135,155.727326 88.786525,155.62939 88.4314432,155.522104 C86.7572966,155.016273 85.1666395,154.316375 83.683847,153.451766 L83.683847,153.451766 L10.268386,107.58048 C7.6079524,106.166519 5.38043782,104.04583 3.83601824,101.468882 C2.35230544,98.9932279 1.5,96.096103 1.5,93 C1.5,89.9681507 2.31726343,87.1270995 3.74446048,84.6857921 L3.74446048,84.6857921 L39.0917651,16.8766584 C39.727892,15.2675858 40.8411191,13.899381 42.2564619,12.9454828 C43.6112292,12.0324107 45.2434906,11.5 47,11.5 C49.3472102,11.5 51.4722102,12.4513949 53.0104076,13.9895924 C54.5486051,15.5277898 55.5,17.6527898 55.5,20 C55.5,20.9612036 55.340845,21.8852304 55.0467839,22.7469132 L55.0467839,22.7469132 L37.6567855,83.8025689 L101.384221,112.378309 C107.37723,111.885153 110.857469,110.171667 112.898157,108.225276 C114.351188,106.839387 115.117167,105.306272 115.496993,103.878368 C115.828053,102.633793 115.859653,101.468105 115.789451,100.546987 L115.789451,100.546987 L166.211825,100.50161 C166.134943,101.428616 166.158227,102.605634 166.483122,103.863366 C166.855506,105.304941 167.616367,106.85315 169.071075,108.248448 C171.109744,110.203857 174.595898,111.91763 180.617681,112.377315 L180.617681,112.377315 L244.342195,83.8025721 L226.95322,22.7469237 C226.659156,21.885238 226.5,20.9612075 226.5,20 C226.5,17.6527898 227.451395,15.5277898 228.989592,13.9895924 C230.52779,12.4513949 232.65279,11.5 235,11.5 L235,11.5 Z" id="Body" stroke="#000000" stroke-width="3" fill="#0065FF"></path>
                    <ellipse id="Left-Foot" fill="#000000" transform="translate(54.005375, 358.997435) rotate(25.000000) translate(-54.005375, -358.997435) " cx="54.0053746" cy="358.997435" rx="12.6191219" ry="25.007358"></ellipse>
                    <ellipse id="Right-Foot" fill="#000000" transform="translate(228.005375, 358.997435) scale(-1, 1) rotate(25.000000) translate(-228.005375, -358.997435) " cx="228.005375" cy="358.997435" rx="12.6191219" ry="25.007358"></ellipse>
                    <circle id="Left-Hand" fill="#000000" cx="47" cy="20" r="20"></circle>
                    <circle id="Right-Hand" fill="#000000" transform="translate(235.000000, 20.000000) scale(-1, 1) translate(-235.000000, -20.000000) " cx="235" cy="20" r="20"></circle>
                    <circle id="Head" fill="#000000" cx="141" cy="79" r="36"></circle>
                </g>
                <g id="Rig" transform="translate(70.000000, 109.000000)" fill="#000000">
                    <polygon id="Left-Leg-Strap" points="8.99804688 141.425781 52.8134766 171.421875 43.7158203 188.182617 0.639648438 159.78418"></polygon>
                    <polygon id="Left-Leg-Harness" points="30.8144531 132.661133 11.3427734 132.661133 12.638052 122.413937 28.1416016 115.120117"></polygon>
                    <polygon id="Right-Leg-Strap" transform="translate(115.086914, 164.378418) scale(-1, 1) translate(-115.086914, -164.378418) " points="97.3583984 141 141.173828 170.996094 132.076172 187.756836 89 159.358398"></polygon>
                    <polygon id="Right-Leg-Harness" transform="translate(120.735840, 123.770508) scale(-1, 1) translate(-120.735840, -123.770508) " points="130.47168 132.541016 111 132.541016 112.295279 122.29382 127.798828 115"></polygon>
                    <path d="M110,4 L100,0 L94,9 C94,9 82.5,14 71,14 C59.5,14 48,9 48,9 L42,0 L32,4 L34,17 C34,17 26,74 26,124 C26,131 32,136 36,136 C40,136 42,136 44,141 C46,146 96,146 98,141 C100,136 102,136 106,136 C110,136 116,131 116,124 C116,74 108,17 108,17 L110,4 Z"></path>
                </g>
            </g>
        </g>
    </g>
</svg>